G04 PROTEUS GERBER X2 FILE*
%TF.GenerationSoftware,Labcenter,Proteus,9.0-SP2-Build40482*%
%TF.CreationDate,2026-07-08T18:28:13+00:00*%
%TF.FileFunction,Plated,1,4,PTH*%
%TF.FilePolarity,Positive*%
%TF.Part,Single*%
%TF.SameCoordinates,{38e45bcf-27c9-428b-ab03-4ea6ddb0ec44}*%
%FSLAX45Y45*%
%MOMM*%
G01*
%TA.AperFunction,ViaDrill*%
%ADD205C,0.381000*%
%TA.AperFunction,ComponentDrill*%
%ADD206C,1.193800*%
%TA.AperFunction,ComponentDrill*%
%ADD207C,0.177800*%
%TA.AperFunction,ComponentDrill*%
%ADD208C,0.584200*%
%TD.AperFunction*%
D205*
X-13411200Y+7655560D03*
X-10505440Y+8829040D03*
X-11511280Y+9890760D03*
X-13243560Y+9611360D03*
X-11343640Y+9890760D03*
X-11790680Y+9387840D03*
X-12125960Y+9723120D03*
X-12014200Y+9443720D03*
X-10617200Y+9890760D03*
X-13299440Y+6370320D03*
X-12237720Y+6985000D03*
X-12405360Y+9276080D03*
X-13131800Y+9108440D03*
X-12181840Y+10281920D03*
X-11008360Y+10114280D03*
X-10393680Y+10952480D03*
X-12237720Y+10673080D03*
X-12237720Y+10393680D03*
X-11623040Y+10114280D03*
X-11846560Y+10114280D03*
X-9890760Y+10617200D03*
X-11120120Y+11008360D03*
X-10784840Y+11008360D03*
X-9555480Y+10896600D03*
X-11511280Y+10449560D03*
X-9890760Y+10393680D03*
X-11623040Y+9946640D03*
X-9946640Y+9890760D03*
X-11902440Y+9890760D03*
X-11008360Y+10393680D03*
X-9443720Y+10337800D03*
X-10337800Y+10281920D03*
X-10896600Y+11120120D03*
X-9667240Y+10617200D03*
X-14025880Y+8829040D03*
X-11231880Y+8661400D03*
X-10617200Y+11343640D03*
X-10337800Y+6705600D03*
X-11008360Y+6705600D03*
X-10896600Y+6705600D03*
X-10840720Y+6482080D03*
X-11120120Y+6258560D03*
X-10896600Y+11231880D03*
X-13914120Y+10281920D03*
X-13914120Y+8326120D03*
X-11790680Y+6873240D03*
X-13131800Y+9611360D03*
X-13020040Y+7487920D03*
X-9220200Y+8996680D03*
X-11120120Y+7711440D03*
X-10114280Y+10617200D03*
X-13020040Y+7264400D03*
X-13746480Y+9890760D03*
X-13858240Y+8996680D03*
X-13858240Y+9499600D03*
X-12740640Y+6985000D03*
X-11958320Y+9555480D03*
X-9946640Y+9443720D03*
X-9779000Y+8717280D03*
X-11231880Y+9387840D03*
X-10728960Y+9387840D03*
X-13020040Y+7655560D03*
X-13355320Y+9387840D03*
X-12237720Y+7152640D03*
X-12628880Y+7879080D03*
X-12405360Y+8326120D03*
X-12908280Y+9220200D03*
X-13020040Y+8270240D03*
X-13020040Y+8493760D03*
X-12237720Y+7767320D03*
X-13187680Y+10673080D03*
X-12573000Y+9890760D03*
X-11678920Y+10449560D03*
X-10114280Y+6370320D03*
X-8996680Y+8102600D03*
X-12014200Y+11008360D03*
X-11231880Y+6482080D03*
X-8382000Y+10393680D03*
X-11734800Y+10617200D03*
X-11287760Y+6873240D03*
X-12014200Y+10114280D03*
X-12573000Y+10002520D03*
X-9667240Y+11399520D03*
X-10281920Y+10952480D03*
X-11511280Y+10002520D03*
X-11623040Y+10673080D03*
X-11008360Y+10505440D03*
X-11064240Y+10673080D03*
X-10281920Y+10673080D03*
X-11902440Y+8940800D03*
X-12852400Y+7879080D03*
X-13299440Y+7376160D03*
X-12908280Y+7543800D03*
X-12237720Y+8940800D03*
X-13020040Y+7152640D03*
X-13020040Y+11064240D03*
X-10617200Y+11455400D03*
X-10840720Y+8940800D03*
X-13802360Y+7376160D03*
X-12237720Y+7990840D03*
X-12293600Y+6482080D03*
X-10281920Y+9164320D03*
X-12461240Y+7208520D03*
X-12405360Y+6761480D03*
X-9164320Y+7152640D03*
X-8884920Y+7990840D03*
X-8829040Y+8326120D03*
X-11399520Y+6761480D03*
X-13243560Y+10952480D03*
X-12349480Y+10449560D03*
X-8549640Y+10728960D03*
X-11343640Y+6258560D03*
X-13634720Y+8382000D03*
X-13020040Y+9276080D03*
X-9220200Y+9779000D03*
X-13411200Y+10393680D03*
X-11176000Y+10114280D03*
X-13411200Y+9611360D03*
X-9834880Y+6370320D03*
X-12405360Y+9164320D03*
X-10728960Y+6314440D03*
X-10840720Y+9890760D03*
X-11343640Y+10728960D03*
X-9220200Y+10226040D03*
X-12181840Y+6370320D03*
X-13634720Y+7599680D03*
X-10840720Y+10449560D03*
X-12573000Y+7767320D03*
X-11399520Y+10114280D03*
X-12573000Y+7655560D03*
X-12349480Y+10561320D03*
X-11287760Y+10114280D03*
X-9276080Y+7990840D03*
X-9276080Y+8270240D03*
X-13020040Y+9723120D03*
X-13858240Y+5979160D03*
X-13522960Y+6873240D03*
X-13411200Y+9723120D03*
X-13411200Y+10002520D03*
X-13858240Y+6761480D03*
X-12349480Y+7767320D03*
X-8605520Y+8661400D03*
X-8605520Y+10505440D03*
X-8605520Y+9052560D03*
X-8605520Y+10058400D03*
X-8549640Y+9667240D03*
X-10840720Y+10561320D03*
X-12237720Y+8605520D03*
X-12237720Y+7879080D03*
X-9331960Y+10896600D03*
X-11678920Y+9723120D03*
X-12908280Y+6146800D03*
X-12237720Y+8270240D03*
X-12461240Y+7655560D03*
X-11902440Y+6873240D03*
X-11902440Y+8158480D03*
X-9779000Y+11399520D03*
X-9555480Y+9611360D03*
X-9890760Y+11399520D03*
X-9667240Y+9276080D03*
X-11790680Y+8493760D03*
X-13020040Y+8717280D03*
X-12684760Y+8493760D03*
X-12517120Y+8214360D03*
X-12517120Y+8717280D03*
X-11902440Y+8661400D03*
X-12517120Y+7934960D03*
X-11902440Y+8437880D03*
X-12237720Y+8382000D03*
X-12796520Y+8717280D03*
X-12237720Y+8493760D03*
X-12740640Y+8829040D03*
X-11902440Y+9387840D03*
X-12908280Y+9890760D03*
X-12908280Y+9108440D03*
X-11902440Y+9052560D03*
X-12684760Y+9276080D03*
X-12796520Y+9499600D03*
X-13020040Y+8940800D03*
X-9667240Y+8996680D03*
X-9555480Y+8884920D03*
X-10505440Y+8102600D03*
X-11678920Y+6258560D03*
X-11790680Y+6482080D03*
X-11790680Y+6761480D03*
X-11511280Y+11399520D03*
X-12181840Y+9443720D03*
X-14137640Y+8493760D03*
X-9052560Y+7152640D03*
X-10226040Y+10505440D03*
X-10393680Y+10840720D03*
X-9890760Y+6705600D03*
X-10114280Y+8884920D03*
X-9779000Y+9108440D03*
X-9667240Y+9723120D03*
X-11902440Y+7823200D03*
X-13411200Y+6537960D03*
X-13411200Y+6761480D03*
X-11157237Y+6000000D03*
X-12500000Y+6500000D03*
X-12136939Y+6135821D03*
X-11902440Y+7712736D03*
X-11772591Y+7046827D03*
X-12170119Y+6904684D03*
X-12084394Y+7607697D03*
X-10337191Y+5869237D03*
X-11394669Y+7264400D03*
X-12074455Y+7376160D03*
X-12206437Y+7369928D03*
X-11878237Y+7580654D03*
X-11942473Y+7423024D03*
X-9715368Y+6642769D03*
X-11161827Y+6839561D03*
X-10849403Y+6871735D03*
X-10692307Y+6895926D03*
X-10984409Y+6839561D03*
X-11454186Y+6946481D03*
X-11333750Y+7145306D03*
X-11502495Y+7797938D03*
X-11675671Y+7995946D03*
X-11435351Y+7127034D03*
X-11502829Y+7573775D03*
X-8363333Y+6504167D03*
X-10046033Y+7493918D03*
X-11221719Y+7777481D03*
X-9087707Y+6670453D03*
X-9506807Y+7089553D03*
X-8851423Y+6620959D03*
X-9665942Y+7489218D03*
X-11338020Y+7563252D03*
X-8344292Y+7009949D03*
X-8940800Y+7113991D03*
X-9148788Y+7006705D03*
X-10960424Y+7114599D03*
X-10560325Y+6848859D03*
X-9983640Y+6895926D03*
X-11004839Y+7711440D03*
X-10881699Y+7566414D03*
X-11086474Y+7606426D03*
X-9194547Y+8102369D03*
X-9278720Y+7764680D03*
X-8967257Y+7626137D03*
X-11092406Y+7111335D03*
X-10957980Y+6944616D03*
X-9086249Y+7382264D03*
X-9645246Y+7382264D03*
X-10206680Y+7254773D03*
X-10749298Y+7590104D03*
X-10640411Y+7585477D03*
X-13650810Y+7376160D03*
X-8499521Y+8180375D03*
X-10674264Y+7755460D03*
X-10372148Y+7571512D03*
X-10505440Y+7588538D03*
X-10240166Y+7568365D03*
X-8485000Y+8935000D03*
X-9663262Y+7763342D03*
X-9280357Y+8498037D03*
X-9740000Y+7615000D03*
X-8318035Y+9537797D03*
X-9248783Y+8801743D03*
X-8707121Y+9092700D03*
X-9754345Y+8396310D03*
X-10123369Y+7951095D03*
X-10207761Y+8010388D03*
X-9677026Y+7976972D03*
X-9688304Y+8280000D03*
X-10063259Y+7881889D03*
X-10143221Y+7763185D03*
X-10240066Y+7673382D03*
X-8605520Y+7264400D03*
X-9276080Y+7487920D03*
X-11210030Y+9721315D03*
X-11455400Y+9346839D03*
X-11587225Y+9367775D03*
X-11339100Y+9387840D03*
X-11471082Y+9438280D03*
D206*
X-14377000Y+6000000D03*
X-14123000Y+6000000D03*
D207*
X-12000000Y+10594996D03*
X-11942000Y+10500000D03*
X-12058000Y+10500000D03*
X-12000000Y+10405004D03*
X-11250000Y+10500000D03*
X-11308000Y+10558000D03*
X-11192000Y+10558000D03*
X-11192000Y+10442000D03*
X-11308000Y+10442000D03*
X-10500000Y+10594996D03*
X-10558000Y+10500000D03*
X-10442000Y+10500000D03*
X-10500000Y+10405004D03*
D208*
X-11452000Y+6550000D03*
X-10548000Y+6550000D03*
X-11452000Y+6250000D03*
X-10548000Y+6250000D03*
M02*
