G04 PROTEUS GERBER X2 FILE*
%TF.GenerationSoftware,Labcenter,Proteus,9.0-SP2-Build40482*%
%TF.CreationDate,2026-07-08T18:28:13+00:00*%
%TF.FileFunction,Legend,Bot*%
%TF.FilePolarity,Positive*%
%TF.Part,Single*%
%TF.SameCoordinates,{38e45bcf-27c9-428b-ab03-4ea6ddb0ec44}*%
%FSLAX45Y45*%
%MOMM*%
G01*
%TA.AperFunction,Material*%
%ADD68C,0.127000*%
%ADD69C,0.250000*%
%TA.AperFunction,Profile*%
%ADD63C,0.101600*%
%TD.AperFunction*%
D68*
X-12840000Y+6130000D02*
X-13010000Y+6130000D01*
X-12710000Y+5870000D02*
X-13290000Y+5870000D01*
X-12665000Y+5970000D02*
X-12665000Y+6030000D01*
X-13335000Y+6030000D02*
X-13335000Y+5970000D01*
D69*
X-12670000Y+6250000D02*
X-12670035Y+6250831D01*
X-12670316Y+6252495D01*
X-12670906Y+6254159D01*
X-12671870Y+6255823D01*
X-12673345Y+6257464D01*
X-12675009Y+6258665D01*
X-12676673Y+6259430D01*
X-12678337Y+6259861D01*
X-12680000Y+6260000D01*
X-12690000Y+6250000D02*
X-12689965Y+6250831D01*
X-12689684Y+6252495D01*
X-12689094Y+6254159D01*
X-12688130Y+6255823D01*
X-12686655Y+6257464D01*
X-12684991Y+6258665D01*
X-12683327Y+6259430D01*
X-12681663Y+6259861D01*
X-12680000Y+6260000D01*
X-12690000Y+6250000D02*
X-12689965Y+6249169D01*
X-12689684Y+6247505D01*
X-12689094Y+6245841D01*
X-12688130Y+6244177D01*
X-12686655Y+6242536D01*
X-12684991Y+6241335D01*
X-12683327Y+6240570D01*
X-12681663Y+6240139D01*
X-12680000Y+6240000D01*
X-12670000Y+6250000D02*
X-12670035Y+6249169D01*
X-12670316Y+6247505D01*
X-12670906Y+6245841D01*
X-12671870Y+6244177D01*
X-12673345Y+6242536D01*
X-12675009Y+6241335D01*
X-12676673Y+6240570D01*
X-12678337Y+6240139D01*
X-12680000Y+6240000D01*
%TATrueTypeText,|||U2|||,|||Arial Narrow|||,127000,-13000000,6336000,20490,MIR_X,0,*%
%TA.AperFunction,NonConductor*%
G36*
X-12991994Y+6373468D02*
X-12999834Y+6373468D01*
X-12999834Y+6325051D01*
X-12999160Y+6319329D01*
X-12996465Y+6310416D01*
X-12994002Y+6306894D01*
X-12986850Y+6301722D01*
X-12982311Y+6300430D01*
X-12968996Y+6300430D01*
X-12963164Y+6302754D01*
X-12955461Y+6312052D01*
X-12953536Y+6320264D01*
X-12953536Y+6373468D01*
X-12961293Y+6373468D01*
X-12961293Y+6325546D01*
X-12961802Y+6320842D01*
X-12963838Y+6315010D01*
X-12965502Y+6312795D01*
X-12970124Y+6309769D01*
X-12972930Y+6309013D01*
X-12981733Y+6309013D01*
X-12985736Y+6310581D01*
X-12990742Y+6316853D01*
X-12991994Y+6322960D01*
X-12991994Y+6373468D01*
X-12991994Y+6373468D01*
G37*
%TD.AperFunction*%
%TA.AperFunction,NonConductor*%
G36*
X-13046711Y+6310168D02*
X-13046711Y+6301667D01*
X-13007757Y+6301667D01*
X-13007647Y+6305079D01*
X-13008679Y+6308916D01*
X-13013025Y+6317444D01*
X-13017000Y+6322465D01*
X-13022777Y+6328242D01*
X-13029545Y+6334954D01*
X-13033974Y+6340153D01*
X-13038155Y+6347526D01*
X-13039201Y+6350965D01*
X-13039201Y+6357787D01*
X-13038128Y+6360758D01*
X-13033836Y+6365380D01*
X-13031195Y+6366535D01*
X-13024703Y+6366535D01*
X-13021952Y+6365297D01*
X-13017661Y+6360346D01*
X-13016588Y+6356769D01*
X-13016588Y+6352093D01*
X-13009078Y+6353000D01*
X-13009628Y+6359933D01*
X-13011595Y+6365132D01*
X-13014979Y+6368598D01*
X-13018362Y+6372065D01*
X-13022805Y+6373798D01*
X-13034304Y+6373798D01*
X-13038857Y+6371776D01*
X-13045074Y+6363688D01*
X-13046628Y+6359080D01*
X-13046628Y+6349342D01*
X-13045418Y+6344954D01*
X-13040576Y+6336536D01*
X-13035982Y+6330938D01*
X-13029215Y+6323950D01*
X-13024868Y+6319549D01*
X-13022076Y+6316550D01*
X-13019600Y+6313359D01*
X-13018569Y+6311763D01*
X-13017743Y+6310168D01*
X-13046711Y+6310168D01*
X-13046711Y+6310168D01*
G37*
%TD.AperFunction*%
%TDTrueTypeText*%
D63*
X-14750000Y+11250000D02*
X-14747418Y+11301115D01*
X-14739840Y+11350755D01*
X-14727518Y+11398669D01*
X-14710702Y+11444605D01*
X-14689644Y+11488311D01*
X-14664597Y+11529536D01*
X-14635811Y+11568029D01*
X-14603538Y+11603538D01*
X-14568029Y+11635811D01*
X-14529536Y+11664597D01*
X-14488311Y+11689644D01*
X-14444605Y+11710702D01*
X-14398669Y+11727517D01*
X-14350755Y+11739840D01*
X-14301115Y+11747418D01*
X-14250000Y+11750000D01*
X-8500000Y+11750000D02*
X-8448885Y+11747418D01*
X-8399245Y+11739840D01*
X-8351331Y+11727517D01*
X-8305395Y+11710702D01*
X-8261689Y+11689644D01*
X-8220464Y+11664597D01*
X-8181971Y+11635811D01*
X-8146463Y+11603538D01*
X-8114190Y+11568029D01*
X-8085404Y+11529536D01*
X-8060356Y+11488311D01*
X-8039299Y+11444605D01*
X-8022483Y+11398669D01*
X-8010160Y+11350755D01*
X-8002582Y+11301115D01*
X-8000000Y+11250000D01*
X-8000000Y+6000000D02*
X-8002582Y+5948885D01*
X-8010160Y+5899245D01*
X-8022483Y+5851331D01*
X-8039299Y+5805395D01*
X-8060356Y+5761689D01*
X-8085404Y+5720464D01*
X-8114190Y+5681971D01*
X-8146463Y+5646463D01*
X-8181971Y+5614189D01*
X-8220464Y+5585403D01*
X-8261689Y+5560356D01*
X-8305395Y+5539298D01*
X-8351331Y+5522483D01*
X-8399245Y+5510160D01*
X-8448885Y+5502582D01*
X-8500000Y+5500000D01*
X-14250000Y+5500000D02*
X-14301115Y+5502582D01*
X-14350755Y+5510160D01*
X-14398669Y+5522483D01*
X-14444605Y+5539298D01*
X-14488311Y+5560356D01*
X-14529536Y+5585403D01*
X-14568029Y+5614189D01*
X-14603538Y+5646463D01*
X-14635811Y+5681971D01*
X-14664597Y+5720464D01*
X-14689644Y+5761689D01*
X-14710702Y+5805395D01*
X-14727518Y+5851331D01*
X-14739840Y+5899245D01*
X-14747418Y+5948885D01*
X-14750000Y+6000000D01*
X-14250000Y+11750000D02*
X-8500000Y+11750000D01*
X-8000000Y+11250000D02*
X-8000000Y+6000000D01*
X-8500000Y+5500000D02*
X-14250000Y+5500000D01*
X-14750000Y+6000000D02*
X-14750000Y+11250000D01*
%TATrueTypeText,|||UART5_TX|||,|||Default Font|||,254000,-9000000,9750000,4106,MIR_X,0,B,*%
%TA.AperFunction,NonConductor*%
G36*
X-8583888Y+9824936D02*
X-8607657Y+9824936D01*
X-8607657Y+9735089D01*
X-8607932Y+9727222D01*
X-8608482Y+9723590D01*
X-8609582Y+9717208D01*
X-8612113Y+9712284D01*
X-8616075Y+9708818D01*
X-8620036Y+9705351D01*
X-8625208Y+9703618D01*
X-8637092Y+9703618D01*
X-8641576Y+9704856D01*
X-8648509Y+9709808D01*
X-8650874Y+9713219D01*
X-8653405Y+9721912D01*
X-8654038Y+9731238D01*
X-8654038Y+9824936D01*
X-8677971Y+9824936D01*
X-8677971Y+9730248D01*
X-8676926Y+9716328D01*
X-8672745Y+9699162D01*
X-8668095Y+9692202D01*
X-8653680Y+9681528D01*
X-8644190Y+9678860D01*
X-8620091Y+9678860D01*
X-8610490Y+9681060D01*
X-8603613Y+9685462D01*
X-8596735Y+9689863D01*
X-8591729Y+9696081D01*
X-8585456Y+9712146D01*
X-8583888Y+9726891D01*
X-8583888Y+9824936D01*
X-8583888Y+9824936D01*
G37*
%TD.AperFunction*%
%TA.AperFunction,NonConductor*%
G36*
X-8806552Y+9681335D02*
X-8780637Y+9681335D01*
X-8770404Y+9713852D01*
X-8723362Y+9713852D01*
X-8713624Y+9681335D01*
X-8688370Y+9681335D01*
X-8734256Y+9824936D01*
X-8759345Y+9824936D01*
X-8806552Y+9681335D01*
X-8806552Y+9681335D01*
G37*
%LPC*%
G36*
X-8762811Y+9738115D02*
X-8746636Y+9791429D01*
X-8730625Y+9738115D01*
X-8762811Y+9738115D01*
X-8762811Y+9738115D01*
G37*
%LPD*%
%TD.AperFunction*%
%TA.AperFunction,NonConductor*%
G36*
X-8816620Y+9681335D02*
X-8816620Y+9824936D01*
X-8879507Y+9824936D01*
X-8888695Y+9823670D01*
X-8899699Y+9818609D01*
X-8904211Y+9814152D01*
X-8911253Y+9801388D01*
X-8913014Y+9793740D01*
X-8913014Y+9773603D01*
X-8910318Y+9764552D01*
X-8899534Y+9750797D01*
X-8891832Y+9746478D01*
X-8881818Y+9744718D01*
X-8886990Y+9741086D01*
X-8891226Y+9737097D01*
X-8897829Y+9728404D01*
X-8902395Y+9720619D01*
X-8908227Y+9709395D01*
X-8922422Y+9681335D01*
X-8894197Y+9681335D01*
X-8876866Y+9712531D01*
X-8870704Y+9723865D01*
X-8866495Y+9730963D01*
X-8861984Y+9736685D01*
X-8859618Y+9738638D01*
X-8854666Y+9740729D01*
X-8850677Y+9741251D01*
X-8840388Y+9741251D01*
X-8840388Y+9681335D01*
X-8816620Y+9681335D01*
X-8816620Y+9681335D01*
G37*
%LPC*%
G36*
X-8840388Y+9764194D02*
X-8868833Y+9764194D01*
X-8875683Y+9764690D01*
X-8881515Y+9766670D01*
X-8883881Y+9768596D01*
X-8887513Y+9774318D01*
X-8888420Y+9778114D01*
X-8888420Y+9787468D01*
X-8887513Y+9791154D01*
X-8883881Y+9796656D01*
X-8881433Y+9798582D01*
X-8878352Y+9799682D01*
X-8876041Y+9800342D01*
X-8869604Y+9800672D01*
X-8840388Y+9800672D01*
X-8840388Y+9764194D01*
X-8840388Y+9764194D01*
G37*
%LPD*%
%TD.AperFunction*%
%TA.AperFunction,NonConductor*%
G36*
X-8959230Y+9681335D02*
X-8959230Y+9800672D01*
X-8924238Y+9800672D01*
X-8924238Y+9824936D01*
X-9017826Y+9824936D01*
X-9017826Y+9800672D01*
X-8982999Y+9800672D01*
X-8982999Y+9681335D01*
X-8959230Y+9681335D01*
X-8959230Y+9681335D01*
G37*
%TD.AperFunction*%
%TA.AperFunction,NonConductor*%
G36*
X-9033836Y+9718308D02*
X-9056284Y+9721279D01*
X-9056834Y+9715007D01*
X-9058760Y+9710055D01*
X-9065362Y+9702793D01*
X-9068939Y+9700977D01*
X-9077522Y+9700977D01*
X-9081538Y+9703288D01*
X-9088140Y+9712531D01*
X-9089791Y+9719574D01*
X-9089791Y+9738060D01*
X-9088140Y+9744718D01*
X-9081538Y+9753301D01*
X-9077357Y+9755446D01*
X-9065803Y+9755446D01*
X-9059971Y+9751980D01*
X-9054799Y+9745048D01*
X-9036477Y+9748349D01*
X-9048031Y+9823120D01*
X-9107782Y+9823120D01*
X-9107782Y+9797206D01*
X-9065197Y+9797206D01*
X-9061566Y+9772943D01*
X-9066628Y+9775914D01*
X-9071800Y+9777399D01*
X-9086325Y+9777399D01*
X-9094193Y+9773768D01*
X-9100685Y+9766505D01*
X-9108828Y+9757152D01*
X-9112899Y+9744828D01*
X-9112899Y+9716988D01*
X-9109433Y+9705406D01*
X-9102500Y+9694788D01*
X-9095568Y+9684169D01*
X-9085610Y+9678860D01*
X-9062171Y+9678860D01*
X-9053451Y+9682271D01*
X-9046463Y+9689093D01*
X-9039476Y+9695916D01*
X-9035267Y+9705654D01*
X-9033836Y+9718308D01*
X-9033836Y+9718308D01*
G37*
%TD.AperFunction*%
%TA.AperFunction,NonConductor*%
G36*
X-9120327Y+9666315D02*
X-9214245Y+9666315D01*
X-9214245Y+9656247D01*
X-9120327Y+9656247D01*
X-9120327Y+9666315D01*
X-9120327Y+9666315D01*
G37*
%TD.AperFunction*%
%TA.AperFunction,NonConductor*%
G36*
X-9255014Y+9681335D02*
X-9255014Y+9800672D01*
X-9220022Y+9800672D01*
X-9220022Y+9824936D01*
X-9313610Y+9824936D01*
X-9313610Y+9800672D01*
X-9278782Y+9800672D01*
X-9278782Y+9681335D01*
X-9255014Y+9681335D01*
X-9255014Y+9681335D01*
G37*
%TD.AperFunction*%
%TA.AperFunction,NonConductor*%
G36*
X-9322358Y+9681335D02*
X-9362962Y+9753136D01*
X-9325989Y+9824936D01*
X-9353884Y+9824936D01*
X-9377157Y+9753136D01*
X-9400595Y+9824936D01*
X-9428160Y+9824936D01*
X-9391187Y+9753136D01*
X-9431791Y+9681335D01*
X-9403071Y+9681335D01*
X-9376992Y+9753136D01*
X-9350748Y+9681335D01*
X-9322358Y+9681335D01*
X-9322358Y+9681335D01*
G37*
%TD.AperFunction*%
%TDTrueTypeText*%
%TATrueTypeText,|||UART5_RX|||,|||Default Font|||,254000,-9000000,9000000,4106,MIR_X,0,B,*%
%TA.AperFunction,NonConductor*%
G36*
X-8578607Y+9074936D02*
X-8602375Y+9074936D01*
X-8602375Y+8985089D01*
X-8602650Y+8977222D01*
X-8603200Y+8973590D01*
X-8604301Y+8967208D01*
X-8606831Y+8962284D01*
X-8610793Y+8958818D01*
X-8614754Y+8955351D01*
X-8619926Y+8953618D01*
X-8631810Y+8953618D01*
X-8636294Y+8954856D01*
X-8643227Y+8959808D01*
X-8645593Y+8963219D01*
X-8648123Y+8971912D01*
X-8648756Y+8981238D01*
X-8648756Y+9074936D01*
X-8672690Y+9074936D01*
X-8672690Y+8980248D01*
X-8671644Y+8966328D01*
X-8667463Y+8949162D01*
X-8662814Y+8942202D01*
X-8648399Y+8931528D01*
X-8638908Y+8928860D01*
X-8614809Y+8928860D01*
X-8605208Y+8931060D01*
X-8591454Y+8939863D01*
X-8586447Y+8946081D01*
X-8580175Y+8962146D01*
X-8578607Y+8976891D01*
X-8578607Y+9074936D01*
X-8578607Y+9074936D01*
G37*
%TD.AperFunction*%
%TA.AperFunction,NonConductor*%
G36*
X-8801270Y+8931335D02*
X-8775356Y+8931335D01*
X-8765122Y+8963852D01*
X-8718081Y+8963852D01*
X-8708342Y+8931335D01*
X-8683088Y+8931335D01*
X-8728974Y+9074936D01*
X-8754063Y+9074936D01*
X-8801270Y+8931335D01*
X-8801270Y+8931335D01*
G37*
%LPC*%
G36*
X-8757529Y+8988115D02*
X-8741354Y+9041429D01*
X-8725343Y+8988115D01*
X-8757529Y+8988115D01*
X-8757529Y+8988115D01*
G37*
%LPD*%
%TD.AperFunction*%
%TA.AperFunction,NonConductor*%
G36*
X-8811338Y+8931335D02*
X-8811338Y+9074936D01*
X-8874225Y+9074936D01*
X-8883414Y+9073670D01*
X-8888915Y+9071139D01*
X-8894417Y+9068609D01*
X-8898929Y+9064152D01*
X-8905971Y+9051388D01*
X-8907732Y+9043740D01*
X-8907732Y+9023603D01*
X-8905036Y+9014552D01*
X-8894252Y+9000797D01*
X-8886550Y+8996478D01*
X-8876536Y+8994718D01*
X-8881708Y+8991086D01*
X-8885944Y+8987097D01*
X-8889246Y+8982751D01*
X-8892547Y+8978404D01*
X-8897113Y+8970619D01*
X-8902945Y+8959395D01*
X-8917140Y+8931335D01*
X-8888915Y+8931335D01*
X-8871584Y+8962531D01*
X-8865422Y+8973865D01*
X-8861213Y+8980963D01*
X-8856702Y+8986685D01*
X-8854336Y+8988638D01*
X-8849384Y+8990729D01*
X-8845395Y+8991251D01*
X-8835107Y+8991251D01*
X-8835107Y+8931335D01*
X-8811338Y+8931335D01*
X-8811338Y+8931335D01*
G37*
%LPC*%
G36*
X-8835107Y+9014194D02*
X-8863552Y+9014194D01*
X-8870401Y+9014690D01*
X-8876234Y+9016670D01*
X-8878599Y+9018596D01*
X-8882231Y+9024318D01*
X-8883138Y+9028114D01*
X-8883138Y+9037468D01*
X-8882231Y+9041154D01*
X-8878599Y+9046656D01*
X-8876151Y+9048582D01*
X-8873070Y+9049682D01*
X-8870759Y+9050342D01*
X-8864322Y+9050672D01*
X-8835107Y+9050672D01*
X-8835107Y+9014194D01*
X-8835107Y+9014194D01*
G37*
%LPD*%
%TD.AperFunction*%
%TA.AperFunction,NonConductor*%
G36*
X-8953948Y+8931335D02*
X-8953948Y+9050672D01*
X-8918956Y+9050672D01*
X-8918956Y+9074936D01*
X-9012544Y+9074936D01*
X-9012544Y+9050672D01*
X-8977717Y+9050672D01*
X-8977717Y+8931335D01*
X-8953948Y+8931335D01*
X-8953948Y+8931335D01*
G37*
%TD.AperFunction*%
%TA.AperFunction,NonConductor*%
G36*
X-9028555Y+8968308D02*
X-9051002Y+8971279D01*
X-9051553Y+8965007D01*
X-9053478Y+8960055D01*
X-9060081Y+8952793D01*
X-9063657Y+8950977D01*
X-9072240Y+8950977D01*
X-9076256Y+8953288D01*
X-9079557Y+8957910D01*
X-9082859Y+8962531D01*
X-9084509Y+8969574D01*
X-9084509Y+8988060D01*
X-9082859Y+8994718D01*
X-9079557Y+8999009D01*
X-9076256Y+9003301D01*
X-9072075Y+9005446D01*
X-9060521Y+9005446D01*
X-9054689Y+9001980D01*
X-9049517Y+8995048D01*
X-9031195Y+8998349D01*
X-9042750Y+9073120D01*
X-9102500Y+9073120D01*
X-9102500Y+9047206D01*
X-9059916Y+9047206D01*
X-9056284Y+9022943D01*
X-9061346Y+9025914D01*
X-9066518Y+9027399D01*
X-9081043Y+9027399D01*
X-9088911Y+9023768D01*
X-9095403Y+9016505D01*
X-9103546Y+9007152D01*
X-9107617Y+8994828D01*
X-9107617Y+8966988D01*
X-9104151Y+8955406D01*
X-9090286Y+8934169D01*
X-9080328Y+8928860D01*
X-9056889Y+8928860D01*
X-9048169Y+8932271D01*
X-9041181Y+8939093D01*
X-9034194Y+8945916D01*
X-9029985Y+8955654D01*
X-9028555Y+8968308D01*
X-9028555Y+8968308D01*
G37*
%TD.AperFunction*%
%TA.AperFunction,NonConductor*%
G36*
X-9115045Y+8916315D02*
X-9208963Y+8916315D01*
X-9208963Y+8906247D01*
X-9115045Y+8906247D01*
X-9115045Y+8916315D01*
X-9115045Y+8916315D01*
G37*
%TD.AperFunction*%
%TA.AperFunction,NonConductor*%
G36*
X-9223323Y+8931335D02*
X-9223323Y+9074936D01*
X-9286210Y+9074936D01*
X-9295398Y+9073670D01*
X-9306402Y+9068609D01*
X-9310914Y+9064152D01*
X-9317956Y+9051388D01*
X-9319717Y+9043740D01*
X-9319717Y+9023603D01*
X-9317021Y+9014552D01*
X-9306237Y+9000797D01*
X-9298534Y+8996478D01*
X-9288521Y+8994718D01*
X-9293693Y+8991086D01*
X-9297929Y+8987097D01*
X-9304531Y+8978404D01*
X-9309098Y+8970619D01*
X-9314930Y+8959395D01*
X-9329125Y+8931335D01*
X-9300900Y+8931335D01*
X-9283569Y+8962531D01*
X-9277407Y+8973865D01*
X-9273198Y+8980963D01*
X-9268686Y+8986685D01*
X-9266321Y+8988638D01*
X-9261369Y+8990729D01*
X-9257380Y+8991251D01*
X-9247091Y+8991251D01*
X-9247091Y+8931335D01*
X-9223323Y+8931335D01*
X-9223323Y+8931335D01*
G37*
%LPC*%
G36*
X-9247091Y+9014194D02*
X-9275536Y+9014194D01*
X-9282386Y+9014690D01*
X-9288218Y+9016670D01*
X-9290584Y+9018596D01*
X-9294215Y+9024318D01*
X-9295123Y+9028114D01*
X-9295123Y+9037468D01*
X-9294215Y+9041154D01*
X-9290584Y+9046656D01*
X-9288136Y+9048582D01*
X-9285055Y+9049682D01*
X-9282744Y+9050342D01*
X-9276307Y+9050672D01*
X-9247091Y+9050672D01*
X-9247091Y+9014194D01*
X-9247091Y+9014194D01*
G37*
%LPD*%
%TD.AperFunction*%
%TA.AperFunction,NonConductor*%
G36*
X-9327640Y+8931335D02*
X-9368244Y+9003136D01*
X-9331271Y+9074936D01*
X-9359166Y+9074936D01*
X-9382439Y+9003136D01*
X-9405877Y+9074936D01*
X-9433442Y+9074936D01*
X-9396469Y+9003136D01*
X-9437073Y+8931335D01*
X-9408353Y+8931335D01*
X-9382274Y+9003136D01*
X-9356030Y+8931335D01*
X-9327640Y+8931335D01*
X-9327640Y+8931335D01*
G37*
%TD.AperFunction*%
%TDTrueTypeText*%
%TATrueTypeText,|||GPIO_70|||,|||Default Font|||,254000,-9000000,8750000,4106,MIR_X,0,B,*%
%TA.AperFunction,NonConductor*%
G36*
X-8723527Y+8733989D02*
X-8723527Y+8758417D01*
X-8774695Y+8758417D01*
X-8774695Y+8701142D01*
X-8769634Y+8695090D01*
X-8762344Y+8689863D01*
X-8752825Y+8685462D01*
X-8743307Y+8681060D01*
X-8733816Y+8678860D01*
X-8712689Y+8678860D01*
X-8702428Y+8681721D01*
X-8684711Y+8693165D01*
X-8677669Y+8701720D01*
X-8667215Y+8724498D01*
X-8664602Y+8737895D01*
X-8664602Y+8769146D01*
X-8667243Y+8782681D01*
X-8677806Y+8805129D01*
X-8684629Y+8813519D01*
X-8701355Y+8824633D01*
X-8711423Y+8827412D01*
X-8737172Y+8827412D01*
X-8748396Y+8823835D01*
X-8765342Y+8809530D01*
X-8770789Y+8799022D01*
X-8773210Y+8785157D01*
X-8749607Y+8779875D01*
X-8747846Y+8787248D01*
X-8744627Y+8792887D01*
X-8735274Y+8800700D01*
X-8729690Y+8802653D01*
X-8713074Y+8802653D01*
X-8704876Y+8798719D01*
X-8698604Y+8790851D01*
X-8692331Y+8782984D01*
X-8689195Y+8770962D01*
X-8689195Y+8737510D01*
X-8692552Y+8724360D01*
X-8699264Y+8715337D01*
X-8705096Y+8707525D01*
X-8712964Y+8703618D01*
X-8727599Y+8703618D01*
X-8732441Y+8704719D01*
X-8742344Y+8709120D01*
X-8746801Y+8712091D01*
X-8750762Y+8715833D01*
X-8750762Y+8733989D01*
X-8723527Y+8733989D01*
X-8723527Y+8733989D01*
G37*
%TD.AperFunction*%
%TA.AperFunction,NonConductor*%
G36*
X-8795328Y+8681335D02*
X-8795328Y+8824936D01*
X-8847816Y+8824936D01*
X-8857114Y+8824276D01*
X-8861516Y+8822955D01*
X-8868558Y+8820754D01*
X-8874335Y+8816023D01*
X-8883359Y+8801498D01*
X-8885614Y+8792144D01*
X-8885614Y+8770357D01*
X-8883661Y+8761664D01*
X-8879755Y+8754621D01*
X-8875848Y+8747579D01*
X-8870952Y+8742627D01*
X-8859178Y+8736905D01*
X-8849082Y+8735474D01*
X-8819096Y+8735474D01*
X-8819096Y+8681335D01*
X-8795328Y+8681335D01*
X-8795328Y+8681335D01*
G37*
%LPC*%
G36*
X-8819096Y+8800672D02*
X-8819096Y+8759903D01*
X-8841104Y+8759903D01*
X-8847073Y+8760508D01*
X-8850209Y+8761719D01*
X-8853346Y+8762929D01*
X-8855931Y+8765157D01*
X-8860003Y+8771650D01*
X-8861021Y+8775639D01*
X-8861021Y+8785102D01*
X-8859975Y+8789118D01*
X-8855794Y+8795721D01*
X-8853208Y+8797921D01*
X-8847046Y+8800122D01*
X-8840554Y+8800672D01*
X-8819096Y+8800672D01*
X-8819096Y+8800672D01*
G37*
%LPD*%
%TD.AperFunction*%
%TA.AperFunction,NonConductor*%
G36*
X-8900304Y+8681335D02*
X-8900304Y+8824936D01*
X-8924073Y+8824936D01*
X-8924073Y+8681335D01*
X-8900304Y+8681335D01*
X-8900304Y+8681335D01*
G37*
%TD.AperFunction*%
%TA.AperFunction,NonConductor*%
G36*
X-8938598Y+8752310D02*
X-8938598Y+8769366D01*
X-8941129Y+8783451D01*
X-8951252Y+8805679D01*
X-8957855Y+8813932D01*
X-8974140Y+8824716D01*
X-8984044Y+8827412D01*
X-9012544Y+8827412D01*
X-9026271Y+8820974D01*
X-9047509Y+8795225D01*
X-9052818Y+8776904D01*
X-9052818Y+8729147D01*
X-9047206Y+8710386D01*
X-9035982Y+8696851D01*
X-9026079Y+8684857D01*
X-9012709Y+8678860D01*
X-8978817Y+8678860D01*
X-8965337Y+8684802D01*
X-8955434Y+8696686D01*
X-8944210Y+8710221D01*
X-8938598Y+8728762D01*
X-8938598Y+8752310D01*
X-8938598Y+8752310D01*
G37*
%LPC*%
G36*
X-8963027Y+8753301D02*
X-8963027Y+8736795D01*
X-8966163Y+8724388D01*
X-8978707Y+8707772D01*
X-8986520Y+8703618D01*
X-9005226Y+8703618D01*
X-9012957Y+8707717D01*
X-9025171Y+8724113D01*
X-9028224Y+8736740D01*
X-9028224Y+8770412D01*
X-9025253Y+8782708D01*
X-9013369Y+8798664D01*
X-9005556Y+8802653D01*
X-8986190Y+8802653D01*
X-8978294Y+8798637D01*
X-8966080Y+8782571D01*
X-8963027Y+8770137D01*
X-8963027Y+8753301D01*
X-8963027Y+8753301D01*
G37*
%LPD*%
%TD.AperFunction*%
%TA.AperFunction,NonConductor*%
G36*
X-9056944Y+8666315D02*
X-9150862Y+8666315D01*
X-9150862Y+8656247D01*
X-9056944Y+8656247D01*
X-9056944Y+8666315D01*
X-9056944Y+8666315D01*
G37*
%TD.AperFunction*%
%TA.AperFunction,NonConductor*%
G36*
X-9160106Y+8797536D02*
X-9160106Y+8823120D01*
X-9237353Y+8823120D01*
X-9237353Y+8802983D01*
X-9230971Y+8795390D01*
X-9224533Y+8784552D01*
X-9211549Y+8756382D01*
X-9206542Y+8741279D01*
X-9199500Y+8709038D01*
X-9197739Y+8694430D01*
X-9197739Y+8681335D01*
X-9175951Y+8681335D01*
X-9176501Y+8701693D01*
X-9179913Y+8722050D01*
X-9192457Y+8762764D01*
X-9200875Y+8781140D01*
X-9211439Y+8797536D01*
X-9160106Y+8797536D01*
X-9160106Y+8797536D01*
G37*
%TD.AperFunction*%
%TA.AperFunction,NonConductor*%
G36*
X-9293473Y+8825431D02*
X-9304917Y+8825431D01*
X-9314160Y+8820012D01*
X-9328245Y+8798334D01*
X-9331766Y+8779325D01*
X-9331766Y+8725076D01*
X-9328245Y+8706094D01*
X-9314160Y+8684306D01*
X-9304917Y+8678860D01*
X-9282029Y+8678860D01*
X-9272785Y+8684251D01*
X-9258700Y+8705819D01*
X-9255179Y+8724966D01*
X-9255179Y+8779435D01*
X-9258700Y+8798334D01*
X-9272785Y+8820012D01*
X-9282029Y+8825431D01*
X-9293473Y+8825431D01*
X-9293473Y+8825431D01*
G37*
%LPC*%
G36*
X-9293473Y+8802653D02*
X-9288961Y+8802653D01*
X-9285385Y+8799709D01*
X-9280103Y+8787935D01*
X-9278782Y+8774043D01*
X-9278782Y+8730248D01*
X-9280103Y+8716383D01*
X-9285385Y+8704719D01*
X-9288961Y+8701803D01*
X-9297984Y+8701803D01*
X-9301533Y+8704719D01*
X-9306705Y+8716383D01*
X-9307998Y+8730248D01*
X-9307998Y+8774043D01*
X-9306705Y+8787935D01*
X-9301533Y+8799709D01*
X-9297984Y+8802653D01*
X-9293473Y+8802653D01*
X-9293473Y+8802653D01*
G37*
%LPD*%
%TD.AperFunction*%
%TDTrueTypeText*%
%TATrueTypeText,|||GPIO_69|||,|||Default Font|||,254000,-9000000,8250000,4106,MIR_X,0,B,*%
%TA.AperFunction,NonConductor*%
G36*
X-8723527Y+8233989D02*
X-8723527Y+8258417D01*
X-8774695Y+8258417D01*
X-8774695Y+8201142D01*
X-8769634Y+8195090D01*
X-8762344Y+8189863D01*
X-8752825Y+8185462D01*
X-8743307Y+8181060D01*
X-8733816Y+8178860D01*
X-8712689Y+8178860D01*
X-8702428Y+8181721D01*
X-8684711Y+8193165D01*
X-8677669Y+8201720D01*
X-8667215Y+8224498D01*
X-8664602Y+8237895D01*
X-8664602Y+8269146D01*
X-8667243Y+8282681D01*
X-8677806Y+8305129D01*
X-8684629Y+8313519D01*
X-8701355Y+8324633D01*
X-8711423Y+8327412D01*
X-8737172Y+8327412D01*
X-8748396Y+8323835D01*
X-8765342Y+8309530D01*
X-8770789Y+8299022D01*
X-8773210Y+8285157D01*
X-8749607Y+8279875D01*
X-8747846Y+8287248D01*
X-8744627Y+8292887D01*
X-8735274Y+8300700D01*
X-8729690Y+8302653D01*
X-8713074Y+8302653D01*
X-8704876Y+8298719D01*
X-8698604Y+8290851D01*
X-8692331Y+8282984D01*
X-8689195Y+8270962D01*
X-8689195Y+8237510D01*
X-8692552Y+8224360D01*
X-8699264Y+8215337D01*
X-8705096Y+8207525D01*
X-8712964Y+8203618D01*
X-8727599Y+8203618D01*
X-8732441Y+8204719D01*
X-8742344Y+8209120D01*
X-8746801Y+8212091D01*
X-8750762Y+8215833D01*
X-8750762Y+8233989D01*
X-8723527Y+8233989D01*
X-8723527Y+8233989D01*
G37*
%TD.AperFunction*%
%TA.AperFunction,NonConductor*%
G36*
X-8795328Y+8181335D02*
X-8795328Y+8324936D01*
X-8847816Y+8324936D01*
X-8857114Y+8324276D01*
X-8861516Y+8322955D01*
X-8868558Y+8320754D01*
X-8874335Y+8316023D01*
X-8883359Y+8301498D01*
X-8885614Y+8292144D01*
X-8885614Y+8270357D01*
X-8883661Y+8261664D01*
X-8879755Y+8254621D01*
X-8875848Y+8247579D01*
X-8870952Y+8242627D01*
X-8859178Y+8236905D01*
X-8849082Y+8235474D01*
X-8819096Y+8235474D01*
X-8819096Y+8181335D01*
X-8795328Y+8181335D01*
X-8795328Y+8181335D01*
G37*
%LPC*%
G36*
X-8819096Y+8300672D02*
X-8819096Y+8259903D01*
X-8841104Y+8259903D01*
X-8847073Y+8260508D01*
X-8850209Y+8261719D01*
X-8853346Y+8262929D01*
X-8855931Y+8265157D01*
X-8860003Y+8271650D01*
X-8861021Y+8275639D01*
X-8861021Y+8285102D01*
X-8859975Y+8289118D01*
X-8855794Y+8295721D01*
X-8853208Y+8297921D01*
X-8847046Y+8300122D01*
X-8840554Y+8300672D01*
X-8819096Y+8300672D01*
X-8819096Y+8300672D01*
G37*
%LPD*%
%TD.AperFunction*%
%TA.AperFunction,NonConductor*%
G36*
X-8900304Y+8181335D02*
X-8900304Y+8324936D01*
X-8924073Y+8324936D01*
X-8924073Y+8181335D01*
X-8900304Y+8181335D01*
X-8900304Y+8181335D01*
G37*
%TD.AperFunction*%
%TA.AperFunction,NonConductor*%
G36*
X-8938598Y+8252310D02*
X-8938598Y+8269366D01*
X-8941129Y+8283451D01*
X-8951252Y+8305679D01*
X-8957855Y+8313932D01*
X-8974140Y+8324716D01*
X-8984044Y+8327412D01*
X-9012544Y+8327412D01*
X-9026271Y+8320974D01*
X-9047509Y+8295225D01*
X-9052818Y+8276904D01*
X-9052818Y+8229147D01*
X-9047206Y+8210386D01*
X-9035982Y+8196851D01*
X-9026079Y+8184857D01*
X-9012709Y+8178860D01*
X-8978817Y+8178860D01*
X-8965337Y+8184802D01*
X-8955434Y+8196686D01*
X-8944210Y+8210221D01*
X-8938598Y+8228762D01*
X-8938598Y+8252310D01*
X-8938598Y+8252310D01*
G37*
%LPC*%
G36*
X-8963027Y+8253301D02*
X-8963027Y+8236795D01*
X-8966163Y+8224388D01*
X-8978707Y+8207772D01*
X-8986520Y+8203618D01*
X-9005226Y+8203618D01*
X-9012957Y+8207717D01*
X-9025171Y+8224113D01*
X-9028224Y+8236740D01*
X-9028224Y+8270412D01*
X-9025253Y+8282708D01*
X-9013369Y+8298664D01*
X-9005556Y+8302653D01*
X-8986190Y+8302653D01*
X-8978294Y+8298637D01*
X-8966080Y+8282571D01*
X-8963027Y+8270137D01*
X-8963027Y+8253301D01*
X-8963027Y+8253301D01*
G37*
%LPD*%
%TD.AperFunction*%
%TA.AperFunction,NonConductor*%
G36*
X-9056944Y+8166315D02*
X-9150862Y+8166315D01*
X-9150862Y+8156247D01*
X-9056944Y+8156247D01*
X-9056944Y+8166315D01*
X-9056944Y+8166315D01*
G37*
%TD.AperFunction*%
%TA.AperFunction,NonConductor*%
G36*
X-9236693Y+8289778D02*
X-9214740Y+8286807D01*
X-9213750Y+8297481D01*
X-9209513Y+8302818D01*
X-9197079Y+8302818D01*
X-9192980Y+8300150D01*
X-9186487Y+8289476D01*
X-9184479Y+8278665D01*
X-9183709Y+8262379D01*
X-9186460Y+8266450D01*
X-9189569Y+8269504D01*
X-9196501Y+8273575D01*
X-9200325Y+8274593D01*
X-9213750Y+8274593D01*
X-9221810Y+8270302D01*
X-9235565Y+8253136D01*
X-9239003Y+8241692D01*
X-9239003Y+8212311D01*
X-9235372Y+8200455D01*
X-9220847Y+8183179D01*
X-9211824Y+8178860D01*
X-9189266Y+8178860D01*
X-9179528Y+8184471D01*
X-9164122Y+8206919D01*
X-9160271Y+8225461D01*
X-9160271Y+8277619D01*
X-9164287Y+8296546D01*
X-9180353Y+8319654D01*
X-9190641Y+8325431D01*
X-9211879Y+8325431D01*
X-9219224Y+8322487D01*
X-9231218Y+8310713D01*
X-9235042Y+8301773D01*
X-9236693Y+8289778D01*
X-9236693Y+8289778D01*
G37*
%LPC*%
G36*
X-9185690Y+8229697D02*
X-9185690Y+8220674D01*
X-9187368Y+8213769D01*
X-9194080Y+8204196D01*
X-9197904Y+8201803D01*
X-9206377Y+8201803D01*
X-9209843Y+8203783D01*
X-9215345Y+8211706D01*
X-9216721Y+8218198D01*
X-9216721Y+8236685D01*
X-9215235Y+8243562D01*
X-9209293Y+8252145D01*
X-9205552Y+8254291D01*
X-9196749Y+8254291D01*
X-9193117Y+8252228D01*
X-9187175Y+8243975D01*
X-9185690Y+8237840D01*
X-9185690Y+8229697D01*
X-9185690Y+8229697D01*
G37*
%LPD*%
%TD.AperFunction*%
%TA.AperFunction,NonConductor*%
G36*
X-9255674Y+8214677D02*
X-9277627Y+8217648D01*
X-9278617Y+8206974D01*
X-9282854Y+8201638D01*
X-9295288Y+8201638D01*
X-9299387Y+8204278D01*
X-9305879Y+8214842D01*
X-9307943Y+8225626D01*
X-9308823Y+8241912D01*
X-9305962Y+8237950D01*
X-9302771Y+8234952D01*
X-9295728Y+8230880D01*
X-9291822Y+8229862D01*
X-9278617Y+8229862D01*
X-9270695Y+8234126D01*
X-9256830Y+8251182D01*
X-9253363Y+8262544D01*
X-9253363Y+8291924D01*
X-9256995Y+8303836D01*
X-9271520Y+8321112D01*
X-9280488Y+8325431D01*
X-9303046Y+8325431D01*
X-9312839Y+8319847D01*
X-9328245Y+8297509D01*
X-9332096Y+8278995D01*
X-9332096Y+8226726D01*
X-9328080Y+8207745D01*
X-9312014Y+8184637D01*
X-9301615Y+8178860D01*
X-9279938Y+8178860D01*
X-9272593Y+8181776D01*
X-9261039Y+8193440D01*
X-9257325Y+8202463D01*
X-9255674Y+8214677D01*
X-9255674Y+8214677D01*
G37*
%LPC*%
G36*
X-9306842Y+8274758D02*
X-9306842Y+8283671D01*
X-9305137Y+8290549D01*
X-9301725Y+8295390D01*
X-9298314Y+8300232D01*
X-9294463Y+8302653D01*
X-9285990Y+8302653D01*
X-9282524Y+8300672D01*
X-9277022Y+8292750D01*
X-9275646Y+8286147D01*
X-9275646Y+8267551D01*
X-9277159Y+8260728D01*
X-9283211Y+8252145D01*
X-9286925Y+8250000D01*
X-9295618Y+8250000D01*
X-9299277Y+8252063D01*
X-9305329Y+8260316D01*
X-9306842Y+8266505D01*
X-9306842Y+8274758D01*
X-9306842Y+8274758D01*
G37*
%LPD*%
%TD.AperFunction*%
%TDTrueTypeText*%
%TATrueTypeText,|||GPIO_68|||,|||Default Font|||,254000,-9000000,7750000,4106,MIR_X,0,B,*%
%TA.AperFunction,NonConductor*%
G36*
X-8723527Y+7733989D02*
X-8723527Y+7758417D01*
X-8774695Y+7758417D01*
X-8774695Y+7701142D01*
X-8769634Y+7695090D01*
X-8762344Y+7689863D01*
X-8752825Y+7685462D01*
X-8743307Y+7681060D01*
X-8733816Y+7678860D01*
X-8712689Y+7678860D01*
X-8702428Y+7681721D01*
X-8684711Y+7693165D01*
X-8677669Y+7701720D01*
X-8667215Y+7724498D01*
X-8664602Y+7737895D01*
X-8664602Y+7769146D01*
X-8667243Y+7782681D01*
X-8677806Y+7805129D01*
X-8684629Y+7813519D01*
X-8701355Y+7824633D01*
X-8711423Y+7827412D01*
X-8737172Y+7827412D01*
X-8748396Y+7823835D01*
X-8765342Y+7809530D01*
X-8770789Y+7799022D01*
X-8773210Y+7785157D01*
X-8749607Y+7779875D01*
X-8747846Y+7787248D01*
X-8744627Y+7792887D01*
X-8735274Y+7800700D01*
X-8729690Y+7802653D01*
X-8713074Y+7802653D01*
X-8704876Y+7798719D01*
X-8698604Y+7790851D01*
X-8692331Y+7782984D01*
X-8689195Y+7770962D01*
X-8689195Y+7737510D01*
X-8692552Y+7724360D01*
X-8699264Y+7715337D01*
X-8705096Y+7707525D01*
X-8712964Y+7703618D01*
X-8727599Y+7703618D01*
X-8732441Y+7704719D01*
X-8742344Y+7709120D01*
X-8746801Y+7712091D01*
X-8750762Y+7715833D01*
X-8750762Y+7733989D01*
X-8723527Y+7733989D01*
X-8723527Y+7733989D01*
G37*
%TD.AperFunction*%
%TA.AperFunction,NonConductor*%
G36*
X-8795328Y+7681335D02*
X-8795328Y+7824936D01*
X-8847816Y+7824936D01*
X-8857114Y+7824276D01*
X-8861516Y+7822955D01*
X-8868558Y+7820754D01*
X-8874335Y+7816023D01*
X-8883359Y+7801498D01*
X-8885614Y+7792144D01*
X-8885614Y+7770357D01*
X-8883661Y+7761664D01*
X-8879755Y+7754621D01*
X-8875848Y+7747579D01*
X-8870952Y+7742627D01*
X-8859178Y+7736905D01*
X-8849082Y+7735474D01*
X-8819096Y+7735474D01*
X-8819096Y+7681335D01*
X-8795328Y+7681335D01*
X-8795328Y+7681335D01*
G37*
%LPC*%
G36*
X-8819096Y+7800672D02*
X-8819096Y+7759903D01*
X-8841104Y+7759903D01*
X-8847073Y+7760508D01*
X-8850209Y+7761719D01*
X-8853346Y+7762929D01*
X-8855931Y+7765157D01*
X-8860003Y+7771650D01*
X-8861021Y+7775639D01*
X-8861021Y+7785102D01*
X-8859975Y+7789118D01*
X-8855794Y+7795721D01*
X-8853208Y+7797921D01*
X-8847046Y+7800122D01*
X-8840554Y+7800672D01*
X-8819096Y+7800672D01*
X-8819096Y+7800672D01*
G37*
%LPD*%
%TD.AperFunction*%
%TA.AperFunction,NonConductor*%
G36*
X-8900304Y+7681335D02*
X-8900304Y+7824936D01*
X-8924073Y+7824936D01*
X-8924073Y+7681335D01*
X-8900304Y+7681335D01*
X-8900304Y+7681335D01*
G37*
%TD.AperFunction*%
%TA.AperFunction,NonConductor*%
G36*
X-8938598Y+7752310D02*
X-8938598Y+7769366D01*
X-8941129Y+7783451D01*
X-8951252Y+7805679D01*
X-8957855Y+7813932D01*
X-8974140Y+7824716D01*
X-8984044Y+7827412D01*
X-9012544Y+7827412D01*
X-9026271Y+7820974D01*
X-9047509Y+7795225D01*
X-9052818Y+7776904D01*
X-9052818Y+7729147D01*
X-9047206Y+7710386D01*
X-9035982Y+7696851D01*
X-9026079Y+7684857D01*
X-9012709Y+7678860D01*
X-8978817Y+7678860D01*
X-8965337Y+7684802D01*
X-8955434Y+7696686D01*
X-8944210Y+7710221D01*
X-8938598Y+7728762D01*
X-8938598Y+7752310D01*
X-8938598Y+7752310D01*
G37*
%LPC*%
G36*
X-8963027Y+7753301D02*
X-8963027Y+7736795D01*
X-8966163Y+7724388D01*
X-8978707Y+7707772D01*
X-8986520Y+7703618D01*
X-9005226Y+7703618D01*
X-9012957Y+7707717D01*
X-9025171Y+7724113D01*
X-9028224Y+7736740D01*
X-9028224Y+7770412D01*
X-9025253Y+7782708D01*
X-9013369Y+7798664D01*
X-9005556Y+7802653D01*
X-8986190Y+7802653D01*
X-8978294Y+7798637D01*
X-8966080Y+7782571D01*
X-8963027Y+7770137D01*
X-8963027Y+7753301D01*
X-8963027Y+7753301D01*
G37*
%LPD*%
%TD.AperFunction*%
%TA.AperFunction,NonConductor*%
G36*
X-9056944Y+7666315D02*
X-9150862Y+7666315D01*
X-9150862Y+7656247D01*
X-9056944Y+7656247D01*
X-9056944Y+7666315D01*
X-9056944Y+7666315D01*
G37*
%TD.AperFunction*%
%TA.AperFunction,NonConductor*%
G36*
X-9236693Y+7789778D02*
X-9214740Y+7786807D01*
X-9213750Y+7797481D01*
X-9209513Y+7802818D01*
X-9197079Y+7802818D01*
X-9192980Y+7800150D01*
X-9186487Y+7789476D01*
X-9184479Y+7778665D01*
X-9183709Y+7762379D01*
X-9186460Y+7766450D01*
X-9189569Y+7769504D01*
X-9196501Y+7773575D01*
X-9200325Y+7774593D01*
X-9213750Y+7774593D01*
X-9221810Y+7770302D01*
X-9235565Y+7753136D01*
X-9239003Y+7741692D01*
X-9239003Y+7712311D01*
X-9235372Y+7700455D01*
X-9220847Y+7683179D01*
X-9211824Y+7678860D01*
X-9189266Y+7678860D01*
X-9179528Y+7684471D01*
X-9164122Y+7706919D01*
X-9160271Y+7725461D01*
X-9160271Y+7777619D01*
X-9164287Y+7796546D01*
X-9180353Y+7819654D01*
X-9190641Y+7825431D01*
X-9211879Y+7825431D01*
X-9219224Y+7822487D01*
X-9231218Y+7810713D01*
X-9235042Y+7801773D01*
X-9236693Y+7789778D01*
X-9236693Y+7789778D01*
G37*
%LPC*%
G36*
X-9185690Y+7729697D02*
X-9185690Y+7720674D01*
X-9187368Y+7713769D01*
X-9194080Y+7704196D01*
X-9197904Y+7701803D01*
X-9206377Y+7701803D01*
X-9209843Y+7703783D01*
X-9215345Y+7711706D01*
X-9216721Y+7718198D01*
X-9216721Y+7736685D01*
X-9215235Y+7743562D01*
X-9209293Y+7752145D01*
X-9205552Y+7754291D01*
X-9196749Y+7754291D01*
X-9193117Y+7752228D01*
X-9187175Y+7743975D01*
X-9185690Y+7737840D01*
X-9185690Y+7729697D01*
X-9185690Y+7729697D01*
G37*
%LPD*%
%TD.AperFunction*%
%TA.AperFunction,NonConductor*%
G36*
X-9274656Y+7758913D02*
X-9269154Y+7761774D01*
X-9265000Y+7765680D01*
X-9259388Y+7775583D01*
X-9257985Y+7781526D01*
X-9257985Y+7799792D01*
X-9261176Y+7808788D01*
X-9273941Y+7822102D01*
X-9282579Y+7825431D01*
X-9304917Y+7825431D01*
X-9313637Y+7821882D01*
X-9325631Y+7807687D01*
X-9328630Y+7799022D01*
X-9328630Y+7781746D01*
X-9327199Y+7775666D01*
X-9321477Y+7765432D01*
X-9317516Y+7761554D01*
X-9312454Y+7758913D01*
X-9319167Y+7755611D01*
X-9324201Y+7751017D01*
X-9330913Y+7739243D01*
X-9332591Y+7732008D01*
X-9332591Y+7714512D01*
X-9330941Y+7706644D01*
X-9324338Y+7692999D01*
X-9319772Y+7687800D01*
X-9308108Y+7680648D01*
X-9301560Y+7678860D01*
X-9282964Y+7678860D01*
X-9273583Y+7682793D01*
X-9258728Y+7698529D01*
X-9255014Y+7709120D01*
X-9255014Y+7731128D01*
X-9256720Y+7738555D01*
X-9263542Y+7750880D01*
X-9268384Y+7755611D01*
X-9274656Y+7758913D01*
X-9274656Y+7758913D01*
G37*
%LPC*%
G36*
X-9279278Y+7786642D02*
X-9279278Y+7781030D01*
X-9280598Y+7776739D01*
X-9285880Y+7770797D01*
X-9289236Y+7769311D01*
X-9297489Y+7769311D01*
X-9300900Y+7770797D01*
X-9306182Y+7776739D01*
X-9307502Y+7781030D01*
X-9307502Y+7792034D01*
X-9306182Y+7796216D01*
X-9300900Y+7802158D01*
X-9297599Y+7803643D01*
X-9289456Y+7803643D01*
X-9286017Y+7802130D01*
X-9280626Y+7796078D01*
X-9279278Y+7791924D01*
X-9279278Y+7786642D01*
X-9279278Y+7786642D01*
G37*
G36*
X-9277297Y+7725076D02*
X-9277297Y+7717373D01*
X-9278920Y+7711431D01*
X-9285412Y+7703068D01*
X-9289346Y+7700977D01*
X-9298479Y+7700977D01*
X-9302303Y+7702985D01*
X-9308575Y+7711018D01*
X-9310143Y+7716988D01*
X-9310143Y+7731733D01*
X-9308548Y+7737125D01*
X-9302166Y+7745048D01*
X-9298259Y+7747028D01*
X-9289016Y+7747028D01*
X-9285137Y+7745048D01*
X-9278865Y+7737125D01*
X-9277297Y+7731788D01*
X-9277297Y+7725076D01*
X-9277297Y+7725076D01*
G37*
%LPD*%
%TD.AperFunction*%
%TDTrueTypeText*%
%TATrueTypeText,|||ADC_IN1|||,|||Default Font|||,254000,-9000000,7250000,4106,MIR_X,0,B,*%
%TA.AperFunction,NonConductor*%
G36*
X-8769579Y+7181335D02*
X-8743664Y+7181335D01*
X-8733431Y+7213852D01*
X-8686389Y+7213852D01*
X-8676651Y+7181335D01*
X-8651397Y+7181335D01*
X-8697283Y+7324936D01*
X-8722372Y+7324936D01*
X-8769579Y+7181335D01*
X-8769579Y+7181335D01*
G37*
%LPC*%
G36*
X-8725838Y+7238115D02*
X-8709663Y+7291429D01*
X-8693652Y+7238115D01*
X-8725838Y+7238115D01*
X-8725838Y+7238115D01*
G37*
%LPD*%
%TD.AperFunction*%
%TA.AperFunction,NonConductor*%
G36*
X-8779482Y+7324936D02*
X-8833896Y+7324936D01*
X-8842177Y+7323725D01*
X-8847734Y+7321305D01*
X-8853290Y+7318884D01*
X-8858435Y+7314757D01*
X-8867898Y+7303093D01*
X-8871584Y+7295555D01*
X-8876866Y+7277069D01*
X-8878187Y+7265515D01*
X-8878187Y+7239326D01*
X-8876784Y+7228569D01*
X-8871172Y+7210193D01*
X-8867623Y+7202903D01*
X-8859040Y+7192119D01*
X-8853841Y+7188075D01*
X-8841626Y+7182683D01*
X-8833786Y+7181335D01*
X-8779482Y+7181335D01*
X-8779482Y+7324936D01*
X-8779482Y+7324936D01*
G37*
%LPC*%
G36*
X-8803250Y+7300672D02*
X-8803250Y+7205599D01*
X-8828669Y+7205599D01*
X-8834171Y+7206314D01*
X-8837582Y+7207745D01*
X-8840994Y+7209175D01*
X-8843800Y+7211348D01*
X-8848201Y+7217180D01*
X-8850017Y+7221775D01*
X-8852878Y+7234319D01*
X-8853593Y+7242572D01*
X-8853593Y+7263479D01*
X-8852878Y+7271870D01*
X-8850017Y+7284084D01*
X-8847734Y+7288898D01*
X-8844597Y+7292419D01*
X-8841461Y+7295941D01*
X-8837693Y+7298251D01*
X-8833291Y+7299352D01*
X-8829990Y+7300232D01*
X-8823553Y+7300672D01*
X-8803250Y+7300672D01*
X-8803250Y+7300672D01*
G37*
%LPD*%
%TD.AperFunction*%
%TA.AperFunction,NonConductor*%
G36*
X-8971279Y+7234154D02*
X-8994222Y+7225241D01*
X-8990701Y+7209175D01*
X-8984759Y+7197429D01*
X-8968033Y+7182573D01*
X-8957690Y+7178860D01*
X-8930070Y+7178860D01*
X-8917636Y+7184802D01*
X-8908062Y+7196686D01*
X-8897168Y+7210331D01*
X-8891721Y+7228762D01*
X-8891721Y+7276409D01*
X-8897223Y+7295555D01*
X-8908227Y+7309420D01*
X-8917801Y+7321415D01*
X-8930675Y+7327412D01*
X-8960055Y+7327412D01*
X-8971114Y+7322900D01*
X-8980027Y+7313877D01*
X-8986410Y+7307495D01*
X-8991031Y+7298031D01*
X-8993892Y+7285487D01*
X-8970454Y+7278555D01*
X-8968914Y+7286367D01*
X-8965915Y+7292337D01*
X-8961458Y+7296463D01*
X-8957002Y+7300590D01*
X-8951748Y+7302653D01*
X-8937002Y+7302653D01*
X-8929905Y+7298857D01*
X-8918901Y+7283671D01*
X-8916150Y+7271182D01*
X-8916150Y+7235639D01*
X-8918818Y+7222737D01*
X-8929492Y+7207442D01*
X-8936452Y+7203618D01*
X-8951307Y+7203618D01*
X-8956727Y+7206067D01*
X-8965860Y+7215860D01*
X-8969189Y+7223590D01*
X-8971279Y+7234154D01*
X-8971279Y+7234154D01*
G37*
%TD.AperFunction*%
%TA.AperFunction,NonConductor*%
G36*
X-8998844Y+7166315D02*
X-9092762Y+7166315D01*
X-9092762Y+7156247D01*
X-8998844Y+7156247D01*
X-8998844Y+7166315D01*
X-8998844Y+7166315D01*
G37*
%TD.AperFunction*%
%TA.AperFunction,NonConductor*%
G36*
X-9106297Y+7181335D02*
X-9106297Y+7324936D01*
X-9130065Y+7324936D01*
X-9130065Y+7181335D01*
X-9106297Y+7181335D01*
X-9106297Y+7181335D01*
G37*
%TD.AperFunction*%
%TA.AperFunction,NonConductor*%
G36*
X-9149542Y+7181335D02*
X-9149542Y+7324936D01*
X-9172650Y+7324936D01*
X-9220847Y+7229037D01*
X-9220847Y+7324936D01*
X-9243130Y+7324936D01*
X-9243130Y+7181335D01*
X-9219196Y+7181335D01*
X-9171660Y+7275088D01*
X-9171660Y+7181335D01*
X-9149542Y+7181335D01*
X-9149542Y+7181335D01*
G37*
%TD.AperFunction*%
%TA.AperFunction,NonConductor*%
G36*
X-9318231Y+7181335D02*
X-9295783Y+7181335D01*
X-9295783Y+7285157D01*
X-9287310Y+7275694D01*
X-9277572Y+7268706D01*
X-9266568Y+7264194D01*
X-9266568Y+7289283D01*
X-9272840Y+7291814D01*
X-9279333Y+7296353D01*
X-9292757Y+7309448D01*
X-9297434Y+7316958D01*
X-9300075Y+7325431D01*
X-9318231Y+7325431D01*
X-9318231Y+7181335D01*
X-9318231Y+7181335D01*
G37*
%TD.AperFunction*%
%TDTrueTypeText*%
%TATrueTypeText,|||ADC_IN2|||,|||Default Font|||,254000,-9007680,6251440,4106,MIR_X,0,B,*%
%TA.AperFunction,NonConductor*%
G36*
X-8777259Y+6182775D02*
X-8751344Y+6182775D01*
X-8741111Y+6215292D01*
X-8694069Y+6215292D01*
X-8684331Y+6182775D01*
X-8659077Y+6182775D01*
X-8704963Y+6326376D01*
X-8730052Y+6326376D01*
X-8777259Y+6182775D01*
X-8777259Y+6182775D01*
G37*
%LPC*%
G36*
X-8733518Y+6239555D02*
X-8717343Y+6292869D01*
X-8701332Y+6239555D01*
X-8733518Y+6239555D01*
X-8733518Y+6239555D01*
G37*
%LPD*%
%TD.AperFunction*%
%TA.AperFunction,NonConductor*%
G36*
X-8787162Y+6326376D02*
X-8841576Y+6326376D01*
X-8849857Y+6325165D01*
X-8855414Y+6322745D01*
X-8860970Y+6320324D01*
X-8866115Y+6316197D01*
X-8875578Y+6304533D01*
X-8879264Y+6296995D01*
X-8884546Y+6278509D01*
X-8885867Y+6266955D01*
X-8885867Y+6240766D01*
X-8884464Y+6230009D01*
X-8878852Y+6211633D01*
X-8875303Y+6204343D01*
X-8866720Y+6193559D01*
X-8861521Y+6189515D01*
X-8849306Y+6184123D01*
X-8841466Y+6182775D01*
X-8787162Y+6182775D01*
X-8787162Y+6326376D01*
X-8787162Y+6326376D01*
G37*
%LPC*%
G36*
X-8810930Y+6302112D02*
X-8810930Y+6207039D01*
X-8836349Y+6207039D01*
X-8841851Y+6207754D01*
X-8845262Y+6209185D01*
X-8848674Y+6210615D01*
X-8851480Y+6212788D01*
X-8855881Y+6218620D01*
X-8857697Y+6223215D01*
X-8860558Y+6235759D01*
X-8861273Y+6244012D01*
X-8861273Y+6264919D01*
X-8860558Y+6273310D01*
X-8857697Y+6285524D01*
X-8855414Y+6290338D01*
X-8852277Y+6293859D01*
X-8849141Y+6297381D01*
X-8845373Y+6299691D01*
X-8840971Y+6300792D01*
X-8837670Y+6301672D01*
X-8831233Y+6302112D01*
X-8810930Y+6302112D01*
X-8810930Y+6302112D01*
G37*
%LPD*%
%TD.AperFunction*%
%TA.AperFunction,NonConductor*%
G36*
X-8978959Y+6235594D02*
X-9001902Y+6226681D01*
X-8998381Y+6210615D01*
X-8992439Y+6198869D01*
X-8975713Y+6184013D01*
X-8965370Y+6180300D01*
X-8937750Y+6180300D01*
X-8925316Y+6186242D01*
X-8915742Y+6198126D01*
X-8904848Y+6211771D01*
X-8899401Y+6230202D01*
X-8899401Y+6277849D01*
X-8904903Y+6296995D01*
X-8915907Y+6310860D01*
X-8925481Y+6322855D01*
X-8938355Y+6328852D01*
X-8967735Y+6328852D01*
X-8978794Y+6324340D01*
X-8987707Y+6315317D01*
X-8994090Y+6308935D01*
X-8998711Y+6299471D01*
X-9001572Y+6286927D01*
X-8978134Y+6279995D01*
X-8976594Y+6287807D01*
X-8973595Y+6293777D01*
X-8969138Y+6297903D01*
X-8964682Y+6302030D01*
X-8959428Y+6304093D01*
X-8944682Y+6304093D01*
X-8937585Y+6300297D01*
X-8926581Y+6285111D01*
X-8923830Y+6272622D01*
X-8923830Y+6237079D01*
X-8926498Y+6224177D01*
X-8937172Y+6208882D01*
X-8944132Y+6205058D01*
X-8958987Y+6205058D01*
X-8964407Y+6207507D01*
X-8973540Y+6217300D01*
X-8976869Y+6225030D01*
X-8978959Y+6235594D01*
X-8978959Y+6235594D01*
G37*
%TD.AperFunction*%
%TA.AperFunction,NonConductor*%
G36*
X-9006524Y+6167755D02*
X-9100442Y+6167755D01*
X-9100442Y+6157687D01*
X-9006524Y+6157687D01*
X-9006524Y+6167755D01*
X-9006524Y+6167755D01*
G37*
%TD.AperFunction*%
%TA.AperFunction,NonConductor*%
G36*
X-9113977Y+6182775D02*
X-9113977Y+6326376D01*
X-9137745Y+6326376D01*
X-9137745Y+6182775D01*
X-9113977Y+6182775D01*
X-9113977Y+6182775D01*
G37*
%TD.AperFunction*%
%TA.AperFunction,NonConductor*%
G36*
X-9157222Y+6182775D02*
X-9157222Y+6326376D01*
X-9180330Y+6326376D01*
X-9228527Y+6230477D01*
X-9228527Y+6326376D01*
X-9250810Y+6326376D01*
X-9250810Y+6182775D01*
X-9226876Y+6182775D01*
X-9179340Y+6276528D01*
X-9179340Y+6182775D01*
X-9157222Y+6182775D01*
X-9157222Y+6182775D01*
G37*
%TD.AperFunction*%
%TA.AperFunction,NonConductor*%
G36*
X-9344563Y+6208359D02*
X-9344563Y+6182775D01*
X-9265335Y+6182775D01*
X-9266215Y+6192459D01*
X-9268829Y+6201647D01*
X-9277522Y+6219033D01*
X-9285967Y+6230477D01*
X-9298512Y+6244672D01*
X-9308415Y+6256006D01*
X-9314522Y+6263654D01*
X-9316833Y+6267615D01*
X-9320244Y+6273447D01*
X-9321950Y+6279279D01*
X-9321950Y+6291384D01*
X-9320519Y+6296115D01*
X-9314797Y+6302497D01*
X-9311111Y+6304093D01*
X-9296586Y+6304093D01*
X-9291194Y+6296610D01*
X-9290424Y+6281645D01*
X-9267976Y+6284451D01*
X-9269296Y+6299086D01*
X-9273340Y+6309815D01*
X-9280108Y+6316637D01*
X-9286875Y+6323460D01*
X-9295871Y+6326871D01*
X-9319529Y+6326871D01*
X-9328882Y+6322855D01*
X-9341427Y+6306789D01*
X-9344563Y+6297601D01*
X-9344563Y+6281425D01*
X-9343765Y+6275731D01*
X-9340574Y+6264617D01*
X-9338098Y+6259060D01*
X-9331386Y+6247946D01*
X-9325801Y+6240821D01*
X-9317988Y+6232128D01*
X-9310726Y+6223985D01*
X-9306132Y+6218620D01*
X-9302280Y+6213449D01*
X-9300767Y+6210890D01*
X-9299667Y+6208359D01*
X-9344563Y+6208359D01*
X-9344563Y+6208359D01*
G37*
%TD.AperFunction*%
%TDTrueTypeText*%
%TATrueTypeText,|||ADC_IN3|||,|||Default Font|||,254000,-8904635,6792405,4106,MIR_X,0,B,*%
%TA.AperFunction,NonConductor*%
G36*
X-8674214Y+6723740D02*
X-8648299Y+6723740D01*
X-8638066Y+6756257D01*
X-8591024Y+6756257D01*
X-8581286Y+6723740D01*
X-8556032Y+6723740D01*
X-8601918Y+6867341D01*
X-8627007Y+6867341D01*
X-8674214Y+6723740D01*
X-8674214Y+6723740D01*
G37*
%LPC*%
G36*
X-8630473Y+6780520D02*
X-8614298Y+6833834D01*
X-8598287Y+6780520D01*
X-8630473Y+6780520D01*
X-8630473Y+6780520D01*
G37*
%LPD*%
%TD.AperFunction*%
%TA.AperFunction,NonConductor*%
G36*
X-8684117Y+6867341D02*
X-8738531Y+6867341D01*
X-8746812Y+6866130D01*
X-8752369Y+6863710D01*
X-8757925Y+6861289D01*
X-8763070Y+6857162D01*
X-8772533Y+6845498D01*
X-8776219Y+6837960D01*
X-8781501Y+6819474D01*
X-8782822Y+6807920D01*
X-8782822Y+6781731D01*
X-8781419Y+6770974D01*
X-8775807Y+6752598D01*
X-8772258Y+6745308D01*
X-8763675Y+6734524D01*
X-8758476Y+6730480D01*
X-8746261Y+6725088D01*
X-8738421Y+6723740D01*
X-8684117Y+6723740D01*
X-8684117Y+6867341D01*
X-8684117Y+6867341D01*
G37*
%LPC*%
G36*
X-8707885Y+6843077D02*
X-8707885Y+6748004D01*
X-8733304Y+6748004D01*
X-8738806Y+6748719D01*
X-8742217Y+6750150D01*
X-8745629Y+6751580D01*
X-8748435Y+6753753D01*
X-8752836Y+6759585D01*
X-8754652Y+6764180D01*
X-8757513Y+6776724D01*
X-8758228Y+6784977D01*
X-8758228Y+6805884D01*
X-8757513Y+6814275D01*
X-8754652Y+6826489D01*
X-8752369Y+6831303D01*
X-8749232Y+6834824D01*
X-8746096Y+6838346D01*
X-8742328Y+6840656D01*
X-8737926Y+6841757D01*
X-8734625Y+6842637D01*
X-8728188Y+6843077D01*
X-8707885Y+6843077D01*
X-8707885Y+6843077D01*
G37*
%LPD*%
%TD.AperFunction*%
%TA.AperFunction,NonConductor*%
G36*
X-8875914Y+6776559D02*
X-8898857Y+6767646D01*
X-8895336Y+6751580D01*
X-8889394Y+6739834D01*
X-8872668Y+6724978D01*
X-8862325Y+6721265D01*
X-8834705Y+6721265D01*
X-8822271Y+6727207D01*
X-8812697Y+6739091D01*
X-8801803Y+6752736D01*
X-8796356Y+6771167D01*
X-8796356Y+6818814D01*
X-8801858Y+6837960D01*
X-8812862Y+6851825D01*
X-8822436Y+6863820D01*
X-8835310Y+6869817D01*
X-8864690Y+6869817D01*
X-8875749Y+6865305D01*
X-8884662Y+6856282D01*
X-8891045Y+6849900D01*
X-8895666Y+6840436D01*
X-8898527Y+6827892D01*
X-8875089Y+6820960D01*
X-8873549Y+6828772D01*
X-8870550Y+6834742D01*
X-8866093Y+6838868D01*
X-8861637Y+6842995D01*
X-8856383Y+6845058D01*
X-8841637Y+6845058D01*
X-8834540Y+6841262D01*
X-8823536Y+6826076D01*
X-8820785Y+6813587D01*
X-8820785Y+6778044D01*
X-8823453Y+6765142D01*
X-8834127Y+6749847D01*
X-8841087Y+6746023D01*
X-8855942Y+6746023D01*
X-8861362Y+6748472D01*
X-8870495Y+6758265D01*
X-8873824Y+6765995D01*
X-8875914Y+6776559D01*
X-8875914Y+6776559D01*
G37*
%TD.AperFunction*%
%TA.AperFunction,NonConductor*%
G36*
X-8903479Y+6708720D02*
X-8997397Y+6708720D01*
X-8997397Y+6698652D01*
X-8903479Y+6698652D01*
X-8903479Y+6708720D01*
X-8903479Y+6708720D01*
G37*
%TD.AperFunction*%
%TA.AperFunction,NonConductor*%
G36*
X-9010932Y+6723740D02*
X-9010932Y+6867341D01*
X-9034700Y+6867341D01*
X-9034700Y+6723740D01*
X-9010932Y+6723740D01*
X-9010932Y+6723740D01*
G37*
%TD.AperFunction*%
%TA.AperFunction,NonConductor*%
G36*
X-9054177Y+6723740D02*
X-9054177Y+6867341D01*
X-9077285Y+6867341D01*
X-9125482Y+6771442D01*
X-9125482Y+6867341D01*
X-9147765Y+6867341D01*
X-9147765Y+6723740D01*
X-9123831Y+6723740D01*
X-9076295Y+6817493D01*
X-9076295Y+6723740D01*
X-9054177Y+6723740D01*
X-9054177Y+6723740D01*
G37*
%TD.AperFunction*%
%TA.AperFunction,NonConductor*%
G36*
X-9164271Y+6761704D02*
X-9186223Y+6765005D01*
X-9186774Y+6758293D01*
X-9188617Y+6753148D01*
X-9194889Y+6745996D01*
X-9198603Y+6744208D01*
X-9207516Y+6744208D01*
X-9211422Y+6746326D01*
X-9217804Y+6754799D01*
X-9219400Y+6760658D01*
X-9219400Y+6775183D01*
X-9217859Y+6780685D01*
X-9211697Y+6788608D01*
X-9208011Y+6790589D01*
X-9200748Y+6790589D01*
X-9197282Y+6789874D01*
X-9193321Y+6788443D01*
X-9195797Y+6810891D01*
X-9201629Y+6810781D01*
X-9206250Y+6812377D01*
X-9209662Y+6815678D01*
X-9212963Y+6818869D01*
X-9214613Y+6823435D01*
X-9214613Y+6834329D01*
X-9213403Y+6838208D01*
X-9208561Y+6843820D01*
X-9205480Y+6845223D01*
X-9197887Y+6845223D01*
X-9194586Y+6843600D01*
X-9189084Y+6837108D01*
X-9187434Y+6832349D01*
X-9186884Y+6826076D01*
X-9166086Y+6830368D01*
X-9168177Y+6843462D01*
X-9172358Y+6852981D01*
X-9184903Y+6864865D01*
X-9192826Y+6867836D01*
X-9213073Y+6867836D01*
X-9221573Y+6864040D01*
X-9234228Y+6848854D01*
X-9237391Y+6840381D01*
X-9237391Y+6824866D01*
X-9235961Y+6819254D01*
X-9230239Y+6809130D01*
X-9225947Y+6804729D01*
X-9220225Y+6800988D01*
X-9226828Y+6799227D01*
X-9232220Y+6795348D01*
X-9240582Y+6783354D01*
X-9242673Y+6775844D01*
X-9242673Y+6753616D01*
X-9238767Y+6742722D01*
X-9223141Y+6725556D01*
X-9213843Y+6721265D01*
X-9192716Y+6721265D01*
X-9183968Y+6724896D01*
X-9176815Y+6732158D01*
X-9169663Y+6739421D01*
X-9165481Y+6749269D01*
X-9164271Y+6761704D01*
X-9164271Y+6761704D01*
G37*
%TD.AperFunction*%
%TDTrueTypeText*%
%TATrueTypeText,|||SDA|||,|||Default Font|||,254000,-8500000,5750000,4106,MIR_X,0,B,*%
%TA.AperFunction,NonConductor*%
G36*
X-8336922Y+5728212D02*
X-8360195Y+5730853D01*
X-8362836Y+5712586D01*
X-8371419Y+5703453D01*
X-8393097Y+5703453D01*
X-8398736Y+5705324D01*
X-8406989Y+5712806D01*
X-8409053Y+5717428D01*
X-8409053Y+5726231D01*
X-8408337Y+5729037D01*
X-8405476Y+5733659D01*
X-8403276Y+5735529D01*
X-8397333Y+5738390D01*
X-8390181Y+5740866D01*
X-8378847Y+5744388D01*
X-8368723Y+5747359D01*
X-8361323Y+5750660D01*
X-8351970Y+5757922D01*
X-8348229Y+5762654D01*
X-8342617Y+5774318D01*
X-8341214Y+5780590D01*
X-8341214Y+5795115D01*
X-8343002Y+5802158D01*
X-8350154Y+5814702D01*
X-8355079Y+5819434D01*
X-8367623Y+5825816D01*
X-8375381Y+5827412D01*
X-8398489Y+5827412D01*
X-8409300Y+5823670D01*
X-8424816Y+5808705D01*
X-8428915Y+5797976D01*
X-8429355Y+5784001D01*
X-8405586Y+5782681D01*
X-8404486Y+5790384D01*
X-8402203Y+5795776D01*
X-8395270Y+5801938D01*
X-8390346Y+5803478D01*
X-8377582Y+5803478D01*
X-8372657Y+5802130D01*
X-8365725Y+5796738D01*
X-8363992Y+5793410D01*
X-8363992Y+5785597D01*
X-8365587Y+5782296D01*
X-8368778Y+5779545D01*
X-8371860Y+5776904D01*
X-8379067Y+5773988D01*
X-8390401Y+5770797D01*
X-8402285Y+5767386D01*
X-8410896Y+5763754D01*
X-8421569Y+5756052D01*
X-8425641Y+5751100D01*
X-8431253Y+5738996D01*
X-8432656Y+5731678D01*
X-8432656Y+5710661D01*
X-8428832Y+5700180D01*
X-8413537Y+5683124D01*
X-8401515Y+5678860D01*
X-8356289Y+5678860D01*
X-8340223Y+5695310D01*
X-8336922Y+5728212D01*
X-8336922Y+5728212D01*
G37*
%TD.AperFunction*%
%TA.AperFunction,NonConductor*%
G36*
X-8448501Y+5824936D02*
X-8502916Y+5824936D01*
X-8511196Y+5823725D01*
X-8522310Y+5818884D01*
X-8527454Y+5814757D01*
X-8536917Y+5803093D01*
X-8540604Y+5795555D01*
X-8545886Y+5777069D01*
X-8547206Y+5765515D01*
X-8547206Y+5739326D01*
X-8545803Y+5728569D01*
X-8540191Y+5710193D01*
X-8536642Y+5702903D01*
X-8528059Y+5692119D01*
X-8522860Y+5688075D01*
X-8510646Y+5682683D01*
X-8502805Y+5681335D01*
X-8448501Y+5681335D01*
X-8448501Y+5824936D01*
X-8448501Y+5824936D01*
G37*
%LPC*%
G36*
X-8472270Y+5800672D02*
X-8472270Y+5705599D01*
X-8497689Y+5705599D01*
X-8503191Y+5706314D01*
X-8510013Y+5709175D01*
X-8512819Y+5711348D01*
X-8517221Y+5717180D01*
X-8519036Y+5721775D01*
X-8521897Y+5734319D01*
X-8522612Y+5742572D01*
X-8522612Y+5763479D01*
X-8521897Y+5771870D01*
X-8519036Y+5784084D01*
X-8516753Y+5788898D01*
X-8510481Y+5795941D01*
X-8506712Y+5798251D01*
X-8502310Y+5799352D01*
X-8499009Y+5800232D01*
X-8492572Y+5800672D01*
X-8472270Y+5800672D01*
X-8472270Y+5800672D01*
G37*
%LPD*%
%TD.AperFunction*%
%TA.AperFunction,NonConductor*%
G36*
X-8671000Y+5681335D02*
X-8645085Y+5681335D01*
X-8634852Y+5713852D01*
X-8587810Y+5713852D01*
X-8578072Y+5681335D01*
X-8552818Y+5681335D01*
X-8598704Y+5824936D01*
X-8623793Y+5824936D01*
X-8671000Y+5681335D01*
X-8671000Y+5681335D01*
G37*
%LPC*%
G36*
X-8627259Y+5738115D02*
X-8611084Y+5791429D01*
X-8595073Y+5738115D01*
X-8627259Y+5738115D01*
X-8627259Y+5738115D01*
G37*
%LPD*%
%TD.AperFunction*%
%TDTrueTypeText*%
%TATrueTypeText,|||SCL|||,|||Default Font|||,254000,-9250000,5750000,4106,MIR_X,0,B,*%
%TA.AperFunction,NonConductor*%
G36*
X-9092204Y+5728212D02*
X-9115477Y+5730853D01*
X-9118118Y+5712586D01*
X-9126701Y+5703453D01*
X-9148379Y+5703453D01*
X-9154018Y+5705324D01*
X-9162271Y+5712806D01*
X-9164334Y+5717428D01*
X-9164334Y+5726231D01*
X-9163619Y+5729037D01*
X-9160758Y+5733659D01*
X-9158557Y+5735529D01*
X-9152615Y+5738390D01*
X-9145463Y+5740866D01*
X-9134129Y+5744388D01*
X-9124005Y+5747359D01*
X-9116605Y+5750660D01*
X-9107252Y+5757922D01*
X-9103511Y+5762654D01*
X-9097899Y+5774318D01*
X-9096496Y+5780590D01*
X-9096496Y+5795115D01*
X-9098284Y+5802158D01*
X-9105436Y+5814702D01*
X-9110360Y+5819434D01*
X-9122905Y+5825816D01*
X-9130663Y+5827412D01*
X-9153771Y+5827412D01*
X-9164582Y+5823670D01*
X-9172340Y+5816188D01*
X-9180097Y+5808705D01*
X-9184196Y+5797976D01*
X-9184637Y+5784001D01*
X-9160868Y+5782681D01*
X-9159768Y+5790384D01*
X-9157485Y+5795776D01*
X-9150552Y+5801938D01*
X-9145628Y+5803478D01*
X-9132863Y+5803478D01*
X-9127939Y+5802130D01*
X-9121007Y+5796738D01*
X-9119274Y+5793410D01*
X-9119274Y+5785597D01*
X-9120869Y+5782296D01*
X-9124060Y+5779545D01*
X-9127141Y+5776904D01*
X-9134349Y+5773988D01*
X-9145683Y+5770797D01*
X-9157567Y+5767386D01*
X-9166178Y+5763754D01*
X-9176851Y+5756052D01*
X-9180923Y+5751100D01*
X-9186535Y+5738996D01*
X-9187938Y+5731678D01*
X-9187938Y+5710661D01*
X-9184114Y+5700180D01*
X-9168818Y+5683124D01*
X-9156797Y+5678860D01*
X-9111571Y+5678860D01*
X-9095505Y+5695310D01*
X-9092204Y+5728212D01*
X-9092204Y+5728212D01*
G37*
%TD.AperFunction*%
%TA.AperFunction,NonConductor*%
G36*
X-9279380Y+5734154D02*
X-9302323Y+5725241D01*
X-9298802Y+5709175D01*
X-9292860Y+5697429D01*
X-9276134Y+5682573D01*
X-9265790Y+5678860D01*
X-9238170Y+5678860D01*
X-9225736Y+5684802D01*
X-9216163Y+5696686D01*
X-9205269Y+5710331D01*
X-9199822Y+5728762D01*
X-9199822Y+5776409D01*
X-9205324Y+5795555D01*
X-9216328Y+5809420D01*
X-9225901Y+5821415D01*
X-9238776Y+5827412D01*
X-9268156Y+5827412D01*
X-9279215Y+5822900D01*
X-9288128Y+5813877D01*
X-9294510Y+5807495D01*
X-9299132Y+5798031D01*
X-9301993Y+5785487D01*
X-9278555Y+5778555D01*
X-9277014Y+5786367D01*
X-9274015Y+5792337D01*
X-9265102Y+5800590D01*
X-9259848Y+5802653D01*
X-9245103Y+5802653D01*
X-9238005Y+5798857D01*
X-9227001Y+5783671D01*
X-9224250Y+5771182D01*
X-9224250Y+5735639D01*
X-9226919Y+5722737D01*
X-9237593Y+5707442D01*
X-9244553Y+5703618D01*
X-9259408Y+5703618D01*
X-9264827Y+5706067D01*
X-9269394Y+5710963D01*
X-9273960Y+5715860D01*
X-9277289Y+5723590D01*
X-9279380Y+5734154D01*
X-9279380Y+5734154D01*
G37*
%TD.AperFunction*%
%TA.AperFunction,NonConductor*%
G36*
X-9320809Y+5681335D02*
X-9320809Y+5823780D01*
X-9344413Y+5823780D01*
X-9344413Y+5705599D01*
X-9403668Y+5705599D01*
X-9403668Y+5681335D01*
X-9320809Y+5681335D01*
X-9320809Y+5681335D01*
G37*
%TD.AperFunction*%
%TDTrueTypeText*%
%TATrueTypeText,|||RX|||,|||Default Font|||,254000,-10000000,5750000,4106,MIR_X,0,B,*%
%TA.AperFunction,NonConductor*%
G36*
X-9901130Y+5681335D02*
X-9901130Y+5824936D01*
X-9964017Y+5824936D01*
X-9973205Y+5823670D01*
X-9984209Y+5818609D01*
X-9988721Y+5814152D01*
X-9995763Y+5801388D01*
X-9997524Y+5793740D01*
X-9997524Y+5773603D01*
X-9994828Y+5764552D01*
X-9984044Y+5750797D01*
X-9976341Y+5746478D01*
X-9966328Y+5744718D01*
X-9971499Y+5741086D01*
X-9975736Y+5737097D01*
X-9982338Y+5728404D01*
X-9986905Y+5720619D01*
X-9992737Y+5709395D01*
X-10006932Y+5681335D01*
X-9978707Y+5681335D01*
X-9961376Y+5712531D01*
X-9955214Y+5723865D01*
X-9951005Y+5730963D01*
X-9946493Y+5736685D01*
X-9944127Y+5738638D01*
X-9939176Y+5740729D01*
X-9935187Y+5741251D01*
X-9924898Y+5741251D01*
X-9924898Y+5681335D01*
X-9901130Y+5681335D01*
X-9901130Y+5681335D01*
G37*
%LPC*%
G36*
X-9924898Y+5764194D02*
X-9953343Y+5764194D01*
X-9960193Y+5764690D01*
X-9966025Y+5766670D01*
X-9968391Y+5768596D01*
X-9972022Y+5774318D01*
X-9972930Y+5778114D01*
X-9972930Y+5787468D01*
X-9972022Y+5791154D01*
X-9968391Y+5796656D01*
X-9965943Y+5798582D01*
X-9962861Y+5799682D01*
X-9960551Y+5800342D01*
X-9954113Y+5800672D01*
X-9924898Y+5800672D01*
X-9924898Y+5764194D01*
X-9924898Y+5764194D01*
G37*
%LPD*%
%TD.AperFunction*%
%TA.AperFunction,NonConductor*%
G36*
X-10005446Y+5681335D02*
X-10046051Y+5753136D01*
X-10009078Y+5824936D01*
X-10036972Y+5824936D01*
X-10060246Y+5753136D01*
X-10083684Y+5824936D01*
X-10111249Y+5824936D01*
X-10074276Y+5753136D01*
X-10114880Y+5681335D01*
X-10086160Y+5681335D01*
X-10060081Y+5753136D01*
X-10033836Y+5681335D01*
X-10005446Y+5681335D01*
X-10005446Y+5681335D01*
G37*
%TD.AperFunction*%
%TDTrueTypeText*%
%TATrueTypeText,|||TX|||,|||Default Font|||,254000,-10750000,5750000,4106,MIR_X,0,B,*%
%TA.AperFunction,NonConductor*%
G36*
X-10682821Y+5681335D02*
X-10682821Y+5800672D01*
X-10647829Y+5800672D01*
X-10647829Y+5824936D01*
X-10741416Y+5824936D01*
X-10741416Y+5800672D01*
X-10706589Y+5800672D01*
X-10706589Y+5681335D01*
X-10682821Y+5681335D01*
X-10682821Y+5681335D01*
G37*
%TD.AperFunction*%
%TA.AperFunction,NonConductor*%
G36*
X-10750165Y+5681335D02*
X-10790769Y+5753136D01*
X-10753796Y+5824936D01*
X-10781691Y+5824936D01*
X-10804964Y+5753136D01*
X-10828402Y+5824936D01*
X-10855967Y+5824936D01*
X-10818994Y+5753136D01*
X-10859598Y+5681335D01*
X-10830878Y+5681335D01*
X-10804799Y+5753136D01*
X-10778555Y+5681335D01*
X-10750165Y+5681335D01*
X-10750165Y+5681335D01*
G37*
%TD.AperFunction*%
%TDTrueTypeText*%
%TATrueTypeText,|||5V|||,|||Default Font|||,254000,-11500000,5750000,4106,MIR_X,0,B,*%
%TA.AperFunction,NonConductor*%
G36*
X-11407072Y+5718308D02*
X-11429520Y+5721279D01*
X-11430070Y+5715007D01*
X-11431996Y+5710055D01*
X-11438598Y+5702793D01*
X-11442174Y+5700977D01*
X-11450757Y+5700977D01*
X-11454774Y+5703288D01*
X-11461376Y+5712531D01*
X-11463027Y+5719574D01*
X-11463027Y+5738060D01*
X-11461376Y+5744718D01*
X-11454774Y+5753301D01*
X-11450592Y+5755446D01*
X-11439038Y+5755446D01*
X-11433206Y+5751980D01*
X-11428034Y+5745048D01*
X-11409713Y+5748349D01*
X-11421267Y+5823120D01*
X-11481018Y+5823120D01*
X-11481018Y+5797206D01*
X-11438433Y+5797206D01*
X-11434802Y+5772943D01*
X-11439863Y+5775914D01*
X-11445035Y+5777399D01*
X-11459560Y+5777399D01*
X-11467428Y+5773768D01*
X-11473920Y+5766505D01*
X-11482063Y+5757152D01*
X-11486135Y+5744828D01*
X-11486135Y+5716988D01*
X-11482668Y+5705406D01*
X-11468804Y+5684169D01*
X-11458845Y+5678860D01*
X-11435407Y+5678860D01*
X-11426686Y+5682271D01*
X-11412711Y+5695916D01*
X-11408502Y+5705654D01*
X-11407072Y+5718308D01*
X-11407072Y+5718308D01*
G37*
%TD.AperFunction*%
%TA.AperFunction,NonConductor*%
G36*
X-11536807Y+5681335D02*
X-11494718Y+5824936D01*
X-11520467Y+5824936D01*
X-11550342Y+5718638D01*
X-11579062Y+5824936D01*
X-11604316Y+5824936D01*
X-11562226Y+5681335D01*
X-11536807Y+5681335D01*
X-11536807Y+5681335D01*
G37*
%TD.AperFunction*%
%TDTrueTypeText*%
%TATrueTypeText,|||GND|||,|||Default Font|||,254000,-12500000,5750000,4106,MIR_X,0,B,*%
%TA.AperFunction,NonConductor*%
G36*
X-12387265Y+5733989D02*
X-12387265Y+5758417D01*
X-12438433Y+5758417D01*
X-12438433Y+5701142D01*
X-12433371Y+5695090D01*
X-12426081Y+5689863D01*
X-12407044Y+5681060D01*
X-12397554Y+5678860D01*
X-12376426Y+5678860D01*
X-12366165Y+5681721D01*
X-12348449Y+5693165D01*
X-12341406Y+5701720D01*
X-12330953Y+5724498D01*
X-12328339Y+5737895D01*
X-12328339Y+5769146D01*
X-12330980Y+5782681D01*
X-12341544Y+5805129D01*
X-12348366Y+5813519D01*
X-12365092Y+5824633D01*
X-12375161Y+5827412D01*
X-12400910Y+5827412D01*
X-12412134Y+5823835D01*
X-12429080Y+5809530D01*
X-12434527Y+5799022D01*
X-12436947Y+5785157D01*
X-12413344Y+5779875D01*
X-12411583Y+5787248D01*
X-12408365Y+5792887D01*
X-12403688Y+5796793D01*
X-12399012Y+5800700D01*
X-12393427Y+5802653D01*
X-12376811Y+5802653D01*
X-12368613Y+5798719D01*
X-12356069Y+5782984D01*
X-12352933Y+5770962D01*
X-12352933Y+5737510D01*
X-12356289Y+5724360D01*
X-12363001Y+5715337D01*
X-12368833Y+5707525D01*
X-12376701Y+5703618D01*
X-12391336Y+5703618D01*
X-12396178Y+5704719D01*
X-12406082Y+5709120D01*
X-12410538Y+5712091D01*
X-12414499Y+5715833D01*
X-12414499Y+5733989D01*
X-12387265Y+5733989D01*
X-12387265Y+5733989D01*
G37*
%TD.AperFunction*%
%TA.AperFunction,NonConductor*%
G36*
X-12459395Y+5681335D02*
X-12459395Y+5824936D01*
X-12482503Y+5824936D01*
X-12530700Y+5729037D01*
X-12530700Y+5824936D01*
X-12552983Y+5824936D01*
X-12552983Y+5681335D01*
X-12529050Y+5681335D01*
X-12481513Y+5775088D01*
X-12481513Y+5681335D01*
X-12459395Y+5681335D01*
X-12459395Y+5681335D01*
G37*
%TD.AperFunction*%
%TA.AperFunction,NonConductor*%
G36*
X-12575266Y+5824936D02*
X-12629680Y+5824936D01*
X-12637960Y+5823725D01*
X-12649074Y+5818884D01*
X-12654219Y+5814757D01*
X-12663682Y+5803093D01*
X-12667368Y+5795555D01*
X-12672650Y+5777069D01*
X-12673971Y+5765515D01*
X-12673971Y+5739326D01*
X-12672568Y+5728569D01*
X-12666956Y+5710193D01*
X-12663407Y+5702903D01*
X-12654824Y+5692119D01*
X-12649625Y+5688075D01*
X-12637410Y+5682683D01*
X-12629570Y+5681335D01*
X-12575266Y+5681335D01*
X-12575266Y+5824936D01*
X-12575266Y+5824936D01*
G37*
%LPC*%
G36*
X-12599034Y+5800672D02*
X-12599034Y+5705599D01*
X-12624453Y+5705599D01*
X-12629955Y+5706314D01*
X-12633366Y+5707745D01*
X-12636778Y+5709175D01*
X-12639584Y+5711348D01*
X-12643985Y+5717180D01*
X-12645801Y+5721775D01*
X-12648662Y+5734319D01*
X-12649377Y+5742572D01*
X-12649377Y+5763479D01*
X-12648662Y+5771870D01*
X-12645801Y+5784084D01*
X-12643517Y+5788898D01*
X-12637245Y+5795941D01*
X-12633476Y+5798251D01*
X-12629075Y+5799352D01*
X-12625774Y+5800232D01*
X-12619336Y+5800672D01*
X-12599034Y+5800672D01*
X-12599034Y+5800672D01*
G37*
%LPD*%
%TD.AperFunction*%
%TDTrueTypeText*%
%TATrueTypeText,|||DEBUG|||,|||Default Font|||,254000,-13088800,6462040,4106,MIR_X,0,B,*%
%TA.AperFunction,NonConductor*%
G36*
X-12810182Y+6536976D02*
X-12864596Y+6536976D01*
X-12872876Y+6535765D01*
X-12883990Y+6530924D01*
X-12889134Y+6526797D01*
X-12898598Y+6515133D01*
X-12902284Y+6507595D01*
X-12907566Y+6489109D01*
X-12908886Y+6477555D01*
X-12908886Y+6451366D01*
X-12907483Y+6440609D01*
X-12901871Y+6422233D01*
X-12898323Y+6414943D01*
X-12889740Y+6404159D01*
X-12884540Y+6400115D01*
X-12872326Y+6394723D01*
X-12864486Y+6393375D01*
X-12810182Y+6393375D01*
X-12810182Y+6536976D01*
X-12810182Y+6536976D01*
G37*
%LPC*%
G36*
X-12833950Y+6512712D02*
X-12833950Y+6417639D01*
X-12859369Y+6417639D01*
X-12864871Y+6418354D01*
X-12871693Y+6421215D01*
X-12874499Y+6423388D01*
X-12878901Y+6429220D01*
X-12880716Y+6433815D01*
X-12883577Y+6446359D01*
X-12884293Y+6454612D01*
X-12884293Y+6475519D01*
X-12883577Y+6483910D01*
X-12880716Y+6496124D01*
X-12878433Y+6500938D01*
X-12872161Y+6507981D01*
X-12868392Y+6510291D01*
X-12863991Y+6511392D01*
X-12860689Y+6512272D01*
X-12854252Y+6512712D01*
X-12833950Y+6512712D01*
X-12833950Y+6512712D01*
G37*
%LPD*%
%TD.AperFunction*%
%TA.AperFunction,NonConductor*%
G36*
X-12926548Y+6393375D02*
X-12926548Y+6536976D01*
X-13014028Y+6536976D01*
X-13014028Y+6512712D01*
X-12950316Y+6512712D01*
X-12950316Y+6480856D01*
X-13009407Y+6480856D01*
X-13009407Y+6456758D01*
X-12950316Y+6456758D01*
X-12950316Y+6417639D01*
X-13016174Y+6417639D01*
X-13016174Y+6393375D01*
X-12926548Y+6393375D01*
X-12926548Y+6393375D01*
G37*
%TD.AperFunction*%
%TA.AperFunction,NonConductor*%
G36*
X-13032020Y+6536976D02*
X-13092101Y+6536976D01*
X-13101151Y+6535820D01*
X-13111605Y+6531199D01*
X-13116007Y+6527072D01*
X-13123159Y+6515188D01*
X-13124947Y+6508421D01*
X-13124947Y+6493896D01*
X-13123434Y+6487651D01*
X-13117382Y+6476537D01*
X-13113393Y+6472438D01*
X-13108441Y+6469797D01*
X-13115484Y+6467266D01*
X-13120958Y+6463002D01*
X-13128771Y+6451008D01*
X-13130724Y+6443663D01*
X-13130724Y+6424516D01*
X-13128221Y+6415686D01*
X-13118207Y+6401271D01*
X-13112293Y+6396842D01*
X-13105470Y+6395191D01*
X-13100629Y+6393981D01*
X-13089515Y+6393375D01*
X-13032020Y+6393375D01*
X-13032020Y+6536976D01*
X-13032020Y+6536976D01*
G37*
%LPC*%
G36*
X-13055788Y+6513207D02*
X-13055788Y+6479866D01*
X-13080932Y+6479866D01*
X-13086764Y+6480031D01*
X-13088965Y+6480361D01*
X-13093036Y+6481021D01*
X-13096200Y+6482754D01*
X-13100711Y+6488366D01*
X-13101839Y+6492135D01*
X-13101839Y+6501158D01*
X-13100904Y+6504624D01*
X-13097162Y+6509906D01*
X-13094907Y+6511557D01*
X-13089625Y+6512877D01*
X-13082032Y+6513207D01*
X-13055788Y+6513207D01*
X-13055788Y+6513207D01*
G37*
G36*
X-13055788Y+6455932D02*
X-13055788Y+6417639D01*
X-13087589Y+6417639D01*
X-13093779Y+6418162D01*
X-13099171Y+6420252D01*
X-13101454Y+6422261D01*
X-13105195Y+6428203D01*
X-13106131Y+6431944D01*
X-13106131Y+6441187D01*
X-13105140Y+6445066D01*
X-13101179Y+6451118D01*
X-13098538Y+6453181D01*
X-13091936Y+6455382D01*
X-13085223Y+6455932D01*
X-13055788Y+6455932D01*
X-13055788Y+6455932D01*
G37*
%LPD*%
%TD.AperFunction*%
%TA.AperFunction,NonConductor*%
G36*
X-13148055Y+6536976D02*
X-13171824Y+6536976D01*
X-13171824Y+6447129D01*
X-13172099Y+6439262D01*
X-13172649Y+6435630D01*
X-13173749Y+6429248D01*
X-13176280Y+6424324D01*
X-13180242Y+6420858D01*
X-13184203Y+6417391D01*
X-13189375Y+6415658D01*
X-13201259Y+6415658D01*
X-13205743Y+6416896D01*
X-13212675Y+6421848D01*
X-13215041Y+6425259D01*
X-13217572Y+6433952D01*
X-13218205Y+6443278D01*
X-13218205Y+6536976D01*
X-13242138Y+6536976D01*
X-13242138Y+6442288D01*
X-13241093Y+6428368D01*
X-13236912Y+6411202D01*
X-13232262Y+6404242D01*
X-13217847Y+6393568D01*
X-13208356Y+6390900D01*
X-13184258Y+6390900D01*
X-13174657Y+6393100D01*
X-13167780Y+6397502D01*
X-13160902Y+6401903D01*
X-13155896Y+6408121D01*
X-13152759Y+6416153D01*
X-13149623Y+6424186D01*
X-13148055Y+6438931D01*
X-13148055Y+6536976D01*
X-13148055Y+6536976D01*
G37*
%TD.AperFunction*%
%TA.AperFunction,NonConductor*%
G36*
X-13319385Y+6446029D02*
X-13319385Y+6470457D01*
X-13370553Y+6470457D01*
X-13370553Y+6413182D01*
X-13365492Y+6407130D01*
X-13358202Y+6401903D01*
X-13348683Y+6397502D01*
X-13339165Y+6393100D01*
X-13329674Y+6390900D01*
X-13308547Y+6390900D01*
X-13298286Y+6393761D01*
X-13280569Y+6405205D01*
X-13273527Y+6413760D01*
X-13263073Y+6436538D01*
X-13260460Y+6449935D01*
X-13260460Y+6481186D01*
X-13263101Y+6494721D01*
X-13273664Y+6517169D01*
X-13280487Y+6525559D01*
X-13297213Y+6536673D01*
X-13307281Y+6539452D01*
X-13333030Y+6539452D01*
X-13344254Y+6535875D01*
X-13361200Y+6521570D01*
X-13366647Y+6511062D01*
X-13369068Y+6497197D01*
X-13345465Y+6491915D01*
X-13343704Y+6499288D01*
X-13340485Y+6504927D01*
X-13331132Y+6512740D01*
X-13325548Y+6514693D01*
X-13308932Y+6514693D01*
X-13300734Y+6510759D01*
X-13288190Y+6495024D01*
X-13285053Y+6483002D01*
X-13285053Y+6449550D01*
X-13288410Y+6436400D01*
X-13295122Y+6427377D01*
X-13300954Y+6419565D01*
X-13308822Y+6415658D01*
X-13323457Y+6415658D01*
X-13328299Y+6416759D01*
X-13338202Y+6421160D01*
X-13342659Y+6424131D01*
X-13346620Y+6427873D01*
X-13346620Y+6446029D01*
X-13319385Y+6446029D01*
X-13319385Y+6446029D01*
G37*
%TD.AperFunction*%
%TDTrueTypeText*%
M02*
