G04 PROTEUS GERBER X2 FILE*
%TF.GenerationSoftware,Labcenter,Proteus,9.0-SP2-Build40482*%
%TF.CreationDate,2026-07-08T18:28:13+00:00*%
%TF.FileFunction,Paste,Bot*%
%TF.FilePolarity,Positive*%
%TF.Part,Single*%
%TF.SameCoordinates,{38e45bcf-27c9-428b-ab03-4ea6ddb0ec44}*%
%FSLAX45Y45*%
%MOMM*%
G01*
%TA.AperFunction,Material*%
%ADD157R,0.700000X1.500000*%
%ADD158R,1.000000X0.800100*%
%TA.AperFunction,Material*%
%ADD156R,2.260600X2.260600*%
%ADD159R,3.048000X1.651000*%
%TA.AperFunction,Profile*%
%ADD63C,0.101600*%
%TD.AperFunction*%
D157*
X-12775000Y+6175006D03*
X-13075000Y+6175006D03*
X-13225000Y+6175006D03*
D158*
X-12635002Y+6096000D03*
X-12635002Y+5904000D03*
X-13364998Y+5904000D03*
X-13364998Y+6096000D03*
D156*
X-8400000Y+6000000D03*
X-9200000Y+6000000D03*
X-10000000Y+6000000D03*
X-10800000Y+6000000D03*
X-11600000Y+6000000D03*
X-12400000Y+6000000D03*
D159*
X-8250000Y+7250000D03*
X-8250000Y+6250000D03*
X-8250000Y+6750000D03*
X-8250000Y+8750000D03*
X-8250000Y+8250000D03*
X-8250000Y+7750000D03*
X-8250000Y+9750000D03*
X-8250000Y+9000000D03*
D63*
X-14750000Y+11250000D02*
X-14747418Y+11301115D01*
X-14739840Y+11350755D01*
X-14727518Y+11398669D01*
X-14710702Y+11444605D01*
X-14689644Y+11488311D01*
X-14664597Y+11529536D01*
X-14635811Y+11568029D01*
X-14603538Y+11603538D01*
X-14568029Y+11635811D01*
X-14529536Y+11664597D01*
X-14488311Y+11689644D01*
X-14444605Y+11710702D01*
X-14398669Y+11727517D01*
X-14350755Y+11739840D01*
X-14301115Y+11747418D01*
X-14250000Y+11750000D01*
X-8500000Y+11750000D02*
X-8448885Y+11747418D01*
X-8399245Y+11739840D01*
X-8351331Y+11727517D01*
X-8305395Y+11710702D01*
X-8261689Y+11689644D01*
X-8220464Y+11664597D01*
X-8181971Y+11635811D01*
X-8146463Y+11603538D01*
X-8114190Y+11568029D01*
X-8085404Y+11529536D01*
X-8060356Y+11488311D01*
X-8039299Y+11444605D01*
X-8022483Y+11398669D01*
X-8010160Y+11350755D01*
X-8002582Y+11301115D01*
X-8000000Y+11250000D01*
X-8000000Y+6000000D02*
X-8002582Y+5948885D01*
X-8010160Y+5899245D01*
X-8022483Y+5851331D01*
X-8039299Y+5805395D01*
X-8060356Y+5761689D01*
X-8085404Y+5720464D01*
X-8114190Y+5681971D01*
X-8146463Y+5646463D01*
X-8181971Y+5614189D01*
X-8220464Y+5585403D01*
X-8261689Y+5560356D01*
X-8305395Y+5539298D01*
X-8351331Y+5522483D01*
X-8399245Y+5510160D01*
X-8448885Y+5502582D01*
X-8500000Y+5500000D01*
X-14250000Y+5500000D02*
X-14301115Y+5502582D01*
X-14350755Y+5510160D01*
X-14398669Y+5522483D01*
X-14444605Y+5539298D01*
X-14488311Y+5560356D01*
X-14529536Y+5585403D01*
X-14568029Y+5614189D01*
X-14603538Y+5646463D01*
X-14635811Y+5681971D01*
X-14664597Y+5720464D01*
X-14689644Y+5761689D01*
X-14710702Y+5805395D01*
X-14727518Y+5851331D01*
X-14739840Y+5899245D01*
X-14747418Y+5948885D01*
X-14750000Y+6000000D01*
X-14250000Y+11750000D02*
X-8500000Y+11750000D01*
X-8000000Y+11250000D02*
X-8000000Y+6000000D01*
X-8500000Y+5500000D02*
X-14250000Y+5500000D01*
X-14750000Y+6000000D02*
X-14750000Y+11250000D01*
M02*
