G04 PROTEUS GERBER X2 FILE*
%TF.GenerationSoftware,Labcenter,Proteus,9.0-SP2-Build40482*%
%TF.CreationDate,2026-07-08T18:28:13+00:00*%
%TF.FileFunction,AssemblyDrawing,Top*%
%TF.FilePolarity,Positive*%
%TF.Part,Single*%
%TF.SameCoordinates,{38e45bcf-27c9-428b-ab03-4ea6ddb0ec44}*%
%FSLAX45Y45*%
%MOMM*%
G01*
%TA.AperFunction,Material*%
%ADD160C,0.050000*%
%ADD161C,0.396240*%
%TA.AperFunction,Material*%
%ADD162C,0.069170*%
%TA.AperFunction,Material*%
%ADD163C,0.252000*%
%TA.AperFunction,Material*%
%ADD164C,0.516980*%
%ADD165C,0.514770*%
%TA.AperFunction,Material*%
%ADD166C,0.190530*%
%ADD167C,0.220000*%
%TA.AperFunction,Material*%
%ADD168C,0.088280*%
%ADD169C,0.050800*%
%ADD170C,0.440000*%
%TA.AperFunction,Material*%
%ADD171C,0.070790*%
%TA.AperFunction,Material*%
%ADD172C,0.352000*%
%TA.AperFunction,Material*%
%ADD173C,0.073610*%
%ADD174C,0.040000*%
%TA.AperFunction,Material*%
%ADD175C,0.109700*%
%ADD176C,0.180000*%
%TA.AperFunction,Material*%
%ADD177C,0.110700*%
%ADD178C,0.112000*%
%TA.AperFunction,Material*%
%ADD179C,0.081610*%
%TA.AperFunction,Material*%
%ADD180C,0.240000*%
%TA.AperFunction,Material*%
%ADD181C,0.106770*%
%ADD182C,0.216000*%
%TA.AperFunction,Material*%
%ADD183C,0.119940*%
%TA.AperFunction,Material*%
%ADD184C,0.284480*%
%TA.AperFunction,Material*%
%ADD185C,0.041030*%
%ADD186C,0.540000*%
%TA.AperFunction,Material*%
%ADD187C,0.258580*%
%TA.AperFunction,Material*%
%ADD188C,0.320040*%
%TA.AperFunction,Material*%
%ADD189C,0.068440*%
%ADD190C,0.843280*%
%TA.AperFunction,Material*%
%ADD191C,0.153940*%
%TA.AperFunction,Material*%
%ADD192C,0.009910*%
%ADD193C,0.270000*%
%TA.AperFunction,Material*%
%ADD194C,0.287890*%
%ADD195C,0.484000*%
%TA.AperFunction,Material*%
%ADD196C,0.105460*%
%TA.AperFunction,Material*%
%ADD197C,0.316000*%
%TA.AperFunction,Material*%
%ADD198C,0.169000*%
%ADD76C,0.101600*%
%ADD199C,0.406400*%
%TA.AperFunction,Material*%
%ADD200C,0.096520*%
%TA.AperFunction,Profile*%
%ADD63C,0.101600*%
%TD.AperFunction*%
D160*
X-13780000Y+10675000D02*
X-13470000Y+10675000D01*
X-13470000Y+10825000D01*
X-13780000Y+10825000D01*
X-13780000Y+10675000D01*
X-13625000Y+10800000D02*
X-13625000Y+10700000D01*
X-13575000Y+10750000D02*
X-13675000Y+10750000D01*
D161*
X-13705000Y+10750000D02*
X-13705000Y+10750000D01*
D162*
X-13591909Y+10736164D02*
X-13599691Y+10729247D01*
X-13623038Y+10729247D01*
X-13638602Y+10743082D01*
X-13638602Y+10756917D01*
X-13623038Y+10770752D01*
X-13599691Y+10770752D01*
X-13591909Y+10763835D01*
X-13560780Y+10756917D02*
X-13545215Y+10770752D01*
X-13545215Y+10729247D01*
D160*
X-13780000Y+10425000D02*
X-13470000Y+10425000D01*
X-13470000Y+10575000D01*
X-13780000Y+10575000D01*
X-13780000Y+10425000D01*
X-13625000Y+10550000D02*
X-13625000Y+10450000D01*
X-13575000Y+10500000D02*
X-13675000Y+10500000D01*
D161*
X-13705000Y+10500000D02*
X-13705000Y+10500000D01*
D162*
X-13591909Y+10486164D02*
X-13599691Y+10479247D01*
X-13623038Y+10479247D01*
X-13638602Y+10493082D01*
X-13638602Y+10506917D01*
X-13623038Y+10520752D01*
X-13599691Y+10520752D01*
X-13591909Y+10513835D01*
X-13568562Y+10513835D02*
X-13560780Y+10520752D01*
X-13537433Y+10520752D01*
X-13529651Y+10513835D01*
X-13529651Y+10506917D01*
X-13537433Y+10500000D01*
X-13560780Y+10500000D01*
X-13568562Y+10493082D01*
X-13568562Y+10479247D01*
X-13529651Y+10479247D01*
D160*
X-13780000Y+10175000D02*
X-13470000Y+10175000D01*
X-13470000Y+10325000D01*
X-13780000Y+10325000D01*
X-13780000Y+10175000D01*
X-13625000Y+10300000D02*
X-13625000Y+10200000D01*
X-13575000Y+10250000D02*
X-13675000Y+10250000D01*
D161*
X-13705000Y+10250000D02*
X-13705000Y+10250000D01*
D162*
X-13591909Y+10236164D02*
X-13599691Y+10229247D01*
X-13623038Y+10229247D01*
X-13638602Y+10243082D01*
X-13638602Y+10256917D01*
X-13623038Y+10270752D01*
X-13599691Y+10270752D01*
X-13591909Y+10263835D01*
X-13568562Y+10263835D02*
X-13560780Y+10270752D01*
X-13537433Y+10270752D01*
X-13529651Y+10263835D01*
X-13529651Y+10256917D01*
X-13537433Y+10250000D01*
X-13529651Y+10243082D01*
X-13529651Y+10236164D01*
X-13537433Y+10229247D01*
X-13560780Y+10229247D01*
X-13568562Y+10236164D01*
X-13552998Y+10250000D02*
X-13537433Y+10250000D01*
D160*
X-13780000Y+9925000D02*
X-13470000Y+9925000D01*
X-13470000Y+10075000D01*
X-13780000Y+10075000D01*
X-13780000Y+9925000D01*
X-13625000Y+10050000D02*
X-13625000Y+9950000D01*
X-13575000Y+10000000D02*
X-13675000Y+10000000D01*
D161*
X-13705000Y+10000000D02*
X-13705000Y+10000000D01*
D162*
X-13591909Y+9986164D02*
X-13599691Y+9979247D01*
X-13623038Y+9979247D01*
X-13638602Y+9993082D01*
X-13638602Y+10006917D01*
X-13623038Y+10020752D01*
X-13599691Y+10020752D01*
X-13591909Y+10013835D01*
X-13529651Y+9993082D02*
X-13576344Y+9993082D01*
X-13545215Y+10020752D01*
X-13545215Y+9979247D01*
D160*
X-13780000Y+9675000D02*
X-13470000Y+9675000D01*
X-13470000Y+9825000D01*
X-13780000Y+9825000D01*
X-13780000Y+9675000D01*
X-13625000Y+9800000D02*
X-13625000Y+9700000D01*
X-13575000Y+9750000D02*
X-13675000Y+9750000D01*
D161*
X-13705000Y+9750000D02*
X-13705000Y+9750000D01*
D162*
X-13591909Y+9736164D02*
X-13599691Y+9729247D01*
X-13623038Y+9729247D01*
X-13638602Y+9743082D01*
X-13638602Y+9756917D01*
X-13623038Y+9770752D01*
X-13599691Y+9770752D01*
X-13591909Y+9763835D01*
X-13529651Y+9770752D02*
X-13568562Y+9770752D01*
X-13568562Y+9756917D01*
X-13537433Y+9756917D01*
X-13529651Y+9750000D01*
X-13529651Y+9736164D01*
X-13537433Y+9729247D01*
X-13560780Y+9729247D01*
X-13568562Y+9736164D01*
D160*
X-13780000Y+9425000D02*
X-13470000Y+9425000D01*
X-13470000Y+9575000D01*
X-13780000Y+9575000D01*
X-13780000Y+9425000D01*
X-13625000Y+9550000D02*
X-13625000Y+9450000D01*
X-13575000Y+9500000D02*
X-13675000Y+9500000D01*
D161*
X-13705000Y+9500000D02*
X-13705000Y+9500000D01*
D162*
X-13591909Y+9486164D02*
X-13599691Y+9479247D01*
X-13623038Y+9479247D01*
X-13638602Y+9493082D01*
X-13638602Y+9506917D01*
X-13623038Y+9520752D01*
X-13599691Y+9520752D01*
X-13591909Y+9513835D01*
X-13529651Y+9513835D02*
X-13537433Y+9520752D01*
X-13560780Y+9520752D01*
X-13568562Y+9513835D01*
X-13568562Y+9486164D01*
X-13560780Y+9479247D01*
X-13537433Y+9479247D01*
X-13529651Y+9486164D01*
X-13529651Y+9493082D01*
X-13537433Y+9500000D01*
X-13568562Y+9500000D01*
D160*
X-13780000Y+9175000D02*
X-13470000Y+9175000D01*
X-13470000Y+9325000D01*
X-13780000Y+9325000D01*
X-13780000Y+9175000D01*
X-13625000Y+9300000D02*
X-13625000Y+9200000D01*
X-13575000Y+9250000D02*
X-13675000Y+9250000D01*
D161*
X-13705000Y+9250000D02*
X-13705000Y+9250000D01*
D162*
X-13591909Y+9236164D02*
X-13599691Y+9229247D01*
X-13623038Y+9229247D01*
X-13638602Y+9243082D01*
X-13638602Y+9256917D01*
X-13623038Y+9270752D01*
X-13599691Y+9270752D01*
X-13591909Y+9263835D01*
X-13568562Y+9270752D02*
X-13529651Y+9270752D01*
X-13529651Y+9263835D01*
X-13568562Y+9229247D01*
D160*
X-13780000Y+8925000D02*
X-13470000Y+8925000D01*
X-13470000Y+9075000D01*
X-13780000Y+9075000D01*
X-13780000Y+8925000D01*
X-13625000Y+9050000D02*
X-13625000Y+8950000D01*
X-13575000Y+9000000D02*
X-13675000Y+9000000D01*
D161*
X-13705000Y+9000000D02*
X-13705000Y+9000000D01*
D162*
X-13591909Y+8986164D02*
X-13599691Y+8979247D01*
X-13623038Y+8979247D01*
X-13638602Y+8993082D01*
X-13638602Y+9006917D01*
X-13623038Y+9020752D01*
X-13599691Y+9020752D01*
X-13591909Y+9013835D01*
X-13560780Y+9000000D02*
X-13568562Y+9006917D01*
X-13568562Y+9013835D01*
X-13560780Y+9020752D01*
X-13537433Y+9020752D01*
X-13529651Y+9013835D01*
X-13529651Y+9006917D01*
X-13537433Y+9000000D01*
X-13560780Y+9000000D01*
X-13568562Y+8993082D01*
X-13568562Y+8986164D01*
X-13560780Y+8979247D01*
X-13537433Y+8979247D01*
X-13529651Y+8986164D01*
X-13529651Y+8993082D01*
X-13537433Y+9000000D01*
D160*
X-13780000Y+8675000D02*
X-13470000Y+8675000D01*
X-13470000Y+8825000D01*
X-13780000Y+8825000D01*
X-13780000Y+8675000D01*
X-13625000Y+8800000D02*
X-13625000Y+8700000D01*
X-13575000Y+8750000D02*
X-13675000Y+8750000D01*
D161*
X-13705000Y+8750000D02*
X-13705000Y+8750000D01*
D162*
X-13591909Y+8736164D02*
X-13599691Y+8729247D01*
X-13623038Y+8729247D01*
X-13638602Y+8743082D01*
X-13638602Y+8756917D01*
X-13623038Y+8770752D01*
X-13599691Y+8770752D01*
X-13591909Y+8763835D01*
X-13529651Y+8756917D02*
X-13537433Y+8750000D01*
X-13560780Y+8750000D01*
X-13568562Y+8756917D01*
X-13568562Y+8763835D01*
X-13560780Y+8770752D01*
X-13537433Y+8770752D01*
X-13529651Y+8763835D01*
X-13529651Y+8736164D01*
X-13537433Y+8729247D01*
X-13560780Y+8729247D01*
D160*
X-13780000Y+8425000D02*
X-13470000Y+8425000D01*
X-13470000Y+8575000D01*
X-13780000Y+8575000D01*
X-13780000Y+8425000D01*
X-13625000Y+8550000D02*
X-13625000Y+8450000D01*
X-13575000Y+8500000D02*
X-13675000Y+8500000D01*
D161*
X-13705000Y+8500000D02*
X-13705000Y+8500000D01*
D162*
X-13623038Y+8486164D02*
X-13630820Y+8479247D01*
X-13654167Y+8479247D01*
X-13669731Y+8493082D01*
X-13669731Y+8506917D01*
X-13654167Y+8520752D01*
X-13630820Y+8520752D01*
X-13623038Y+8513835D01*
X-13591909Y+8506917D02*
X-13576344Y+8520752D01*
X-13576344Y+8479247D01*
X-13545215Y+8486164D02*
X-13545215Y+8513835D01*
X-13537433Y+8520752D01*
X-13506304Y+8520752D01*
X-13498522Y+8513835D01*
X-13498522Y+8486164D01*
X-13506304Y+8479247D01*
X-13537433Y+8479247D01*
X-13545215Y+8486164D01*
X-13545215Y+8479247D02*
X-13498522Y+8520752D01*
D160*
X-13780000Y+8175000D02*
X-13470000Y+8175000D01*
X-13470000Y+8325000D01*
X-13780000Y+8325000D01*
X-13780000Y+8175000D01*
X-13625000Y+8300000D02*
X-13625000Y+8200000D01*
X-13575000Y+8250000D02*
X-13675000Y+8250000D01*
D161*
X-13705000Y+8250000D02*
X-13705000Y+8250000D01*
D162*
X-13623038Y+8236164D02*
X-13630820Y+8229247D01*
X-13654167Y+8229247D01*
X-13669731Y+8243082D01*
X-13669731Y+8256917D01*
X-13654167Y+8270752D01*
X-13630820Y+8270752D01*
X-13623038Y+8263835D01*
X-13591909Y+8256917D02*
X-13576344Y+8270752D01*
X-13576344Y+8229247D01*
X-13529651Y+8256917D02*
X-13514086Y+8270752D01*
X-13514086Y+8229247D01*
D160*
X-13780000Y+7925000D02*
X-13470000Y+7925000D01*
X-13470000Y+8075000D01*
X-13780000Y+8075000D01*
X-13780000Y+7925000D01*
X-13625000Y+8050000D02*
X-13625000Y+7950000D01*
X-13575000Y+8000000D02*
X-13675000Y+8000000D01*
D161*
X-13705000Y+8000000D02*
X-13705000Y+8000000D01*
D162*
X-13623038Y+7986164D02*
X-13630820Y+7979247D01*
X-13654167Y+7979247D01*
X-13669731Y+7993082D01*
X-13669731Y+8006917D01*
X-13654167Y+8020752D01*
X-13630820Y+8020752D01*
X-13623038Y+8013835D01*
X-13591909Y+8006917D02*
X-13576344Y+8020752D01*
X-13576344Y+7979247D01*
X-13537433Y+8013835D02*
X-13529651Y+8020752D01*
X-13506304Y+8020752D01*
X-13498522Y+8013835D01*
X-13498522Y+8006917D01*
X-13506304Y+8000000D01*
X-13529651Y+8000000D01*
X-13537433Y+7993082D01*
X-13537433Y+7979247D01*
X-13498522Y+7979247D01*
D160*
X-13780000Y+7675000D02*
X-13470000Y+7675000D01*
X-13470000Y+7825000D01*
X-13780000Y+7825000D01*
X-13780000Y+7675000D01*
X-13625000Y+7800000D02*
X-13625000Y+7700000D01*
X-13575000Y+7750000D02*
X-13675000Y+7750000D01*
D161*
X-13705000Y+7750000D02*
X-13705000Y+7750000D01*
D162*
X-13623038Y+7736164D02*
X-13630820Y+7729247D01*
X-13654167Y+7729247D01*
X-13669731Y+7743082D01*
X-13669731Y+7756917D01*
X-13654167Y+7770752D01*
X-13630820Y+7770752D01*
X-13623038Y+7763835D01*
X-13591909Y+7756917D02*
X-13576344Y+7770752D01*
X-13576344Y+7729247D01*
X-13537433Y+7763835D02*
X-13529651Y+7770752D01*
X-13506304Y+7770752D01*
X-13498522Y+7763835D01*
X-13498522Y+7756917D01*
X-13506304Y+7750000D01*
X-13498522Y+7743082D01*
X-13498522Y+7736164D01*
X-13506304Y+7729247D01*
X-13529651Y+7729247D01*
X-13537433Y+7736164D01*
X-13521869Y+7750000D02*
X-13506304Y+7750000D01*
D160*
X-13780000Y+7425000D02*
X-13470000Y+7425000D01*
X-13470000Y+7575000D01*
X-13780000Y+7575000D01*
X-13780000Y+7425000D01*
X-13625000Y+7550000D02*
X-13625000Y+7450000D01*
X-13575000Y+7500000D02*
X-13675000Y+7500000D01*
D161*
X-13705000Y+7500000D02*
X-13705000Y+7500000D01*
D162*
X-13623038Y+7486164D02*
X-13630820Y+7479247D01*
X-13654167Y+7479247D01*
X-13669731Y+7493082D01*
X-13669731Y+7506917D01*
X-13654167Y+7520752D01*
X-13630820Y+7520752D01*
X-13623038Y+7513835D01*
X-13591909Y+7506917D02*
X-13576344Y+7520752D01*
X-13576344Y+7479247D01*
X-13498522Y+7493082D02*
X-13545215Y+7493082D01*
X-13514086Y+7520752D01*
X-13514086Y+7479247D01*
D160*
X-13780000Y+7175000D02*
X-13470000Y+7175000D01*
X-13470000Y+7325000D01*
X-13780000Y+7325000D01*
X-13780000Y+7175000D01*
X-13625000Y+7300000D02*
X-13625000Y+7200000D01*
X-13575000Y+7250000D02*
X-13675000Y+7250000D01*
D161*
X-13705000Y+7250000D02*
X-13705000Y+7250000D01*
D162*
X-13623038Y+7236164D02*
X-13630820Y+7229247D01*
X-13654167Y+7229247D01*
X-13669731Y+7243082D01*
X-13669731Y+7256917D01*
X-13654167Y+7270752D01*
X-13630820Y+7270752D01*
X-13623038Y+7263835D01*
X-13591909Y+7256917D02*
X-13576344Y+7270752D01*
X-13576344Y+7229247D01*
X-13498522Y+7270752D02*
X-13537433Y+7270752D01*
X-13537433Y+7256917D01*
X-13506304Y+7256917D01*
X-13498522Y+7250000D01*
X-13498522Y+7236164D01*
X-13506304Y+7229247D01*
X-13529651Y+7229247D01*
X-13537433Y+7236164D01*
D160*
X-13780000Y+6925000D02*
X-13470000Y+6925000D01*
X-13470000Y+7075000D01*
X-13780000Y+7075000D01*
X-13780000Y+6925000D01*
X-13625000Y+7050000D02*
X-13625000Y+6950000D01*
X-13575000Y+7000000D02*
X-13675000Y+7000000D01*
D161*
X-13705000Y+7000000D02*
X-13705000Y+7000000D01*
D162*
X-13623038Y+6986164D02*
X-13630820Y+6979247D01*
X-13654167Y+6979247D01*
X-13669731Y+6993082D01*
X-13669731Y+7006917D01*
X-13654167Y+7020752D01*
X-13630820Y+7020752D01*
X-13623038Y+7013835D01*
X-13591909Y+7006917D02*
X-13576344Y+7020752D01*
X-13576344Y+6979247D01*
X-13498522Y+7013835D02*
X-13506304Y+7020752D01*
X-13529651Y+7020752D01*
X-13537433Y+7013835D01*
X-13537433Y+6986164D01*
X-13529651Y+6979247D01*
X-13506304Y+6979247D01*
X-13498522Y+6986164D01*
X-13498522Y+6993082D01*
X-13506304Y+7000000D01*
X-13537433Y+7000000D01*
D160*
X-13780000Y+6675000D02*
X-13470000Y+6675000D01*
X-13470000Y+6825000D01*
X-13780000Y+6825000D01*
X-13780000Y+6675000D01*
X-13625000Y+6800000D02*
X-13625000Y+6700000D01*
X-13575000Y+6750000D02*
X-13675000Y+6750000D01*
D161*
X-13705000Y+6750000D02*
X-13705000Y+6750000D01*
D162*
X-13623038Y+6736164D02*
X-13630820Y+6729247D01*
X-13654167Y+6729247D01*
X-13669731Y+6743082D01*
X-13669731Y+6756917D01*
X-13654167Y+6770752D01*
X-13630820Y+6770752D01*
X-13623038Y+6763835D01*
X-13591909Y+6756917D02*
X-13576344Y+6770752D01*
X-13576344Y+6729247D01*
X-13537433Y+6770752D02*
X-13498522Y+6770752D01*
X-13498522Y+6763835D01*
X-13537433Y+6729247D01*
D160*
X-13780000Y+6425000D02*
X-13470000Y+6425000D01*
X-13470000Y+6575000D01*
X-13780000Y+6575000D01*
X-13780000Y+6425000D01*
X-13625000Y+6550000D02*
X-13625000Y+6450000D01*
X-13575000Y+6500000D02*
X-13675000Y+6500000D01*
D161*
X-13705000Y+6500000D02*
X-13705000Y+6500000D01*
D162*
X-13623038Y+6486164D02*
X-13630820Y+6479247D01*
X-13654167Y+6479247D01*
X-13669731Y+6493082D01*
X-13669731Y+6506917D01*
X-13654167Y+6520752D01*
X-13630820Y+6520752D01*
X-13623038Y+6513835D01*
X-13591909Y+6506917D02*
X-13576344Y+6520752D01*
X-13576344Y+6479247D01*
X-13529651Y+6500000D02*
X-13537433Y+6506917D01*
X-13537433Y+6513835D01*
X-13529651Y+6520752D01*
X-13506304Y+6520752D01*
X-13498522Y+6513835D01*
X-13498522Y+6506917D01*
X-13506304Y+6500000D01*
X-13529651Y+6500000D01*
X-13537433Y+6493082D01*
X-13537433Y+6486164D01*
X-13529651Y+6479247D01*
X-13506304Y+6479247D01*
X-13498522Y+6486164D01*
X-13498522Y+6493082D01*
X-13506304Y+6500000D01*
D160*
X-13780000Y+6175000D02*
X-13470000Y+6175000D01*
X-13470000Y+6325000D01*
X-13780000Y+6325000D01*
X-13780000Y+6175000D01*
X-13625000Y+6300000D02*
X-13625000Y+6200000D01*
X-13575000Y+6250000D02*
X-13675000Y+6250000D01*
D161*
X-13705000Y+6250000D02*
X-13705000Y+6250000D01*
D162*
X-13623038Y+6236164D02*
X-13630820Y+6229247D01*
X-13654167Y+6229247D01*
X-13669731Y+6243082D01*
X-13669731Y+6256917D01*
X-13654167Y+6270752D01*
X-13630820Y+6270752D01*
X-13623038Y+6263835D01*
X-13591909Y+6256917D02*
X-13576344Y+6270752D01*
X-13576344Y+6229247D01*
X-13498522Y+6256917D02*
X-13506304Y+6250000D01*
X-13529651Y+6250000D01*
X-13537433Y+6256917D01*
X-13537433Y+6263835D01*
X-13529651Y+6270752D01*
X-13506304Y+6270752D01*
X-13498522Y+6263835D01*
X-13498522Y+6236164D01*
X-13506304Y+6229247D01*
X-13529651Y+6229247D01*
D160*
X-13780000Y+5925000D02*
X-13470000Y+5925000D01*
X-13470000Y+6075000D01*
X-13780000Y+6075000D01*
X-13780000Y+5925000D01*
X-13625000Y+6050000D02*
X-13625000Y+5950000D01*
X-13575000Y+6000000D02*
X-13675000Y+6000000D01*
D161*
X-13705000Y+6000000D02*
X-13705000Y+6000000D01*
D162*
X-13623038Y+5986164D02*
X-13630820Y+5979247D01*
X-13654167Y+5979247D01*
X-13669731Y+5993082D01*
X-13669731Y+6006917D01*
X-13654167Y+6020752D01*
X-13630820Y+6020752D01*
X-13623038Y+6013835D01*
X-13599691Y+6013835D02*
X-13591909Y+6020752D01*
X-13568562Y+6020752D01*
X-13560780Y+6013835D01*
X-13560780Y+6006917D01*
X-13568562Y+6000000D01*
X-13591909Y+6000000D01*
X-13599691Y+5993082D01*
X-13599691Y+5979247D01*
X-13560780Y+5979247D01*
X-13545215Y+5986164D02*
X-13545215Y+6013835D01*
X-13537433Y+6020752D01*
X-13506304Y+6020752D01*
X-13498522Y+6013835D01*
X-13498522Y+5986164D01*
X-13506304Y+5979247D01*
X-13537433Y+5979247D01*
X-13545215Y+5986164D01*
X-13545215Y+5979247D02*
X-13498522Y+6020752D01*
D160*
X-14075000Y+7825000D02*
X-14075000Y+7515000D01*
X-13925000Y+7515000D01*
X-13925000Y+7825000D01*
X-14075000Y+7825000D01*
X-13950000Y+7670000D02*
X-14050000Y+7670000D01*
X-14000000Y+7620000D02*
X-14000000Y+7720000D01*
D161*
X-14000000Y+7750000D02*
X-14000000Y+7750000D01*
D162*
X-13986164Y+7574650D02*
X-13979247Y+7566868D01*
X-13979247Y+7543521D01*
X-13993082Y+7527957D01*
X-14006917Y+7527957D01*
X-14020752Y+7543521D01*
X-14020752Y+7566868D01*
X-14013835Y+7574650D01*
X-14013835Y+7597997D02*
X-14020752Y+7605779D01*
X-14020752Y+7629126D01*
X-14013835Y+7636908D01*
X-14006917Y+7636908D01*
X-14000000Y+7629126D01*
X-14000000Y+7605779D01*
X-13993082Y+7597997D01*
X-13979247Y+7597997D01*
X-13979247Y+7636908D01*
X-14006917Y+7668037D02*
X-14020752Y+7683602D01*
X-13979247Y+7683602D01*
D160*
X-12171000Y+7329000D02*
X-9829000Y+7329000D01*
X-12171000Y+9671000D02*
X-9829000Y+9671000D01*
X-12171000Y+7329000D02*
X-12171000Y+9671000D01*
X-9829000Y+7329000D02*
X-9829000Y+9671000D01*
D163*
X-12068000Y+9375000D02*
X-12068000Y+9375000D01*
D164*
X-11096044Y+8034718D02*
X-10837554Y+8034718D01*
X-10785856Y+8092878D01*
X-10785856Y+8325519D01*
X-10837554Y+8383679D01*
X-11096044Y+8383679D01*
X-10992648Y+8616320D02*
X-11096044Y+8732641D01*
X-10785856Y+8732641D01*
D160*
X-13975000Y+5836000D02*
X-13975000Y+6164000D01*
X-13975778Y+5834931D02*
X-13999207Y+5801335D01*
X-14026461Y+5771093D01*
X-14057186Y+5744552D01*
X-14091029Y+5722058D01*
X-14127636Y+5703959D01*
X-14166653Y+5690602D01*
X-14207726Y+5682333D01*
X-14250500Y+5679500D01*
X-14315084Y+5686013D01*
X-14375242Y+5704690D01*
X-14429683Y+5734244D01*
X-14477118Y+5773383D01*
X-14516257Y+5820817D01*
X-14545810Y+5875258D01*
X-14564488Y+5935416D01*
X-14571000Y+6000000D01*
X-14564488Y+6064584D01*
X-14545810Y+6124742D01*
X-14516257Y+6179183D01*
X-14477118Y+6226618D01*
X-14429683Y+6265756D01*
X-14375242Y+6295310D01*
X-14315084Y+6313987D01*
X-14250500Y+6320500D01*
X-14207726Y+6317667D01*
X-14166653Y+6309398D01*
X-14127636Y+6296041D01*
X-14091029Y+6277942D01*
X-14057186Y+6255448D01*
X-14026461Y+6228907D01*
X-13999207Y+6198665D01*
X-13975778Y+6165069D01*
X-13975000Y+6164000D01*
D165*
X-14123000Y+6000000D02*
X-14123000Y+6000000D01*
D166*
X-14303959Y+5828521D02*
X-14418279Y+5828521D01*
X-14418279Y+5914260D01*
X-14380172Y+5957130D01*
X-14342066Y+5957130D01*
X-14303959Y+5914260D01*
X-14303959Y+5828521D01*
X-14380172Y+6042869D02*
X-14418279Y+6085739D01*
X-14303959Y+6085739D01*
D160*
X-11744250Y+7118000D02*
X-11474250Y+7118000D01*
X-11474250Y+6882000D01*
X-11744250Y+6882000D01*
X-11744250Y+7118000D01*
D167*
X-11542250Y+7072000D02*
X-11542250Y+7072000D01*
D168*
X-11688702Y+6943766D02*
X-11688702Y+6996734D01*
X-11648976Y+6996734D01*
X-11629113Y+6979078D01*
X-11629113Y+6961422D01*
X-11648976Y+6943766D01*
X-11688702Y+6943766D01*
X-11599319Y+6987906D02*
X-11589387Y+6996734D01*
X-11559593Y+6996734D01*
X-11549661Y+6987906D01*
X-11549661Y+6979078D01*
X-11559593Y+6970250D01*
X-11589387Y+6970250D01*
X-11599319Y+6961422D01*
X-11599319Y+6943766D01*
X-11549661Y+6943766D01*
D169*
X-11589000Y+9818000D02*
X-11275000Y+9818000D01*
X-11275000Y+9682000D01*
X-11589000Y+9682000D01*
X-11589000Y+9818000D01*
D170*
X-11517000Y+9750000D02*
X-11517000Y+9750000D01*
D171*
X-11447443Y+9728762D02*
X-11447443Y+9771238D01*
X-11407623Y+9771238D01*
X-11399659Y+9764159D01*
X-11399659Y+9757079D01*
X-11407623Y+9750000D01*
X-11447443Y+9750000D01*
X-11407623Y+9750000D02*
X-11399659Y+9742921D01*
X-11399659Y+9728762D01*
X-11367802Y+9757079D02*
X-11351874Y+9771238D01*
X-11351874Y+9728762D01*
D169*
X-11123000Y+9818000D02*
X-10809000Y+9818000D01*
X-10809000Y+9682000D01*
X-11123000Y+9682000D01*
X-11123000Y+9818000D01*
D170*
X-11051000Y+9750000D02*
X-11051000Y+9750000D01*
D171*
X-10981443Y+9728762D02*
X-10981443Y+9771238D01*
X-10941623Y+9771238D01*
X-10933659Y+9764159D01*
X-10933659Y+9757079D01*
X-10941623Y+9750000D01*
X-10981443Y+9750000D01*
X-10941623Y+9750000D02*
X-10933659Y+9742921D01*
X-10933659Y+9728762D01*
X-10909766Y+9764159D02*
X-10901802Y+9771238D01*
X-10877910Y+9771238D01*
X-10869946Y+9764159D01*
X-10869946Y+9757079D01*
X-10877910Y+9750000D01*
X-10901802Y+9750000D01*
X-10909766Y+9742921D01*
X-10909766Y+9728762D01*
X-10869946Y+9728762D01*
D169*
X-12055000Y+9818000D02*
X-11741000Y+9818000D01*
X-11741000Y+9682000D01*
X-12055000Y+9682000D01*
X-12055000Y+9818000D01*
D170*
X-11983000Y+9750000D02*
X-11983000Y+9750000D01*
D171*
X-11913443Y+9728762D02*
X-11913443Y+9771238D01*
X-11873623Y+9771238D01*
X-11865659Y+9764159D01*
X-11865659Y+9757079D01*
X-11873623Y+9750000D01*
X-11913443Y+9750000D01*
X-11873623Y+9750000D02*
X-11865659Y+9742921D01*
X-11865659Y+9728762D01*
X-11841766Y+9764159D02*
X-11833802Y+9771238D01*
X-11809910Y+9771238D01*
X-11801946Y+9764159D01*
X-11801946Y+9757079D01*
X-11809910Y+9750000D01*
X-11801946Y+9742921D01*
X-11801946Y+9735841D01*
X-11809910Y+9728762D01*
X-11833802Y+9728762D01*
X-11841766Y+9735841D01*
X-11825838Y+9750000D02*
X-11809910Y+9750000D01*
D169*
X-10657000Y+9818000D02*
X-10343000Y+9818000D01*
X-10343000Y+9682000D01*
X-10657000Y+9682000D01*
X-10657000Y+9818000D01*
D170*
X-10585000Y+9750000D02*
X-10585000Y+9750000D01*
D171*
X-10515443Y+9728762D02*
X-10515443Y+9771238D01*
X-10475623Y+9771238D01*
X-10467659Y+9764159D01*
X-10467659Y+9757079D01*
X-10475623Y+9750000D01*
X-10515443Y+9750000D01*
X-10475623Y+9750000D02*
X-10467659Y+9742921D01*
X-10467659Y+9728762D01*
X-10403946Y+9742921D02*
X-10451730Y+9742921D01*
X-10419874Y+9771238D01*
X-10419874Y+9728762D01*
D169*
X-10957000Y+7318000D02*
X-10643000Y+7318000D01*
X-10643000Y+7182000D01*
X-10957000Y+7182000D01*
X-10957000Y+7318000D01*
D170*
X-10885000Y+7250000D02*
X-10885000Y+7250000D01*
D171*
X-10815443Y+7228762D02*
X-10815443Y+7271238D01*
X-10775623Y+7271238D01*
X-10767659Y+7264159D01*
X-10767659Y+7257079D01*
X-10775623Y+7250000D01*
X-10815443Y+7250000D01*
X-10775623Y+7250000D02*
X-10767659Y+7242921D01*
X-10767659Y+7228762D01*
X-10703946Y+7271238D02*
X-10743766Y+7271238D01*
X-10743766Y+7257079D01*
X-10711910Y+7257079D01*
X-10703946Y+7250000D01*
X-10703946Y+7235841D01*
X-10711910Y+7228762D01*
X-10735802Y+7228762D01*
X-10743766Y+7235841D01*
D169*
X-10557000Y+7318000D02*
X-10243000Y+7318000D01*
X-10243000Y+7182000D01*
X-10557000Y+7182000D01*
X-10557000Y+7318000D01*
D170*
X-10485000Y+7250000D02*
X-10485000Y+7250000D01*
D171*
X-10415443Y+7228762D02*
X-10415443Y+7271238D01*
X-10375623Y+7271238D01*
X-10367659Y+7264159D01*
X-10367659Y+7257079D01*
X-10375623Y+7250000D01*
X-10415443Y+7250000D01*
X-10375623Y+7250000D02*
X-10367659Y+7242921D01*
X-10367659Y+7228762D01*
X-10303946Y+7264159D02*
X-10311910Y+7271238D01*
X-10335802Y+7271238D01*
X-10343766Y+7264159D01*
X-10343766Y+7235841D01*
X-10335802Y+7228762D01*
X-10311910Y+7228762D01*
X-10303946Y+7235841D01*
X-10303946Y+7242921D01*
X-10311910Y+7250000D01*
X-10343766Y+7250000D01*
D169*
X-10157000Y+7318000D02*
X-9843000Y+7318000D01*
X-9843000Y+7182000D01*
X-10157000Y+7182000D01*
X-10157000Y+7318000D01*
D170*
X-10085000Y+7250000D02*
X-10085000Y+7250000D01*
D171*
X-10015443Y+7228762D02*
X-10015443Y+7271238D01*
X-9975623Y+7271238D01*
X-9967659Y+7264159D01*
X-9967659Y+7257079D01*
X-9975623Y+7250000D01*
X-10015443Y+7250000D01*
X-9975623Y+7250000D02*
X-9967659Y+7242921D01*
X-9967659Y+7228762D01*
X-9943766Y+7271238D02*
X-9903946Y+7271238D01*
X-9903946Y+7264159D01*
X-9943766Y+7228762D01*
D169*
X-11357000Y+7318000D02*
X-11043000Y+7318000D01*
X-11043000Y+7182000D01*
X-11357000Y+7182000D01*
X-11357000Y+7318000D01*
D170*
X-11285000Y+7250000D02*
X-11285000Y+7250000D01*
D171*
X-11215443Y+7228762D02*
X-11215443Y+7271238D01*
X-11175623Y+7271238D01*
X-11167659Y+7264159D01*
X-11167659Y+7257079D01*
X-11175623Y+7250000D01*
X-11215443Y+7250000D01*
X-11175623Y+7250000D02*
X-11167659Y+7242921D01*
X-11167659Y+7228762D01*
X-11135802Y+7250000D02*
X-11143766Y+7257079D01*
X-11143766Y+7264159D01*
X-11135802Y+7271238D01*
X-11111910Y+7271238D01*
X-11103946Y+7264159D01*
X-11103946Y+7257079D01*
X-11111910Y+7250000D01*
X-11135802Y+7250000D01*
X-11143766Y+7242921D01*
X-11143766Y+7235841D01*
X-11135802Y+7228762D01*
X-11111910Y+7228762D01*
X-11103946Y+7235841D01*
X-11103946Y+7242921D01*
X-11111910Y+7250000D01*
D169*
X-12157000Y+7318000D02*
X-11843000Y+7318000D01*
X-11843000Y+7182000D01*
X-12157000Y+7182000D01*
X-12157000Y+7318000D01*
D170*
X-12085000Y+7250000D02*
X-12085000Y+7250000D01*
D171*
X-12015443Y+7228762D02*
X-12015443Y+7271238D01*
X-11975623Y+7271238D01*
X-11967659Y+7264159D01*
X-11967659Y+7257079D01*
X-11975623Y+7250000D01*
X-12015443Y+7250000D01*
X-11975623Y+7250000D02*
X-11967659Y+7242921D01*
X-11967659Y+7228762D01*
X-11903946Y+7257079D02*
X-11911910Y+7250000D01*
X-11935802Y+7250000D01*
X-11943766Y+7257079D01*
X-11943766Y+7264159D01*
X-11935802Y+7271238D01*
X-11911910Y+7271238D01*
X-11903946Y+7264159D01*
X-11903946Y+7235841D01*
X-11911910Y+7228762D01*
X-11935802Y+7228762D01*
D169*
X-12157000Y+7068000D02*
X-11843000Y+7068000D01*
X-11843000Y+6932000D01*
X-12157000Y+6932000D01*
X-12157000Y+7068000D01*
D170*
X-12085000Y+7000000D02*
X-12085000Y+7000000D01*
D171*
X-12047299Y+6978762D02*
X-12047299Y+7021238D01*
X-12007479Y+7021238D01*
X-11999515Y+7014159D01*
X-11999515Y+7007079D01*
X-12007479Y+7000000D01*
X-12047299Y+7000000D01*
X-12007479Y+7000000D02*
X-11999515Y+6992921D01*
X-11999515Y+6978762D01*
X-11967658Y+7007079D02*
X-11951730Y+7021238D01*
X-11951730Y+6978762D01*
X-11919873Y+6985841D02*
X-11919873Y+7014159D01*
X-11911909Y+7021238D01*
X-11880053Y+7021238D01*
X-11872089Y+7014159D01*
X-11872089Y+6985841D01*
X-11880053Y+6978762D01*
X-11911909Y+6978762D01*
X-11919873Y+6985841D01*
X-11919873Y+6978762D02*
X-11872089Y+7021238D01*
D169*
X-12157000Y+6818000D02*
X-11843000Y+6818000D01*
X-11843000Y+6682000D01*
X-12157000Y+6682000D01*
X-12157000Y+6818000D01*
D170*
X-12085000Y+6750000D02*
X-12085000Y+6750000D01*
D171*
X-12047299Y+6728762D02*
X-12047299Y+6771238D01*
X-12007479Y+6771238D01*
X-11999515Y+6764159D01*
X-11999515Y+6757079D01*
X-12007479Y+6750000D01*
X-12047299Y+6750000D01*
X-12007479Y+6750000D02*
X-11999515Y+6742921D01*
X-11999515Y+6728762D01*
X-11967658Y+6757079D02*
X-11951730Y+6771238D01*
X-11951730Y+6728762D01*
X-11903945Y+6757079D02*
X-11888017Y+6771238D01*
X-11888017Y+6728762D01*
D169*
X-12157000Y+6568000D02*
X-11843000Y+6568000D01*
X-11843000Y+6432000D01*
X-12157000Y+6432000D01*
X-12157000Y+6568000D01*
D170*
X-12085000Y+6500000D02*
X-12085000Y+6500000D01*
D171*
X-12047299Y+6478762D02*
X-12047299Y+6521238D01*
X-12007479Y+6521238D01*
X-11999515Y+6514159D01*
X-11999515Y+6507079D01*
X-12007479Y+6500000D01*
X-12047299Y+6500000D01*
X-12007479Y+6500000D02*
X-11999515Y+6492921D01*
X-11999515Y+6478762D01*
X-11967658Y+6507079D02*
X-11951730Y+6521238D01*
X-11951730Y+6478762D01*
X-11911909Y+6514159D02*
X-11903945Y+6521238D01*
X-11880053Y+6521238D01*
X-11872089Y+6514159D01*
X-11872089Y+6507079D01*
X-11880053Y+6500000D01*
X-11903945Y+6500000D01*
X-11911909Y+6492921D01*
X-11911909Y+6478762D01*
X-11872089Y+6478762D01*
D169*
X-12157000Y+6318000D02*
X-11843000Y+6318000D01*
X-11843000Y+6182000D01*
X-12157000Y+6182000D01*
X-12157000Y+6318000D01*
D170*
X-12085000Y+6250000D02*
X-12085000Y+6250000D01*
D171*
X-12047299Y+6228762D02*
X-12047299Y+6271238D01*
X-12007479Y+6271238D01*
X-11999515Y+6264159D01*
X-11999515Y+6257079D01*
X-12007479Y+6250000D01*
X-12047299Y+6250000D01*
X-12007479Y+6250000D02*
X-11999515Y+6242921D01*
X-11999515Y+6228762D01*
X-11967658Y+6257079D02*
X-11951730Y+6271238D01*
X-11951730Y+6228762D01*
X-11911909Y+6264159D02*
X-11903945Y+6271238D01*
X-11880053Y+6271238D01*
X-11872089Y+6264159D01*
X-11872089Y+6257079D01*
X-11880053Y+6250000D01*
X-11872089Y+6242921D01*
X-11872089Y+6235841D01*
X-11880053Y+6228762D01*
X-11903945Y+6228762D01*
X-11911909Y+6235841D01*
X-11895981Y+6250000D02*
X-11880053Y+6250000D01*
D160*
X-12412000Y+7697008D02*
X-12186000Y+7697008D01*
X-12412000Y+7697008D02*
X-12412000Y+7431008D01*
X-12186000Y+7697008D02*
X-12186000Y+7431008D01*
X-12412000Y+7431008D01*
D172*
X-12348000Y+7628016D02*
X-12348000Y+7628016D01*
D173*
X-12365251Y+7541546D02*
X-12365251Y+7504739D01*
X-12356970Y+7497378D01*
X-12323845Y+7497378D01*
X-12315563Y+7504739D01*
X-12315563Y+7541546D01*
X-12290719Y+7534185D02*
X-12282438Y+7541546D01*
X-12257594Y+7541546D01*
X-12249312Y+7534185D01*
X-12249312Y+7526823D01*
X-12257594Y+7519462D01*
X-12249312Y+7512101D01*
X-12249312Y+7504739D01*
X-12257594Y+7497378D01*
X-12282438Y+7497378D01*
X-12290719Y+7504739D01*
X-12274156Y+7519462D02*
X-12257594Y+7519462D01*
D160*
X-12832506Y+8655006D02*
X-12832506Y+8304994D01*
X-12482494Y+8304994D01*
X-12482494Y+8655006D01*
X-12832506Y+8655006D01*
D174*
X-12785500Y+8580000D02*
X-12785500Y+8580000D01*
D175*
X-12664658Y+8381267D02*
X-12609806Y+8381267D01*
X-12598835Y+8393608D01*
X-12598835Y+8442975D01*
X-12609806Y+8455316D01*
X-12664658Y+8455316D01*
X-12620776Y+8554049D02*
X-12620776Y+8480000D01*
X-12664658Y+8529366D01*
X-12598835Y+8529366D01*
D160*
X-12829506Y+9400006D02*
X-12479494Y+9400006D01*
X-12479494Y+9049994D01*
X-12829506Y+9049994D01*
X-12829506Y+9400006D01*
D176*
X-12782008Y+9300000D02*
X-12782008Y+9300000D01*
D177*
X-12658212Y+9125367D02*
X-12602860Y+9125367D01*
X-12591789Y+9137821D01*
X-12591789Y+9187637D01*
X-12602860Y+9200091D01*
X-12658212Y+9200091D01*
X-12658212Y+9299724D02*
X-12658212Y+9237454D01*
X-12636071Y+9237454D01*
X-12636071Y+9287270D01*
X-12625001Y+9299724D01*
X-12602860Y+9299724D01*
X-12591789Y+9287270D01*
X-12591789Y+9249908D01*
X-12602860Y+9237454D01*
D160*
X-12625000Y+7875000D02*
X-12875000Y+7875000D01*
X-12875000Y+7625000D01*
X-12625000Y+7625000D01*
X-12625000Y+7875000D01*
D178*
X-12725000Y+7826000D02*
X-12725000Y+7826000D01*
D179*
X-12823451Y+7745934D02*
X-12823451Y+7705127D01*
X-12814270Y+7696966D01*
X-12777545Y+7696966D01*
X-12768363Y+7705127D01*
X-12768363Y+7745934D01*
X-12694912Y+7737773D02*
X-12704094Y+7745934D01*
X-12731638Y+7745934D01*
X-12740819Y+7737773D01*
X-12740819Y+7705127D01*
X-12731638Y+7696966D01*
X-12704094Y+7696966D01*
X-12694912Y+7705127D01*
X-12694912Y+7713289D01*
X-12704094Y+7721450D01*
X-12740819Y+7721450D01*
D160*
X-13383750Y+8425000D02*
X-13073750Y+8425000D01*
X-13073750Y+8575000D01*
X-13383750Y+8575000D01*
X-13383750Y+8425000D01*
X-13228750Y+8550000D02*
X-13228750Y+8450000D01*
X-13178750Y+8500000D02*
X-13278750Y+8500000D01*
D161*
X-13308750Y+8500000D02*
X-13308750Y+8500000D01*
D162*
X-13226788Y+8486164D02*
X-13234570Y+8479247D01*
X-13257917Y+8479247D01*
X-13273481Y+8493082D01*
X-13273481Y+8506917D01*
X-13257917Y+8520752D01*
X-13234570Y+8520752D01*
X-13226788Y+8513835D01*
X-13203441Y+8513835D02*
X-13195659Y+8520752D01*
X-13172312Y+8520752D01*
X-13164530Y+8513835D01*
X-13164530Y+8506917D01*
X-13172312Y+8500000D01*
X-13195659Y+8500000D01*
X-13203441Y+8493082D01*
X-13203441Y+8479247D01*
X-13164530Y+8479247D01*
X-13141183Y+8513835D02*
X-13133401Y+8520752D01*
X-13110054Y+8520752D01*
X-13102272Y+8513835D01*
X-13102272Y+8506917D01*
X-13110054Y+8500000D01*
X-13133401Y+8500000D01*
X-13141183Y+8493082D01*
X-13141183Y+8479247D01*
X-13102272Y+8479247D01*
D160*
X-13383750Y+8175000D02*
X-13073750Y+8175000D01*
X-13073750Y+8325000D01*
X-13383750Y+8325000D01*
X-13383750Y+8175000D01*
X-13228750Y+8300000D02*
X-13228750Y+8200000D01*
X-13178750Y+8250000D02*
X-13278750Y+8250000D01*
D161*
X-13308750Y+8250000D02*
X-13308750Y+8250000D01*
D162*
X-13226788Y+8236164D02*
X-13234570Y+8229247D01*
X-13257917Y+8229247D01*
X-13273481Y+8243082D01*
X-13273481Y+8256917D01*
X-13257917Y+8270752D01*
X-13234570Y+8270752D01*
X-13226788Y+8263835D01*
X-13203441Y+8263835D02*
X-13195659Y+8270752D01*
X-13172312Y+8270752D01*
X-13164530Y+8263835D01*
X-13164530Y+8256917D01*
X-13172312Y+8250000D01*
X-13195659Y+8250000D01*
X-13203441Y+8243082D01*
X-13203441Y+8229247D01*
X-13164530Y+8229247D01*
X-13141183Y+8263835D02*
X-13133401Y+8270752D01*
X-13110054Y+8270752D01*
X-13102272Y+8263835D01*
X-13102272Y+8256917D01*
X-13110054Y+8250000D01*
X-13102272Y+8243082D01*
X-13102272Y+8236164D01*
X-13110054Y+8229247D01*
X-13133401Y+8229247D01*
X-13141183Y+8236164D01*
X-13125619Y+8250000D02*
X-13110054Y+8250000D01*
D160*
X-13383750Y+9425000D02*
X-13073750Y+9425000D01*
X-13073750Y+9575000D01*
X-13383750Y+9575000D01*
X-13383750Y+9425000D01*
X-13228750Y+9550000D02*
X-13228750Y+9450000D01*
X-13178750Y+9500000D02*
X-13278750Y+9500000D01*
D161*
X-13308750Y+9500000D02*
X-13308750Y+9500000D01*
D162*
X-13226788Y+9486164D02*
X-13234570Y+9479247D01*
X-13257917Y+9479247D01*
X-13273481Y+9493082D01*
X-13273481Y+9506917D01*
X-13257917Y+9520752D01*
X-13234570Y+9520752D01*
X-13226788Y+9513835D01*
X-13203441Y+9513835D02*
X-13195659Y+9520752D01*
X-13172312Y+9520752D01*
X-13164530Y+9513835D01*
X-13164530Y+9506917D01*
X-13172312Y+9500000D01*
X-13195659Y+9500000D01*
X-13203441Y+9493082D01*
X-13203441Y+9479247D01*
X-13164530Y+9479247D01*
X-13102272Y+9493082D02*
X-13148965Y+9493082D01*
X-13117836Y+9520752D01*
X-13117836Y+9479247D01*
D160*
X-13383750Y+9175000D02*
X-13073750Y+9175000D01*
X-13073750Y+9325000D01*
X-13383750Y+9325000D01*
X-13383750Y+9175000D01*
X-13228750Y+9300000D02*
X-13228750Y+9200000D01*
X-13178750Y+9250000D02*
X-13278750Y+9250000D01*
D161*
X-13308750Y+9250000D02*
X-13308750Y+9250000D01*
D162*
X-13226788Y+9236164D02*
X-13234570Y+9229247D01*
X-13257917Y+9229247D01*
X-13273481Y+9243082D01*
X-13273481Y+9256917D01*
X-13257917Y+9270752D01*
X-13234570Y+9270752D01*
X-13226788Y+9263835D01*
X-13203441Y+9263835D02*
X-13195659Y+9270752D01*
X-13172312Y+9270752D01*
X-13164530Y+9263835D01*
X-13164530Y+9256917D01*
X-13172312Y+9250000D01*
X-13195659Y+9250000D01*
X-13203441Y+9243082D01*
X-13203441Y+9229247D01*
X-13164530Y+9229247D01*
X-13102272Y+9270752D02*
X-13141183Y+9270752D01*
X-13141183Y+9256917D01*
X-13110054Y+9256917D01*
X-13102272Y+9250000D01*
X-13102272Y+9236164D01*
X-13110054Y+9229247D01*
X-13133401Y+9229247D01*
X-13141183Y+9236164D01*
D160*
X-13383750Y+8925000D02*
X-13073750Y+8925000D01*
X-13073750Y+9075000D01*
X-13383750Y+9075000D01*
X-13383750Y+8925000D01*
X-13228750Y+9050000D02*
X-13228750Y+8950000D01*
X-13178750Y+9000000D02*
X-13278750Y+9000000D01*
D161*
X-13308750Y+9000000D02*
X-13308750Y+9000000D01*
D162*
X-13226788Y+8986164D02*
X-13234570Y+8979247D01*
X-13257917Y+8979247D01*
X-13273481Y+8993082D01*
X-13273481Y+9006917D01*
X-13257917Y+9020752D01*
X-13234570Y+9020752D01*
X-13226788Y+9013835D01*
X-13203441Y+9013835D02*
X-13195659Y+9020752D01*
X-13172312Y+9020752D01*
X-13164530Y+9013835D01*
X-13164530Y+9006917D01*
X-13172312Y+9000000D01*
X-13195659Y+9000000D01*
X-13203441Y+8993082D01*
X-13203441Y+8979247D01*
X-13164530Y+8979247D01*
X-13102272Y+9013835D02*
X-13110054Y+9020752D01*
X-13133401Y+9020752D01*
X-13141183Y+9013835D01*
X-13141183Y+8986164D01*
X-13133401Y+8979247D01*
X-13110054Y+8979247D01*
X-13102272Y+8986164D01*
X-13102272Y+8993082D01*
X-13110054Y+9000000D01*
X-13141183Y+9000000D01*
D160*
X-13383750Y+7925000D02*
X-13073750Y+7925000D01*
X-13073750Y+8075000D01*
X-13383750Y+8075000D01*
X-13383750Y+7925000D01*
X-13228750Y+8050000D02*
X-13228750Y+7950000D01*
X-13178750Y+8000000D02*
X-13278750Y+8000000D01*
D161*
X-13308750Y+8000000D02*
X-13308750Y+8000000D01*
D162*
X-13226788Y+7986164D02*
X-13234570Y+7979247D01*
X-13257917Y+7979247D01*
X-13273481Y+7993082D01*
X-13273481Y+8006917D01*
X-13257917Y+8020752D01*
X-13234570Y+8020752D01*
X-13226788Y+8013835D01*
X-13203441Y+8013835D02*
X-13195659Y+8020752D01*
X-13172312Y+8020752D01*
X-13164530Y+8013835D01*
X-13164530Y+8006917D01*
X-13172312Y+8000000D01*
X-13195659Y+8000000D01*
X-13203441Y+7993082D01*
X-13203441Y+7979247D01*
X-13164530Y+7979247D01*
X-13141183Y+8020752D02*
X-13102272Y+8020752D01*
X-13102272Y+8013835D01*
X-13141183Y+7979247D01*
D160*
X-13383750Y+7675000D02*
X-13073750Y+7675000D01*
X-13073750Y+7825000D01*
X-13383750Y+7825000D01*
X-13383750Y+7675000D01*
X-13228750Y+7800000D02*
X-13228750Y+7700000D01*
X-13178750Y+7750000D02*
X-13278750Y+7750000D01*
D161*
X-13308750Y+7750000D02*
X-13308750Y+7750000D01*
D162*
X-13226788Y+7736164D02*
X-13234570Y+7729247D01*
X-13257917Y+7729247D01*
X-13273481Y+7743082D01*
X-13273481Y+7756917D01*
X-13257917Y+7770752D01*
X-13234570Y+7770752D01*
X-13226788Y+7763835D01*
X-13203441Y+7763835D02*
X-13195659Y+7770752D01*
X-13172312Y+7770752D01*
X-13164530Y+7763835D01*
X-13164530Y+7756917D01*
X-13172312Y+7750000D01*
X-13195659Y+7750000D01*
X-13203441Y+7743082D01*
X-13203441Y+7729247D01*
X-13164530Y+7729247D01*
X-13133401Y+7750000D02*
X-13141183Y+7756917D01*
X-13141183Y+7763835D01*
X-13133401Y+7770752D01*
X-13110054Y+7770752D01*
X-13102272Y+7763835D01*
X-13102272Y+7756917D01*
X-13110054Y+7750000D01*
X-13133401Y+7750000D01*
X-13141183Y+7743082D01*
X-13141183Y+7736164D01*
X-13133401Y+7729247D01*
X-13110054Y+7729247D01*
X-13102272Y+7736164D01*
X-13102272Y+7743082D01*
X-13110054Y+7750000D01*
D169*
X-13385750Y+8818000D02*
X-13071750Y+8818000D01*
X-13071750Y+8682000D01*
X-13385750Y+8682000D01*
X-13385750Y+8818000D01*
D170*
X-13313750Y+8750000D02*
X-13313750Y+8750000D01*
D171*
X-13276049Y+8728762D02*
X-13276049Y+8771238D01*
X-13236229Y+8771238D01*
X-13228265Y+8764159D01*
X-13228265Y+8757079D01*
X-13236229Y+8750000D01*
X-13276049Y+8750000D01*
X-13236229Y+8750000D02*
X-13228265Y+8742921D01*
X-13228265Y+8728762D01*
X-13196408Y+8757079D02*
X-13180480Y+8771238D01*
X-13180480Y+8728762D01*
X-13100839Y+8742921D02*
X-13148623Y+8742921D01*
X-13116767Y+8771238D01*
X-13116767Y+8728762D01*
D169*
X-12998395Y+9932000D02*
X-13312395Y+9932000D01*
X-13312395Y+10068000D01*
X-12998395Y+10068000D01*
X-12998395Y+9932000D01*
D170*
X-13070395Y+10000000D02*
X-13070395Y+10000000D01*
D171*
X-13299234Y+9978762D02*
X-13299234Y+10021238D01*
X-13259414Y+10021238D01*
X-13251450Y+10014159D01*
X-13251450Y+10007079D01*
X-13259414Y+10000000D01*
X-13299234Y+10000000D01*
X-13259414Y+10000000D02*
X-13251450Y+9992921D01*
X-13251450Y+9978762D01*
X-13219593Y+10007079D02*
X-13203665Y+10021238D01*
X-13203665Y+9978762D01*
X-13124024Y+10021238D02*
X-13163844Y+10021238D01*
X-13163844Y+10007079D01*
X-13131988Y+10007079D01*
X-13124024Y+10000000D01*
X-13124024Y+9985841D01*
X-13131988Y+9978762D01*
X-13155880Y+9978762D01*
X-13163844Y+9985841D01*
D169*
X-13385750Y+7568000D02*
X-13071750Y+7568000D01*
X-13071750Y+7432000D01*
X-13385750Y+7432000D01*
X-13385750Y+7568000D01*
D170*
X-13313750Y+7500000D02*
X-13313750Y+7500000D01*
D171*
X-13276049Y+7478762D02*
X-13276049Y+7521238D01*
X-13236229Y+7521238D01*
X-13228265Y+7514159D01*
X-13228265Y+7507079D01*
X-13236229Y+7500000D01*
X-13276049Y+7500000D01*
X-13236229Y+7500000D02*
X-13228265Y+7492921D01*
X-13228265Y+7478762D01*
X-13196408Y+7507079D02*
X-13180480Y+7521238D01*
X-13180480Y+7478762D01*
X-13100839Y+7514159D02*
X-13108803Y+7521238D01*
X-13132695Y+7521238D01*
X-13140659Y+7514159D01*
X-13140659Y+7485841D01*
X-13132695Y+7478762D01*
X-13108803Y+7478762D01*
X-13100839Y+7485841D01*
X-13100839Y+7492921D01*
X-13108803Y+7500000D01*
X-13140659Y+7500000D01*
D169*
X-13385750Y+7318000D02*
X-13071750Y+7318000D01*
X-13071750Y+7182000D01*
X-13385750Y+7182000D01*
X-13385750Y+7318000D01*
D170*
X-13313750Y+7250000D02*
X-13313750Y+7250000D01*
D171*
X-13276049Y+7228762D02*
X-13276049Y+7271238D01*
X-13236229Y+7271238D01*
X-13228265Y+7264159D01*
X-13228265Y+7257079D01*
X-13236229Y+7250000D01*
X-13276049Y+7250000D01*
X-13236229Y+7250000D02*
X-13228265Y+7242921D01*
X-13228265Y+7228762D01*
X-13196408Y+7257079D02*
X-13180480Y+7271238D01*
X-13180480Y+7228762D01*
X-13140659Y+7271238D02*
X-13100839Y+7271238D01*
X-13100839Y+7264159D01*
X-13140659Y+7228762D01*
D169*
X-13385750Y+7068000D02*
X-13071750Y+7068000D01*
X-13071750Y+6932000D01*
X-13385750Y+6932000D01*
X-13385750Y+7068000D01*
D170*
X-13313750Y+7000000D02*
X-13313750Y+7000000D01*
D171*
X-13276049Y+6978762D02*
X-13276049Y+7021238D01*
X-13236229Y+7021238D01*
X-13228265Y+7014159D01*
X-13228265Y+7007079D01*
X-13236229Y+7000000D01*
X-13276049Y+7000000D01*
X-13236229Y+7000000D02*
X-13228265Y+6992921D01*
X-13228265Y+6978762D01*
X-13196408Y+7007079D02*
X-13180480Y+7021238D01*
X-13180480Y+6978762D01*
X-13132695Y+7000000D02*
X-13140659Y+7007079D01*
X-13140659Y+7014159D01*
X-13132695Y+7021238D01*
X-13108803Y+7021238D01*
X-13100839Y+7014159D01*
X-13100839Y+7007079D01*
X-13108803Y+7000000D01*
X-13132695Y+7000000D01*
X-13140659Y+6992921D01*
X-13140659Y+6985841D01*
X-13132695Y+6978762D01*
X-13108803Y+6978762D01*
X-13100839Y+6985841D01*
X-13100839Y+6992921D01*
X-13108803Y+7000000D01*
D160*
X-12195000Y+10675006D02*
X-12195000Y+10324994D01*
X-11805000Y+10324994D01*
X-11805000Y+10675006D01*
X-12195000Y+10675006D01*
D180*
X-12140000Y+10598000D02*
X-12140000Y+10598000D01*
D181*
X-11997281Y+10403906D02*
X-11943895Y+10403906D01*
X-11933218Y+10415917D01*
X-11933218Y+10463964D01*
X-11943895Y+10475976D01*
X-11997281Y+10475976D01*
X-11997281Y+10512011D02*
X-11997281Y+10572070D01*
X-11986604Y+10572070D01*
X-11933218Y+10512011D01*
D160*
X-11445000Y+10695000D02*
X-11445000Y+10305000D01*
X-11055000Y+10305000D01*
X-11055000Y+10695000D01*
X-11445000Y+10695000D01*
D182*
X-11390000Y+10575000D02*
X-11390000Y+10575000D01*
D183*
X-11251832Y+10392054D02*
X-11191862Y+10392054D01*
X-11179868Y+10405547D01*
X-11179868Y+10459520D01*
X-11191862Y+10473013D01*
X-11251832Y+10473013D01*
X-11215850Y+10526986D02*
X-11227844Y+10513493D01*
X-11239838Y+10513493D01*
X-11251832Y+10526986D01*
X-11251832Y+10567466D01*
X-11239838Y+10580959D01*
X-11227844Y+10580959D01*
X-11215850Y+10567466D01*
X-11215850Y+10526986D01*
X-11203856Y+10513493D01*
X-11191862Y+10513493D01*
X-11179868Y+10526986D01*
X-11179868Y+10567466D01*
X-11191862Y+10580959D01*
X-11203856Y+10580959D01*
X-11215850Y+10567466D01*
D160*
X-10695000Y+10675006D02*
X-10305000Y+10675006D01*
X-10305000Y+10324994D01*
X-10695000Y+10324994D01*
X-10695000Y+10675006D01*
D180*
X-10640000Y+10598000D02*
X-10640000Y+10598000D01*
D181*
X-10497281Y+10403906D02*
X-10443895Y+10403906D01*
X-10433218Y+10415917D01*
X-10433218Y+10463964D01*
X-10443895Y+10475976D01*
X-10497281Y+10475976D01*
X-10475927Y+10572070D02*
X-10465250Y+10560058D01*
X-10465250Y+10524023D01*
X-10475927Y+10512011D01*
X-10486604Y+10512011D01*
X-10497281Y+10524023D01*
X-10497281Y+10560058D01*
X-10486604Y+10572070D01*
X-10443895Y+10572070D01*
X-10433218Y+10560058D01*
X-10433218Y+10524023D01*
D160*
X-11391250Y+10950000D02*
X-11201250Y+10950000D01*
X-11201250Y+11050000D01*
X-11391250Y+11050000D01*
X-11391250Y+10950000D01*
X-11296250Y+11025000D02*
X-11296250Y+10975000D01*
X-11271250Y+11000000D02*
X-11321250Y+11000000D01*
D184*
X-11346250Y+11000000D02*
X-11346250Y+11000000D01*
D185*
X-11302322Y+11012311D02*
X-11302322Y+10987688D01*
X-11274622Y+10987688D01*
X-11256155Y+11004103D02*
X-11246921Y+11012311D01*
X-11246921Y+10987688D01*
D160*
X-12426000Y+11135500D02*
X-12426000Y+11726500D01*
X-13570000Y+11726500D01*
X-13570000Y+11135500D01*
X-12426000Y+11135500D01*
D186*
X-12686000Y+11245500D02*
X-12686000Y+11245500D01*
D187*
X-13230723Y+11474891D02*
X-13230723Y+11449033D01*
X-13201633Y+11423175D01*
X-13085272Y+11423175D01*
X-13056181Y+11449033D01*
X-13056181Y+11578324D01*
X-12939820Y+11526608D02*
X-12881639Y+11578324D01*
X-12881639Y+11423175D01*
D160*
X-13000395Y+10575000D02*
X-13310395Y+10575000D01*
X-13310395Y+10425000D01*
X-13000395Y+10425000D01*
X-13000395Y+10575000D01*
X-13155395Y+10450000D02*
X-13155395Y+10550000D01*
X-13205395Y+10500000D02*
X-13105395Y+10500000D01*
D161*
X-13075395Y+10500000D02*
X-13075395Y+10500000D01*
D162*
X-13250745Y+10486164D02*
X-13258527Y+10479247D01*
X-13281874Y+10479247D01*
X-13297438Y+10493082D01*
X-13297438Y+10506917D01*
X-13281874Y+10520752D01*
X-13258527Y+10520752D01*
X-13250745Y+10513835D01*
X-13227398Y+10513835D02*
X-13219616Y+10520752D01*
X-13196269Y+10520752D01*
X-13188487Y+10513835D01*
X-13188487Y+10506917D01*
X-13196269Y+10500000D01*
X-13219616Y+10500000D01*
X-13227398Y+10493082D01*
X-13227398Y+10479247D01*
X-13188487Y+10479247D01*
X-13126229Y+10506917D02*
X-13134011Y+10500000D01*
X-13157358Y+10500000D01*
X-13165140Y+10506917D01*
X-13165140Y+10513835D01*
X-13157358Y+10520752D01*
X-13134011Y+10520752D01*
X-13126229Y+10513835D01*
X-13126229Y+10486164D01*
X-13134011Y+10479247D01*
X-13157358Y+10479247D01*
D160*
X-13000395Y+10325000D02*
X-13310395Y+10325000D01*
X-13310395Y+10175000D01*
X-13000395Y+10175000D01*
X-13000395Y+10325000D01*
X-13155395Y+10200000D02*
X-13155395Y+10300000D01*
X-13205395Y+10250000D02*
X-13105395Y+10250000D01*
D161*
X-13075395Y+10250000D02*
X-13075395Y+10250000D01*
D162*
X-13250745Y+10236164D02*
X-13258527Y+10229247D01*
X-13281874Y+10229247D01*
X-13297438Y+10243082D01*
X-13297438Y+10256917D01*
X-13281874Y+10270752D01*
X-13258527Y+10270752D01*
X-13250745Y+10263835D01*
X-13227398Y+10263835D02*
X-13219616Y+10270752D01*
X-13196269Y+10270752D01*
X-13188487Y+10263835D01*
X-13188487Y+10256917D01*
X-13196269Y+10250000D01*
X-13188487Y+10243082D01*
X-13188487Y+10236164D01*
X-13196269Y+10229247D01*
X-13219616Y+10229247D01*
X-13227398Y+10236164D01*
X-13211834Y+10250000D02*
X-13196269Y+10250000D01*
X-13172922Y+10236164D02*
X-13172922Y+10263835D01*
X-13165140Y+10270752D01*
X-13134011Y+10270752D01*
X-13126229Y+10263835D01*
X-13126229Y+10236164D01*
X-13134011Y+10229247D01*
X-13165140Y+10229247D01*
X-13172922Y+10236164D01*
X-13172922Y+10229247D02*
X-13126229Y+10270752D01*
D160*
X-10675000Y+10075000D02*
X-10985000Y+10075000D01*
X-10985000Y+9925000D01*
X-10675000Y+9925000D01*
X-10675000Y+10075000D01*
X-10830000Y+9950000D02*
X-10830000Y+10050000D01*
X-10880000Y+10000000D02*
X-10780000Y+10000000D01*
D161*
X-10750000Y+10000000D02*
X-10750000Y+10000000D01*
D162*
X-10925350Y+9986164D02*
X-10933132Y+9979247D01*
X-10956479Y+9979247D01*
X-10972043Y+9993082D01*
X-10972043Y+10006917D01*
X-10956479Y+10020752D01*
X-10933132Y+10020752D01*
X-10925350Y+10013835D01*
X-10902003Y+10013835D02*
X-10894221Y+10020752D01*
X-10870874Y+10020752D01*
X-10863092Y+10013835D01*
X-10863092Y+10006917D01*
X-10870874Y+10000000D01*
X-10863092Y+9993082D01*
X-10863092Y+9986164D01*
X-10870874Y+9979247D01*
X-10894221Y+9979247D01*
X-10902003Y+9986164D01*
X-10886439Y+10000000D02*
X-10870874Y+10000000D01*
X-10831963Y+10006917D02*
X-10816398Y+10020752D01*
X-10816398Y+9979247D01*
D160*
X-10425000Y+9925000D02*
X-10425000Y+10235000D01*
X-10575000Y+10235000D01*
X-10575000Y+9925000D01*
X-10425000Y+9925000D01*
X-10550000Y+10080000D02*
X-10450000Y+10080000D01*
X-10500000Y+10130000D02*
X-10500000Y+10030000D01*
D161*
X-10500000Y+10000000D02*
X-10500000Y+10000000D01*
D162*
X-10486164Y+10081962D02*
X-10479247Y+10074180D01*
X-10479247Y+10050833D01*
X-10493082Y+10035269D01*
X-10506917Y+10035269D01*
X-10520752Y+10050833D01*
X-10520752Y+10074180D01*
X-10513835Y+10081962D01*
X-10513835Y+10105309D02*
X-10520752Y+10113091D01*
X-10520752Y+10136438D01*
X-10513835Y+10144220D01*
X-10506917Y+10144220D01*
X-10500000Y+10136438D01*
X-10493082Y+10144220D01*
X-10486164Y+10144220D01*
X-10479247Y+10136438D01*
X-10479247Y+10113091D01*
X-10486164Y+10105309D01*
X-10500000Y+10120873D02*
X-10500000Y+10136438D01*
X-10513835Y+10167567D02*
X-10520752Y+10175349D01*
X-10520752Y+10198696D01*
X-10513835Y+10206478D01*
X-10506917Y+10206478D01*
X-10500000Y+10198696D01*
X-10500000Y+10175349D01*
X-10493082Y+10167567D01*
X-10479247Y+10167567D01*
X-10479247Y+10206478D01*
D160*
X-10425000Y+11075000D02*
X-10735000Y+11075000D01*
X-10735000Y+10925000D01*
X-10425000Y+10925000D01*
X-10425000Y+11075000D01*
X-10580000Y+10950000D02*
X-10580000Y+11050000D01*
X-10630000Y+11000000D02*
X-10530000Y+11000000D01*
D161*
X-10500000Y+11000000D02*
X-10500000Y+11000000D01*
D162*
X-10675350Y+10986164D02*
X-10683132Y+10979247D01*
X-10706479Y+10979247D01*
X-10722043Y+10993082D01*
X-10722043Y+11006917D01*
X-10706479Y+11020752D01*
X-10683132Y+11020752D01*
X-10675350Y+11013835D01*
X-10652003Y+11013835D02*
X-10644221Y+11020752D01*
X-10620874Y+11020752D01*
X-10613092Y+11013835D01*
X-10613092Y+11006917D01*
X-10620874Y+11000000D01*
X-10613092Y+10993082D01*
X-10613092Y+10986164D01*
X-10620874Y+10979247D01*
X-10644221Y+10979247D01*
X-10652003Y+10986164D01*
X-10636439Y+11000000D02*
X-10620874Y+11000000D01*
X-10589745Y+11013835D02*
X-10581963Y+11020752D01*
X-10558616Y+11020752D01*
X-10550834Y+11013835D01*
X-10550834Y+11006917D01*
X-10558616Y+11000000D01*
X-10550834Y+10993082D01*
X-10550834Y+10986164D01*
X-10558616Y+10979247D01*
X-10581963Y+10979247D01*
X-10589745Y+10986164D01*
X-10574181Y+11000000D02*
X-10558616Y+11000000D01*
D160*
X-12075000Y+9925000D02*
X-11765000Y+9925000D01*
X-11765000Y+10075000D01*
X-12075000Y+10075000D01*
X-12075000Y+9925000D01*
X-11920000Y+10050000D02*
X-11920000Y+9950000D01*
X-11870000Y+10000000D02*
X-11970000Y+10000000D01*
D161*
X-12000000Y+10000000D02*
X-12000000Y+10000000D01*
D162*
X-11918038Y+9986164D02*
X-11925820Y+9979247D01*
X-11949167Y+9979247D01*
X-11964731Y+9993082D01*
X-11964731Y+10006917D01*
X-11949167Y+10020752D01*
X-11925820Y+10020752D01*
X-11918038Y+10013835D01*
X-11894691Y+10013835D02*
X-11886909Y+10020752D01*
X-11863562Y+10020752D01*
X-11855780Y+10013835D01*
X-11855780Y+10006917D01*
X-11863562Y+10000000D01*
X-11855780Y+9993082D01*
X-11855780Y+9986164D01*
X-11863562Y+9979247D01*
X-11886909Y+9979247D01*
X-11894691Y+9986164D01*
X-11879127Y+10000000D02*
X-11863562Y+10000000D01*
X-11793522Y+9993082D02*
X-11840215Y+9993082D01*
X-11809086Y+10020752D01*
X-11809086Y+9979247D01*
D160*
X-11175000Y+10075000D02*
X-11485000Y+10075000D01*
X-11485000Y+9925000D01*
X-11175000Y+9925000D01*
X-11175000Y+10075000D01*
X-11330000Y+9950000D02*
X-11330000Y+10050000D01*
X-11380000Y+10000000D02*
X-11280000Y+10000000D01*
D161*
X-11250000Y+10000000D02*
X-11250000Y+10000000D01*
D162*
X-11425350Y+9986164D02*
X-11433132Y+9979247D01*
X-11456479Y+9979247D01*
X-11472043Y+9993082D01*
X-11472043Y+10006917D01*
X-11456479Y+10020752D01*
X-11433132Y+10020752D01*
X-11425350Y+10013835D01*
X-11402003Y+10013835D02*
X-11394221Y+10020752D01*
X-11370874Y+10020752D01*
X-11363092Y+10013835D01*
X-11363092Y+10006917D01*
X-11370874Y+10000000D01*
X-11363092Y+9993082D01*
X-11363092Y+9986164D01*
X-11370874Y+9979247D01*
X-11394221Y+9979247D01*
X-11402003Y+9986164D01*
X-11386439Y+10000000D02*
X-11370874Y+10000000D01*
X-11300834Y+10020752D02*
X-11339745Y+10020752D01*
X-11339745Y+10006917D01*
X-11308616Y+10006917D01*
X-11300834Y+10000000D01*
X-11300834Y+9986164D01*
X-11308616Y+9979247D01*
X-11331963Y+9979247D01*
X-11339745Y+9986164D01*
D160*
X-12209000Y+10325000D02*
X-12519000Y+10325000D01*
X-12519000Y+10175000D01*
X-12209000Y+10175000D01*
X-12209000Y+10325000D01*
X-12364000Y+10200000D02*
X-12364000Y+10300000D01*
X-12414000Y+10250000D02*
X-12314000Y+10250000D01*
D161*
X-12284000Y+10250000D02*
X-12284000Y+10250000D01*
D162*
X-12459350Y+10236164D02*
X-12467132Y+10229247D01*
X-12490479Y+10229247D01*
X-12506043Y+10243082D01*
X-12506043Y+10256917D01*
X-12490479Y+10270752D01*
X-12467132Y+10270752D01*
X-12459350Y+10263835D01*
X-12436003Y+10263835D02*
X-12428221Y+10270752D01*
X-12404874Y+10270752D01*
X-12397092Y+10263835D01*
X-12397092Y+10256917D01*
X-12404874Y+10250000D01*
X-12397092Y+10243082D01*
X-12397092Y+10236164D01*
X-12404874Y+10229247D01*
X-12428221Y+10229247D01*
X-12436003Y+10236164D01*
X-12420439Y+10250000D02*
X-12404874Y+10250000D01*
X-12334834Y+10263835D02*
X-12342616Y+10270752D01*
X-12365963Y+10270752D01*
X-12373745Y+10263835D01*
X-12373745Y+10236164D01*
X-12365963Y+10229247D01*
X-12342616Y+10229247D01*
X-12334834Y+10236164D01*
X-12334834Y+10243082D01*
X-12342616Y+10250000D01*
X-12373745Y+10250000D01*
D160*
X-12209000Y+10075000D02*
X-12519000Y+10075000D01*
X-12519000Y+9925000D01*
X-12209000Y+9925000D01*
X-12209000Y+10075000D01*
X-12364000Y+9950000D02*
X-12364000Y+10050000D01*
X-12414000Y+10000000D02*
X-12314000Y+10000000D01*
D161*
X-12284000Y+10000000D02*
X-12284000Y+10000000D01*
D162*
X-12459350Y+9986164D02*
X-12467132Y+9979247D01*
X-12490479Y+9979247D01*
X-12506043Y+9993082D01*
X-12506043Y+10006917D01*
X-12490479Y+10020752D01*
X-12467132Y+10020752D01*
X-12459350Y+10013835D01*
X-12436003Y+10013835D02*
X-12428221Y+10020752D01*
X-12404874Y+10020752D01*
X-12397092Y+10013835D01*
X-12397092Y+10006917D01*
X-12404874Y+10000000D01*
X-12397092Y+9993082D01*
X-12397092Y+9986164D01*
X-12404874Y+9979247D01*
X-12428221Y+9979247D01*
X-12436003Y+9986164D01*
X-12420439Y+10000000D02*
X-12404874Y+10000000D01*
X-12373745Y+10020752D02*
X-12334834Y+10020752D01*
X-12334834Y+10013835D01*
X-12373745Y+9979247D01*
D160*
X-12209000Y+9825000D02*
X-12519000Y+9825000D01*
X-12519000Y+9675000D01*
X-12209000Y+9675000D01*
X-12209000Y+9825000D01*
X-12364000Y+9700000D02*
X-12364000Y+9800000D01*
X-12414000Y+9750000D02*
X-12314000Y+9750000D01*
D161*
X-12284000Y+9750000D02*
X-12284000Y+9750000D01*
D162*
X-12459350Y+9736164D02*
X-12467132Y+9729247D01*
X-12490479Y+9729247D01*
X-12506043Y+9743082D01*
X-12506043Y+9756917D01*
X-12490479Y+9770752D01*
X-12467132Y+9770752D01*
X-12459350Y+9763835D01*
X-12436003Y+9763835D02*
X-12428221Y+9770752D01*
X-12404874Y+9770752D01*
X-12397092Y+9763835D01*
X-12397092Y+9756917D01*
X-12404874Y+9750000D01*
X-12397092Y+9743082D01*
X-12397092Y+9736164D01*
X-12404874Y+9729247D01*
X-12428221Y+9729247D01*
X-12436003Y+9736164D01*
X-12420439Y+9750000D02*
X-12404874Y+9750000D01*
X-12365963Y+9750000D02*
X-12373745Y+9756917D01*
X-12373745Y+9763835D01*
X-12365963Y+9770752D01*
X-12342616Y+9770752D01*
X-12334834Y+9763835D01*
X-12334834Y+9756917D01*
X-12342616Y+9750000D01*
X-12365963Y+9750000D01*
X-12373745Y+9743082D01*
X-12373745Y+9736164D01*
X-12365963Y+9729247D01*
X-12342616Y+9729247D01*
X-12334834Y+9736164D01*
X-12334834Y+9743082D01*
X-12342616Y+9750000D01*
D160*
X-12675000Y+9825000D02*
X-12985000Y+9825000D01*
X-12985000Y+9675000D01*
X-12675000Y+9675000D01*
X-12675000Y+9825000D01*
X-12830000Y+9700000D02*
X-12830000Y+9800000D01*
X-12880000Y+9750000D02*
X-12780000Y+9750000D01*
D161*
X-12750000Y+9750000D02*
X-12750000Y+9750000D01*
D162*
X-12925350Y+9736164D02*
X-12933132Y+9729247D01*
X-12956479Y+9729247D01*
X-12972043Y+9743082D01*
X-12972043Y+9756917D01*
X-12956479Y+9770752D01*
X-12933132Y+9770752D01*
X-12925350Y+9763835D01*
X-12902003Y+9763835D02*
X-12894221Y+9770752D01*
X-12870874Y+9770752D01*
X-12863092Y+9763835D01*
X-12863092Y+9756917D01*
X-12870874Y+9750000D01*
X-12863092Y+9743082D01*
X-12863092Y+9736164D01*
X-12870874Y+9729247D01*
X-12894221Y+9729247D01*
X-12902003Y+9736164D01*
X-12886439Y+9750000D02*
X-12870874Y+9750000D01*
X-12800834Y+9756917D02*
X-12808616Y+9750000D01*
X-12831963Y+9750000D01*
X-12839745Y+9756917D01*
X-12839745Y+9763835D01*
X-12831963Y+9770752D01*
X-12808616Y+9770752D01*
X-12800834Y+9763835D01*
X-12800834Y+9736164D01*
X-12808616Y+9729247D01*
X-12831963Y+9729247D01*
D160*
X-10935000Y+11229000D02*
X-11065000Y+11229000D01*
X-11065000Y+10935000D01*
X-10935000Y+10935000D01*
X-10935000Y+11229000D01*
D188*
X-11000000Y+11000000D02*
X-11000000Y+11000000D01*
D189*
X-10979466Y+11062150D02*
X-11020533Y+11062150D01*
X-11020533Y+11092950D01*
X-11006844Y+11108350D01*
X-10993155Y+11108350D01*
X-10979466Y+11092950D01*
X-10979466Y+11062150D01*
X-11013689Y+11131451D02*
X-11020533Y+11139151D01*
X-11020533Y+11162251D01*
X-11013689Y+11169951D01*
X-11006844Y+11169951D01*
X-11000000Y+11162251D01*
X-10993155Y+11169951D01*
X-10986310Y+11169951D01*
X-10979466Y+11162251D01*
X-10979466Y+11139151D01*
X-10986310Y+11131451D01*
X-11000000Y+11146851D02*
X-11000000Y+11162251D01*
D160*
X-12330000Y+10785000D02*
X-11620000Y+10785000D01*
X-11620000Y+11215000D01*
X-12330000Y+11215000D01*
X-12330000Y+10785000D01*
X-11975000Y+11050000D02*
X-11975000Y+10950000D01*
X-11925000Y+11000000D02*
X-12025000Y+11000000D01*
D190*
X-12200000Y+11000000D02*
X-12200000Y+11000000D01*
D191*
X-12026219Y+10953816D02*
X-12026219Y+11046183D01*
X-11956944Y+11046183D01*
X-11922306Y+11015394D01*
X-11922306Y+10984605D01*
X-11956944Y+10953816D01*
X-12026219Y+10953816D01*
X-11783755Y+10984605D02*
X-11887668Y+10984605D01*
X-11818393Y+11046183D01*
X-11818393Y+10953816D01*
D160*
X-12729000Y+10565000D02*
X-12729000Y+10435000D01*
X-12435000Y+10435000D01*
X-12435000Y+10565000D01*
X-12729000Y+10565000D01*
D188*
X-12500000Y+10500000D02*
X-12500000Y+10500000D01*
D189*
X-12685352Y+10479466D02*
X-12685352Y+10520533D01*
X-12654552Y+10520533D01*
X-12639152Y+10506844D01*
X-12639152Y+10493155D01*
X-12654552Y+10479466D01*
X-12685352Y+10479466D01*
X-12577551Y+10520533D02*
X-12616051Y+10520533D01*
X-12616051Y+10506844D01*
X-12585251Y+10506844D01*
X-12577551Y+10500000D01*
X-12577551Y+10486310D01*
X-12585251Y+10479466D01*
X-12608351Y+10479466D01*
X-12616051Y+10486310D01*
D169*
X-11752334Y+10182000D02*
X-12066334Y+10182000D01*
X-12066334Y+10318000D01*
X-11752334Y+10318000D01*
X-11752334Y+10182000D01*
D170*
X-11824334Y+10250000D02*
X-11824334Y+10250000D01*
D171*
X-12053173Y+10228762D02*
X-12053173Y+10271238D01*
X-12013353Y+10271238D01*
X-12005389Y+10264159D01*
X-12005389Y+10257079D01*
X-12013353Y+10250000D01*
X-12053173Y+10250000D01*
X-12013353Y+10250000D02*
X-12005389Y+10242921D01*
X-12005389Y+10228762D01*
X-11973532Y+10257079D02*
X-11957604Y+10271238D01*
X-11957604Y+10228762D01*
X-11877963Y+10257079D02*
X-11885927Y+10250000D01*
X-11909819Y+10250000D01*
X-11917783Y+10257079D01*
X-11917783Y+10264159D01*
X-11909819Y+10271238D01*
X-11885927Y+10271238D01*
X-11877963Y+10264159D01*
X-11877963Y+10235841D01*
X-11885927Y+10228762D01*
X-11909819Y+10228762D01*
D169*
X-11297668Y+10182000D02*
X-11611668Y+10182000D01*
X-11611668Y+10318000D01*
X-11297668Y+10318000D01*
X-11297668Y+10182000D01*
D170*
X-11369668Y+10250000D02*
X-11369668Y+10250000D01*
D171*
X-11598507Y+10228762D02*
X-11598507Y+10271238D01*
X-11558687Y+10271238D01*
X-11550723Y+10264159D01*
X-11550723Y+10257079D01*
X-11558687Y+10250000D01*
X-11598507Y+10250000D01*
X-11558687Y+10250000D02*
X-11550723Y+10242921D01*
X-11550723Y+10228762D01*
X-11526830Y+10264159D02*
X-11518866Y+10271238D01*
X-11494974Y+10271238D01*
X-11487010Y+10264159D01*
X-11487010Y+10257079D01*
X-11494974Y+10250000D01*
X-11518866Y+10250000D01*
X-11526830Y+10242921D01*
X-11526830Y+10228762D01*
X-11487010Y+10228762D01*
X-11471081Y+10235841D02*
X-11471081Y+10264159D01*
X-11463117Y+10271238D01*
X-11431261Y+10271238D01*
X-11423297Y+10264159D01*
X-11423297Y+10235841D01*
X-11431261Y+10228762D01*
X-11463117Y+10228762D01*
X-11471081Y+10235841D01*
X-11471081Y+10228762D02*
X-11423297Y+10271238D01*
D169*
X-10843000Y+10182000D02*
X-11157000Y+10182000D01*
X-11157000Y+10318000D01*
X-10843000Y+10318000D01*
X-10843000Y+10182000D01*
D170*
X-10915000Y+10250000D02*
X-10915000Y+10250000D01*
D171*
X-11143839Y+10228762D02*
X-11143839Y+10271238D01*
X-11104019Y+10271238D01*
X-11096055Y+10264159D01*
X-11096055Y+10257079D01*
X-11104019Y+10250000D01*
X-11143839Y+10250000D01*
X-11104019Y+10250000D02*
X-11096055Y+10242921D01*
X-11096055Y+10228762D01*
X-11072162Y+10264159D02*
X-11064198Y+10271238D01*
X-11040306Y+10271238D01*
X-11032342Y+10264159D01*
X-11032342Y+10257079D01*
X-11040306Y+10250000D01*
X-11064198Y+10250000D01*
X-11072162Y+10242921D01*
X-11072162Y+10228762D01*
X-11032342Y+10228762D01*
X-11000485Y+10257079D02*
X-10984557Y+10271238D01*
X-10984557Y+10228762D01*
D169*
X-9843000Y+10932000D02*
X-10157000Y+10932000D01*
X-10157000Y+11068000D01*
X-9843000Y+11068000D01*
X-9843000Y+10932000D01*
D170*
X-9915000Y+11000000D02*
X-9915000Y+11000000D01*
D171*
X-10143839Y+10978762D02*
X-10143839Y+11021238D01*
X-10104019Y+11021238D01*
X-10096055Y+11014159D01*
X-10096055Y+11007079D01*
X-10104019Y+11000000D01*
X-10143839Y+11000000D01*
X-10104019Y+11000000D02*
X-10096055Y+10992921D01*
X-10096055Y+10978762D01*
X-10072162Y+11014159D02*
X-10064198Y+11021238D01*
X-10040306Y+11021238D01*
X-10032342Y+11014159D01*
X-10032342Y+11007079D01*
X-10040306Y+11000000D01*
X-10064198Y+11000000D01*
X-10072162Y+10992921D01*
X-10072162Y+10978762D01*
X-10032342Y+10978762D01*
X-10008449Y+11014159D02*
X-10000485Y+11021238D01*
X-9976593Y+11021238D01*
X-9968629Y+11014159D01*
X-9968629Y+11007079D01*
X-9976593Y+11000000D01*
X-10000485Y+11000000D01*
X-10008449Y+10992921D01*
X-10008449Y+10978762D01*
X-9968629Y+10978762D01*
D169*
X-9843000Y+10682000D02*
X-10157000Y+10682000D01*
X-10157000Y+10818000D01*
X-9843000Y+10818000D01*
X-9843000Y+10682000D01*
D170*
X-9915000Y+10750000D02*
X-9915000Y+10750000D01*
D171*
X-10143839Y+10728762D02*
X-10143839Y+10771238D01*
X-10104019Y+10771238D01*
X-10096055Y+10764159D01*
X-10096055Y+10757079D01*
X-10104019Y+10750000D01*
X-10143839Y+10750000D01*
X-10104019Y+10750000D02*
X-10096055Y+10742921D01*
X-10096055Y+10728762D01*
X-10072162Y+10764159D02*
X-10064198Y+10771238D01*
X-10040306Y+10771238D01*
X-10032342Y+10764159D01*
X-10032342Y+10757079D01*
X-10040306Y+10750000D01*
X-10064198Y+10750000D01*
X-10072162Y+10742921D01*
X-10072162Y+10728762D01*
X-10032342Y+10728762D01*
X-10008449Y+10764159D02*
X-10000485Y+10771238D01*
X-9976593Y+10771238D01*
X-9968629Y+10764159D01*
X-9968629Y+10757079D01*
X-9976593Y+10750000D01*
X-9968629Y+10742921D01*
X-9968629Y+10735841D01*
X-9976593Y+10728762D01*
X-10000485Y+10728762D01*
X-10008449Y+10735841D01*
X-9992521Y+10750000D02*
X-9976593Y+10750000D01*
D169*
X-9843000Y+10432000D02*
X-10157000Y+10432000D01*
X-10157000Y+10568000D01*
X-9843000Y+10568000D01*
X-9843000Y+10432000D01*
D170*
X-9915000Y+10500000D02*
X-9915000Y+10500000D01*
D171*
X-10143839Y+10478762D02*
X-10143839Y+10521238D01*
X-10104019Y+10521238D01*
X-10096055Y+10514159D01*
X-10096055Y+10507079D01*
X-10104019Y+10500000D01*
X-10143839Y+10500000D01*
X-10104019Y+10500000D02*
X-10096055Y+10492921D01*
X-10096055Y+10478762D01*
X-10072162Y+10514159D02*
X-10064198Y+10521238D01*
X-10040306Y+10521238D01*
X-10032342Y+10514159D01*
X-10032342Y+10507079D01*
X-10040306Y+10500000D01*
X-10064198Y+10500000D01*
X-10072162Y+10492921D01*
X-10072162Y+10478762D01*
X-10032342Y+10478762D01*
X-9968629Y+10492921D02*
X-10016413Y+10492921D01*
X-9984557Y+10521238D01*
X-9984557Y+10478762D01*
D169*
X-9843000Y+10182000D02*
X-10157000Y+10182000D01*
X-10157000Y+10318000D01*
X-9843000Y+10318000D01*
X-9843000Y+10182000D01*
D170*
X-9915000Y+10250000D02*
X-9915000Y+10250000D01*
D171*
X-10143839Y+10228762D02*
X-10143839Y+10271238D01*
X-10104019Y+10271238D01*
X-10096055Y+10264159D01*
X-10096055Y+10257079D01*
X-10104019Y+10250000D01*
X-10143839Y+10250000D01*
X-10104019Y+10250000D02*
X-10096055Y+10242921D01*
X-10096055Y+10228762D01*
X-10072162Y+10264159D02*
X-10064198Y+10271238D01*
X-10040306Y+10271238D01*
X-10032342Y+10264159D01*
X-10032342Y+10257079D01*
X-10040306Y+10250000D01*
X-10064198Y+10250000D01*
X-10072162Y+10242921D01*
X-10072162Y+10228762D01*
X-10032342Y+10228762D01*
X-9968629Y+10271238D02*
X-10008449Y+10271238D01*
X-10008449Y+10257079D01*
X-9976593Y+10257079D01*
X-9968629Y+10250000D01*
X-9968629Y+10235841D01*
X-9976593Y+10228762D01*
X-10000485Y+10228762D01*
X-10008449Y+10235841D01*
D169*
X-9843000Y+9932000D02*
X-10157000Y+9932000D01*
X-10157000Y+10068000D01*
X-9843000Y+10068000D01*
X-9843000Y+9932000D01*
D170*
X-9915000Y+10000000D02*
X-9915000Y+10000000D01*
D171*
X-10143839Y+9978762D02*
X-10143839Y+10021238D01*
X-10104019Y+10021238D01*
X-10096055Y+10014159D01*
X-10096055Y+10007079D01*
X-10104019Y+10000000D01*
X-10143839Y+10000000D01*
X-10104019Y+10000000D02*
X-10096055Y+9992921D01*
X-10096055Y+9978762D01*
X-10072162Y+10014159D02*
X-10064198Y+10021238D01*
X-10040306Y+10021238D01*
X-10032342Y+10014159D01*
X-10032342Y+10007079D01*
X-10040306Y+10000000D01*
X-10064198Y+10000000D01*
X-10072162Y+9992921D01*
X-10072162Y+9978762D01*
X-10032342Y+9978762D01*
X-9968629Y+10014159D02*
X-9976593Y+10021238D01*
X-10000485Y+10021238D01*
X-10008449Y+10014159D01*
X-10008449Y+9985841D01*
X-10000485Y+9978762D01*
X-9976593Y+9978762D01*
X-9968629Y+9985841D01*
X-9968629Y+9992921D01*
X-9976593Y+10000000D01*
X-10008449Y+10000000D01*
D169*
X-9343000Y+10932000D02*
X-9657000Y+10932000D01*
X-9657000Y+11068000D01*
X-9343000Y+11068000D01*
X-9343000Y+10932000D01*
D170*
X-9415000Y+11000000D02*
X-9415000Y+11000000D01*
D171*
X-9643839Y+10978762D02*
X-9643839Y+11021238D01*
X-9604019Y+11021238D01*
X-9596055Y+11014159D01*
X-9596055Y+11007079D01*
X-9604019Y+11000000D01*
X-9643839Y+11000000D01*
X-9604019Y+11000000D02*
X-9596055Y+10992921D01*
X-9596055Y+10978762D01*
X-9572162Y+11014159D02*
X-9564198Y+11021238D01*
X-9540306Y+11021238D01*
X-9532342Y+11014159D01*
X-9532342Y+11007079D01*
X-9540306Y+11000000D01*
X-9564198Y+11000000D01*
X-9572162Y+10992921D01*
X-9572162Y+10978762D01*
X-9532342Y+10978762D01*
X-9508449Y+11021238D02*
X-9468629Y+11021238D01*
X-9468629Y+11014159D01*
X-9508449Y+10978762D01*
D169*
X-9343000Y+10682000D02*
X-9657000Y+10682000D01*
X-9657000Y+10818000D01*
X-9343000Y+10818000D01*
X-9343000Y+10682000D01*
D170*
X-9415000Y+10750000D02*
X-9415000Y+10750000D01*
D171*
X-9643839Y+10728762D02*
X-9643839Y+10771238D01*
X-9604019Y+10771238D01*
X-9596055Y+10764159D01*
X-9596055Y+10757079D01*
X-9604019Y+10750000D01*
X-9643839Y+10750000D01*
X-9604019Y+10750000D02*
X-9596055Y+10742921D01*
X-9596055Y+10728762D01*
X-9572162Y+10764159D02*
X-9564198Y+10771238D01*
X-9540306Y+10771238D01*
X-9532342Y+10764159D01*
X-9532342Y+10757079D01*
X-9540306Y+10750000D01*
X-9564198Y+10750000D01*
X-9572162Y+10742921D01*
X-9572162Y+10728762D01*
X-9532342Y+10728762D01*
X-9500485Y+10750000D02*
X-9508449Y+10757079D01*
X-9508449Y+10764159D01*
X-9500485Y+10771238D01*
X-9476593Y+10771238D01*
X-9468629Y+10764159D01*
X-9468629Y+10757079D01*
X-9476593Y+10750000D01*
X-9500485Y+10750000D01*
X-9508449Y+10742921D01*
X-9508449Y+10735841D01*
X-9500485Y+10728762D01*
X-9476593Y+10728762D01*
X-9468629Y+10735841D01*
X-9468629Y+10742921D01*
X-9476593Y+10750000D01*
D169*
X-9343000Y+10432000D02*
X-9657000Y+10432000D01*
X-9657000Y+10568000D01*
X-9343000Y+10568000D01*
X-9343000Y+10432000D01*
D170*
X-9415000Y+10500000D02*
X-9415000Y+10500000D01*
D171*
X-9643839Y+10478762D02*
X-9643839Y+10521238D01*
X-9604019Y+10521238D01*
X-9596055Y+10514159D01*
X-9596055Y+10507079D01*
X-9604019Y+10500000D01*
X-9643839Y+10500000D01*
X-9604019Y+10500000D02*
X-9596055Y+10492921D01*
X-9596055Y+10478762D01*
X-9572162Y+10514159D02*
X-9564198Y+10521238D01*
X-9540306Y+10521238D01*
X-9532342Y+10514159D01*
X-9532342Y+10507079D01*
X-9540306Y+10500000D01*
X-9564198Y+10500000D01*
X-9572162Y+10492921D01*
X-9572162Y+10478762D01*
X-9532342Y+10478762D01*
X-9468629Y+10507079D02*
X-9476593Y+10500000D01*
X-9500485Y+10500000D01*
X-9508449Y+10507079D01*
X-9508449Y+10514159D01*
X-9500485Y+10521238D01*
X-9476593Y+10521238D01*
X-9468629Y+10514159D01*
X-9468629Y+10485841D01*
X-9476593Y+10478762D01*
X-9500485Y+10478762D01*
D192*
X-11537000Y+5810000D02*
X-11537000Y+6670000D01*
X-10463000Y+6670000D01*
X-10463000Y+5810000D01*
X-11537000Y+5810000D02*
X-10463000Y+5810000D01*
D193*
X-11375000Y+6590000D02*
X-11375000Y+6590000D01*
D194*
X-11388662Y+6164213D02*
X-11388662Y+6135423D01*
X-11356274Y+6106633D01*
X-11226720Y+6106633D01*
X-11194331Y+6135423D01*
X-11194331Y+6279372D01*
X-11064777Y+6221792D02*
X-11000000Y+6279372D01*
X-11000000Y+6106633D01*
X-10838058Y+6250582D02*
X-10805669Y+6279372D01*
X-10708504Y+6279372D01*
X-10676115Y+6250582D01*
X-10676115Y+6221792D01*
X-10708504Y+6193003D01*
X-10676115Y+6164213D01*
X-10676115Y+6135423D01*
X-10708504Y+6106633D01*
X-10805669Y+6106633D01*
X-10838058Y+6135423D01*
X-10773281Y+6193003D02*
X-10708504Y+6193003D01*
D160*
X-9923996Y+6585000D02*
X-10265996Y+6585000D01*
X-10265996Y+6163000D01*
X-9923996Y+6163000D01*
X-9923996Y+6585000D01*
D195*
X-10000000Y+6500000D02*
X-10000000Y+6500000D01*
D196*
X-10237367Y+6349788D02*
X-10237367Y+6297058D01*
X-10225503Y+6286512D01*
X-10178046Y+6286512D01*
X-10166182Y+6297058D01*
X-10166182Y+6349788D01*
X-10118725Y+6328696D02*
X-10094996Y+6349788D01*
X-10094996Y+6286512D01*
X-10047539Y+6297058D02*
X-10047539Y+6339242D01*
X-10035675Y+6349788D01*
X-9988218Y+6349788D01*
X-9976354Y+6339242D01*
X-9976354Y+6297058D01*
X-9988218Y+6286512D01*
X-10035675Y+6286512D01*
X-10047539Y+6297058D01*
X-10047539Y+6286512D02*
X-9976354Y+6349788D01*
D160*
X-11853000Y+5935000D02*
X-11853000Y+6065000D01*
X-12147000Y+6065000D01*
X-12147000Y+5935000D01*
X-11853000Y+5935000D01*
D188*
X-12082000Y+6000000D02*
X-12082000Y+6000000D01*
D189*
X-12019850Y+5979466D02*
X-12019850Y+6020533D01*
X-11989050Y+6020533D01*
X-11973650Y+6006844D01*
X-11973650Y+5993155D01*
X-11989050Y+5979466D01*
X-12019850Y+5979466D01*
X-11912049Y+6013689D02*
X-11919749Y+6020533D01*
X-11942849Y+6020533D01*
X-11950549Y+6013689D01*
X-11950549Y+5986310D01*
X-11942849Y+5979466D01*
X-11919749Y+5979466D01*
X-11912049Y+5986310D01*
X-11912049Y+5993155D01*
X-11919749Y+6000000D01*
X-11950549Y+6000000D01*
D169*
X-10906000Y+7068000D02*
X-10592000Y+7068000D01*
X-10592000Y+6932000D01*
X-10906000Y+6932000D01*
X-10906000Y+7068000D01*
D170*
X-10834000Y+7000000D02*
X-10834000Y+7000000D01*
D171*
X-10796299Y+6978762D02*
X-10796299Y+7021238D01*
X-10756479Y+7021238D01*
X-10748515Y+7014159D01*
X-10748515Y+7007079D01*
X-10756479Y+7000000D01*
X-10796299Y+7000000D01*
X-10756479Y+7000000D02*
X-10748515Y+6992921D01*
X-10748515Y+6978762D01*
X-10724622Y+7014159D02*
X-10716658Y+7021238D01*
X-10692766Y+7021238D01*
X-10684802Y+7014159D01*
X-10684802Y+7007079D01*
X-10692766Y+7000000D01*
X-10684802Y+6992921D01*
X-10684802Y+6985841D01*
X-10692766Y+6978762D01*
X-10716658Y+6978762D01*
X-10724622Y+6985841D01*
X-10708694Y+7000000D02*
X-10692766Y+7000000D01*
X-10668873Y+6985841D02*
X-10668873Y+7014159D01*
X-10660909Y+7021238D01*
X-10629053Y+7021238D01*
X-10621089Y+7014159D01*
X-10621089Y+6985841D01*
X-10629053Y+6978762D01*
X-10660909Y+6978762D01*
X-10668873Y+6985841D01*
X-10668873Y+6978762D02*
X-10621089Y+7021238D01*
D169*
X-10489000Y+7068000D02*
X-10175000Y+7068000D01*
X-10175000Y+6932000D01*
X-10489000Y+6932000D01*
X-10489000Y+7068000D01*
D170*
X-10417000Y+7000000D02*
X-10417000Y+7000000D01*
D171*
X-10379299Y+6978762D02*
X-10379299Y+7021238D01*
X-10339479Y+7021238D01*
X-10331515Y+7014159D01*
X-10331515Y+7007079D01*
X-10339479Y+7000000D01*
X-10379299Y+7000000D01*
X-10339479Y+7000000D02*
X-10331515Y+6992921D01*
X-10331515Y+6978762D01*
X-10307622Y+7014159D02*
X-10299658Y+7021238D01*
X-10275766Y+7021238D01*
X-10267802Y+7014159D01*
X-10267802Y+7007079D01*
X-10275766Y+7000000D01*
X-10267802Y+6992921D01*
X-10267802Y+6985841D01*
X-10275766Y+6978762D01*
X-10299658Y+6978762D01*
X-10307622Y+6985841D01*
X-10291694Y+7000000D02*
X-10275766Y+7000000D01*
X-10235945Y+7007079D02*
X-10220017Y+7021238D01*
X-10220017Y+6978762D01*
D169*
X-10072000Y+7068000D02*
X-9758000Y+7068000D01*
X-9758000Y+6932000D01*
X-10072000Y+6932000D01*
X-10072000Y+7068000D01*
D170*
X-10000000Y+7000000D02*
X-10000000Y+7000000D01*
D171*
X-9962299Y+6978762D02*
X-9962299Y+7021238D01*
X-9922479Y+7021238D01*
X-9914515Y+7014159D01*
X-9914515Y+7007079D01*
X-9922479Y+7000000D01*
X-9962299Y+7000000D01*
X-9922479Y+7000000D02*
X-9914515Y+6992921D01*
X-9914515Y+6978762D01*
X-9890622Y+7014159D02*
X-9882658Y+7021238D01*
X-9858766Y+7021238D01*
X-9850802Y+7014159D01*
X-9850802Y+7007079D01*
X-9858766Y+7000000D01*
X-9850802Y+6992921D01*
X-9850802Y+6985841D01*
X-9858766Y+6978762D01*
X-9882658Y+6978762D01*
X-9890622Y+6985841D01*
X-9874694Y+7000000D02*
X-9858766Y+7000000D01*
X-9826909Y+7014159D02*
X-9818945Y+7021238D01*
X-9795053Y+7021238D01*
X-9787089Y+7014159D01*
X-9787089Y+7007079D01*
X-9795053Y+7000000D01*
X-9818945Y+7000000D01*
X-9826909Y+6992921D01*
X-9826909Y+6978762D01*
X-9787089Y+6978762D01*
D169*
X-11323000Y+7068000D02*
X-11009000Y+7068000D01*
X-11009000Y+6932000D01*
X-11323000Y+6932000D01*
X-11323000Y+7068000D01*
D170*
X-11251000Y+7000000D02*
X-11251000Y+7000000D01*
D171*
X-11213299Y+6978762D02*
X-11213299Y+7021238D01*
X-11173479Y+7021238D01*
X-11165515Y+7014159D01*
X-11165515Y+7007079D01*
X-11173479Y+7000000D01*
X-11213299Y+7000000D01*
X-11173479Y+7000000D02*
X-11165515Y+6992921D01*
X-11165515Y+6978762D01*
X-11141622Y+7014159D02*
X-11133658Y+7021238D01*
X-11109766Y+7021238D01*
X-11101802Y+7014159D01*
X-11101802Y+7007079D01*
X-11109766Y+7000000D01*
X-11101802Y+6992921D01*
X-11101802Y+6985841D01*
X-11109766Y+6978762D01*
X-11133658Y+6978762D01*
X-11141622Y+6985841D01*
X-11125694Y+7000000D02*
X-11109766Y+7000000D01*
X-11077909Y+7014159D02*
X-11069945Y+7021238D01*
X-11046053Y+7021238D01*
X-11038089Y+7014159D01*
X-11038089Y+7007079D01*
X-11046053Y+7000000D01*
X-11038089Y+6992921D01*
X-11038089Y+6985841D01*
X-11046053Y+6978762D01*
X-11069945Y+6978762D01*
X-11077909Y+6985841D01*
X-11061981Y+7000000D02*
X-11046053Y+7000000D01*
D169*
X-11757000Y+7318000D02*
X-11443000Y+7318000D01*
X-11443000Y+7182000D01*
X-11757000Y+7182000D01*
X-11757000Y+7318000D01*
D170*
X-11685000Y+7250000D02*
X-11685000Y+7250000D01*
D171*
X-11647299Y+7228762D02*
X-11647299Y+7271238D01*
X-11607479Y+7271238D01*
X-11599515Y+7264159D01*
X-11599515Y+7257079D01*
X-11607479Y+7250000D01*
X-11647299Y+7250000D01*
X-11607479Y+7250000D02*
X-11599515Y+7242921D01*
X-11599515Y+7228762D01*
X-11575622Y+7264159D02*
X-11567658Y+7271238D01*
X-11543766Y+7271238D01*
X-11535802Y+7264159D01*
X-11535802Y+7257079D01*
X-11543766Y+7250000D01*
X-11535802Y+7242921D01*
X-11535802Y+7235841D01*
X-11543766Y+7228762D01*
X-11567658Y+7228762D01*
X-11575622Y+7235841D01*
X-11559694Y+7250000D02*
X-11543766Y+7250000D01*
X-11472089Y+7242921D02*
X-11519873Y+7242921D01*
X-11488017Y+7271238D01*
X-11488017Y+7228762D01*
D169*
X-9618020Y+9568000D02*
X-9304020Y+9568000D01*
X-9304020Y+9432000D01*
X-9618020Y+9432000D01*
X-9618020Y+9568000D01*
D170*
X-9546020Y+9500000D02*
X-9546020Y+9500000D01*
D171*
X-9508319Y+9478762D02*
X-9508319Y+9521238D01*
X-9468499Y+9521238D01*
X-9460535Y+9514159D01*
X-9460535Y+9507079D01*
X-9468499Y+9500000D01*
X-9508319Y+9500000D01*
X-9468499Y+9500000D02*
X-9460535Y+9492921D01*
X-9460535Y+9478762D01*
X-9436642Y+9514159D02*
X-9428678Y+9521238D01*
X-9404786Y+9521238D01*
X-9396822Y+9514159D01*
X-9396822Y+9507079D01*
X-9404786Y+9500000D01*
X-9396822Y+9492921D01*
X-9396822Y+9485841D01*
X-9404786Y+9478762D01*
X-9428678Y+9478762D01*
X-9436642Y+9485841D01*
X-9420714Y+9500000D02*
X-9404786Y+9500000D01*
X-9333109Y+9521238D02*
X-9372929Y+9521238D01*
X-9372929Y+9507079D01*
X-9341073Y+9507079D01*
X-9333109Y+9500000D01*
X-9333109Y+9485841D01*
X-9341073Y+9478762D01*
X-9364965Y+9478762D01*
X-9372929Y+9485841D01*
D169*
X-9618020Y+9318000D02*
X-9304020Y+9318000D01*
X-9304020Y+9182000D01*
X-9618020Y+9182000D01*
X-9618020Y+9318000D01*
D170*
X-9546020Y+9250000D02*
X-9546020Y+9250000D01*
D171*
X-9508319Y+9228762D02*
X-9508319Y+9271238D01*
X-9468499Y+9271238D01*
X-9460535Y+9264159D01*
X-9460535Y+9257079D01*
X-9468499Y+9250000D01*
X-9508319Y+9250000D01*
X-9468499Y+9250000D02*
X-9460535Y+9242921D01*
X-9460535Y+9228762D01*
X-9436642Y+9264159D02*
X-9428678Y+9271238D01*
X-9404786Y+9271238D01*
X-9396822Y+9264159D01*
X-9396822Y+9257079D01*
X-9404786Y+9250000D01*
X-9396822Y+9242921D01*
X-9396822Y+9235841D01*
X-9404786Y+9228762D01*
X-9428678Y+9228762D01*
X-9436642Y+9235841D01*
X-9420714Y+9250000D02*
X-9404786Y+9250000D01*
X-9333109Y+9264159D02*
X-9341073Y+9271238D01*
X-9364965Y+9271238D01*
X-9372929Y+9264159D01*
X-9372929Y+9235841D01*
X-9364965Y+9228762D01*
X-9341073Y+9228762D01*
X-9333109Y+9235841D01*
X-9333109Y+9242921D01*
X-9341073Y+9250000D01*
X-9372929Y+9250000D01*
D169*
X-9618020Y+9068000D02*
X-9304020Y+9068000D01*
X-9304020Y+8932000D01*
X-9618020Y+8932000D01*
X-9618020Y+9068000D01*
D170*
X-9546020Y+9000000D02*
X-9546020Y+9000000D01*
D171*
X-9508319Y+8978762D02*
X-9508319Y+9021238D01*
X-9468499Y+9021238D01*
X-9460535Y+9014159D01*
X-9460535Y+9007079D01*
X-9468499Y+9000000D01*
X-9508319Y+9000000D01*
X-9468499Y+9000000D02*
X-9460535Y+8992921D01*
X-9460535Y+8978762D01*
X-9436642Y+9014159D02*
X-9428678Y+9021238D01*
X-9404786Y+9021238D01*
X-9396822Y+9014159D01*
X-9396822Y+9007079D01*
X-9404786Y+9000000D01*
X-9396822Y+8992921D01*
X-9396822Y+8985841D01*
X-9404786Y+8978762D01*
X-9428678Y+8978762D01*
X-9436642Y+8985841D01*
X-9420714Y+9000000D02*
X-9404786Y+9000000D01*
X-9372929Y+9021238D02*
X-9333109Y+9021238D01*
X-9333109Y+9014159D01*
X-9372929Y+8978762D01*
D169*
X-9618020Y+8818000D02*
X-9304020Y+8818000D01*
X-9304020Y+8682000D01*
X-9618020Y+8682000D01*
X-9618020Y+8818000D01*
D170*
X-9546020Y+8750000D02*
X-9546020Y+8750000D01*
D171*
X-9508319Y+8728762D02*
X-9508319Y+8771238D01*
X-9468499Y+8771238D01*
X-9460535Y+8764159D01*
X-9460535Y+8757079D01*
X-9468499Y+8750000D01*
X-9508319Y+8750000D01*
X-9468499Y+8750000D02*
X-9460535Y+8742921D01*
X-9460535Y+8728762D01*
X-9436642Y+8764159D02*
X-9428678Y+8771238D01*
X-9404786Y+8771238D01*
X-9396822Y+8764159D01*
X-9396822Y+8757079D01*
X-9404786Y+8750000D01*
X-9396822Y+8742921D01*
X-9396822Y+8735841D01*
X-9404786Y+8728762D01*
X-9428678Y+8728762D01*
X-9436642Y+8735841D01*
X-9420714Y+8750000D02*
X-9404786Y+8750000D01*
X-9364965Y+8750000D02*
X-9372929Y+8757079D01*
X-9372929Y+8764159D01*
X-9364965Y+8771238D01*
X-9341073Y+8771238D01*
X-9333109Y+8764159D01*
X-9333109Y+8757079D01*
X-9341073Y+8750000D01*
X-9364965Y+8750000D01*
X-9372929Y+8742921D01*
X-9372929Y+8735841D01*
X-9364965Y+8728762D01*
X-9341073Y+8728762D01*
X-9333109Y+8735841D01*
X-9333109Y+8742921D01*
X-9341073Y+8750000D01*
D169*
X-9618020Y+9818000D02*
X-9304020Y+9818000D01*
X-9304020Y+9682000D01*
X-9618020Y+9682000D01*
X-9618020Y+9818000D01*
D170*
X-9546020Y+9750000D02*
X-9546020Y+9750000D01*
D171*
X-9508319Y+9728762D02*
X-9508319Y+9771238D01*
X-9468499Y+9771238D01*
X-9460535Y+9764159D01*
X-9460535Y+9757079D01*
X-9468499Y+9750000D01*
X-9508319Y+9750000D01*
X-9468499Y+9750000D02*
X-9460535Y+9742921D01*
X-9460535Y+9728762D01*
X-9436642Y+9764159D02*
X-9428678Y+9771238D01*
X-9404786Y+9771238D01*
X-9396822Y+9764159D01*
X-9396822Y+9757079D01*
X-9404786Y+9750000D01*
X-9396822Y+9742921D01*
X-9396822Y+9735841D01*
X-9404786Y+9728762D01*
X-9428678Y+9728762D01*
X-9436642Y+9735841D01*
X-9420714Y+9750000D02*
X-9404786Y+9750000D01*
X-9333109Y+9757079D02*
X-9341073Y+9750000D01*
X-9364965Y+9750000D01*
X-9372929Y+9757079D01*
X-9372929Y+9764159D01*
X-9364965Y+9771238D01*
X-9341073Y+9771238D01*
X-9333109Y+9764159D01*
X-9333109Y+9735841D01*
X-9341073Y+9728762D01*
X-9364965Y+9728762D01*
D160*
X-9618060Y+8425000D02*
X-9308060Y+8425000D01*
X-9308060Y+8575000D01*
X-9618060Y+8575000D01*
X-9618060Y+8425000D01*
X-9463060Y+8550000D02*
X-9463060Y+8450000D01*
X-9413060Y+8500000D02*
X-9513060Y+8500000D01*
D161*
X-9543060Y+8500000D02*
X-9543060Y+8500000D01*
D162*
X-9461098Y+8486164D02*
X-9468880Y+8479247D01*
X-9492227Y+8479247D01*
X-9507791Y+8493082D01*
X-9507791Y+8506917D01*
X-9492227Y+8520752D01*
X-9468880Y+8520752D01*
X-9461098Y+8513835D01*
X-9398840Y+8493082D02*
X-9445533Y+8493082D01*
X-9414404Y+8520752D01*
X-9414404Y+8479247D01*
X-9375493Y+8513835D02*
X-9367711Y+8520752D01*
X-9344364Y+8520752D01*
X-9336582Y+8513835D01*
X-9336582Y+8506917D01*
X-9344364Y+8500000D01*
X-9336582Y+8493082D01*
X-9336582Y+8486164D01*
X-9344364Y+8479247D01*
X-9367711Y+8479247D01*
X-9375493Y+8486164D01*
X-9359929Y+8500000D02*
X-9344364Y+8500000D01*
D160*
X-9618060Y+8175000D02*
X-9308060Y+8175000D01*
X-9308060Y+8325000D01*
X-9618060Y+8325000D01*
X-9618060Y+8175000D01*
X-9463060Y+8300000D02*
X-9463060Y+8200000D01*
X-9413060Y+8250000D02*
X-9513060Y+8250000D01*
D161*
X-9543060Y+8250000D02*
X-9543060Y+8250000D01*
D162*
X-9461098Y+8236164D02*
X-9468880Y+8229247D01*
X-9492227Y+8229247D01*
X-9507791Y+8243082D01*
X-9507791Y+8256917D01*
X-9492227Y+8270752D01*
X-9468880Y+8270752D01*
X-9461098Y+8263835D01*
X-9398840Y+8243082D02*
X-9445533Y+8243082D01*
X-9414404Y+8270752D01*
X-9414404Y+8229247D01*
X-9336582Y+8243082D02*
X-9383275Y+8243082D01*
X-9352146Y+8270752D01*
X-9352146Y+8229247D01*
D160*
X-12233500Y+7397000D02*
X-12233500Y+6357000D01*
X-12893500Y+6357000D01*
X-12893500Y+7397000D01*
X-12233500Y+7397000D01*
D197*
X-12627000Y+7004000D02*
X-12627000Y+7004000D01*
D198*
X-12715607Y+6654449D02*
X-12715607Y+6637548D01*
X-12696594Y+6620647D01*
X-12620541Y+6620647D01*
X-12601527Y+6637548D01*
X-12601527Y+6722052D01*
X-12544487Y+6705151D02*
X-12525474Y+6722052D01*
X-12468434Y+6722052D01*
X-12449420Y+6705151D01*
X-12449420Y+6688250D01*
X-12468434Y+6671350D01*
X-12449420Y+6654449D01*
X-12449420Y+6637548D01*
X-12468434Y+6620647D01*
X-12525474Y+6620647D01*
X-12544487Y+6637548D01*
X-12506460Y+6671350D02*
X-12468434Y+6671350D01*
D76*
X-14399860Y+8949200D02*
X-14100140Y+8949200D01*
X-14100140Y+9241300D01*
X-14399860Y+9241300D01*
X-14399860Y+8949200D01*
D199*
X-14250000Y+9000000D02*
X-14250000Y+9000000D01*
D200*
X-14336868Y+9140462D02*
X-14315151Y+9159766D01*
X-14293434Y+9159766D01*
X-14271717Y+9140462D01*
X-14271717Y+9121158D01*
X-14293434Y+9101854D01*
X-14315151Y+9101854D01*
X-14336868Y+9121158D01*
X-14336868Y+9140462D01*
X-14293434Y+9121158D02*
X-14271717Y+9101854D01*
X-14228283Y+9140462D02*
X-14206566Y+9159766D01*
X-14206566Y+9101854D01*
D160*
X-8798000Y+6178000D02*
X-8207000Y+6178000D01*
X-8207000Y+7322000D01*
X-8798000Y+7322000D01*
X-8798000Y+6178000D01*
D186*
X-8688000Y+6438000D02*
X-8688000Y+6438000D01*
D187*
X-8406891Y+6517277D02*
X-8381033Y+6517277D01*
X-8355175Y+6546367D01*
X-8355175Y+6662728D01*
X-8381033Y+6691819D01*
X-8510324Y+6691819D01*
X-8406891Y+6924542D02*
X-8406891Y+6750000D01*
X-8510324Y+6866361D01*
X-8355175Y+6866361D01*
D160*
X-8798000Y+7594666D02*
X-8207000Y+7594666D01*
X-8207000Y+8738666D01*
X-8798000Y+8738666D01*
X-8798000Y+7594666D01*
D186*
X-8688000Y+7854666D02*
X-8688000Y+7854666D01*
D187*
X-8406891Y+7933943D02*
X-8381033Y+7933943D01*
X-8355175Y+7963033D01*
X-8355175Y+8079394D01*
X-8381033Y+8108485D01*
X-8510324Y+8108485D01*
X-8510324Y+8341208D02*
X-8510324Y+8195756D01*
X-8458608Y+8195756D01*
X-8458608Y+8312117D01*
X-8432750Y+8341208D01*
X-8381033Y+8341208D01*
X-8355175Y+8312117D01*
X-8355175Y+8224846D01*
X-8381033Y+8195756D01*
D160*
X-8798000Y+9011332D02*
X-8207000Y+9011332D01*
X-8207000Y+10155332D01*
X-8798000Y+10155332D01*
X-8798000Y+9011332D01*
D186*
X-8688000Y+9271332D02*
X-8688000Y+9271332D01*
D187*
X-8406891Y+9350609D02*
X-8381033Y+9350609D01*
X-8355175Y+9379699D01*
X-8355175Y+9496060D01*
X-8381033Y+9525151D01*
X-8510324Y+9525151D01*
X-8484466Y+9757874D02*
X-8510324Y+9728783D01*
X-8510324Y+9641512D01*
X-8484466Y+9612422D01*
X-8381033Y+9612422D01*
X-8355175Y+9641512D01*
X-8355175Y+9728783D01*
X-8381033Y+9757874D01*
X-8406891Y+9757874D01*
X-8432750Y+9728783D01*
X-8432750Y+9612422D01*
D160*
X-8798000Y+10428000D02*
X-8207000Y+10428000D01*
X-8207000Y+11572000D01*
X-8798000Y+11572000D01*
X-8798000Y+10428000D01*
D186*
X-8688000Y+10688000D02*
X-8688000Y+10688000D01*
D187*
X-8406891Y+10767277D02*
X-8381033Y+10767277D01*
X-8355175Y+10796367D01*
X-8355175Y+10912728D01*
X-8381033Y+10941819D01*
X-8510324Y+10941819D01*
X-8510324Y+11029090D02*
X-8510324Y+11174542D01*
X-8484466Y+11174542D01*
X-8355175Y+11029090D01*
D160*
X-9428000Y+11135500D02*
X-9428000Y+11726500D01*
X-10572000Y+11726500D01*
X-10572000Y+11135500D01*
X-9428000Y+11135500D01*
D186*
X-9688000Y+11245500D02*
X-9688000Y+11245500D01*
D187*
X-10232723Y+11474891D02*
X-10232723Y+11449033D01*
X-10203633Y+11423175D01*
X-10087272Y+11423175D01*
X-10058181Y+11449033D01*
X-10058181Y+11578324D01*
X-9941820Y+11500750D02*
X-9970910Y+11526608D01*
X-9970910Y+11552466D01*
X-9941820Y+11578324D01*
X-9854549Y+11578324D01*
X-9825458Y+11552466D01*
X-9825458Y+11526608D01*
X-9854549Y+11500750D01*
X-9941820Y+11500750D01*
X-9970910Y+11474891D01*
X-9970910Y+11449033D01*
X-9941820Y+11423175D01*
X-9854549Y+11423175D01*
X-9825458Y+11449033D01*
X-9825458Y+11474891D01*
X-9854549Y+11500750D01*
D160*
X-9308060Y+8075000D02*
X-9618060Y+8075000D01*
X-9618060Y+7925000D01*
X-9308060Y+7925000D01*
X-9308060Y+8075000D01*
X-9463060Y+7950000D02*
X-9463060Y+8050000D01*
X-9513060Y+8000000D02*
X-9413060Y+8000000D01*
D161*
X-9383060Y+8000000D02*
X-9383060Y+8000000D01*
D162*
X-9558410Y+7986164D02*
X-9566192Y+7979247D01*
X-9589539Y+7979247D01*
X-9605103Y+7993082D01*
X-9605103Y+8006917D01*
X-9589539Y+8020752D01*
X-9566192Y+8020752D01*
X-9558410Y+8013835D01*
X-9496152Y+7993082D02*
X-9542845Y+7993082D01*
X-9511716Y+8020752D01*
X-9511716Y+7979247D01*
X-9480587Y+7986164D02*
X-9480587Y+8013835D01*
X-9472805Y+8020752D01*
X-9441676Y+8020752D01*
X-9433894Y+8013835D01*
X-9433894Y+7986164D01*
X-9441676Y+7979247D01*
X-9472805Y+7979247D01*
X-9480587Y+7986164D01*
X-9480587Y+7979247D02*
X-9433894Y+8020752D01*
D160*
X-9308060Y+7825000D02*
X-9618060Y+7825000D01*
X-9618060Y+7675000D01*
X-9308060Y+7675000D01*
X-9308060Y+7825000D01*
X-9463060Y+7700000D02*
X-9463060Y+7800000D01*
X-9513060Y+7750000D02*
X-9413060Y+7750000D01*
D161*
X-9383060Y+7750000D02*
X-9383060Y+7750000D01*
D162*
X-9558410Y+7736164D02*
X-9566192Y+7729247D01*
X-9589539Y+7729247D01*
X-9605103Y+7743082D01*
X-9605103Y+7756917D01*
X-9589539Y+7770752D01*
X-9566192Y+7770752D01*
X-9558410Y+7763835D01*
X-9496152Y+7743082D02*
X-9542845Y+7743082D01*
X-9511716Y+7770752D01*
X-9511716Y+7729247D01*
X-9465023Y+7756917D02*
X-9449458Y+7770752D01*
X-9449458Y+7729247D01*
D160*
X-9308060Y+7575000D02*
X-9618060Y+7575000D01*
X-9618060Y+7425000D01*
X-9308060Y+7425000D01*
X-9308060Y+7575000D01*
X-9463060Y+7450000D02*
X-9463060Y+7550000D01*
X-9513060Y+7500000D02*
X-9413060Y+7500000D01*
D161*
X-9383060Y+7500000D02*
X-9383060Y+7500000D01*
D162*
X-9558410Y+7486164D02*
X-9566192Y+7479247D01*
X-9589539Y+7479247D01*
X-9605103Y+7493082D01*
X-9605103Y+7506917D01*
X-9589539Y+7520752D01*
X-9566192Y+7520752D01*
X-9558410Y+7513835D01*
X-9496152Y+7493082D02*
X-9542845Y+7493082D01*
X-9511716Y+7520752D01*
X-9511716Y+7479247D01*
X-9472805Y+7513835D02*
X-9465023Y+7520752D01*
X-9441676Y+7520752D01*
X-9433894Y+7513835D01*
X-9433894Y+7506917D01*
X-9441676Y+7500000D01*
X-9465023Y+7500000D01*
X-9472805Y+7493082D01*
X-9472805Y+7479247D01*
X-9433894Y+7479247D01*
D160*
X-9308060Y+6825000D02*
X-9618060Y+6825000D01*
X-9618060Y+6675000D01*
X-9308060Y+6675000D01*
X-9308060Y+6825000D01*
X-9463060Y+6700000D02*
X-9463060Y+6800000D01*
X-9513060Y+6750000D02*
X-9413060Y+6750000D01*
D161*
X-9383060Y+6750000D02*
X-9383060Y+6750000D01*
D162*
X-9558410Y+6736164D02*
X-9566192Y+6729247D01*
X-9589539Y+6729247D01*
X-9605103Y+6743082D01*
X-9605103Y+6756917D01*
X-9589539Y+6770752D01*
X-9566192Y+6770752D01*
X-9558410Y+6763835D01*
X-9496152Y+6743082D02*
X-9542845Y+6743082D01*
X-9511716Y+6770752D01*
X-9511716Y+6729247D01*
X-9433894Y+6763835D02*
X-9441676Y+6770752D01*
X-9465023Y+6770752D01*
X-9472805Y+6763835D01*
X-9472805Y+6736164D01*
X-9465023Y+6729247D01*
X-9441676Y+6729247D01*
X-9433894Y+6736164D01*
X-9433894Y+6743082D01*
X-9441676Y+6750000D01*
X-9472805Y+6750000D01*
D160*
X-9308060Y+6575000D02*
X-9618060Y+6575000D01*
X-9618060Y+6425000D01*
X-9308060Y+6425000D01*
X-9308060Y+6575000D01*
X-9463060Y+6450000D02*
X-9463060Y+6550000D01*
X-9513060Y+6500000D02*
X-9413060Y+6500000D01*
D161*
X-9383060Y+6500000D02*
X-9383060Y+6500000D01*
D162*
X-9558410Y+6486164D02*
X-9566192Y+6479247D01*
X-9589539Y+6479247D01*
X-9605103Y+6493082D01*
X-9605103Y+6506917D01*
X-9589539Y+6520752D01*
X-9566192Y+6520752D01*
X-9558410Y+6513835D01*
X-9496152Y+6493082D02*
X-9542845Y+6493082D01*
X-9511716Y+6520752D01*
X-9511716Y+6479247D01*
X-9472805Y+6520752D02*
X-9433894Y+6520752D01*
X-9433894Y+6513835D01*
X-9472805Y+6479247D01*
D169*
X-10682000Y+11588000D02*
X-10682000Y+11274000D01*
X-10818000Y+11274000D01*
X-10818000Y+11588000D01*
X-10682000Y+11588000D01*
D170*
X-10750000Y+11516000D02*
X-10750000Y+11516000D01*
D171*
X-10728762Y+11287161D02*
X-10771238Y+11287161D01*
X-10771238Y+11326981D01*
X-10764159Y+11334945D01*
X-10757079Y+11334945D01*
X-10750000Y+11326981D01*
X-10750000Y+11287161D01*
X-10750000Y+11326981D02*
X-10742921Y+11334945D01*
X-10728762Y+11334945D01*
X-10742921Y+11398658D02*
X-10742921Y+11350874D01*
X-10771238Y+11382730D01*
X-10728762Y+11382730D01*
X-10735841Y+11414587D02*
X-10764159Y+11414587D01*
X-10771238Y+11422551D01*
X-10771238Y+11454407D01*
X-10764159Y+11462371D01*
X-10735841Y+11462371D01*
X-10728762Y+11454407D01*
X-10728762Y+11422551D01*
X-10735841Y+11414587D01*
X-10728762Y+11414587D02*
X-10771238Y+11462371D01*
D169*
X-10932000Y+11588000D02*
X-10932000Y+11274000D01*
X-11068000Y+11274000D01*
X-11068000Y+11588000D01*
X-10932000Y+11588000D01*
D170*
X-11000000Y+11516000D02*
X-11000000Y+11516000D01*
D171*
X-10978762Y+11287161D02*
X-11021238Y+11287161D01*
X-11021238Y+11326981D01*
X-11014159Y+11334945D01*
X-11007079Y+11334945D01*
X-11000000Y+11326981D01*
X-11000000Y+11287161D01*
X-11000000Y+11326981D02*
X-10992921Y+11334945D01*
X-10978762Y+11334945D01*
X-10992921Y+11398658D02*
X-10992921Y+11350874D01*
X-11021238Y+11382730D01*
X-10978762Y+11382730D01*
X-11007079Y+11430515D02*
X-11021238Y+11446443D01*
X-10978762Y+11446443D01*
D63*
X-14750000Y+11250000D02*
X-14747418Y+11301115D01*
X-14739840Y+11350755D01*
X-14727518Y+11398669D01*
X-14710702Y+11444605D01*
X-14689644Y+11488311D01*
X-14664597Y+11529536D01*
X-14635811Y+11568029D01*
X-14603538Y+11603538D01*
X-14568029Y+11635811D01*
X-14529536Y+11664597D01*
X-14488311Y+11689644D01*
X-14444605Y+11710702D01*
X-14398669Y+11727517D01*
X-14350755Y+11739840D01*
X-14301115Y+11747418D01*
X-14250000Y+11750000D01*
X-8500000Y+11750000D02*
X-8448885Y+11747418D01*
X-8399245Y+11739840D01*
X-8351331Y+11727517D01*
X-8305395Y+11710702D01*
X-8261689Y+11689644D01*
X-8220464Y+11664597D01*
X-8181971Y+11635811D01*
X-8146463Y+11603538D01*
X-8114190Y+11568029D01*
X-8085404Y+11529536D01*
X-8060356Y+11488311D01*
X-8039299Y+11444605D01*
X-8022483Y+11398669D01*
X-8010160Y+11350755D01*
X-8002582Y+11301115D01*
X-8000000Y+11250000D01*
X-8000000Y+6000000D02*
X-8002582Y+5948885D01*
X-8010160Y+5899245D01*
X-8022483Y+5851331D01*
X-8039299Y+5805395D01*
X-8060356Y+5761689D01*
X-8085404Y+5720464D01*
X-8114190Y+5681971D01*
X-8146463Y+5646463D01*
X-8181971Y+5614189D01*
X-8220464Y+5585403D01*
X-8261689Y+5560356D01*
X-8305395Y+5539298D01*
X-8351331Y+5522483D01*
X-8399245Y+5510160D01*
X-8448885Y+5502582D01*
X-8500000Y+5500000D01*
X-14250000Y+5500000D02*
X-14301115Y+5502582D01*
X-14350755Y+5510160D01*
X-14398669Y+5522483D01*
X-14444605Y+5539298D01*
X-14488311Y+5560356D01*
X-14529536Y+5585403D01*
X-14568029Y+5614189D01*
X-14603538Y+5646463D01*
X-14635811Y+5681971D01*
X-14664597Y+5720464D01*
X-14689644Y+5761689D01*
X-14710702Y+5805395D01*
X-14727518Y+5851331D01*
X-14739840Y+5899245D01*
X-14747418Y+5948885D01*
X-14750000Y+6000000D01*
X-14250000Y+11750000D02*
X-8500000Y+11750000D01*
X-8000000Y+11250000D02*
X-8000000Y+6000000D01*
X-8500000Y+5500000D02*
X-14250000Y+5500000D01*
X-14750000Y+6000000D02*
X-14750000Y+11250000D01*
M02*
