G04 PROTEUS GERBER X2 FILE*
%TF.GenerationSoftware,Labcenter,Proteus,9.0-SP2-Build40482*%
%TF.CreationDate,2026-07-08T18:28:13+00:00*%
%TF.FileFunction,Paste,Top*%
%TF.FilePolarity,Positive*%
%TF.Part,Single*%
%TF.SameCoordinates,{38e45bcf-27c9-428b-ab03-4ea6ddb0ec44}*%
%FSLAX45Y45*%
%MOMM*%
G01*
%TA.AperFunction,Material*%
%ADD123R,0.939800X0.990600*%
%ADD124R,0.990600X0.939800*%
%AMPPAD115*
4,1,28,
-0.748060,0.139190,
-0.755570,0.136860,
-0.768280,0.128280,
-0.776860,0.115570,
-0.779190,0.108060,
-0.780000,0.100000,
-0.780000,-0.100000,
-0.779190,-0.108060,
-0.776860,-0.115570,
-0.768280,-0.128280,
-0.755570,-0.136860,
-0.748060,-0.139190,
-0.740000,-0.140000,
0.740000,-0.140000,
0.748060,-0.139190,
0.755570,-0.136860,
0.768280,-0.128280,
0.776860,-0.115570,
0.779190,-0.108060,
0.780000,-0.100000,
0.780000,0.100000,
0.779190,0.108060,
0.776860,0.115570,
0.768280,0.128280,
0.755570,0.136860,
0.748060,0.139190,
0.740000,0.140000,
-0.740000,0.140000,
-0.748060,0.139190,
0*%
%TA.AperFunction,Material*%
%ADD125PPAD115*%
%AMPPAD116*
4,1,28,
-0.108060,0.779190,
-0.115570,0.776860,
-0.128280,0.768280,
-0.136860,0.755570,
-0.139190,0.748060,
-0.140000,0.740000,
-0.140000,-0.740000,
-0.139190,-0.748060,
-0.136860,-0.755570,
-0.128280,-0.768280,
-0.115570,-0.776860,
-0.108060,-0.779190,
-0.100000,-0.780000,
0.100000,-0.780000,
0.108060,-0.779190,
0.115570,-0.776860,
0.128280,-0.768280,
0.136860,-0.755570,
0.139190,-0.748060,
0.140000,-0.740000,
0.140000,0.740000,
0.139190,0.748060,
0.136860,0.755570,
0.128280,0.768280,
0.115570,0.776860,
0.108060,0.779190,
0.100000,0.780000,
-0.100000,0.780000,
-0.108060,0.779190,
0*%
%ADD126PPAD116*%
%TA.AperFunction,Material*%
%ADD127R,0.550000X0.400000*%
%ADD128R,0.700000X0.500000*%
%TA.AperFunction,Material*%
%ADD129R,1.100000X1.000000*%
%TA.AperFunction,Material*%
%ADD130R,0.780000X0.880000*%
%TA.AperFunction,Material*%
%ADD131R,0.100000X0.100000*%
%ADD132R,0.300000X0.200000*%
%ADD133R,0.200000X0.300000*%
%TA.AperFunction,Material*%
%ADD134R,0.450000X0.300000*%
%ADD135R,0.300000X0.450000*%
%TA.AperFunction,Material*%
%ADD136R,0.250000X0.280000*%
%ADD137R,0.280000X0.250000*%
%AMPPAD128*
4,1,36,
-0.260080,0.148980,
-0.269460,0.146070,
-0.277950,0.141460,
-0.285350,0.135350,
-0.291460,0.127950,
-0.296070,0.119460,
-0.298980,0.110080,
-0.300000,0.100000,
-0.300000,-0.100000,
-0.298980,-0.110080,
-0.296070,-0.119460,
-0.291460,-0.127950,
-0.285350,-0.135350,
-0.277950,-0.141460,
-0.269460,-0.146070,
-0.260080,-0.148980,
-0.250000,-0.150000,
0.250000,-0.150000,
0.260080,-0.148980,
0.269460,-0.146070,
0.277950,-0.141460,
0.285350,-0.135350,
0.291460,-0.127950,
0.296070,-0.119460,
0.298980,-0.110080,
0.300000,-0.100000,
0.300000,0.100000,
0.298980,0.110080,
0.296070,0.119460,
0.291460,0.127950,
0.285350,0.135350,
0.277950,0.141460,
0.269460,0.146070,
0.260080,0.148980,
0.250000,0.150000,
-0.250000,0.150000,
-0.260080,0.148980,
0*%
%TA.AperFunction,Material*%
%ADD138PPAD128*%
%ADD139R,0.500000X0.500000*%
%AMPPAD130*
4,1,36,
-0.260080,0.118980,
-0.269460,0.116070,
-0.277950,0.111460,
-0.285350,0.105350,
-0.291460,0.097950,
-0.296070,0.089460,
-0.298980,0.080080,
-0.300000,0.070000,
-0.300000,-0.070000,
-0.298980,-0.080080,
-0.296070,-0.089460,
-0.291460,-0.097950,
-0.285350,-0.105350,
-0.277950,-0.111460,
-0.269460,-0.116070,
-0.260080,-0.118980,
-0.250000,-0.120000,
0.250000,-0.120000,
0.260080,-0.118980,
0.269460,-0.116070,
0.277950,-0.111460,
0.285350,-0.105350,
0.291460,-0.097950,
0.296070,-0.089460,
0.298980,-0.080080,
0.300000,-0.070000,
0.300000,0.070000,
0.298980,0.080080,
0.296070,0.089460,
0.291460,0.097950,
0.285350,0.105350,
0.277950,0.111460,
0.269460,0.116070,
0.260080,0.118980,
0.250000,0.120000,
-0.250000,0.120000,
-0.260080,0.118980,
0*%
%TA.AperFunction,Material*%
%ADD140PPAD130*%
%AMPPAD131*
4,1,36,
-0.080080,0.298980,
-0.089460,0.296070,
-0.097950,0.291460,
-0.105350,0.285350,
-0.111460,0.277950,
-0.116070,0.269460,
-0.118980,0.260080,
-0.120000,0.250000,
-0.120000,-0.250000,
-0.118980,-0.260080,
-0.116070,-0.269460,
-0.111460,-0.277950,
-0.105350,-0.285350,
-0.097950,-0.291460,
-0.089460,-0.296070,
-0.080080,-0.298980,
-0.070000,-0.300000,
0.070000,-0.300000,
0.080080,-0.298980,
0.089460,-0.296070,
0.097950,-0.291460,
0.105350,-0.285350,
0.111460,-0.277950,
0.116070,-0.269460,
0.118980,-0.260080,
0.120000,-0.250000,
0.120000,0.250000,
0.118980,0.260080,
0.116070,0.269460,
0.111460,0.277950,
0.105350,0.285350,
0.097950,0.291460,
0.089460,0.296070,
0.080080,0.298980,
0.070000,0.300000,
-0.070000,0.300000,
-0.080080,0.298980,
0*%
%ADD141PPAD131*%
%AMPPAD132*
4,1,36,
-0.260080,0.153920,
-0.269460,0.151010,
-0.277950,0.146400,
-0.285350,0.140290,
-0.291460,0.132890,
-0.296070,0.124400,
-0.298980,0.115020,
-0.300000,0.104940,
-0.300000,-0.104940,
-0.298980,-0.115020,
-0.296070,-0.124400,
-0.291460,-0.132890,
-0.285350,-0.140290,
-0.277950,-0.146400,
-0.269460,-0.151010,
-0.260080,-0.153920,
-0.250000,-0.154940,
0.250000,-0.154940,
0.260080,-0.153920,
0.269460,-0.151010,
0.277950,-0.146400,
0.285350,-0.140290,
0.291460,-0.132890,
0.296070,-0.124400,
0.298980,-0.115020,
0.300000,-0.104940,
0.300000,0.104940,
0.298980,0.115020,
0.296070,0.124400,
0.291460,0.132890,
0.285350,0.140290,
0.277950,0.146400,
0.269460,0.151010,
0.260080,0.153920,
0.250000,0.154940,
-0.250000,0.154940,
-0.260080,0.153920,
0*%
%TA.AperFunction,Material*%
%ADD142PPAD132*%
%AMPPAD133*
4,1,36,
-0.785080,1.198980,
-0.794460,1.196070,
-0.802950,1.191460,
-0.810350,1.185350,
-0.816460,1.177950,
-0.821070,1.169460,
-0.823980,1.160080,
-0.825000,1.150000,
-0.825000,-1.150000,
-0.823980,-1.160080,
-0.821070,-1.169460,
-0.816460,-1.177950,
-0.810350,-1.185350,
-0.802950,-1.191460,
-0.794460,-1.196070,
-0.785080,-1.198980,
-0.775000,-1.200000,
0.775000,-1.200000,
0.785080,-1.198980,
0.794460,-1.196070,
0.802950,-1.191460,
0.810350,-1.185350,
0.816460,-1.177950,
0.821070,-1.169460,
0.823980,-1.160080,
0.825000,-1.150000,
0.825000,1.150000,
0.823980,1.160080,
0.821070,1.169460,
0.816460,1.177950,
0.810350,1.185350,
0.802950,1.191460,
0.794460,1.196070,
0.785080,1.198980,
0.775000,1.200000,
-0.775000,1.200000,
-0.785080,1.198980,
0*%
%ADD143PPAD133*%
%TA.AperFunction,Material*%
%ADD144R,0.609600X0.711200*%
%TA.AperFunction,Material*%
%ADD145R,0.600000X1.700000*%
%ADD146R,1.000000X2.700020*%
%TA.AperFunction,Material*%
%ADD147R,0.800100X0.800100*%
%ADD148R,2.108200X2.108200*%
%TA.AperFunction,Material*%
%ADD149R,0.300000X1.000000*%
%AMPPAD140*
4,1,36,
0.293500,0.546180,
0.289210,0.560010,
0.282420,0.572520,
0.273420,0.583420,
0.262520,0.592420,
0.250010,0.599210,
0.236180,0.603500,
0.221340,0.605000,
-0.221340,0.605000,
-0.236180,0.603500,
-0.250010,0.599210,
-0.262520,0.592420,
-0.273420,0.583420,
-0.282420,0.572520,
-0.289210,0.560010,
-0.293500,0.546180,
-0.295000,0.531340,
-0.295000,-0.531340,
-0.293500,-0.546180,
-0.289210,-0.560010,
-0.282420,-0.572520,
-0.273420,-0.583420,
-0.262520,-0.592420,
-0.250010,-0.599210,
-0.236180,-0.603500,
-0.221340,-0.605000,
0.221340,-0.605000,
0.236180,-0.603500,
0.250010,-0.599210,
0.262520,-0.592420,
0.273420,-0.583420,
0.282420,-0.572520,
0.289210,-0.560010,
0.293500,-0.546180,
0.295000,-0.531340,
0.295000,0.531340,
0.293500,0.546180,
0*%
%TA.AperFunction,Material*%
%ADD150PPAD140*%
%AMPPAD141*
4,1,36,
0.387070,0.083590,
0.364350,0.156790,
0.328380,0.223040,
0.280760,0.280760,
0.223030,0.328390,
0.156790,0.364350,
0.083590,0.387080,
0.005000,0.395000,
-0.005000,0.395000,
-0.083590,0.387080,
-0.156790,0.364350,
-0.223030,0.328390,
-0.280760,0.280760,
-0.328380,0.223040,
-0.364350,0.156790,
-0.387070,0.083590,
-0.395000,0.005000,
-0.395000,-0.005000,
-0.387070,-0.083590,
-0.364350,-0.156790,
-0.328380,-0.223040,
-0.280760,-0.280760,
-0.223030,-0.328390,
-0.156790,-0.364350,
-0.083590,-0.387080,
-0.005000,-0.395000,
0.005000,-0.395000,
0.083590,-0.387080,
0.156790,-0.364350,
0.223030,-0.328390,
0.280760,-0.280760,
0.328380,-0.223040,
0.364350,-0.156790,
0.387070,-0.083590,
0.395000,-0.005000,
0.395000,0.005000,
0.387070,0.083590,
0*%
%TA.AperFunction,Material*%
%ADD151PPAD141*%
%TA.AperFunction,Material*%
%ADD152R,0.889000X1.016000*%
%TA.AperFunction,Material*%
%ADD153R,1.700000X0.600000*%
%ADD154R,2.700020X1.000000*%
%TA.AperFunction,Material*%
%ADD155R,1.000000X1.100000*%
%TA.AperFunction,Material*%
%ADD156R,2.260600X2.260600*%
%ADD119C,0.025400*%
%TA.AperFunction,Profile*%
%ADD63C,0.101600*%
%TD.AperFunction*%
%TA.AperFunction,Material*%
G36*
X-12726500Y+8337760D02*
X-12726500Y+8366000D01*
X-12707500Y+8366000D01*
X-12707500Y+8337760D01*
X-12726500Y+8337760D01*
G37*
%TD.AperFunction*%
%TA.AperFunction,Material*%
G36*
X-12799740Y+8530000D02*
X-12799740Y+8549000D01*
X-12771500Y+8549000D01*
X-12771500Y+8530000D01*
X-12799740Y+8530000D01*
G37*
%TD.AperFunction*%
%TA.AperFunction,Material*%
G36*
X-12799740Y+8490000D02*
X-12799740Y+8509000D01*
X-12771500Y+8509000D01*
X-12771500Y+8490000D01*
X-12799740Y+8490000D01*
G37*
%TD.AperFunction*%
%TA.AperFunction,Material*%
G36*
X-12799740Y+8451000D02*
X-12799740Y+8470000D01*
X-12771500Y+8470000D01*
X-12771500Y+8451000D01*
X-12799740Y+8451000D01*
G37*
%TD.AperFunction*%
%TA.AperFunction,Material*%
G36*
X-12799740Y+8411000D02*
X-12799740Y+8430000D01*
X-12771500Y+8430000D01*
X-12771500Y+8411000D01*
X-12799740Y+8411000D01*
G37*
%TD.AperFunction*%
%TA.AperFunction,Material*%
G36*
X-12686500Y+8337760D02*
X-12686500Y+8366000D01*
X-12667500Y+8366000D01*
X-12667500Y+8337760D01*
X-12686500Y+8337760D01*
G37*
%TD.AperFunction*%
%TA.AperFunction,Material*%
G36*
X-12647500Y+8337760D02*
X-12647500Y+8366000D01*
X-12628500Y+8366000D01*
X-12628500Y+8337760D01*
X-12647500Y+8337760D01*
G37*
%TD.AperFunction*%
%TA.AperFunction,Material*%
G36*
X-12607500Y+8337760D02*
X-12607500Y+8366000D01*
X-12588500Y+8366000D01*
X-12588500Y+8337760D01*
X-12607500Y+8337760D01*
G37*
%TD.AperFunction*%
%TA.AperFunction,Material*%
G36*
X-12607500Y+8594000D02*
X-12607500Y+8622240D01*
X-12588500Y+8622240D01*
X-12588500Y+8594000D01*
X-12607500Y+8594000D01*
G37*
%TD.AperFunction*%
%TA.AperFunction,Material*%
G36*
X-12543500Y+8411000D02*
X-12543500Y+8430000D01*
X-12515260Y+8430000D01*
X-12515260Y+8411000D01*
X-12543500Y+8411000D01*
G37*
%TD.AperFunction*%
%TA.AperFunction,Material*%
G36*
X-12543500Y+8451000D02*
X-12543500Y+8470000D01*
X-12515260Y+8470000D01*
X-12515260Y+8451000D01*
X-12543500Y+8451000D01*
G37*
%TD.AperFunction*%
%TA.AperFunction,Material*%
G36*
X-12543500Y+8490000D02*
X-12543500Y+8509000D01*
X-12515260Y+8509000D01*
X-12515260Y+8490000D01*
X-12543500Y+8490000D01*
G37*
%TD.AperFunction*%
%TA.AperFunction,Material*%
G36*
X-12543500Y+8530000D02*
X-12543500Y+8549000D01*
X-12515260Y+8549000D01*
X-12515260Y+8530000D01*
X-12543500Y+8530000D01*
G37*
%TD.AperFunction*%
%TA.AperFunction,Material*%
G36*
X-12647500Y+8594000D02*
X-12647500Y+8622240D01*
X-12628500Y+8622240D01*
X-12628500Y+8594000D01*
X-12647500Y+8594000D01*
G37*
%TD.AperFunction*%
%TA.AperFunction,Material*%
G36*
X-12686500Y+8594000D02*
X-12686500Y+8622240D01*
X-12667500Y+8622240D01*
X-12667500Y+8594000D01*
X-12686500Y+8594000D01*
G37*
%TD.AperFunction*%
%TA.AperFunction,Material*%
G36*
X-12726500Y+8594000D02*
X-12726500Y+8622240D01*
X-12707500Y+8622240D01*
X-12707500Y+8594000D01*
X-12726500Y+8594000D01*
G37*
%TD.AperFunction*%
%TA.AperFunction,Material*%
G36*
X-12771500Y+8571000D02*
X-12799740Y+8571000D01*
X-12799740Y+8589000D01*
X-12780500Y+8589000D01*
X-12771500Y+8580000D01*
X-12771500Y+8571000D01*
G37*
%TD.AperFunction*%
%TA.AperFunction,Material*%
G36*
X-12771500Y+8389000D02*
X-12799740Y+8389000D01*
X-12799740Y+8371000D01*
X-12780500Y+8371000D01*
X-12771500Y+8380000D01*
X-12771500Y+8389000D01*
G37*
%TD.AperFunction*%
%TA.AperFunction,Material*%
G36*
X-12748500Y+8366000D02*
X-12748500Y+8337760D01*
X-12766500Y+8337760D01*
X-12766500Y+8357000D01*
X-12757500Y+8366000D01*
X-12748500Y+8366000D01*
G37*
%TD.AperFunction*%
%TA.AperFunction,Material*%
G36*
X-12566500Y+8366000D02*
X-12566500Y+8337760D01*
X-12548500Y+8337760D01*
X-12548500Y+8357000D01*
X-12557500Y+8366000D01*
X-12566500Y+8366000D01*
G37*
%TD.AperFunction*%
%TA.AperFunction,Material*%
G36*
X-12543500Y+8389000D02*
X-12515260Y+8389000D01*
X-12515260Y+8371000D01*
X-12534500Y+8371000D01*
X-12543500Y+8380000D01*
X-12543500Y+8389000D01*
G37*
%TD.AperFunction*%
%TA.AperFunction,Material*%
G36*
X-12543500Y+8571000D02*
X-12515260Y+8571000D01*
X-12515260Y+8589000D01*
X-12534500Y+8589000D01*
X-12543500Y+8580000D01*
X-12543500Y+8571000D01*
G37*
%TD.AperFunction*%
%TA.AperFunction,Material*%
G36*
X-12566500Y+8594000D02*
X-12566500Y+8622240D01*
X-12548500Y+8622240D01*
X-12548500Y+8603000D01*
X-12557500Y+8594000D01*
X-12566500Y+8594000D01*
G37*
%TD.AperFunction*%
%TA.AperFunction,Material*%
G36*
X-12748500Y+8594000D02*
X-12748500Y+8622240D01*
X-12766500Y+8622240D01*
X-12766500Y+8603000D01*
X-12757500Y+8594000D01*
X-12748500Y+8594000D01*
G37*
%TD.AperFunction*%
%TA.AperFunction,Material*%
G36*
X-11929000Y+10490000D02*
X-11929000Y+10489000D01*
X-11928000Y+10489000D01*
X-11928000Y+10488000D01*
X-11928000Y+10488000D01*
X-11927000Y+10488000D01*
X-11927000Y+10486000D01*
X-11926594Y+10486000D01*
X-11926000Y+10485000D01*
X-11926000Y+10388494D01*
X-11926594Y+10388000D01*
X-11927000Y+10388000D01*
X-11927000Y+10386000D01*
X-11927610Y+10386000D01*
X-11928000Y+10385700D01*
X-11928000Y+10385000D01*
X-11929000Y+10385000D01*
X-11929000Y+10384000D01*
X-12071000Y+10384000D01*
X-12071000Y+10385000D01*
X-12072000Y+10385000D01*
X-12072000Y+10385700D01*
X-12072390Y+10386000D01*
X-12073000Y+10386000D01*
X-12073000Y+10388000D01*
X-12073406Y+10388000D01*
X-12074000Y+10388494D01*
X-12074000Y+10485000D01*
X-12073406Y+10486000D01*
X-12073000Y+10486000D01*
X-12073000Y+10488000D01*
X-12072000Y+10488000D01*
X-12072000Y+10489000D01*
X-12071000Y+10489000D01*
X-12071000Y+10490000D01*
X-11929000Y+10490000D01*
G37*
%TD.AperFunction*%
%TA.AperFunction,Material*%
G36*
X-11929000Y+10616000D02*
X-11929000Y+10615000D01*
X-11928000Y+10615000D01*
X-11928000Y+10614300D01*
X-11927610Y+10614000D01*
X-11927000Y+10614000D01*
X-11927000Y+10612000D01*
X-11926594Y+10612000D01*
X-11926000Y+10611506D01*
X-11926000Y+10515000D01*
X-11926594Y+10514000D01*
X-11927000Y+10514000D01*
X-11927000Y+10512000D01*
X-11928000Y+10512000D01*
X-11928000Y+10511000D01*
X-11929000Y+10511000D01*
X-11929000Y+10510000D01*
X-12071000Y+10510000D01*
X-12071000Y+10511000D01*
X-12072000Y+10511000D01*
X-12072000Y+10512000D01*
X-12072000Y+10512000D01*
X-12073000Y+10512000D01*
X-12073000Y+10514000D01*
X-12073406Y+10514000D01*
X-12074000Y+10515000D01*
X-12074000Y+10611506D01*
X-12073406Y+10612000D01*
X-12073000Y+10612000D01*
X-12073000Y+10614000D01*
X-12072390Y+10614000D01*
X-12072000Y+10614300D01*
X-12072000Y+10615000D01*
X-12071000Y+10615000D01*
X-12071000Y+10616000D01*
X-11929000Y+10616000D01*
G37*
%TD.AperFunction*%
%TA.AperFunction,Material*%
G36*
X-11175000Y+10577000D02*
X-11175000Y+10577000D01*
X-11174000Y+10576000D01*
X-11174000Y+10576000D01*
X-11174000Y+10576000D01*
X-11173000Y+10575000D01*
X-11173000Y+10575000D01*
X-11173000Y+10425000D01*
X-11173000Y+10425000D01*
X-11174000Y+10424000D01*
X-11174000Y+10424000D01*
X-11174000Y+10424000D01*
X-11175000Y+10423000D01*
X-11175000Y+10423000D01*
X-11325000Y+10423000D01*
X-11325000Y+10423000D01*
X-11326000Y+10424000D01*
X-11326000Y+10424000D01*
X-11326000Y+10424000D01*
X-11327000Y+10425000D01*
X-11327000Y+10425000D01*
X-11327000Y+10575000D01*
X-11327000Y+10575000D01*
X-11326000Y+10576000D01*
X-11326000Y+10576000D01*
X-11326000Y+10576000D01*
X-11325000Y+10577000D01*
X-11325000Y+10577000D01*
X-11175000Y+10577000D01*
G37*
%TD.AperFunction*%
%TA.AperFunction,Material*%
G36*
X-10428000Y+10616000D02*
X-10427000Y+10615000D01*
X-10426000Y+10615000D01*
X-10426000Y+10614000D01*
X-10425000Y+10614000D01*
X-10425000Y+10512000D01*
X-10426000Y+10512000D01*
X-10426000Y+10511000D01*
X-10427000Y+10511000D01*
X-10427000Y+10510000D01*
X-10573000Y+10510000D01*
X-10573000Y+10511000D01*
X-10574000Y+10511000D01*
X-10574000Y+10512000D01*
X-10575000Y+10512000D01*
X-10575000Y+10614000D01*
X-10574000Y+10614000D01*
X-10574000Y+10615000D01*
X-10573000Y+10615000D01*
X-10572000Y+10616000D01*
X-10428000Y+10616000D01*
G37*
%TD.AperFunction*%
%TA.AperFunction,Material*%
G36*
X-10427000Y+10490000D02*
X-10427000Y+10489000D01*
X-10426000Y+10489000D01*
X-10426000Y+10488000D01*
X-10425000Y+10488000D01*
X-10425000Y+10386000D01*
X-10426000Y+10386000D01*
X-10426000Y+10385000D01*
X-10427000Y+10385000D01*
X-10428000Y+10384000D01*
X-10572000Y+10384000D01*
X-10573000Y+10385000D01*
X-10574000Y+10385000D01*
X-10574000Y+10386000D01*
X-10575000Y+10386000D01*
X-10575000Y+10488000D01*
X-10574000Y+10488000D01*
X-10574000Y+10489000D01*
X-10573000Y+10489000D01*
X-10573000Y+10490000D01*
X-10427000Y+10490000D01*
G37*
%TD.AperFunction*%
D123*
X-13705000Y+10750000D03*
X-13545000Y+10750000D03*
X-13705000Y+10500000D03*
X-13545000Y+10500000D03*
X-13705000Y+10250000D03*
X-13545000Y+10250000D03*
X-13705000Y+10000000D03*
X-13545000Y+10000000D03*
X-13705000Y+9750000D03*
X-13545000Y+9750000D03*
X-13705000Y+9500000D03*
X-13545000Y+9500000D03*
X-13705000Y+9250000D03*
X-13545000Y+9250000D03*
X-13705000Y+9000000D03*
X-13545000Y+9000000D03*
X-13705000Y+8750000D03*
X-13545000Y+8750000D03*
X-13705000Y+8500000D03*
X-13545000Y+8500000D03*
X-13705000Y+8250000D03*
X-13545000Y+8250000D03*
X-13705000Y+8000000D03*
X-13545000Y+8000000D03*
X-13705000Y+7750000D03*
X-13545000Y+7750000D03*
X-13705000Y+7500000D03*
X-13545000Y+7500000D03*
X-13705000Y+7250000D03*
X-13545000Y+7250000D03*
X-13705000Y+7000000D03*
X-13545000Y+7000000D03*
X-13705000Y+6750000D03*
X-13545000Y+6750000D03*
X-13705000Y+6500000D03*
X-13545000Y+6500000D03*
X-13705000Y+6250000D03*
X-13545000Y+6250000D03*
X-13705000Y+6000000D03*
X-13545000Y+6000000D03*
D124*
X-14000000Y+7750000D03*
X-14000000Y+7590000D03*
D125*
X-12068000Y+9375000D03*
X-12068000Y+9324992D03*
X-12068000Y+9275000D03*
X-12068000Y+9225000D03*
X-12068000Y+9175000D03*
X-12068000Y+9125000D03*
X-12068000Y+9075000D03*
X-12068000Y+9025000D03*
X-12068000Y+8975000D03*
X-12068000Y+8925000D03*
X-12068000Y+8875000D03*
X-12068000Y+8825000D03*
X-12068000Y+8775000D03*
X-12068000Y+8725000D03*
X-12068000Y+8675006D03*
X-12068000Y+8625000D03*
X-12068000Y+8575000D03*
X-12068000Y+8525000D03*
X-12068000Y+8475000D03*
X-12068000Y+8425000D03*
X-12068000Y+8375000D03*
X-12068000Y+8324994D03*
X-12068000Y+8275000D03*
X-12068000Y+8225000D03*
X-12068000Y+8175000D03*
X-12068000Y+8125000D03*
X-12068000Y+8075000D03*
X-12068000Y+8025000D03*
X-12068000Y+7975000D03*
X-12068000Y+7925000D03*
X-12068000Y+7875000D03*
X-12068000Y+7825000D03*
X-12068000Y+7775000D03*
X-12068000Y+7725000D03*
X-12068000Y+7675008D03*
X-12068000Y+7625000D03*
D126*
X-11875000Y+7432000D03*
X-11824992Y+7432000D03*
X-11775000Y+7432000D03*
X-11725000Y+7432000D03*
X-11675000Y+7432000D03*
X-11625000Y+7432000D03*
X-11575000Y+7432000D03*
X-11525000Y+7432000D03*
X-11475000Y+7432000D03*
X-11425000Y+7432000D03*
X-11375000Y+7432000D03*
X-11325000Y+7432000D03*
X-11275000Y+7432000D03*
X-11225000Y+7432000D03*
X-11175006Y+7432000D03*
X-11125000Y+7432000D03*
X-11075000Y+7432000D03*
X-11025000Y+7432000D03*
X-10975000Y+7432000D03*
X-10925000Y+7432000D03*
X-10875000Y+7432000D03*
X-10824994Y+7432000D03*
X-10775000Y+7432000D03*
X-10725000Y+7432000D03*
X-10675000Y+7432000D03*
X-10625000Y+7432000D03*
X-10575000Y+7432000D03*
X-10525000Y+7432000D03*
X-10475000Y+7432000D03*
X-10425000Y+7432000D03*
X-10375000Y+7432000D03*
X-10325000Y+7432000D03*
X-10275000Y+7432000D03*
X-10225000Y+7432000D03*
X-10175008Y+7432000D03*
X-10125000Y+7432000D03*
D125*
X-9932000Y+7625000D03*
X-9932000Y+7675008D03*
X-9932000Y+7725000D03*
X-9932000Y+7775000D03*
X-9932000Y+7825000D03*
X-9932000Y+7875000D03*
X-9932000Y+7925000D03*
X-9932000Y+7975000D03*
X-9932000Y+8025000D03*
X-9932000Y+8075000D03*
X-9932000Y+8125000D03*
X-9932000Y+8175000D03*
X-9932000Y+8225000D03*
X-9932000Y+8275000D03*
X-9932000Y+8324994D03*
X-9932000Y+8375000D03*
X-9932000Y+8425000D03*
X-9932000Y+8475000D03*
X-9932000Y+8525000D03*
X-9932000Y+8575000D03*
X-9932000Y+8625000D03*
X-9932000Y+8675006D03*
X-9932000Y+8725000D03*
X-9932000Y+8775000D03*
X-9932000Y+8825000D03*
X-9932000Y+8875000D03*
X-9932000Y+8925000D03*
X-9932000Y+8975000D03*
X-9932000Y+9025000D03*
X-9932000Y+9075000D03*
X-9932000Y+9125000D03*
X-9932000Y+9175000D03*
X-9932000Y+9225000D03*
X-9932000Y+9275000D03*
X-9932000Y+9324992D03*
X-9932000Y+9375000D03*
D126*
X-10125000Y+9568000D03*
X-10175008Y+9568000D03*
X-10225000Y+9568000D03*
X-10275000Y+9568000D03*
X-10325000Y+9568000D03*
X-10375000Y+9568000D03*
X-10425000Y+9568000D03*
X-10475000Y+9568000D03*
X-10525000Y+9568000D03*
X-10575000Y+9568000D03*
X-10625000Y+9568000D03*
X-10675000Y+9568000D03*
X-10725000Y+9568000D03*
X-10775000Y+9568000D03*
X-10824994Y+9568000D03*
X-10875000Y+9568000D03*
X-10925000Y+9568000D03*
X-10975000Y+9568000D03*
X-11025000Y+9568000D03*
X-11075000Y+9568000D03*
X-11125000Y+9568000D03*
X-11175006Y+9568000D03*
X-11225000Y+9568000D03*
X-11275000Y+9568000D03*
X-11325000Y+9568000D03*
X-11375000Y+9568000D03*
X-11425000Y+9568000D03*
X-11475000Y+9568000D03*
X-11525000Y+9568000D03*
X-11575000Y+9568000D03*
X-11625000Y+9568000D03*
X-11675000Y+9568000D03*
X-11725000Y+9568000D03*
X-11775000Y+9568000D03*
X-11824992Y+9568000D03*
X-11875000Y+9568000D03*
D127*
X-11542250Y+7072000D03*
X-11676250Y+7072000D03*
D128*
X-11534250Y+7000000D03*
X-11684250Y+7000000D03*
D127*
X-11542250Y+6928000D03*
X-11676250Y+6928000D03*
D129*
X-11517000Y+9750000D03*
X-11347000Y+9750000D03*
X-11051000Y+9750000D03*
X-10881000Y+9750000D03*
X-11983000Y+9750000D03*
X-11813000Y+9750000D03*
X-10585000Y+9750000D03*
X-10415000Y+9750000D03*
X-10885000Y+7250000D03*
X-10715000Y+7250000D03*
X-10485000Y+7250000D03*
X-10315000Y+7250000D03*
X-10085000Y+7250000D03*
X-9915000Y+7250000D03*
X-11285000Y+7250000D03*
X-11115000Y+7250000D03*
X-12085000Y+7250000D03*
X-11915000Y+7250000D03*
X-12085000Y+7000000D03*
X-11915000Y+7000000D03*
X-12085000Y+6750000D03*
X-11915000Y+6750000D03*
X-12085000Y+6500000D03*
X-11915000Y+6500000D03*
X-12085000Y+6250000D03*
X-11915000Y+6250000D03*
D130*
X-12348000Y+7628016D03*
X-12348000Y+7500000D03*
X-12250000Y+7500000D03*
X-12250000Y+7628016D03*
D131*
X-12785500Y+8580000D03*
D132*
X-12785500Y+8540000D03*
X-12785500Y+8500000D03*
X-12785500Y+8460000D03*
X-12785500Y+8420000D03*
D131*
X-12785500Y+8380000D03*
X-12757500Y+8352000D03*
D133*
X-12717500Y+8352000D03*
X-12677500Y+8352000D03*
X-12637500Y+8352000D03*
X-12597500Y+8352000D03*
D131*
X-12557500Y+8352000D03*
X-12529500Y+8380000D03*
D132*
X-12529500Y+8420000D03*
X-12529500Y+8460000D03*
X-12529500Y+8500000D03*
X-12529500Y+8540000D03*
D131*
X-12529500Y+8580000D03*
X-12557500Y+8608000D03*
D133*
X-12597500Y+8608000D03*
X-12637500Y+8608000D03*
X-12677500Y+8608000D03*
X-12717500Y+8608000D03*
D131*
X-12757500Y+8608000D03*
D134*
X-12782008Y+9300000D03*
X-12782008Y+9250000D03*
X-12782008Y+9200000D03*
X-12782008Y+9150000D03*
D135*
X-12729500Y+9097492D03*
X-12679500Y+9097492D03*
X-12629500Y+9097492D03*
X-12579500Y+9097492D03*
D134*
X-12526992Y+9150000D03*
X-12526992Y+9200000D03*
X-12526992Y+9250000D03*
X-12526992Y+9300000D03*
D135*
X-12579500Y+9352508D03*
X-12629500Y+9352508D03*
X-12679500Y+9352508D03*
X-12729500Y+9352508D03*
D136*
X-12725000Y+7826000D03*
X-12775000Y+7826000D03*
D137*
X-12826000Y+7800000D03*
X-12826000Y+7750000D03*
X-12826000Y+7700000D03*
D136*
X-12775000Y+7674000D03*
X-12725000Y+7674000D03*
D137*
X-12674000Y+7700000D03*
X-12674000Y+7750000D03*
X-12674000Y+7800000D03*
D123*
X-13308750Y+8500000D03*
X-13148750Y+8500000D03*
X-13308750Y+8250000D03*
X-13148750Y+8250000D03*
X-13308750Y+9500000D03*
X-13148750Y+9500000D03*
X-13308750Y+9250000D03*
X-13148750Y+9250000D03*
X-13308750Y+9000000D03*
X-13148750Y+9000000D03*
X-13308750Y+8000000D03*
X-13148750Y+8000000D03*
X-13308750Y+7750000D03*
X-13148750Y+7750000D03*
D129*
X-13313750Y+8750000D03*
X-13143750Y+8750000D03*
X-13070395Y+10000000D03*
X-13240395Y+10000000D03*
X-13313750Y+7500000D03*
X-13143750Y+7500000D03*
X-13313750Y+7250000D03*
X-13143750Y+7250000D03*
X-13313750Y+7000000D03*
X-13143750Y+7000000D03*
D138*
X-12140000Y+10598000D03*
X-12140000Y+10532512D03*
X-12140000Y+10467488D03*
X-12140000Y+10402000D03*
X-11860000Y+10402000D03*
X-11860000Y+10467488D03*
X-11860000Y+10532512D03*
X-11860000Y+10598000D03*
D139*
X-12000000Y+10500000D03*
D140*
X-11390000Y+10575000D03*
X-11390000Y+10525000D03*
X-11390000Y+10475000D03*
X-11390000Y+10425000D03*
D141*
X-11325000Y+10360000D03*
X-11275000Y+10360000D03*
X-11225000Y+10360000D03*
X-11175000Y+10360000D03*
D140*
X-11110000Y+10425000D03*
X-11110000Y+10475000D03*
X-11110000Y+10525000D03*
X-11110000Y+10575000D03*
D141*
X-11175000Y+10640000D03*
X-11225000Y+10640000D03*
X-11275000Y+10640000D03*
X-11325000Y+10640000D03*
D139*
X-11250000Y+10500000D03*
D142*
X-10640000Y+10598000D03*
X-10640000Y+10532512D03*
X-10640000Y+10467488D03*
X-10640000Y+10402000D03*
X-10360000Y+10402000D03*
X-10360000Y+10467488D03*
X-10360000Y+10532512D03*
X-10360000Y+10598000D03*
D143*
X-10500000Y+10500000D03*
D144*
X-11346250Y+11000000D03*
X-11246250Y+11000000D03*
D145*
X-12686000Y+11245500D03*
X-12810000Y+11245500D03*
X-12935000Y+11245500D03*
X-13061000Y+11245500D03*
X-13186000Y+11245500D03*
X-13310000Y+11245500D03*
D146*
X-12500000Y+11566500D03*
X-13496000Y+11566500D03*
D123*
X-13075395Y+10500000D03*
X-13235395Y+10500000D03*
X-13075395Y+10250000D03*
X-13235395Y+10250000D03*
X-10750000Y+10000000D03*
X-10910000Y+10000000D03*
D124*
X-10500000Y+10000000D03*
X-10500000Y+10160000D03*
D123*
X-10500000Y+11000000D03*
X-10660000Y+11000000D03*
X-12000000Y+10000000D03*
X-11840000Y+10000000D03*
X-11250000Y+10000000D03*
X-11410000Y+10000000D03*
X-12284000Y+10250000D03*
X-12444000Y+10250000D03*
X-12284000Y+10000000D03*
X-12444000Y+10000000D03*
X-12284000Y+9750000D03*
X-12444000Y+9750000D03*
X-12750000Y+9750000D03*
X-12910000Y+9750000D03*
D147*
X-11000000Y+11164000D03*
X-11000000Y+11000000D03*
D148*
X-11750000Y+11000000D03*
X-12200000Y+11000000D03*
D147*
X-12664000Y+10500000D03*
X-12500000Y+10500000D03*
D129*
X-11824334Y+10250000D03*
X-11994334Y+10250000D03*
X-11369668Y+10250000D03*
X-11539668Y+10250000D03*
X-10915000Y+10250000D03*
X-11085000Y+10250000D03*
X-9915000Y+11000000D03*
X-10085000Y+11000000D03*
X-9915000Y+10750000D03*
X-10085000Y+10750000D03*
X-9915000Y+10500000D03*
X-10085000Y+10500000D03*
X-9915000Y+10250000D03*
X-10085000Y+10250000D03*
X-9915000Y+10000000D03*
X-10085000Y+10000000D03*
X-9415000Y+11000000D03*
X-9585000Y+11000000D03*
X-9415000Y+10750000D03*
X-9585000Y+10750000D03*
X-9415000Y+10500000D03*
X-9585000Y+10500000D03*
D149*
X-11375000Y+6590000D03*
X-11275000Y+6590000D03*
X-11175006Y+6590000D03*
X-11075000Y+6590000D03*
X-10925000Y+6590000D03*
X-10824994Y+6590000D03*
X-10725000Y+6590000D03*
X-10625000Y+6590000D03*
X-10675000Y+6590000D03*
X-10775000Y+6590000D03*
X-10875000Y+6590000D03*
X-10975000Y+6590000D03*
X-11025000Y+6590000D03*
X-11125000Y+6590000D03*
X-11225000Y+6590000D03*
X-11325000Y+6590000D03*
D150*
X-10000000Y+6500000D03*
X-10094996Y+6500000D03*
X-10189992Y+6500000D03*
X-10189992Y+6248000D03*
X-10094996Y+6248000D03*
X-10000000Y+6248000D03*
D147*
X-11918000Y+6000000D03*
X-12082000Y+6000000D03*
D129*
X-10834000Y+7000000D03*
X-10664000Y+7000000D03*
X-10417000Y+7000000D03*
X-10247000Y+7000000D03*
X-10000000Y+7000000D03*
X-9830000Y+7000000D03*
X-11251000Y+7000000D03*
X-11081000Y+7000000D03*
X-11685000Y+7250000D03*
X-11515000Y+7250000D03*
X-9546020Y+9500000D03*
X-9376020Y+9500000D03*
X-9546020Y+9250000D03*
X-9376020Y+9250000D03*
X-9546020Y+9000000D03*
X-9376020Y+9000000D03*
X-9546020Y+8750000D03*
X-9376020Y+8750000D03*
X-9546020Y+9750000D03*
X-9376020Y+9750000D03*
D123*
X-9543060Y+8500000D03*
X-9383060Y+8500000D03*
X-9543060Y+8250000D03*
X-9383060Y+8250000D03*
D151*
X-12627000Y+7004000D03*
X-12500000Y+7004000D03*
X-12627000Y+6877000D03*
X-12500000Y+6877000D03*
X-12627000Y+6750000D03*
X-12500000Y+6750000D03*
D152*
X-14250000Y+9000000D03*
X-14156020Y+9190500D03*
X-14343980Y+9190500D03*
D153*
X-8688000Y+6438000D03*
X-8688000Y+6562000D03*
X-8688000Y+6687000D03*
X-8688000Y+6813000D03*
X-8688000Y+6938000D03*
X-8688000Y+7062000D03*
D154*
X-8367000Y+6252000D03*
X-8367000Y+7248000D03*
D153*
X-8688000Y+7854666D03*
X-8688000Y+7978666D03*
X-8688000Y+8103666D03*
X-8688000Y+8229666D03*
X-8688000Y+8354666D03*
X-8688000Y+8478666D03*
D154*
X-8367000Y+7668666D03*
X-8367000Y+8664666D03*
D153*
X-8688000Y+9271332D03*
X-8688000Y+9395332D03*
X-8688000Y+9520332D03*
X-8688000Y+9646332D03*
X-8688000Y+9771332D03*
X-8688000Y+9895332D03*
D154*
X-8367000Y+9085332D03*
X-8367000Y+10081332D03*
D153*
X-8688000Y+10688000D03*
X-8688000Y+10812000D03*
X-8688000Y+10937000D03*
X-8688000Y+11063000D03*
X-8688000Y+11188000D03*
X-8688000Y+11312000D03*
D154*
X-8367000Y+10502000D03*
X-8367000Y+11498000D03*
D145*
X-9688000Y+11245500D03*
X-9812000Y+11245500D03*
X-9937000Y+11245500D03*
X-10063000Y+11245500D03*
X-10188000Y+11245500D03*
X-10312000Y+11245500D03*
D146*
X-9502000Y+11566500D03*
X-10498000Y+11566500D03*
D123*
X-9383060Y+8000000D03*
X-9543060Y+8000000D03*
X-9383060Y+7750000D03*
X-9543060Y+7750000D03*
X-9383060Y+7500000D03*
X-9543060Y+7500000D03*
X-9383060Y+6750000D03*
X-9543060Y+6750000D03*
X-9383060Y+6500000D03*
X-9543060Y+6500000D03*
D155*
X-10750000Y+11516000D03*
X-10750000Y+11346000D03*
X-11000000Y+11516000D03*
X-11000000Y+11346000D03*
D156*
X-14250000Y+11250000D03*
X-14250000Y+10400000D03*
X-14250000Y+9550000D03*
X-14250000Y+8700000D03*
X-14250000Y+7850000D03*
X-14250000Y+7000000D03*
D119*
X-12726500Y+8337760D02*
X-12707500Y+8337760D01*
X-12707500Y+8366000D01*
X-12726500Y+8366000D01*
X-12726500Y+8337760D01*
X-12799740Y+8530000D02*
X-12771500Y+8530000D01*
X-12771500Y+8549000D01*
X-12799740Y+8549000D01*
X-12799740Y+8530000D01*
X-12799740Y+8490000D02*
X-12771500Y+8490000D01*
X-12771500Y+8509000D01*
X-12799740Y+8509000D01*
X-12799740Y+8490000D01*
X-12799740Y+8451000D02*
X-12771500Y+8451000D01*
X-12771500Y+8470000D01*
X-12799740Y+8470000D01*
X-12799740Y+8451000D01*
X-12799740Y+8411000D02*
X-12771500Y+8411000D01*
X-12771500Y+8430000D01*
X-12799740Y+8430000D01*
X-12799740Y+8411000D01*
X-12686500Y+8337760D02*
X-12667500Y+8337760D01*
X-12667500Y+8366000D01*
X-12686500Y+8366000D01*
X-12686500Y+8337760D01*
X-12647500Y+8337760D02*
X-12628500Y+8337760D01*
X-12628500Y+8366000D01*
X-12647500Y+8366000D01*
X-12647500Y+8337760D01*
X-12607500Y+8337760D02*
X-12588500Y+8337760D01*
X-12588500Y+8366000D01*
X-12607500Y+8366000D01*
X-12607500Y+8337760D01*
X-12607500Y+8594000D02*
X-12588500Y+8594000D01*
X-12588500Y+8622240D01*
X-12607500Y+8622240D01*
X-12607500Y+8594000D01*
X-12543500Y+8411000D02*
X-12515260Y+8411000D01*
X-12515260Y+8430000D01*
X-12543500Y+8430000D01*
X-12543500Y+8411000D01*
X-12543500Y+8451000D02*
X-12515260Y+8451000D01*
X-12515260Y+8470000D01*
X-12543500Y+8470000D01*
X-12543500Y+8451000D01*
X-12543500Y+8490000D02*
X-12515260Y+8490000D01*
X-12515260Y+8509000D01*
X-12543500Y+8509000D01*
X-12543500Y+8490000D01*
X-12543500Y+8530000D02*
X-12515260Y+8530000D01*
X-12515260Y+8549000D01*
X-12543500Y+8549000D01*
X-12543500Y+8530000D01*
X-12647500Y+8594000D02*
X-12628500Y+8594000D01*
X-12628500Y+8622240D01*
X-12647500Y+8622240D01*
X-12647500Y+8594000D01*
X-12686500Y+8594000D02*
X-12667500Y+8594000D01*
X-12667500Y+8622240D01*
X-12686500Y+8622240D01*
X-12686500Y+8594000D01*
X-12726500Y+8594000D02*
X-12707500Y+8594000D01*
X-12707500Y+8622240D01*
X-12726500Y+8622240D01*
X-12726500Y+8594000D01*
X-12771500Y+8571000D02*
X-12799740Y+8571000D01*
X-12799740Y+8589000D01*
X-12780500Y+8589000D01*
X-12771500Y+8580000D01*
X-12771500Y+8571000D01*
X-12771500Y+8389000D02*
X-12799740Y+8389000D01*
X-12799740Y+8371000D01*
X-12780500Y+8371000D01*
X-12771500Y+8380000D01*
X-12771500Y+8389000D01*
X-12748500Y+8366000D02*
X-12748500Y+8337760D01*
X-12766500Y+8337760D01*
X-12766500Y+8357000D01*
X-12757500Y+8366000D01*
X-12748500Y+8366000D01*
X-12566500Y+8366000D02*
X-12566500Y+8337760D01*
X-12548500Y+8337760D01*
X-12548500Y+8357000D01*
X-12557500Y+8366000D01*
X-12566500Y+8366000D01*
X-12543500Y+8389000D02*
X-12515260Y+8389000D01*
X-12515260Y+8371000D01*
X-12534500Y+8371000D01*
X-12543500Y+8380000D01*
X-12543500Y+8389000D01*
X-12543500Y+8571000D02*
X-12515260Y+8571000D01*
X-12515260Y+8589000D01*
X-12534500Y+8589000D01*
X-12543500Y+8580000D01*
X-12543500Y+8571000D01*
X-12566500Y+8594000D02*
X-12566500Y+8622240D01*
X-12548500Y+8622240D01*
X-12548500Y+8603000D01*
X-12557500Y+8594000D01*
X-12566500Y+8594000D01*
X-12748500Y+8594000D02*
X-12748500Y+8622240D01*
X-12766500Y+8622240D01*
X-12766500Y+8603000D01*
X-12757500Y+8594000D01*
X-12748500Y+8594000D01*
X-11929000Y+10490000D02*
X-11929000Y+10489000D01*
X-11928000Y+10489000D01*
X-11928000Y+10488000D01*
X-11928000Y+10488000D01*
X-11927000Y+10488000D01*
X-11927000Y+10486000D01*
X-11926594Y+10486000D01*
X-11926000Y+10485000D01*
X-11926000Y+10388494D01*
X-11926594Y+10388000D01*
X-11927000Y+10388000D01*
X-11927000Y+10386000D01*
X-11927610Y+10386000D01*
X-11928000Y+10385700D01*
X-11928000Y+10385000D01*
X-11929000Y+10385000D01*
X-11929000Y+10384000D01*
X-12071000Y+10384000D01*
X-12071000Y+10385000D01*
X-12072000Y+10385000D01*
X-12072000Y+10385700D01*
X-12072390Y+10386000D01*
X-12073000Y+10386000D01*
X-12073000Y+10388000D01*
X-12073406Y+10388000D01*
X-12074000Y+10388494D01*
X-12074000Y+10485000D01*
X-12073406Y+10486000D01*
X-12073000Y+10486000D01*
X-12073000Y+10488000D01*
X-12072000Y+10488000D01*
X-12072000Y+10489000D01*
X-12071000Y+10489000D01*
X-12071000Y+10490000D01*
X-11929000Y+10490000D01*
X-11929000Y+10616000D02*
X-11929000Y+10615000D01*
X-11928000Y+10615000D01*
X-11928000Y+10614300D01*
X-11927610Y+10614000D01*
X-11927000Y+10614000D01*
X-11927000Y+10612000D01*
X-11926594Y+10612000D01*
X-11926000Y+10611506D01*
X-11926000Y+10515000D01*
X-11926594Y+10514000D01*
X-11927000Y+10514000D01*
X-11927000Y+10512000D01*
X-11928000Y+10512000D01*
X-11928000Y+10511000D01*
X-11929000Y+10511000D01*
X-11929000Y+10510000D01*
X-12071000Y+10510000D01*
X-12071000Y+10511000D01*
X-12072000Y+10511000D01*
X-12072000Y+10512000D01*
X-12072000Y+10512000D01*
X-12073000Y+10512000D01*
X-12073000Y+10514000D01*
X-12073406Y+10514000D01*
X-12074000Y+10515000D01*
X-12074000Y+10611506D01*
X-12073406Y+10612000D01*
X-12073000Y+10612000D01*
X-12073000Y+10614000D01*
X-12072390Y+10614000D01*
X-12072000Y+10614300D01*
X-12072000Y+10615000D01*
X-12071000Y+10615000D01*
X-12071000Y+10616000D01*
X-11929000Y+10616000D01*
X-11175000Y+10577000D02*
X-11175000Y+10577000D01*
X-11174000Y+10576000D01*
X-11174000Y+10576000D01*
X-11174000Y+10576000D01*
X-11173000Y+10575000D01*
X-11173000Y+10575000D01*
X-11173000Y+10425000D01*
X-11173000Y+10425000D01*
X-11174000Y+10424000D01*
X-11174000Y+10424000D01*
X-11174000Y+10424000D01*
X-11175000Y+10423000D01*
X-11175000Y+10423000D01*
X-11325000Y+10423000D01*
X-11325000Y+10423000D01*
X-11326000Y+10424000D01*
X-11326000Y+10424000D01*
X-11326000Y+10424000D01*
X-11327000Y+10425000D01*
X-11327000Y+10425000D01*
X-11327000Y+10575000D01*
X-11327000Y+10575000D01*
X-11326000Y+10576000D01*
X-11326000Y+10576000D01*
X-11326000Y+10576000D01*
X-11325000Y+10577000D01*
X-11325000Y+10577000D01*
X-11175000Y+10577000D01*
X-10428000Y+10616000D02*
X-10427000Y+10615000D01*
X-10426000Y+10615000D01*
X-10426000Y+10614000D01*
X-10425000Y+10614000D01*
X-10425000Y+10512000D01*
X-10426000Y+10512000D01*
X-10426000Y+10511000D01*
X-10427000Y+10511000D01*
X-10427000Y+10510000D01*
X-10573000Y+10510000D01*
X-10573000Y+10511000D01*
X-10574000Y+10511000D01*
X-10574000Y+10512000D01*
X-10575000Y+10512000D01*
X-10575000Y+10614000D01*
X-10574000Y+10614000D01*
X-10574000Y+10615000D01*
X-10573000Y+10615000D01*
X-10572000Y+10616000D01*
X-10428000Y+10616000D01*
X-10427000Y+10490000D02*
X-10427000Y+10489000D01*
X-10426000Y+10489000D01*
X-10426000Y+10488000D01*
X-10425000Y+10488000D01*
X-10425000Y+10386000D01*
X-10426000Y+10386000D01*
X-10426000Y+10385000D01*
X-10427000Y+10385000D01*
X-10428000Y+10384000D01*
X-10572000Y+10384000D01*
X-10573000Y+10385000D01*
X-10574000Y+10385000D01*
X-10574000Y+10386000D01*
X-10575000Y+10386000D01*
X-10575000Y+10488000D01*
X-10574000Y+10488000D01*
X-10574000Y+10489000D01*
X-10573000Y+10489000D01*
X-10573000Y+10490000D01*
X-10427000Y+10490000D01*
D63*
X-14750000Y+11250000D02*
X-14747418Y+11301115D01*
X-14739840Y+11350755D01*
X-14727518Y+11398669D01*
X-14710702Y+11444605D01*
X-14689644Y+11488311D01*
X-14664597Y+11529536D01*
X-14635811Y+11568029D01*
X-14603538Y+11603538D01*
X-14568029Y+11635811D01*
X-14529536Y+11664597D01*
X-14488311Y+11689644D01*
X-14444605Y+11710702D01*
X-14398669Y+11727517D01*
X-14350755Y+11739840D01*
X-14301115Y+11747418D01*
X-14250000Y+11750000D01*
X-8500000Y+11750000D02*
X-8448885Y+11747418D01*
X-8399245Y+11739840D01*
X-8351331Y+11727517D01*
X-8305395Y+11710702D01*
X-8261689Y+11689644D01*
X-8220464Y+11664597D01*
X-8181971Y+11635811D01*
X-8146463Y+11603538D01*
X-8114190Y+11568029D01*
X-8085404Y+11529536D01*
X-8060356Y+11488311D01*
X-8039299Y+11444605D01*
X-8022483Y+11398669D01*
X-8010160Y+11350755D01*
X-8002582Y+11301115D01*
X-8000000Y+11250000D01*
X-8000000Y+6000000D02*
X-8002582Y+5948885D01*
X-8010160Y+5899245D01*
X-8022483Y+5851331D01*
X-8039299Y+5805395D01*
X-8060356Y+5761689D01*
X-8085404Y+5720464D01*
X-8114190Y+5681971D01*
X-8146463Y+5646463D01*
X-8181971Y+5614189D01*
X-8220464Y+5585403D01*
X-8261689Y+5560356D01*
X-8305395Y+5539298D01*
X-8351331Y+5522483D01*
X-8399245Y+5510160D01*
X-8448885Y+5502582D01*
X-8500000Y+5500000D01*
X-14250000Y+5500000D02*
X-14301115Y+5502582D01*
X-14350755Y+5510160D01*
X-14398669Y+5522483D01*
X-14444605Y+5539298D01*
X-14488311Y+5560356D01*
X-14529536Y+5585403D01*
X-14568029Y+5614189D01*
X-14603538Y+5646463D01*
X-14635811Y+5681971D01*
X-14664597Y+5720464D01*
X-14689644Y+5761689D01*
X-14710702Y+5805395D01*
X-14727518Y+5851331D01*
X-14739840Y+5899245D01*
X-14747418Y+5948885D01*
X-14750000Y+6000000D01*
X-14250000Y+11750000D02*
X-8500000Y+11750000D01*
X-8000000Y+11250000D02*
X-8000000Y+6000000D01*
X-8500000Y+5500000D02*
X-14250000Y+5500000D01*
X-14750000Y+6000000D02*
X-14750000Y+11250000D01*
M02*
