G04 PROTEUS GERBER X2 FILE*
%TF.GenerationSoftware,Labcenter,Proteus,9.0-SP2-Build40482*%
%TF.CreationDate,2026-07-08T18:28:13+00:00*%
%TF.FileFunction,Soldermask,Bot*%
%TF.FilePolarity,Negative*%
%TF.Part,Single*%
%TF.SameCoordinates,{38e45bcf-27c9-428b-ab03-4ea6ddb0ec44}*%
%FSLAX45Y45*%
%MOMM*%
G01*
%TA.AperFunction,Material*%
%ADD77C,1.016000*%
%TA.AperFunction,Material*%
%ADD82C,1.910000*%
%AMPPAD073*
4,1,36,
0.643460,-0.688460,
-0.643460,-0.688460,
-0.652530,-0.687550,
-0.660970,-0.684920,
-0.668620,-0.680770,
-0.675280,-0.675280,
-0.680770,-0.668610,
-0.684920,-0.660970,
-0.687550,-0.652530,
-0.688460,-0.643460,
-0.688460,0.643460,
-0.687550,0.652530,
-0.684920,0.660970,
-0.680770,0.668610,
-0.675280,0.675280,
-0.668620,0.680770,
-0.660970,0.684920,
-0.652530,0.687550,
-0.643460,0.688460,
0.643460,0.688460,
0.652530,0.687550,
0.660970,0.684920,
0.668620,0.680770,
0.675280,0.675280,
0.680770,0.668610,
0.684920,0.660970,
0.687550,0.652530,
0.688460,0.643460,
0.688460,-0.643460,
0.687550,-0.652530,
0.684920,-0.660970,
0.680770,-0.668610,
0.675280,-0.675280,
0.668620,-0.680770,
0.660970,-0.684920,
0.652530,-0.687550,
0.643460,-0.688460,
0*%
%ADD83PPAD073*%
%AMPPAD110*
4,1,4,
0.350000,0.750000,
-0.350000,0.750000,
-0.350000,-0.750000,
0.350000,-0.750000,
0.350000,0.750000,
0*%
%TA.AperFunction,Material*%
%ADD120PPAD110*%
%ADD87C,0.889000*%
%AMPPAD111*
4,1,4,
0.500000,0.400050,
-0.500000,0.400050,
-0.500000,-0.400050,
0.500000,-0.400050,
0.500000,0.400050,
0*%
%ADD121PPAD111*%
%TA.AperFunction,Material*%
%ADD97C,0.300000*%
%TA.AperFunction,Material*%
%ADD109C,0.800100*%
%ADD110C,1.100000*%
%TA.AperFunction,Material*%
%ADD113C,0.990600*%
%AMPPAD108*
4,1,4,
-1.130300,-1.130300,
-1.130300,1.130300,
1.130300,1.130300,
1.130300,-1.130300,
-1.130300,-1.130300,
0*%
%TA.AperFunction,Material*%
%ADD118PPAD108*%
%AMPPAD112*
4,1,36,
-1.651000,-0.825500,
-1.651000,0.825500,
-1.648420,0.851090,
-1.641020,0.874930,
-1.629310,0.896500,
-1.613800,0.915300,
-1.595000,0.930810,
-1.573430,0.942520,
-1.549590,0.949920,
-1.524000,0.952500,
1.524000,0.952500,
1.549590,0.949920,
1.573430,0.942520,
1.595000,0.930810,
1.613800,0.915300,
1.629310,0.896500,
1.641020,0.874930,
1.648420,0.851090,
1.651000,0.825500,
1.651000,-0.825500,
1.648420,-0.851090,
1.641020,-0.874930,
1.629310,-0.896500,
1.613800,-0.915300,
1.595000,-0.930810,
1.573430,-0.942520,
1.549590,-0.949920,
1.524000,-0.952500,
-1.524000,-0.952500,
-1.549590,-0.949920,
-1.573430,-0.942520,
-1.595000,-0.930810,
-1.613800,-0.915300,
-1.629310,-0.896500,
-1.641020,-0.874930,
-1.648420,-0.851090,
-1.651000,-0.825500,
0*%
%ADD122PPAD112*%
%ADD119C,0.025400*%
%TA.AperFunction,Profile*%
%ADD63C,0.101600*%
%TD.AperFunction*%
%TA.AperFunction,Material*%
G36*
X-10609348Y+6202502D02*
X-10609000Y+6297498D01*
X-10609000Y+6307000D01*
X-10607000Y+6313000D01*
X-10606300Y+6316000D01*
X-10605000Y+6319000D01*
X-10603000Y+6325000D01*
X-10599000Y+6331000D01*
X-10598000Y+6334000D01*
X-10596000Y+6336106D01*
X-10593600Y+6339000D01*
X-10591000Y+6341000D01*
X-10587000Y+6345000D01*
X-10584000Y+6347000D01*
X-10581408Y+6349000D01*
X-10579000Y+6351000D01*
X-10576000Y+6352000D01*
X-10573000Y+6354000D01*
X-10564000Y+6357000D01*
X-10561000Y+6357000D01*
X-10558000Y+6358000D01*
X-10554000Y+6359000D01*
X-10542000Y+6359000D01*
X-10538000Y+6358000D01*
X-10535000Y+6357000D01*
X-10532000Y+6357000D01*
X-10526000Y+6355000D01*
X-10522988Y+6354000D01*
X-10520000Y+6352000D01*
X-10517000Y+6351000D01*
X-10514606Y+6349000D01*
X-10512000Y+6347000D01*
X-10509000Y+6345000D01*
X-10505000Y+6341000D01*
X-10502000Y+6339000D01*
X-10500000Y+6336106D01*
X-10498000Y+6334000D01*
X-10496000Y+6331000D01*
X-10495000Y+6328000D01*
X-10493000Y+6325000D01*
X-10490000Y+6316000D01*
X-10488698Y+6313000D01*
X-10488000Y+6310000D01*
X-10487000Y+6307000D01*
X-10487000Y+6193000D01*
X-10488000Y+6190000D01*
X-10488698Y+6187000D01*
X-10490000Y+6184000D01*
X-10493000Y+6175000D01*
X-10495000Y+6172000D01*
X-10496000Y+6169000D01*
X-10498000Y+6166000D01*
X-10500000Y+6163894D01*
X-10502000Y+6161000D01*
X-10505000Y+6159000D01*
X-10509000Y+6155000D01*
X-10512000Y+6153000D01*
X-10514606Y+6151000D01*
X-10517000Y+6149000D01*
X-10520000Y+6148000D01*
X-10522988Y+6146000D01*
X-10526000Y+6145000D01*
X-10532000Y+6143000D01*
X-10535000Y+6143000D01*
X-10538000Y+6142000D01*
X-10542000Y+6141000D01*
X-10554000Y+6141000D01*
X-10558000Y+6142000D01*
X-10561000Y+6143000D01*
X-10564000Y+6143000D01*
X-10573000Y+6146000D01*
X-10576000Y+6148000D01*
X-10579000Y+6149000D01*
X-10581408Y+6151000D01*
X-10584000Y+6153000D01*
X-10587000Y+6155000D01*
X-10591000Y+6159000D01*
X-10593600Y+6161000D01*
X-10596000Y+6163894D01*
X-10598000Y+6166000D01*
X-10599000Y+6169000D01*
X-10603000Y+6175000D01*
X-10605000Y+6181000D01*
X-10606300Y+6184000D01*
X-10607000Y+6187000D01*
X-10609000Y+6193000D01*
X-10609000Y+6202502D01*
X-10609348Y+6202502D01*
G37*
%TD.AperFunction*%
%TA.AperFunction,Material*%
G36*
X-11513000Y+6307000D02*
X-11512000Y+6310000D01*
X-11511302Y+6313000D01*
X-11510000Y+6316000D01*
X-11507000Y+6325000D01*
X-11505000Y+6328000D01*
X-11504000Y+6331000D01*
X-11502000Y+6334000D01*
X-11500000Y+6336106D01*
X-11498000Y+6339000D01*
X-11495000Y+6341000D01*
X-11491000Y+6345000D01*
X-11488000Y+6347000D01*
X-11485394Y+6349000D01*
X-11483000Y+6351000D01*
X-11480000Y+6352000D01*
X-11477012Y+6354000D01*
X-11474000Y+6355000D01*
X-11468000Y+6357000D01*
X-11465000Y+6357000D01*
X-11462000Y+6358000D01*
X-11458000Y+6359000D01*
X-11446000Y+6359000D01*
X-11442000Y+6358000D01*
X-11439000Y+6357000D01*
X-11436000Y+6357000D01*
X-11427000Y+6354000D01*
X-11424000Y+6352000D01*
X-11421000Y+6351000D01*
X-11418592Y+6349000D01*
X-11416000Y+6347000D01*
X-11413000Y+6345000D01*
X-11409000Y+6341000D01*
X-11406400Y+6339000D01*
X-11404000Y+6336106D01*
X-11402000Y+6334000D01*
X-11401000Y+6331000D01*
X-11397000Y+6325000D01*
X-11395000Y+6319000D01*
X-11393700Y+6316000D01*
X-11393000Y+6313000D01*
X-11391000Y+6307000D01*
X-11391000Y+6193000D01*
X-11393000Y+6187000D01*
X-11393700Y+6184000D01*
X-11395000Y+6181000D01*
X-11397000Y+6175000D01*
X-11401000Y+6169000D01*
X-11402000Y+6166000D01*
X-11404000Y+6163894D01*
X-11406400Y+6161000D01*
X-11409000Y+6159000D01*
X-11413000Y+6155000D01*
X-11416000Y+6153000D01*
X-11418592Y+6151000D01*
X-11421000Y+6149000D01*
X-11424000Y+6148000D01*
X-11427000Y+6146000D01*
X-11436000Y+6143000D01*
X-11439000Y+6143000D01*
X-11442000Y+6142000D01*
X-11446000Y+6141000D01*
X-11458000Y+6141000D01*
X-11462000Y+6142000D01*
X-11465000Y+6143000D01*
X-11468000Y+6143000D01*
X-11474000Y+6145000D01*
X-11477012Y+6146000D01*
X-11480000Y+6148000D01*
X-11483000Y+6149000D01*
X-11485394Y+6151000D01*
X-11488000Y+6153000D01*
X-11491000Y+6155000D01*
X-11495000Y+6159000D01*
X-11498000Y+6161000D01*
X-11500000Y+6163894D01*
X-11502000Y+6166000D01*
X-11504000Y+6169000D01*
X-11505000Y+6172000D01*
X-11507000Y+6175000D01*
X-11510000Y+6184000D01*
X-11511302Y+6187000D01*
X-11512000Y+6190000D01*
X-11513000Y+6193000D01*
X-11513000Y+6307000D01*
G37*
%TD.AperFunction*%
%TA.AperFunction,Material*%
G36*
X-11513000Y+6512890D02*
X-11512000Y+6510000D01*
X-11511302Y+6507000D01*
X-11510000Y+6503492D01*
X-11509000Y+6500000D01*
X-11508000Y+6497000D01*
X-11507000Y+6494602D01*
X-11505000Y+6491808D01*
X-11504000Y+6489000D01*
X-11502000Y+6486000D01*
X-11500000Y+6484000D01*
X-11498000Y+6481394D01*
X-11495000Y+6479108D01*
X-11493000Y+6477000D01*
X-11491000Y+6474790D01*
X-11488000Y+6473000D01*
X-11485394Y+6471000D01*
X-11483000Y+6469000D01*
X-11480000Y+6468000D01*
X-11477012Y+6467000D01*
X-11474000Y+6465000D01*
X-11465000Y+6462000D01*
X-11458000Y+6462000D01*
X-11455000Y+6461000D01*
X-11447000Y+6461000D01*
X-11445000Y+6462000D01*
X-11443000Y+6462000D01*
X-11441000Y+6462090D01*
X-11439000Y+6462000D01*
X-11438000Y+6463000D01*
X-11436000Y+6463000D01*
X-11434000Y+6464000D01*
X-11432308Y+6464000D01*
X-11431000Y+6465000D01*
X-11429000Y+6466000D01*
X-11427000Y+6466408D01*
X-11426000Y+6467000D01*
X-11424000Y+6468000D01*
X-11422402Y+6469000D01*
X-11421000Y+6469710D01*
X-11419000Y+6471000D01*
X-11418000Y+6472000D01*
X-11416000Y+6473000D01*
X-11415000Y+6474000D01*
X-11413000Y+6475000D01*
X-11411000Y+6477000D01*
X-11409194Y+6478000D01*
X-11408000Y+6480000D01*
X-11407000Y+6481000D01*
X-11406000Y+6483000D01*
X-11404000Y+6484188D01*
X-11404000Y+6616000D01*
X-11408000Y+6620000D01*
X-11409194Y+6622000D01*
X-11411000Y+6623000D01*
X-11412000Y+6623888D01*
X-11413000Y+6625000D01*
X-11415000Y+6626000D01*
X-11416000Y+6627000D01*
X-11418000Y+6628000D01*
X-11419000Y+6629000D01*
X-11421000Y+6630000D01*
X-11422402Y+6631000D01*
X-11424000Y+6632000D01*
X-11426000Y+6633000D01*
X-11427000Y+6634000D01*
X-11429000Y+6634302D01*
X-11431000Y+6635000D01*
X-11432308Y+6636000D01*
X-11434000Y+6636000D01*
X-11436000Y+6637000D01*
X-11438000Y+6637096D01*
X-11439000Y+6638000D01*
X-11445000Y+6638000D01*
X-11447000Y+6639000D01*
X-11455000Y+6639000D01*
X-11458000Y+6638000D01*
X-11462000Y+6638112D01*
X-11465000Y+6638000D01*
X-11471000Y+6636000D01*
X-11474000Y+6634810D01*
X-11477012Y+6633000D01*
X-11480000Y+6632000D01*
X-11483000Y+6631000D01*
X-11485394Y+6629000D01*
X-11488000Y+6627000D01*
X-11491000Y+6625000D01*
X-11495000Y+6621000D01*
X-11498000Y+6619000D01*
X-11500000Y+6616000D01*
X-11502000Y+6614000D01*
X-11504000Y+6611000D01*
X-11505000Y+6608000D01*
X-11507000Y+6605000D01*
X-11508000Y+6603000D01*
X-11509000Y+6599504D01*
X-11510000Y+6597000D01*
X-11511302Y+6593408D01*
X-11512000Y+6590000D01*
X-11513000Y+6587000D01*
X-11513000Y+6512890D01*
G37*
%TD.AperFunction*%
%TA.AperFunction,Material*%
G36*
X-10487000Y+6512890D02*
X-10488000Y+6510000D01*
X-10488698Y+6507000D01*
X-10490000Y+6503492D01*
X-10491000Y+6500000D01*
X-10492000Y+6497000D01*
X-10493000Y+6494602D01*
X-10495000Y+6491808D01*
X-10496000Y+6489000D01*
X-10498000Y+6486000D01*
X-10500000Y+6484000D01*
X-10502000Y+6481394D01*
X-10505000Y+6479108D01*
X-10507000Y+6477000D01*
X-10509000Y+6474790D01*
X-10512000Y+6473000D01*
X-10514606Y+6471000D01*
X-10517000Y+6469000D01*
X-10520000Y+6468000D01*
X-10522988Y+6467000D01*
X-10526000Y+6465000D01*
X-10535000Y+6462000D01*
X-10542000Y+6462000D01*
X-10545000Y+6461000D01*
X-10553000Y+6461000D01*
X-10555000Y+6462000D01*
X-10557000Y+6462000D01*
X-10559000Y+6462090D01*
X-10561000Y+6462000D01*
X-10562000Y+6463000D01*
X-10564000Y+6463000D01*
X-10566000Y+6464000D01*
X-10567692Y+6464000D01*
X-10569000Y+6465000D01*
X-10571000Y+6466000D01*
X-10573000Y+6466408D01*
X-10574000Y+6467000D01*
X-10576000Y+6468000D01*
X-10577598Y+6469000D01*
X-10579000Y+6469710D01*
X-10581000Y+6471000D01*
X-10582000Y+6472000D01*
X-10584000Y+6473000D01*
X-10585000Y+6474000D01*
X-10587000Y+6475000D01*
X-10589000Y+6477000D01*
X-10590806Y+6478000D01*
X-10592000Y+6480000D01*
X-10593000Y+6481000D01*
X-10594000Y+6483000D01*
X-10596000Y+6484188D01*
X-10596000Y+6616000D01*
X-10592000Y+6620000D01*
X-10590806Y+6622000D01*
X-10589000Y+6623000D01*
X-10588000Y+6623888D01*
X-10587000Y+6625000D01*
X-10585000Y+6626000D01*
X-10584000Y+6627000D01*
X-10582000Y+6628000D01*
X-10581000Y+6629000D01*
X-10579000Y+6630000D01*
X-10577598Y+6631000D01*
X-10576000Y+6632000D01*
X-10574000Y+6633000D01*
X-10573000Y+6634000D01*
X-10571000Y+6634302D01*
X-10569000Y+6635000D01*
X-10567692Y+6636000D01*
X-10566000Y+6636000D01*
X-10564000Y+6637000D01*
X-10562000Y+6637096D01*
X-10561000Y+6638000D01*
X-10555000Y+6638000D01*
X-10553000Y+6639000D01*
X-10545000Y+6639000D01*
X-10542000Y+6638000D01*
X-10538000Y+6638112D01*
X-10535000Y+6638000D01*
X-10529000Y+6636000D01*
X-10526000Y+6634810D01*
X-10522988Y+6633000D01*
X-10520000Y+6632000D01*
X-10517000Y+6631000D01*
X-10514606Y+6629000D01*
X-10512000Y+6627000D01*
X-10509000Y+6625000D01*
X-10505000Y+6621000D01*
X-10502000Y+6619000D01*
X-10500000Y+6616000D01*
X-10498000Y+6614000D01*
X-10496000Y+6611000D01*
X-10495000Y+6608000D01*
X-10493000Y+6605000D01*
X-10492000Y+6603000D01*
X-10491000Y+6599504D01*
X-10490000Y+6597000D01*
X-10488698Y+6593408D01*
X-10488000Y+6590000D01*
X-10487000Y+6587000D01*
X-10487000Y+6512890D01*
G37*
%TD.AperFunction*%
D77*
X-13411200Y+7655560D03*
X-10505440Y+8829040D03*
X-11511280Y+9890760D03*
X-13243560Y+9611360D03*
X-11343640Y+9890760D03*
X-11790680Y+9387840D03*
X-12125960Y+9723120D03*
X-12014200Y+9443720D03*
X-10617200Y+9890760D03*
X-13299440Y+6370320D03*
X-12237720Y+6985000D03*
X-12405360Y+9276080D03*
X-13131800Y+9108440D03*
X-12181840Y+10281920D03*
X-11008360Y+10114280D03*
X-10393680Y+10952480D03*
X-12237720Y+10673080D03*
X-12237720Y+10393680D03*
X-11623040Y+10114280D03*
X-11846560Y+10114280D03*
X-9890760Y+10617200D03*
X-11120120Y+11008360D03*
X-10784840Y+11008360D03*
X-9555480Y+10896600D03*
X-11511280Y+10449560D03*
X-9890760Y+10393680D03*
X-11623040Y+9946640D03*
X-9946640Y+9890760D03*
X-11902440Y+9890760D03*
X-11008360Y+10393680D03*
X-9443720Y+10337800D03*
X-10337800Y+10281920D03*
X-10896600Y+11120120D03*
X-9667240Y+10617200D03*
X-14025880Y+8829040D03*
X-11231880Y+8661400D03*
X-10617200Y+11343640D03*
X-10337800Y+6705600D03*
X-11008360Y+6705600D03*
X-10896600Y+6705600D03*
X-10840720Y+6482080D03*
X-11120120Y+6258560D03*
X-10896600Y+11231880D03*
X-13914120Y+10281920D03*
X-13914120Y+8326120D03*
X-11790680Y+6873240D03*
X-13131800Y+9611360D03*
X-13020040Y+7487920D03*
X-9220200Y+8996680D03*
X-11120120Y+7711440D03*
X-10114280Y+10617200D03*
X-13020040Y+7264400D03*
X-13746480Y+9890760D03*
X-13858240Y+8996680D03*
X-13858240Y+9499600D03*
X-12740640Y+6985000D03*
X-11958320Y+9555480D03*
X-9946640Y+9443720D03*
X-9779000Y+8717280D03*
X-11231880Y+9387840D03*
X-10728960Y+9387840D03*
X-13020040Y+7655560D03*
X-13355320Y+9387840D03*
X-12237720Y+7152640D03*
X-12628880Y+7879080D03*
X-12405360Y+8326120D03*
X-12908280Y+9220200D03*
X-13020040Y+8270240D03*
X-13020040Y+8493760D03*
X-12237720Y+7767320D03*
X-13187680Y+10673080D03*
X-12573000Y+9890760D03*
X-11678920Y+10449560D03*
X-10114280Y+6370320D03*
X-8996680Y+8102600D03*
X-12014200Y+11008360D03*
X-11231880Y+6482080D03*
X-8382000Y+10393680D03*
X-11734800Y+10617200D03*
X-11287760Y+6873240D03*
X-12014200Y+10114280D03*
X-12573000Y+10002520D03*
X-9667240Y+11399520D03*
X-10281920Y+10952480D03*
X-11511280Y+10002520D03*
X-11623040Y+10673080D03*
X-11008360Y+10505440D03*
X-11064240Y+10673080D03*
X-10281920Y+10673080D03*
X-11902440Y+8940800D03*
X-12852400Y+7879080D03*
X-13299440Y+7376160D03*
X-12908280Y+7543800D03*
X-12237720Y+8940800D03*
X-13020040Y+7152640D03*
X-13020040Y+11064240D03*
X-10617200Y+11455400D03*
X-10840720Y+8940800D03*
X-13802360Y+7376160D03*
X-12237720Y+7990840D03*
X-12293600Y+6482080D03*
X-10281920Y+9164320D03*
X-12461240Y+7208520D03*
X-12405360Y+6761480D03*
X-9164320Y+7152640D03*
X-8884920Y+7990840D03*
X-8829040Y+8326120D03*
X-11399520Y+6761480D03*
X-13243560Y+10952480D03*
X-12349480Y+10449560D03*
X-8549640Y+10728960D03*
X-11343640Y+6258560D03*
X-13634720Y+8382000D03*
X-13020040Y+9276080D03*
X-9220200Y+9779000D03*
X-13411200Y+10393680D03*
X-11176000Y+10114280D03*
X-13411200Y+9611360D03*
X-9834880Y+6370320D03*
X-12405360Y+9164320D03*
X-10728960Y+6314440D03*
X-10840720Y+9890760D03*
X-11343640Y+10728960D03*
X-9220200Y+10226040D03*
X-12181840Y+6370320D03*
X-13634720Y+7599680D03*
X-10840720Y+10449560D03*
X-12573000Y+7767320D03*
X-11399520Y+10114280D03*
X-12573000Y+7655560D03*
X-12349480Y+10561320D03*
X-11287760Y+10114280D03*
X-9276080Y+7990840D03*
X-9276080Y+8270240D03*
X-13020040Y+9723120D03*
X-13858240Y+5979160D03*
X-13522960Y+6873240D03*
X-13411200Y+9723120D03*
X-13411200Y+10002520D03*
X-13858240Y+6761480D03*
X-12349480Y+7767320D03*
X-8605520Y+8661400D03*
X-8605520Y+10505440D03*
X-8605520Y+9052560D03*
X-8605520Y+10058400D03*
X-8549640Y+9667240D03*
X-10840720Y+10561320D03*
X-12237720Y+8605520D03*
X-12237720Y+7879080D03*
X-9331960Y+10896600D03*
X-11678920Y+9723120D03*
X-12908280Y+6146800D03*
X-12237720Y+8270240D03*
X-12461240Y+7655560D03*
X-11902440Y+6873240D03*
X-11902440Y+8158480D03*
X-9779000Y+11399520D03*
X-9555480Y+9611360D03*
X-9890760Y+11399520D03*
X-9667240Y+9276080D03*
X-11790680Y+8493760D03*
X-13020040Y+8717280D03*
X-12684760Y+8493760D03*
X-12517120Y+8214360D03*
X-12517120Y+8717280D03*
X-11902440Y+8661400D03*
X-12517120Y+7934960D03*
X-11902440Y+8437880D03*
X-12237720Y+8382000D03*
X-12796520Y+8717280D03*
X-12237720Y+8493760D03*
X-12740640Y+8829040D03*
X-11902440Y+9387840D03*
X-12908280Y+9890760D03*
X-12908280Y+9108440D03*
X-11902440Y+9052560D03*
X-12684760Y+9276080D03*
X-12796520Y+9499600D03*
X-13020040Y+8940800D03*
X-9667240Y+8996680D03*
X-9555480Y+8884920D03*
X-10505440Y+8102600D03*
X-11678920Y+6258560D03*
X-11790680Y+6482080D03*
X-11790680Y+6761480D03*
X-11511280Y+11399520D03*
X-12181840Y+9443720D03*
X-14137640Y+8493760D03*
X-9052560Y+7152640D03*
X-10226040Y+10505440D03*
X-10393680Y+10840720D03*
X-9890760Y+6705600D03*
X-10114280Y+8884920D03*
X-9779000Y+9108440D03*
X-9667240Y+9723120D03*
X-11902440Y+7823200D03*
X-13411200Y+6537960D03*
X-13411200Y+6761480D03*
X-11157237Y+6000000D03*
X-12500000Y+6500000D03*
X-12136939Y+6135821D03*
X-11902440Y+7712736D03*
X-11772591Y+7046827D03*
X-12170119Y+6904684D03*
X-12084394Y+7607697D03*
X-10337191Y+5869237D03*
X-11394669Y+7264400D03*
X-12074455Y+7376160D03*
X-12206437Y+7369928D03*
X-11878237Y+7580654D03*
X-11942473Y+7423024D03*
X-9715368Y+6642769D03*
X-11161827Y+6839561D03*
X-10849403Y+6871735D03*
X-10692307Y+6895926D03*
X-10984409Y+6839561D03*
X-11454186Y+6946481D03*
X-11333750Y+7145306D03*
X-11502495Y+7797938D03*
X-11675671Y+7995946D03*
X-11435351Y+7127034D03*
X-11502829Y+7573775D03*
X-8363333Y+6504167D03*
X-10046033Y+7493918D03*
X-11221719Y+7777481D03*
X-9087707Y+6670453D03*
X-9506807Y+7089553D03*
X-8851423Y+6620959D03*
X-9665942Y+7489218D03*
X-11338020Y+7563252D03*
X-8344292Y+7009949D03*
X-8940800Y+7113991D03*
X-9148788Y+7006705D03*
X-10960424Y+7114599D03*
X-10560325Y+6848859D03*
X-9983640Y+6895926D03*
X-11004839Y+7711440D03*
X-10881699Y+7566414D03*
X-11086474Y+7606426D03*
X-9194547Y+8102369D03*
X-9278720Y+7764680D03*
X-8967257Y+7626137D03*
X-11092406Y+7111335D03*
X-10957980Y+6944616D03*
X-9086249Y+7382264D03*
X-9645246Y+7382264D03*
X-10206680Y+7254773D03*
X-10749298Y+7590104D03*
X-10640411Y+7585477D03*
X-13650810Y+7376160D03*
X-8499521Y+8180375D03*
X-10674264Y+7755460D03*
X-10372148Y+7571512D03*
X-10505440Y+7588538D03*
X-10240166Y+7568365D03*
X-8485000Y+8935000D03*
X-9663262Y+7763342D03*
X-9280357Y+8498037D03*
X-9740000Y+7615000D03*
X-8318035Y+9537797D03*
X-9248783Y+8801743D03*
X-8707121Y+9092700D03*
X-9754345Y+8396310D03*
X-10123369Y+7951095D03*
X-10207761Y+8010388D03*
X-9677026Y+7976972D03*
X-9688304Y+8280000D03*
X-10063259Y+7881889D03*
X-10143221Y+7763185D03*
X-10240066Y+7673382D03*
X-8605520Y+7264400D03*
X-9276080Y+7487920D03*
X-11210030Y+9721315D03*
X-11455400Y+9346839D03*
X-11587225Y+9367775D03*
X-11339100Y+9387840D03*
X-11471082Y+9438280D03*
D82*
X-14377000Y+6000000D03*
D83*
X-14123000Y+6000000D03*
D120*
X-12775000Y+6175006D03*
X-13075000Y+6175006D03*
X-13225000Y+6175006D03*
D87*
X-12850000Y+6000000D03*
X-13150000Y+6000000D03*
D121*
X-12635002Y+6096000D03*
X-12635002Y+5904000D03*
X-13364998Y+5904000D03*
X-13364998Y+6096000D03*
D97*
X-12000000Y+10594996D03*
X-11942000Y+10500000D03*
X-12058000Y+10500000D03*
X-12000000Y+10405004D03*
X-11250000Y+10500000D03*
X-11308000Y+10558000D03*
X-11192000Y+10558000D03*
X-11192000Y+10442000D03*
X-11308000Y+10442000D03*
X-10500000Y+10594996D03*
X-10558000Y+10500000D03*
X-10442000Y+10500000D03*
X-10500000Y+10405004D03*
D109*
X-11452000Y+6550000D03*
X-10548000Y+6550000D03*
D110*
X-11452000Y+6250000D03*
X-10548000Y+6250000D03*
D113*
X-12563500Y+7131000D03*
X-12461900Y+6623000D03*
X-12665100Y+6623000D03*
D118*
X-8400000Y+6000000D03*
X-9200000Y+6000000D03*
X-10000000Y+6000000D03*
X-10800000Y+6000000D03*
X-11600000Y+6000000D03*
X-12400000Y+6000000D03*
D122*
X-8250000Y+7250000D03*
X-8250000Y+6250000D03*
X-8250000Y+6750000D03*
X-8250000Y+8750000D03*
X-8250000Y+8250000D03*
X-8250000Y+7750000D03*
X-8250000Y+9750000D03*
X-8250000Y+9000000D03*
D119*
X-10609348Y+6202502D02*
X-10609000Y+6297498D01*
X-10609000Y+6307000D01*
X-10607000Y+6313000D01*
X-10606300Y+6316000D01*
X-10605000Y+6319000D01*
X-10603000Y+6325000D01*
X-10599000Y+6331000D01*
X-10598000Y+6334000D01*
X-10596000Y+6336106D01*
X-10593600Y+6339000D01*
X-10591000Y+6341000D01*
X-10587000Y+6345000D01*
X-10584000Y+6347000D01*
X-10581408Y+6349000D01*
X-10579000Y+6351000D01*
X-10576000Y+6352000D01*
X-10573000Y+6354000D01*
X-10564000Y+6357000D01*
X-10561000Y+6357000D01*
X-10558000Y+6358000D01*
X-10554000Y+6359000D01*
X-10542000Y+6359000D01*
X-10538000Y+6358000D01*
X-10535000Y+6357000D01*
X-10532000Y+6357000D01*
X-10526000Y+6355000D01*
X-10522988Y+6354000D01*
X-10520000Y+6352000D01*
X-10517000Y+6351000D01*
X-10514606Y+6349000D01*
X-10512000Y+6347000D01*
X-10509000Y+6345000D01*
X-10505000Y+6341000D01*
X-10502000Y+6339000D01*
X-10500000Y+6336106D01*
X-10498000Y+6334000D01*
X-10496000Y+6331000D01*
X-10495000Y+6328000D01*
X-10493000Y+6325000D01*
X-10490000Y+6316000D01*
X-10488698Y+6313000D01*
X-10488000Y+6310000D01*
X-10487000Y+6307000D01*
X-10487000Y+6193000D01*
X-10488000Y+6190000D01*
X-10488698Y+6187000D01*
X-10490000Y+6184000D01*
X-10493000Y+6175000D01*
X-10495000Y+6172000D01*
X-10496000Y+6169000D01*
X-10498000Y+6166000D01*
X-10500000Y+6163894D01*
X-10502000Y+6161000D01*
X-10505000Y+6159000D01*
X-10509000Y+6155000D01*
X-10512000Y+6153000D01*
X-10514606Y+6151000D01*
X-10517000Y+6149000D01*
X-10520000Y+6148000D01*
X-10522988Y+6146000D01*
X-10526000Y+6145000D01*
X-10532000Y+6143000D01*
X-10535000Y+6143000D01*
X-10538000Y+6142000D01*
X-10542000Y+6141000D01*
X-10554000Y+6141000D01*
X-10558000Y+6142000D01*
X-10561000Y+6143000D01*
X-10564000Y+6143000D01*
X-10573000Y+6146000D01*
X-10576000Y+6148000D01*
X-10579000Y+6149000D01*
X-10581408Y+6151000D01*
X-10584000Y+6153000D01*
X-10587000Y+6155000D01*
X-10591000Y+6159000D01*
X-10593600Y+6161000D01*
X-10596000Y+6163894D01*
X-10598000Y+6166000D01*
X-10599000Y+6169000D01*
X-10603000Y+6175000D01*
X-10605000Y+6181000D01*
X-10606300Y+6184000D01*
X-10607000Y+6187000D01*
X-10609000Y+6193000D01*
X-10609000Y+6202502D01*
X-10609348Y+6202502D01*
X-11513000Y+6307000D02*
X-11512000Y+6310000D01*
X-11511302Y+6313000D01*
X-11510000Y+6316000D01*
X-11507000Y+6325000D01*
X-11505000Y+6328000D01*
X-11504000Y+6331000D01*
X-11502000Y+6334000D01*
X-11500000Y+6336106D01*
X-11498000Y+6339000D01*
X-11495000Y+6341000D01*
X-11491000Y+6345000D01*
X-11488000Y+6347000D01*
X-11485394Y+6349000D01*
X-11483000Y+6351000D01*
X-11480000Y+6352000D01*
X-11477012Y+6354000D01*
X-11474000Y+6355000D01*
X-11468000Y+6357000D01*
X-11465000Y+6357000D01*
X-11462000Y+6358000D01*
X-11458000Y+6359000D01*
X-11446000Y+6359000D01*
X-11442000Y+6358000D01*
X-11439000Y+6357000D01*
X-11436000Y+6357000D01*
X-11427000Y+6354000D01*
X-11424000Y+6352000D01*
X-11421000Y+6351000D01*
X-11418592Y+6349000D01*
X-11416000Y+6347000D01*
X-11413000Y+6345000D01*
X-11409000Y+6341000D01*
X-11406400Y+6339000D01*
X-11404000Y+6336106D01*
X-11402000Y+6334000D01*
X-11401000Y+6331000D01*
X-11397000Y+6325000D01*
X-11395000Y+6319000D01*
X-11393700Y+6316000D01*
X-11393000Y+6313000D01*
X-11391000Y+6307000D01*
X-11391000Y+6193000D01*
X-11393000Y+6187000D01*
X-11393700Y+6184000D01*
X-11395000Y+6181000D01*
X-11397000Y+6175000D01*
X-11401000Y+6169000D01*
X-11402000Y+6166000D01*
X-11404000Y+6163894D01*
X-11406400Y+6161000D01*
X-11409000Y+6159000D01*
X-11413000Y+6155000D01*
X-11416000Y+6153000D01*
X-11418592Y+6151000D01*
X-11421000Y+6149000D01*
X-11424000Y+6148000D01*
X-11427000Y+6146000D01*
X-11436000Y+6143000D01*
X-11439000Y+6143000D01*
X-11442000Y+6142000D01*
X-11446000Y+6141000D01*
X-11458000Y+6141000D01*
X-11462000Y+6142000D01*
X-11465000Y+6143000D01*
X-11468000Y+6143000D01*
X-11474000Y+6145000D01*
X-11477012Y+6146000D01*
X-11480000Y+6148000D01*
X-11483000Y+6149000D01*
X-11485394Y+6151000D01*
X-11488000Y+6153000D01*
X-11491000Y+6155000D01*
X-11495000Y+6159000D01*
X-11498000Y+6161000D01*
X-11500000Y+6163894D01*
X-11502000Y+6166000D01*
X-11504000Y+6169000D01*
X-11505000Y+6172000D01*
X-11507000Y+6175000D01*
X-11510000Y+6184000D01*
X-11511302Y+6187000D01*
X-11512000Y+6190000D01*
X-11513000Y+6193000D01*
X-11513000Y+6307000D01*
X-11513000Y+6512890D02*
X-11512000Y+6510000D01*
X-11511302Y+6507000D01*
X-11510000Y+6503492D01*
X-11509000Y+6500000D01*
X-11508000Y+6497000D01*
X-11507000Y+6494602D01*
X-11505000Y+6491808D01*
X-11504000Y+6489000D01*
X-11502000Y+6486000D01*
X-11500000Y+6484000D01*
X-11498000Y+6481394D01*
X-11495000Y+6479108D01*
X-11493000Y+6477000D01*
X-11491000Y+6474790D01*
X-11488000Y+6473000D01*
X-11485394Y+6471000D01*
X-11483000Y+6469000D01*
X-11480000Y+6468000D01*
X-11477012Y+6467000D01*
X-11474000Y+6465000D01*
X-11465000Y+6462000D01*
X-11458000Y+6462000D01*
X-11455000Y+6461000D01*
X-11447000Y+6461000D01*
X-11445000Y+6462000D01*
X-11443000Y+6462000D01*
X-11441000Y+6462090D01*
X-11439000Y+6462000D01*
X-11438000Y+6463000D01*
X-11436000Y+6463000D01*
X-11434000Y+6464000D01*
X-11432308Y+6464000D01*
X-11431000Y+6465000D01*
X-11429000Y+6466000D01*
X-11427000Y+6466408D01*
X-11426000Y+6467000D01*
X-11424000Y+6468000D01*
X-11422402Y+6469000D01*
X-11421000Y+6469710D01*
X-11419000Y+6471000D01*
X-11418000Y+6472000D01*
X-11416000Y+6473000D01*
X-11415000Y+6474000D01*
X-11413000Y+6475000D01*
X-11411000Y+6477000D01*
X-11409194Y+6478000D01*
X-11408000Y+6480000D01*
X-11407000Y+6481000D01*
X-11406000Y+6483000D01*
X-11404000Y+6484188D01*
X-11404000Y+6616000D01*
X-11408000Y+6620000D01*
X-11409194Y+6622000D01*
X-11411000Y+6623000D01*
X-11412000Y+6623888D01*
X-11413000Y+6625000D01*
X-11415000Y+6626000D01*
X-11416000Y+6627000D01*
X-11418000Y+6628000D01*
X-11419000Y+6629000D01*
X-11421000Y+6630000D01*
X-11422402Y+6631000D01*
X-11424000Y+6632000D01*
X-11426000Y+6633000D01*
X-11427000Y+6634000D01*
X-11429000Y+6634302D01*
X-11431000Y+6635000D01*
X-11432308Y+6636000D01*
X-11434000Y+6636000D01*
X-11436000Y+6637000D01*
X-11438000Y+6637096D01*
X-11439000Y+6638000D01*
X-11445000Y+6638000D01*
X-11447000Y+6639000D01*
X-11455000Y+6639000D01*
X-11458000Y+6638000D01*
X-11462000Y+6638112D01*
X-11465000Y+6638000D01*
X-11471000Y+6636000D01*
X-11474000Y+6634810D01*
X-11477012Y+6633000D01*
X-11480000Y+6632000D01*
X-11483000Y+6631000D01*
X-11485394Y+6629000D01*
X-11488000Y+6627000D01*
X-11491000Y+6625000D01*
X-11495000Y+6621000D01*
X-11498000Y+6619000D01*
X-11500000Y+6616000D01*
X-11502000Y+6614000D01*
X-11504000Y+6611000D01*
X-11505000Y+6608000D01*
X-11507000Y+6605000D01*
X-11508000Y+6603000D01*
X-11509000Y+6599504D01*
X-11510000Y+6597000D01*
X-11511302Y+6593408D01*
X-11512000Y+6590000D01*
X-11513000Y+6587000D01*
X-11513000Y+6512890D01*
X-10487000Y+6512890D02*
X-10488000Y+6510000D01*
X-10488698Y+6507000D01*
X-10490000Y+6503492D01*
X-10491000Y+6500000D01*
X-10492000Y+6497000D01*
X-10493000Y+6494602D01*
X-10495000Y+6491808D01*
X-10496000Y+6489000D01*
X-10498000Y+6486000D01*
X-10500000Y+6484000D01*
X-10502000Y+6481394D01*
X-10505000Y+6479108D01*
X-10507000Y+6477000D01*
X-10509000Y+6474790D01*
X-10512000Y+6473000D01*
X-10514606Y+6471000D01*
X-10517000Y+6469000D01*
X-10520000Y+6468000D01*
X-10522988Y+6467000D01*
X-10526000Y+6465000D01*
X-10535000Y+6462000D01*
X-10542000Y+6462000D01*
X-10545000Y+6461000D01*
X-10553000Y+6461000D01*
X-10555000Y+6462000D01*
X-10557000Y+6462000D01*
X-10559000Y+6462090D01*
X-10561000Y+6462000D01*
X-10562000Y+6463000D01*
X-10564000Y+6463000D01*
X-10566000Y+6464000D01*
X-10567692Y+6464000D01*
X-10569000Y+6465000D01*
X-10571000Y+6466000D01*
X-10573000Y+6466408D01*
X-10574000Y+6467000D01*
X-10576000Y+6468000D01*
X-10577598Y+6469000D01*
X-10579000Y+6469710D01*
X-10581000Y+6471000D01*
X-10582000Y+6472000D01*
X-10584000Y+6473000D01*
X-10585000Y+6474000D01*
X-10587000Y+6475000D01*
X-10589000Y+6477000D01*
X-10590806Y+6478000D01*
X-10592000Y+6480000D01*
X-10593000Y+6481000D01*
X-10594000Y+6483000D01*
X-10596000Y+6484188D01*
X-10596000Y+6616000D01*
X-10592000Y+6620000D01*
X-10590806Y+6622000D01*
X-10589000Y+6623000D01*
X-10588000Y+6623888D01*
X-10587000Y+6625000D01*
X-10585000Y+6626000D01*
X-10584000Y+6627000D01*
X-10582000Y+6628000D01*
X-10581000Y+6629000D01*
X-10579000Y+6630000D01*
X-10577598Y+6631000D01*
X-10576000Y+6632000D01*
X-10574000Y+6633000D01*
X-10573000Y+6634000D01*
X-10571000Y+6634302D01*
X-10569000Y+6635000D01*
X-10567692Y+6636000D01*
X-10566000Y+6636000D01*
X-10564000Y+6637000D01*
X-10562000Y+6637096D01*
X-10561000Y+6638000D01*
X-10555000Y+6638000D01*
X-10553000Y+6639000D01*
X-10545000Y+6639000D01*
X-10542000Y+6638000D01*
X-10538000Y+6638112D01*
X-10535000Y+6638000D01*
X-10529000Y+6636000D01*
X-10526000Y+6634810D01*
X-10522988Y+6633000D01*
X-10520000Y+6632000D01*
X-10517000Y+6631000D01*
X-10514606Y+6629000D01*
X-10512000Y+6627000D01*
X-10509000Y+6625000D01*
X-10505000Y+6621000D01*
X-10502000Y+6619000D01*
X-10500000Y+6616000D01*
X-10498000Y+6614000D01*
X-10496000Y+6611000D01*
X-10495000Y+6608000D01*
X-10493000Y+6605000D01*
X-10492000Y+6603000D01*
X-10491000Y+6599504D01*
X-10490000Y+6597000D01*
X-10488698Y+6593408D01*
X-10488000Y+6590000D01*
X-10487000Y+6587000D01*
X-10487000Y+6512890D01*
D63*
X-14750000Y+11250000D02*
X-14747418Y+11301115D01*
X-14739840Y+11350755D01*
X-14727518Y+11398669D01*
X-14710702Y+11444605D01*
X-14689644Y+11488311D01*
X-14664597Y+11529536D01*
X-14635811Y+11568029D01*
X-14603538Y+11603538D01*
X-14568029Y+11635811D01*
X-14529536Y+11664597D01*
X-14488311Y+11689644D01*
X-14444605Y+11710702D01*
X-14398669Y+11727517D01*
X-14350755Y+11739840D01*
X-14301115Y+11747418D01*
X-14250000Y+11750000D01*
X-8500000Y+11750000D02*
X-8448885Y+11747418D01*
X-8399245Y+11739840D01*
X-8351331Y+11727517D01*
X-8305395Y+11710702D01*
X-8261689Y+11689644D01*
X-8220464Y+11664597D01*
X-8181971Y+11635811D01*
X-8146463Y+11603538D01*
X-8114190Y+11568029D01*
X-8085404Y+11529536D01*
X-8060356Y+11488311D01*
X-8039299Y+11444605D01*
X-8022483Y+11398669D01*
X-8010160Y+11350755D01*
X-8002582Y+11301115D01*
X-8000000Y+11250000D01*
X-8000000Y+6000000D02*
X-8002582Y+5948885D01*
X-8010160Y+5899245D01*
X-8022483Y+5851331D01*
X-8039299Y+5805395D01*
X-8060356Y+5761689D01*
X-8085404Y+5720464D01*
X-8114190Y+5681971D01*
X-8146463Y+5646463D01*
X-8181971Y+5614189D01*
X-8220464Y+5585403D01*
X-8261689Y+5560356D01*
X-8305395Y+5539298D01*
X-8351331Y+5522483D01*
X-8399245Y+5510160D01*
X-8448885Y+5502582D01*
X-8500000Y+5500000D01*
X-14250000Y+5500000D02*
X-14301115Y+5502582D01*
X-14350755Y+5510160D01*
X-14398669Y+5522483D01*
X-14444605Y+5539298D01*
X-14488311Y+5560356D01*
X-14529536Y+5585403D01*
X-14568029Y+5614189D01*
X-14603538Y+5646463D01*
X-14635811Y+5681971D01*
X-14664597Y+5720464D01*
X-14689644Y+5761689D01*
X-14710702Y+5805395D01*
X-14727518Y+5851331D01*
X-14739840Y+5899245D01*
X-14747418Y+5948885D01*
X-14750000Y+6000000D01*
X-14250000Y+11750000D02*
X-8500000Y+11750000D01*
X-8000000Y+11250000D02*
X-8000000Y+6000000D01*
X-8500000Y+5500000D02*
X-14250000Y+5500000D01*
X-14750000Y+6000000D02*
X-14750000Y+11250000D01*
M02*
