G04 PROTEUS GERBER X2 FILE*
%TF.GenerationSoftware,Labcenter,Proteus,9.0-SP2-Build40482*%
%TF.CreationDate,2026-07-08T18:28:13+00:00*%
%TF.FileFunction,Copper,L4,Bot*%
%TF.FilePolarity,Positive*%
%TF.Part,Single*%
%TF.SameCoordinates,{38e45bcf-27c9-428b-ab03-4ea6ddb0ec44}*%
%FSLAX45Y45*%
%MOMM*%
G01*
%TA.AperFunction,Conductor*%
%ADD10C,0.254000*%
%TA.AperFunction,ViaPad*%
%ADD11C,0.762000*%
%TA.AperFunction,ComponentPad*%
%ADD16C,1.820000*%
%ADD17R,1.286930X1.286930*%
%TA.AperFunction,SMDPad,CuDef*%
%ADD64R,0.700000X1.500000*%
%TA.AperFunction,ComponentPad*%
%ADD71C,0.889000*%
%TA.AperFunction,SMDPad,CuDef*%
%ADD65R,1.000000X0.800100*%
%TA.AperFunction,ComponentPad*%
%ADD36C,0.300000*%
%TA.AperFunction,ComponentPad*%
%ADD49C,0.800100*%
%ADD52C,1.100000*%
%TA.AperFunction,ComponentPad*%
%ADD57C,0.990600*%
%TA.AperFunction,SMDPad,CuDef*%
%ADD62R,2.260600X2.260600*%
%ADD66R,3.048000X1.651000*%
%TA.AperFunction,Profile*%
%ADD63C,0.101600*%
%TD.AperFunction*%
D10*
X-13243560Y+9611360D02*
X-13243560Y+7655560D01*
X-13187680Y+7599680D01*
X-13187680Y+6705600D01*
X-13075000Y+6592920D01*
X-13075000Y+6175006D01*
X-11846560Y+10114280D02*
X-11623040Y+10114280D01*
X-9555480Y+10896600D02*
X-9555480Y+11511280D01*
X-9611360Y+11567160D01*
X-10728960Y+11567160D01*
X-10784840Y+11511280D01*
X-10784840Y+11008360D01*
X-10617200Y+11343640D02*
X-10617200Y+10980420D01*
X-10924540Y+10673080D01*
X-10924540Y+8968740D01*
X-11231880Y+8661400D01*
X-11231880Y+9387840D02*
X-11399520Y+9555480D01*
X-11958320Y+9555480D01*
X-10728960Y+9387840D02*
X-10617200Y+9499600D01*
X-10114280Y+9499600D01*
X-12740640Y+6985000D02*
X-12740640Y+6873240D01*
X-12775000Y+6838880D01*
X-12775000Y+6175006D01*
X-13746480Y+9890760D02*
X-13746480Y+10114280D01*
X-13914120Y+10281920D01*
X-10114280Y+10617200D02*
X-10114280Y+9499600D01*
X-13858240Y+8996680D02*
X-13858240Y+8382000D01*
X-13914120Y+8326120D01*
X-13858240Y+9499600D02*
X-13858240Y+8996680D01*
X-13020040Y+7264400D02*
X-13020040Y+7487920D01*
X-9946640Y+9443720D02*
X-10058400Y+9443720D01*
X-10114280Y+9499600D01*
X-13020040Y+8493760D02*
X-13131800Y+8605520D01*
X-13131800Y+8940800D01*
X-13020040Y+9052560D01*
X-13020040Y+9210040D01*
X-12918440Y+9210040D01*
X-12908280Y+9220200D01*
X-12237720Y+7767320D02*
X-12237720Y+7655560D01*
X-12293600Y+7599680D01*
X-12293600Y+7208520D01*
X-12237720Y+7152640D01*
X-12573000Y+10002520D02*
X-13131800Y+10002520D01*
X-13187680Y+10058400D01*
X-13187680Y+10673080D01*
X-11231880Y+6482080D02*
X-11231880Y+6090920D01*
X-11322800Y+6000000D01*
X-11600000Y+6000000D01*
X-12014200Y+10114280D02*
X-12014200Y+10281920D01*
X-11958320Y+10337800D01*
X-11790680Y+10337800D01*
X-11678920Y+10449560D01*
X-11287760Y+6873240D02*
X-11287760Y+6761480D01*
X-11231880Y+6705600D01*
X-11231880Y+6482080D01*
X-11734800Y+10617200D02*
X-11846560Y+10617200D01*
X-11846560Y+10505440D01*
X-11790680Y+10449560D01*
X-11678920Y+10449560D01*
X-12573000Y+10002520D02*
X-12573000Y+9890760D01*
X-11343640Y+10393680D02*
X-11399520Y+10449560D01*
X-11399520Y+10617200D01*
X-11455400Y+10673080D01*
X-11623040Y+10673080D01*
X-11008360Y+10505440D02*
X-11120120Y+10505440D01*
X-11120120Y+10449560D01*
X-11176000Y+10393680D01*
X-11343640Y+10393680D01*
X-11511280Y+10226040D01*
X-11511280Y+10002520D01*
X-13020040Y+7823200D02*
X-12908280Y+7711440D01*
X-12908280Y+7543800D01*
X-13020040Y+7823200D02*
X-13020040Y+8046720D01*
X-12908280Y+8158480D01*
X-12908280Y+8884920D01*
X-12852400Y+8940800D01*
X-12237720Y+8940800D01*
X-13020040Y+7823200D02*
X-13131800Y+7711440D01*
X-13131800Y+7264400D01*
X-13020040Y+7152640D01*
X-10840720Y+8940800D02*
X-10840720Y+9667240D01*
X-10728960Y+9779000D01*
X-10728960Y+10002520D01*
X-10617200Y+10114280D01*
X-10617200Y+10547498D01*
X-10449560Y+10547498D01*
X-10449560Y+10617200D01*
X-10505440Y+10673080D01*
X-10505440Y+11343640D01*
X-10617200Y+11455400D01*
X-10500000Y+10500000D02*
X-10442000Y+10500000D01*
X-10500000Y+10500000D02*
X-10558000Y+10500000D01*
X-12349480Y+7767320D02*
X-12349480Y+7040880D01*
X-12573000Y+6817360D01*
X-12573000Y+6426200D01*
X-12517120Y+6370320D01*
X-12181840Y+6370320D01*
X-13411200Y+10393680D02*
X-13411200Y+10784840D01*
X-13243560Y+10952480D01*
X-12400000Y+6000000D02*
X-12644360Y+5755640D01*
X-13187680Y+5755640D01*
X-13243560Y+5811520D01*
X-11942000Y+10500000D02*
X-11942000Y+10728960D01*
X-11886120Y+10784840D01*
X-11567160Y+10784840D01*
X-11511280Y+10728960D01*
X-11343640Y+10728960D01*
X-12349480Y+10561320D02*
X-12349480Y+10449560D01*
X-12237720Y+7879080D02*
X-12125960Y+7990840D01*
X-12125960Y+8493760D01*
X-12237720Y+8605520D01*
X-13522960Y+6873240D02*
X-13522960Y+7487920D01*
X-13634720Y+7599680D01*
X-8549640Y+9667240D02*
X-8382000Y+9499600D01*
X-8382000Y+9276080D01*
X-8605520Y+9052560D01*
X-10500000Y+10594996D02*
X-10673080Y+10594996D01*
X-10706756Y+10561320D01*
X-10840720Y+10561320D01*
X-12635002Y+6096000D02*
X-12635002Y+6000000D01*
X-12400000Y+6000000D01*
X-12058000Y+10500000D02*
X-12119320Y+10561320D01*
X-12349480Y+10561320D01*
X-10548000Y+6250000D02*
X-10664520Y+6250000D01*
X-10728960Y+6314440D01*
X-8605520Y+10505440D02*
X-8605520Y+10673080D01*
X-8549640Y+10728960D01*
X-13858240Y+5979160D02*
X-13858240Y+6146800D01*
X-13914120Y+6202680D01*
X-14174320Y+6202680D01*
X-14377000Y+6000000D01*
X-13243560Y+5811520D02*
X-13243560Y+6128240D01*
X-13225000Y+6146800D01*
X-13225000Y+6175006D01*
X-12058000Y+10500000D02*
X-12058000Y+10405004D01*
X-12000000Y+10405004D01*
X-11942000Y+10500000D02*
X-12058000Y+10500000D01*
X-11452000Y+6250000D02*
X-11443440Y+6258560D01*
X-11343640Y+6258560D01*
X-8661400Y+10226040D02*
X-9220200Y+10226040D01*
X-10840720Y+10449560D02*
X-10840720Y+9890760D01*
X-13020040Y+9723120D02*
X-13020040Y+9276080D01*
X-13858240Y+5979160D02*
X-13634720Y+5755640D01*
X-13299440Y+5755640D01*
X-13243560Y+5811520D01*
X-8605520Y+9052560D02*
X-8605520Y+8661400D01*
X-13411200Y+10002520D02*
X-13411200Y+10393680D01*
X-12635002Y+6096000D02*
X-12635002Y+6202680D01*
X-12349480Y+6202680D01*
X-12181840Y+6370320D01*
X-10548000Y+6550000D02*
X-10548000Y+6250000D01*
X-11452000Y+6550000D02*
X-11452000Y+6250000D01*
X-8605520Y+10505440D02*
X-8605520Y+10281920D01*
X-8661400Y+10226040D01*
X-9276080Y+8270240D02*
X-9276080Y+7990840D01*
X-13411200Y+10002520D02*
X-13411200Y+9723120D01*
X-12349480Y+7767320D02*
X-12573000Y+7767320D01*
X-8605520Y+10058400D02*
X-8605520Y+10170160D01*
X-8661400Y+10226040D01*
X-11287760Y+10114280D02*
X-11399520Y+10114280D01*
X-10840720Y+10561320D02*
X-10840720Y+10449560D01*
X-10500000Y+10405004D02*
X-10500000Y+10500000D01*
X-12237720Y+8605520D02*
X-12125960Y+8717280D01*
X-12125960Y+9108440D01*
X-12181840Y+9164320D01*
X-12405360Y+9164320D01*
X-12461240Y+7655560D02*
X-12908280Y+7208520D01*
X-12908280Y+6146800D01*
X-9555480Y+9611360D02*
X-9723120Y+9611360D01*
X-9779000Y+9667240D01*
X-9779000Y+11399520D01*
X-9667240Y+9276080D02*
X-9834880Y+9443720D01*
X-9834880Y+10058400D01*
X-10002520Y+10226040D01*
X-10002520Y+11287760D01*
X-9890760Y+11399520D01*
X-12517120Y+8717280D02*
X-12517120Y+8214360D01*
X-12740640Y+8829040D02*
X-12461240Y+8829040D01*
X-12405360Y+8773160D01*
X-12405360Y+8661400D01*
X-12237720Y+8493760D01*
X-12908280Y+9108440D02*
X-12796520Y+9220200D01*
X-12796520Y+9276080D01*
X-12908280Y+9387840D01*
X-12908280Y+9890760D01*
X-10393680Y+10840720D02*
X-10393680Y+10673080D01*
X-10226040Y+10505440D01*
X-13411200Y+6761480D02*
X-13411200Y+6537960D01*
X-10800000Y+6000000D02*
X-11157237Y+6000000D01*
X-12500000Y+6500000D02*
X-12464723Y+6535277D01*
X-12377537Y+6535277D01*
X-11786718Y+7126096D01*
X-11786718Y+7646695D01*
X-12060875Y+7646695D01*
X-12084394Y+7623176D01*
X-12084394Y+7607697D01*
X-10000000Y+6000000D02*
X-10130763Y+5869237D01*
X-10337191Y+5869237D01*
X-12074455Y+7376160D02*
X-12074455Y+7504504D01*
X-12150335Y+7580384D01*
X-12150335Y+7635010D01*
X-11962145Y+7823200D01*
X-11902440Y+7823200D01*
X-8250000Y+6250000D02*
X-9322599Y+6250000D01*
X-9715368Y+6642769D01*
X-11678920Y+6258560D02*
X-11678920Y+7490938D01*
X-11067258Y+8102600D01*
X-10505440Y+8102600D01*
X-11231880Y+8661400D02*
X-11231880Y+8549640D01*
X-11568436Y+8213084D01*
X-11568436Y+7655163D01*
X-11748717Y+7474882D01*
X-11748717Y+7070701D01*
X-11772591Y+7046827D01*
X-13020040Y+11064240D02*
X-13020040Y+10840720D01*
X-12293600Y+10114280D01*
X-12293600Y+9276080D01*
X-12237720Y+9220200D01*
X-11734800Y+9220200D01*
X-11675671Y+9161071D01*
X-11675671Y+7995946D01*
X-11454186Y+6946481D02*
X-11454186Y+7041531D01*
X-11501392Y+7088737D01*
X-11501392Y+7572338D01*
X-11502829Y+7573775D01*
X-8250000Y+6750000D02*
X-8250000Y+6617500D01*
X-8363333Y+6504167D01*
X-9779000Y+9108440D02*
X-9499600Y+9108440D01*
X-9443720Y+9052560D01*
X-9443720Y+7152640D01*
X-9506807Y+7089553D01*
X-8250000Y+7250000D02*
X-8250000Y+7104241D01*
X-8344292Y+7009949D01*
X-9983640Y+6895926D02*
X-9983640Y+6500960D01*
X-10114280Y+6370320D01*
X-12293600Y+6482080D02*
X-12070080Y+6482080D01*
X-11734800Y+6146800D01*
X-11623040Y+6146800D01*
X-11567160Y+6202680D01*
X-11567160Y+6740253D01*
X-10881699Y+7425714D01*
X-10881699Y+7566414D01*
X-9278720Y+7764680D02*
X-9276080Y+7762040D01*
X-9276080Y+7487920D01*
X-9276080Y+7990840D02*
X-9276080Y+7767320D01*
X-9278720Y+7764680D01*
X-8250000Y+7750000D02*
X-8625259Y+7750000D01*
X-9058936Y+7316323D01*
X-9113562Y+7316323D01*
X-9194547Y+7397308D01*
X-9194547Y+8102369D01*
X-11092406Y+7111335D02*
X-10815339Y+7388402D01*
X-10815339Y+7602089D01*
X-10845705Y+7632455D01*
X-11060445Y+7632455D01*
X-11086474Y+7606426D01*
X-8250000Y+8250000D02*
X-9086249Y+7413751D01*
X-9086249Y+7382264D01*
X-9667240Y+8996680D02*
X-10226040Y+8996680D01*
X-10279265Y+8943455D01*
X-10279265Y+7769975D01*
X-10330691Y+7821401D01*
X-10894878Y+7821401D01*
X-11004839Y+7711440D01*
X-10849403Y+6871735D02*
X-10849403Y+7297374D01*
X-10749298Y+7397479D01*
X-10749298Y+7590104D01*
X-8250000Y+8750000D02*
X-8250000Y+8531002D01*
X-8494589Y+8286413D01*
X-8494589Y+8180375D01*
X-8499521Y+8180375D01*
X-10674264Y+7755460D02*
X-10573383Y+7654579D01*
X-10326380Y+7654579D01*
X-10240166Y+7568365D01*
X-8250000Y+9000000D02*
X-8315000Y+8935000D01*
X-8485000Y+8935000D01*
X-9665942Y+7489218D02*
X-9665942Y+7760662D01*
X-9663262Y+7763342D01*
X-9280357Y+8498037D02*
X-9276080Y+8493760D01*
X-9276080Y+8270240D01*
X-8605520Y+8661400D02*
X-8768883Y+8498037D01*
X-9280357Y+8498037D01*
X-8250000Y+9750000D02*
X-8250000Y+9605832D01*
X-8318035Y+9537797D01*
X-9555480Y+8884920D02*
X-9779000Y+8884920D01*
X-9858287Y+8805633D01*
X-9858287Y+6802940D01*
X-9781309Y+6725962D01*
X-9781309Y+6615456D01*
X-9377852Y+6211999D01*
X-8611999Y+6211999D01*
X-8400000Y+6000000D01*
X-10114280Y+8884920D02*
X-9896288Y+8666928D01*
X-9896288Y+6711128D01*
X-9890760Y+6705600D01*
X-9248783Y+8801743D02*
X-9220200Y+8830326D01*
X-9220200Y+8996680D01*
X-8707121Y+9092700D02*
X-8661400Y+9138421D01*
X-8661400Y+9779000D01*
X-8382000Y+10058400D01*
X-8382000Y+10393680D01*
X-9677026Y+7976972D02*
X-9805941Y+7848057D01*
X-9805941Y+7291341D01*
X-9532333Y+7017733D01*
X-9430161Y+7017733D01*
X-9387840Y+7060054D01*
X-9387840Y+8662686D01*
X-9248783Y+8801743D01*
X-9779000Y+8717280D02*
X-9779000Y+8464909D01*
X-9820286Y+8423623D01*
X-9820286Y+8120232D01*
X-9677026Y+7976972D01*
X-10279265Y+7769975D02*
X-10243265Y+7769975D01*
X-10114280Y+7640990D01*
X-10114280Y+6873240D01*
X-10226040Y+6761480D01*
X-10226040Y+6202680D01*
X-10170160Y+6146800D01*
X-9346800Y+6146800D01*
X-9200000Y+6000000D01*
X-8605520Y+7264400D02*
X-9276080Y+7264400D01*
X-9276080Y+7487920D01*
X-11339100Y+9387840D02*
X-11343640Y+9383300D01*
X-11343640Y+9164320D01*
X-11606437Y+8901523D01*
X-11606437Y+7700660D01*
X-11794918Y+7889141D01*
X-11949945Y+7889141D01*
X-12188336Y+7650750D01*
X-12188336Y+7451413D01*
X-12140396Y+7403473D01*
X-12140396Y+7348847D01*
X-11933385Y+7141836D01*
X-11824719Y+7141836D01*
X-12205075Y+6761480D01*
X-12405360Y+6761480D01*
D11*
X-13411200Y+7655560D03*
X-10505440Y+8829040D03*
X-11511280Y+9890760D03*
X-13243560Y+9611360D03*
X-11343640Y+9890760D03*
X-11790680Y+9387840D03*
X-12125960Y+9723120D03*
X-12014200Y+9443720D03*
X-10617200Y+9890760D03*
X-13299440Y+6370320D03*
X-12237720Y+6985000D03*
X-12405360Y+9276080D03*
X-13131800Y+9108440D03*
X-12181840Y+10281920D03*
X-11008360Y+10114280D03*
X-10393680Y+10952480D03*
X-12237720Y+10673080D03*
X-12237720Y+10393680D03*
X-11623040Y+10114280D03*
X-11846560Y+10114280D03*
X-9890760Y+10617200D03*
X-11120120Y+11008360D03*
X-10784840Y+11008360D03*
X-9555480Y+10896600D03*
X-11511280Y+10449560D03*
X-9890760Y+10393680D03*
X-11623040Y+9946640D03*
X-9946640Y+9890760D03*
X-11902440Y+9890760D03*
X-11008360Y+10393680D03*
X-9443720Y+10337800D03*
X-10337800Y+10281920D03*
X-10896600Y+11120120D03*
X-9667240Y+10617200D03*
X-14025880Y+8829040D03*
X-11231880Y+8661400D03*
X-10617200Y+11343640D03*
X-10337800Y+6705600D03*
X-11008360Y+6705600D03*
X-10896600Y+6705600D03*
X-10840720Y+6482080D03*
X-11120120Y+6258560D03*
X-10896600Y+11231880D03*
X-13914120Y+10281920D03*
X-13914120Y+8326120D03*
X-11790680Y+6873240D03*
X-13131800Y+9611360D03*
X-13020040Y+7487920D03*
X-9220200Y+8996680D03*
X-11120120Y+7711440D03*
X-10114280Y+10617200D03*
X-13020040Y+7264400D03*
X-13746480Y+9890760D03*
X-13858240Y+8996680D03*
X-13858240Y+9499600D03*
X-12740640Y+6985000D03*
X-11958320Y+9555480D03*
X-9946640Y+9443720D03*
X-9779000Y+8717280D03*
X-11231880Y+9387840D03*
X-10728960Y+9387840D03*
X-13020040Y+7655560D03*
X-13355320Y+9387840D03*
X-12237720Y+7152640D03*
X-12628880Y+7879080D03*
X-12405360Y+8326120D03*
X-12908280Y+9220200D03*
X-13020040Y+8270240D03*
X-13020040Y+8493760D03*
X-12237720Y+7767320D03*
X-13187680Y+10673080D03*
X-12573000Y+9890760D03*
X-11678920Y+10449560D03*
X-10114280Y+6370320D03*
X-8996680Y+8102600D03*
X-12014200Y+11008360D03*
X-11231880Y+6482080D03*
X-8382000Y+10393680D03*
X-11734800Y+10617200D03*
X-11287760Y+6873240D03*
X-12014200Y+10114280D03*
X-12573000Y+10002520D03*
X-9667240Y+11399520D03*
X-10281920Y+10952480D03*
X-11511280Y+10002520D03*
X-11623040Y+10673080D03*
X-11008360Y+10505440D03*
X-11064240Y+10673080D03*
X-10281920Y+10673080D03*
X-11902440Y+8940800D03*
X-12852400Y+7879080D03*
X-13299440Y+7376160D03*
X-12908280Y+7543800D03*
X-12237720Y+8940800D03*
X-13020040Y+7152640D03*
X-13020040Y+11064240D03*
X-10617200Y+11455400D03*
X-10840720Y+8940800D03*
X-13802360Y+7376160D03*
X-12237720Y+7990840D03*
X-12293600Y+6482080D03*
X-10281920Y+9164320D03*
X-12461240Y+7208520D03*
X-12405360Y+6761480D03*
X-9164320Y+7152640D03*
X-8884920Y+7990840D03*
X-8829040Y+8326120D03*
X-11399520Y+6761480D03*
X-13243560Y+10952480D03*
X-12349480Y+10449560D03*
X-8549640Y+10728960D03*
X-11343640Y+6258560D03*
X-13634720Y+8382000D03*
X-13020040Y+9276080D03*
X-9220200Y+9779000D03*
X-13411200Y+10393680D03*
X-11176000Y+10114280D03*
X-13411200Y+9611360D03*
X-9834880Y+6370320D03*
X-12405360Y+9164320D03*
X-10728960Y+6314440D03*
X-10840720Y+9890760D03*
X-11343640Y+10728960D03*
X-9220200Y+10226040D03*
X-12181840Y+6370320D03*
X-13634720Y+7599680D03*
X-10840720Y+10449560D03*
X-12573000Y+7767320D03*
X-11399520Y+10114280D03*
X-12573000Y+7655560D03*
X-12349480Y+10561320D03*
X-11287760Y+10114280D03*
X-9276080Y+7990840D03*
X-9276080Y+8270240D03*
X-13020040Y+9723120D03*
X-13858240Y+5979160D03*
X-13522960Y+6873240D03*
X-13411200Y+9723120D03*
X-13411200Y+10002520D03*
X-13858240Y+6761480D03*
X-12349480Y+7767320D03*
X-8605520Y+8661400D03*
X-8605520Y+10505440D03*
X-8605520Y+9052560D03*
X-8605520Y+10058400D03*
X-8549640Y+9667240D03*
X-10840720Y+10561320D03*
X-12237720Y+8605520D03*
X-12237720Y+7879080D03*
X-9331960Y+10896600D03*
X-11678920Y+9723120D03*
X-12908280Y+6146800D03*
X-12237720Y+8270240D03*
X-12461240Y+7655560D03*
X-11902440Y+6873240D03*
X-11902440Y+8158480D03*
X-9779000Y+11399520D03*
X-9555480Y+9611360D03*
X-9890760Y+11399520D03*
X-9667240Y+9276080D03*
X-11790680Y+8493760D03*
X-13020040Y+8717280D03*
X-12684760Y+8493760D03*
X-12517120Y+8214360D03*
X-12517120Y+8717280D03*
X-11902440Y+8661400D03*
X-12517120Y+7934960D03*
X-11902440Y+8437880D03*
X-12237720Y+8382000D03*
X-12796520Y+8717280D03*
X-12237720Y+8493760D03*
X-12740640Y+8829040D03*
X-11902440Y+9387840D03*
X-12908280Y+9890760D03*
X-12908280Y+9108440D03*
X-11902440Y+9052560D03*
X-12684760Y+9276080D03*
X-12796520Y+9499600D03*
X-13020040Y+8940800D03*
X-9667240Y+8996680D03*
X-9555480Y+8884920D03*
X-10505440Y+8102600D03*
X-11678920Y+6258560D03*
X-11790680Y+6482080D03*
X-11790680Y+6761480D03*
X-11511280Y+11399520D03*
X-12181840Y+9443720D03*
X-14137640Y+8493760D03*
X-9052560Y+7152640D03*
X-10226040Y+10505440D03*
X-10393680Y+10840720D03*
X-9890760Y+6705600D03*
X-10114280Y+8884920D03*
X-9779000Y+9108440D03*
X-9667240Y+9723120D03*
X-11902440Y+7823200D03*
X-13411200Y+6537960D03*
X-13411200Y+6761480D03*
X-11157237Y+6000000D03*
X-12500000Y+6500000D03*
X-12136939Y+6135821D03*
X-11902440Y+7712736D03*
X-11772591Y+7046827D03*
X-12170119Y+6904684D03*
X-12084394Y+7607697D03*
X-10337191Y+5869237D03*
X-11394669Y+7264400D03*
X-12074455Y+7376160D03*
X-12206437Y+7369928D03*
X-11878237Y+7580654D03*
X-11942473Y+7423024D03*
X-9715368Y+6642769D03*
X-11161827Y+6839561D03*
X-10849403Y+6871735D03*
X-10692307Y+6895926D03*
X-10984409Y+6839561D03*
X-11454186Y+6946481D03*
X-11333750Y+7145306D03*
X-11502495Y+7797938D03*
X-11675671Y+7995946D03*
X-11435351Y+7127034D03*
X-11502829Y+7573775D03*
X-8363333Y+6504167D03*
X-10046033Y+7493918D03*
X-11221719Y+7777481D03*
X-9087707Y+6670453D03*
X-9506807Y+7089553D03*
X-8851423Y+6620959D03*
X-9665942Y+7489218D03*
X-11338020Y+7563252D03*
X-8344292Y+7009949D03*
X-8940800Y+7113991D03*
X-9148788Y+7006705D03*
X-10960424Y+7114599D03*
X-10560325Y+6848859D03*
X-9983640Y+6895926D03*
X-11004839Y+7711440D03*
X-10881699Y+7566414D03*
X-11086474Y+7606426D03*
X-9194547Y+8102369D03*
X-9278720Y+7764680D03*
X-8967257Y+7626137D03*
X-11092406Y+7111335D03*
X-10957980Y+6944616D03*
X-9086249Y+7382264D03*
X-9645246Y+7382264D03*
X-10206680Y+7254773D03*
X-10749298Y+7590104D03*
X-10640411Y+7585477D03*
X-13650810Y+7376160D03*
X-8499521Y+8180375D03*
X-10674264Y+7755460D03*
X-10372148Y+7571512D03*
X-10505440Y+7588538D03*
X-10240166Y+7568365D03*
X-8485000Y+8935000D03*
X-9663262Y+7763342D03*
X-9280357Y+8498037D03*
X-9740000Y+7615000D03*
X-8318035Y+9537797D03*
X-9248783Y+8801743D03*
X-8707121Y+9092700D03*
X-9754345Y+8396310D03*
X-10123369Y+7951095D03*
X-10207761Y+8010388D03*
X-9677026Y+7976972D03*
X-9688304Y+8280000D03*
X-10063259Y+7881889D03*
X-10143221Y+7763185D03*
X-10240066Y+7673382D03*
X-8605520Y+7264400D03*
X-9276080Y+7487920D03*
X-11210030Y+9721315D03*
X-11455400Y+9346839D03*
X-11587225Y+9367775D03*
X-11339100Y+9387840D03*
X-11471082Y+9438280D03*
D16*
X-14377000Y+6000000D03*
D17*
X-14123000Y+6000000D03*
D64*
X-12775000Y+6175006D03*
X-13075000Y+6175006D03*
X-13225000Y+6175006D03*
D71*
X-12850000Y+6000000D03*
X-13150000Y+6000000D03*
D65*
X-12635002Y+6096000D03*
X-12635002Y+5904000D03*
X-13364998Y+5904000D03*
X-13364998Y+6096000D03*
D36*
X-12000000Y+10594996D03*
X-11942000Y+10500000D03*
X-12058000Y+10500000D03*
X-12000000Y+10405004D03*
X-11250000Y+10500000D03*
X-11308000Y+10558000D03*
X-11192000Y+10558000D03*
X-11192000Y+10442000D03*
X-11308000Y+10442000D03*
X-10500000Y+10594996D03*
X-10558000Y+10500000D03*
X-10442000Y+10500000D03*
X-10500000Y+10405004D03*
D49*
X-11452000Y+6550000D03*
X-10548000Y+6550000D03*
D52*
X-11452000Y+6250000D03*
X-10548000Y+6250000D03*
D57*
X-12563500Y+7131000D03*
X-12461900Y+6623000D03*
X-12665100Y+6623000D03*
D62*
X-8400000Y+6000000D03*
X-9200000Y+6000000D03*
X-10000000Y+6000000D03*
X-10800000Y+6000000D03*
X-11600000Y+6000000D03*
X-12400000Y+6000000D03*
D66*
X-8250000Y+7250000D03*
X-8250000Y+6250000D03*
X-8250000Y+6750000D03*
X-8250000Y+8750000D03*
X-8250000Y+8250000D03*
X-8250000Y+7750000D03*
X-8250000Y+9750000D03*
X-8250000Y+9000000D03*
D63*
X-14750000Y+11250000D02*
X-14747418Y+11301115D01*
X-14739840Y+11350755D01*
X-14727518Y+11398669D01*
X-14710702Y+11444605D01*
X-14689644Y+11488311D01*
X-14664597Y+11529536D01*
X-14635811Y+11568029D01*
X-14603538Y+11603538D01*
X-14568029Y+11635811D01*
X-14529536Y+11664597D01*
X-14488311Y+11689644D01*
X-14444605Y+11710702D01*
X-14398669Y+11727517D01*
X-14350755Y+11739840D01*
X-14301115Y+11747418D01*
X-14250000Y+11750000D01*
X-8500000Y+11750000D02*
X-8448885Y+11747418D01*
X-8399245Y+11739840D01*
X-8351331Y+11727517D01*
X-8305395Y+11710702D01*
X-8261689Y+11689644D01*
X-8220464Y+11664597D01*
X-8181971Y+11635811D01*
X-8146463Y+11603538D01*
X-8114190Y+11568029D01*
X-8085404Y+11529536D01*
X-8060356Y+11488311D01*
X-8039299Y+11444605D01*
X-8022483Y+11398669D01*
X-8010160Y+11350755D01*
X-8002582Y+11301115D01*
X-8000000Y+11250000D01*
X-8000000Y+6000000D02*
X-8002582Y+5948885D01*
X-8010160Y+5899245D01*
X-8022483Y+5851331D01*
X-8039299Y+5805395D01*
X-8060356Y+5761689D01*
X-8085404Y+5720464D01*
X-8114190Y+5681971D01*
X-8146463Y+5646463D01*
X-8181971Y+5614189D01*
X-8220464Y+5585403D01*
X-8261689Y+5560356D01*
X-8305395Y+5539298D01*
X-8351331Y+5522483D01*
X-8399245Y+5510160D01*
X-8448885Y+5502582D01*
X-8500000Y+5500000D01*
X-14250000Y+5500000D02*
X-14301115Y+5502582D01*
X-14350755Y+5510160D01*
X-14398669Y+5522483D01*
X-14444605Y+5539298D01*
X-14488311Y+5560356D01*
X-14529536Y+5585403D01*
X-14568029Y+5614189D01*
X-14603538Y+5646463D01*
X-14635811Y+5681971D01*
X-14664597Y+5720464D01*
X-14689644Y+5761689D01*
X-14710702Y+5805395D01*
X-14727518Y+5851331D01*
X-14739840Y+5899245D01*
X-14747418Y+5948885D01*
X-14750000Y+6000000D01*
X-14250000Y+11750000D02*
X-8500000Y+11750000D01*
X-8000000Y+11250000D02*
X-8000000Y+6000000D01*
X-8500000Y+5500000D02*
X-14250000Y+5500000D01*
X-14750000Y+6000000D02*
X-14750000Y+11250000D01*
M02*
