G04 PROTEUS GERBER X2 FILE*
%TF.GenerationSoftware,Labcenter,Proteus,9.0-SP2-Build40482*%
%TF.CreationDate,2026-07-08T18:28:13+00:00*%
%TF.FileFunction,AssemblyDrawing,Bot*%
%TF.FilePolarity,Positive*%
%TF.Part,Single*%
%TF.SameCoordinates,{38e45bcf-27c9-428b-ab03-4ea6ddb0ec44}*%
%FSLAX45Y45*%
%MOMM*%
G01*
%TA.AperFunction,Material*%
%ADD160C,0.050000*%
%ADD201C,0.600000*%
%TA.AperFunction,Material*%
%ADD202C,0.256900*%
%TA.AperFunction,Profile*%
%ADD63C,0.101600*%
%TD.AperFunction*%
D160*
X-12715012Y+6275000D02*
X-13284988Y+6275000D01*
X-13440000Y+6161000D02*
X-13440000Y+5839000D01*
X-13175006Y+5839000D01*
X-13175006Y+5695000D01*
X-12824994Y+5695000D01*
X-12824994Y+5839000D01*
X-12560000Y+5839000D01*
X-12560000Y+6161000D01*
X-12715012Y+6161000D01*
X-12715012Y+6275000D01*
X-13284988Y+6275000D02*
X-13284988Y+6161000D01*
X-13440000Y+6161000D01*
D201*
X-12775000Y+6175006D02*
X-12775000Y+6175006D01*
D202*
X-12768786Y+5995825D02*
X-12768786Y+5867372D01*
X-12797687Y+5841682D01*
X-12913294Y+5841682D01*
X-12942196Y+5867372D01*
X-12942196Y+5995825D01*
X-13028901Y+5970134D02*
X-13057803Y+5995825D01*
X-13144508Y+5995825D01*
X-13173410Y+5970134D01*
X-13173410Y+5944444D01*
X-13144508Y+5918753D01*
X-13057803Y+5918753D01*
X-13028901Y+5893063D01*
X-13028901Y+5841682D01*
X-13173410Y+5841682D01*
D63*
X-14750000Y+11250000D02*
X-14747418Y+11301115D01*
X-14739840Y+11350755D01*
X-14727518Y+11398669D01*
X-14710702Y+11444605D01*
X-14689644Y+11488311D01*
X-14664597Y+11529536D01*
X-14635811Y+11568029D01*
X-14603538Y+11603538D01*
X-14568029Y+11635811D01*
X-14529536Y+11664597D01*
X-14488311Y+11689644D01*
X-14444605Y+11710702D01*
X-14398669Y+11727517D01*
X-14350755Y+11739840D01*
X-14301115Y+11747418D01*
X-14250000Y+11750000D01*
X-8500000Y+11750000D02*
X-8448885Y+11747418D01*
X-8399245Y+11739840D01*
X-8351331Y+11727517D01*
X-8305395Y+11710702D01*
X-8261689Y+11689644D01*
X-8220464Y+11664597D01*
X-8181971Y+11635811D01*
X-8146463Y+11603538D01*
X-8114190Y+11568029D01*
X-8085404Y+11529536D01*
X-8060356Y+11488311D01*
X-8039299Y+11444605D01*
X-8022483Y+11398669D01*
X-8010160Y+11350755D01*
X-8002582Y+11301115D01*
X-8000000Y+11250000D01*
X-8000000Y+6000000D02*
X-8002582Y+5948885D01*
X-8010160Y+5899245D01*
X-8022483Y+5851331D01*
X-8039299Y+5805395D01*
X-8060356Y+5761689D01*
X-8085404Y+5720464D01*
X-8114190Y+5681971D01*
X-8146463Y+5646463D01*
X-8181971Y+5614189D01*
X-8220464Y+5585403D01*
X-8261689Y+5560356D01*
X-8305395Y+5539298D01*
X-8351331Y+5522483D01*
X-8399245Y+5510160D01*
X-8448885Y+5502582D01*
X-8500000Y+5500000D01*
X-14250000Y+5500000D02*
X-14301115Y+5502582D01*
X-14350755Y+5510160D01*
X-14398669Y+5522483D01*
X-14444605Y+5539298D01*
X-14488311Y+5560356D01*
X-14529536Y+5585403D01*
X-14568029Y+5614189D01*
X-14603538Y+5646463D01*
X-14635811Y+5681971D01*
X-14664597Y+5720464D01*
X-14689644Y+5761689D01*
X-14710702Y+5805395D01*
X-14727518Y+5851331D01*
X-14739840Y+5899245D01*
X-14747418Y+5948885D01*
X-14750000Y+6000000D01*
X-14250000Y+11750000D02*
X-8500000Y+11750000D01*
X-8000000Y+11250000D02*
X-8000000Y+6000000D01*
X-8500000Y+5500000D02*
X-14250000Y+5500000D01*
X-14750000Y+6000000D02*
X-14750000Y+11250000D01*
M02*
