G04 PROTEUS GERBER X2 FILE*
%TF.GenerationSoftware,Labcenter,Proteus,9.0-SP2-Build40482*%
%TF.CreationDate,2026-07-08T18:28:13+00:00*%
%TF.FileFunction,Soldermask,Top*%
%TF.FilePolarity,Negative*%
%TF.Part,Single*%
%TF.SameCoordinates,{38e45bcf-27c9-428b-ab03-4ea6ddb0ec44}*%
%FSLAX45Y45*%
%MOMM*%
G01*
%TA.AperFunction,Material*%
%ADD77C,1.016000*%
%AMPPAD068*
4,1,4,
-0.469900,0.495300,
0.469900,0.495300,
0.469900,-0.495300,
-0.469900,-0.495300,
-0.469900,0.495300,
0*%
%TA.AperFunction,Material*%
%ADD78PPAD068*%
%AMPPAD069*
4,1,4,
0.495300,0.469900,
0.495300,-0.469900,
-0.495300,-0.469900,
-0.495300,0.469900,
0.495300,0.469900,
0*%
%ADD79PPAD069*%
%AMPPAD070*
4,1,28,
-0.740000,0.140000,
0.740000,0.140000,
0.748060,0.139190,
0.755570,0.136860,
0.768280,0.128280,
0.776860,0.115570,
0.779190,0.108060,
0.780000,0.100000,
0.780000,-0.100000,
0.779190,-0.108060,
0.776860,-0.115570,
0.768280,-0.128280,
0.755570,-0.136860,
0.748060,-0.139190,
0.740000,-0.140000,
-0.740000,-0.140000,
-0.748060,-0.139190,
-0.755570,-0.136860,
-0.768280,-0.128280,
-0.776860,-0.115570,
-0.779190,-0.108060,
-0.780000,-0.100000,
-0.780000,0.100000,
-0.779190,0.108060,
-0.776860,0.115570,
-0.768280,0.128280,
-0.755570,0.136860,
-0.748060,0.139190,
-0.740000,0.140000,
0*%
%TA.AperFunction,Material*%
%ADD80PPAD070*%
%AMPPAD071*
4,1,28,
-0.100000,0.780000,
0.100000,0.780000,
0.108060,0.779190,
0.115570,0.776860,
0.128280,0.768280,
0.136860,0.755570,
0.139190,0.748060,
0.140000,0.740000,
0.140000,-0.740000,
0.139190,-0.748060,
0.136860,-0.755570,
0.128280,-0.768280,
0.115570,-0.776860,
0.108060,-0.779190,
0.100000,-0.780000,
-0.100000,-0.780000,
-0.108060,-0.779190,
-0.115570,-0.776860,
-0.128280,-0.768280,
-0.136860,-0.755570,
-0.139190,-0.748060,
-0.140000,-0.740000,
-0.140000,0.740000,
-0.139190,0.748060,
-0.136860,0.755570,
-0.128280,0.768280,
-0.115570,0.776860,
-0.108060,0.779190,
-0.100000,0.780000,
0*%
%ADD81PPAD071*%
%TA.AperFunction,Material*%
%ADD82C,1.910000*%
%AMPPAD073*
4,1,36,
0.643460,-0.688460,
-0.643460,-0.688460,
-0.652530,-0.687550,
-0.660970,-0.684920,
-0.668620,-0.680770,
-0.675280,-0.675280,
-0.680770,-0.668610,
-0.684920,-0.660970,
-0.687550,-0.652530,
-0.688460,-0.643460,
-0.688460,0.643460,
-0.687550,0.652530,
-0.684920,0.660970,
-0.680770,0.668610,
-0.675280,0.675280,
-0.668620,0.680770,
-0.660970,0.684920,
-0.652530,0.687550,
-0.643460,0.688460,
0.643460,0.688460,
0.652530,0.687550,
0.660970,0.684920,
0.668620,0.680770,
0.675280,0.675280,
0.680770,0.668610,
0.684920,0.660970,
0.687550,0.652530,
0.688460,0.643460,
0.688460,-0.643460,
0.687550,-0.652530,
0.684920,-0.660970,
0.680770,-0.668610,
0.675280,-0.675280,
0.668620,-0.680770,
0.660970,-0.684920,
0.652530,-0.687550,
0.643460,-0.688460,
0*%
%ADD83PPAD073*%
%AMPPAD074*
4,1,4,
-0.275000,0.200000,
0.275000,0.200000,
0.275000,-0.200000,
-0.275000,-0.200000,
-0.275000,0.200000,
0*%
%TA.AperFunction,Material*%
%ADD84PPAD074*%
%AMPPAD075*
4,1,4,
-0.350000,0.250000,
0.350000,0.250000,
0.350000,-0.250000,
-0.350000,-0.250000,
-0.350000,0.250000,
0*%
%ADD85PPAD075*%
%AMPPAD076*
4,1,4,
-0.550000,0.500000,
0.550000,0.500000,
0.550000,-0.500000,
-0.550000,-0.500000,
-0.550000,0.500000,
0*%
%TA.AperFunction,Material*%
%ADD86PPAD076*%
%TA.AperFunction,Material*%
%ADD87C,0.889000*%
%AMPPAD078*
4,1,4,
-0.390000,0.440000,
0.390000,0.440000,
0.390000,-0.440000,
-0.390000,-0.440000,
-0.390000,0.440000,
0*%
%TA.AperFunction,Material*%
%ADD88PPAD078*%
%AMPPAD079*
4,1,4,
-0.050000,0.050000,
0.050000,0.050000,
0.050000,-0.050000,
-0.050000,-0.050000,
-0.050000,0.050000,
0*%
%TA.AperFunction,Material*%
%ADD89PPAD079*%
%AMPPAD080*
4,1,4,
-0.150000,0.100000,
0.150000,0.100000,
0.150000,-0.100000,
-0.150000,-0.100000,
-0.150000,0.100000,
0*%
%ADD90PPAD080*%
%AMPPAD081*
4,1,4,
-0.100000,0.150000,
0.100000,0.150000,
0.100000,-0.150000,
-0.100000,-0.150000,
-0.100000,0.150000,
0*%
%ADD91PPAD081*%
%AMPPAD082*
4,1,4,
-0.225000,0.150000,
0.225000,0.150000,
0.225000,-0.150000,
-0.225000,-0.150000,
-0.225000,0.150000,
0*%
%TA.AperFunction,Material*%
%ADD92PPAD082*%
%AMPPAD083*
4,1,4,
-0.150000,0.225000,
0.150000,0.225000,
0.150000,-0.225000,
-0.150000,-0.225000,
-0.150000,0.225000,
0*%
%ADD93PPAD083*%
%AMPPAD084*
4,1,4,
-0.125000,0.140000,
0.125000,0.140000,
0.125000,-0.140000,
-0.125000,-0.140000,
-0.125000,0.140000,
0*%
%TA.AperFunction,Material*%
%ADD94PPAD084*%
%AMPPAD085*
4,1,4,
-0.140000,0.125000,
0.140000,0.125000,
0.140000,-0.125000,
-0.140000,-0.125000,
-0.140000,0.125000,
0*%
%ADD95PPAD085*%
%AMPPAD086*
4,1,36,
-0.250000,0.150000,
0.250000,0.150000,
0.260080,0.148980,
0.269460,0.146070,
0.277950,0.141460,
0.285350,0.135350,
0.291460,0.127950,
0.296070,0.119460,
0.298980,0.110080,
0.300000,0.100000,
0.300000,-0.100000,
0.298980,-0.110080,
0.296070,-0.119460,
0.291460,-0.127950,
0.285350,-0.135350,
0.277950,-0.141460,
0.269460,-0.146070,
0.260080,-0.148980,
0.250000,-0.150000,
-0.250000,-0.150000,
-0.260080,-0.148980,
-0.269460,-0.146070,
-0.277950,-0.141460,
-0.285350,-0.135350,
-0.291460,-0.127950,
-0.296070,-0.119460,
-0.298980,-0.110080,
-0.300000,-0.100000,
-0.300000,0.100000,
-0.298980,0.110080,
-0.296070,0.119460,
-0.291460,0.127950,
-0.285350,0.135350,
-0.277950,0.141460,
-0.269460,0.146070,
-0.260080,0.148980,
-0.250000,0.150000,
0*%
%TA.AperFunction,Material*%
%ADD96PPAD086*%
%ADD97C,0.300000*%
%AMPPAD088*
4,1,4,
-0.250000,0.250000,
0.250000,0.250000,
0.250000,-0.250000,
-0.250000,-0.250000,
-0.250000,0.250000,
0*%
%ADD98PPAD088*%
%AMPPAD089*
4,1,36,
-0.250000,0.120000,
0.250000,0.120000,
0.260080,0.118980,
0.269460,0.116070,
0.277950,0.111460,
0.285350,0.105350,
0.291460,0.097950,
0.296070,0.089460,
0.298980,0.080080,
0.300000,0.070000,
0.300000,-0.070000,
0.298980,-0.080080,
0.296070,-0.089460,
0.291460,-0.097950,
0.285350,-0.105350,
0.277950,-0.111460,
0.269460,-0.116070,
0.260080,-0.118980,
0.250000,-0.120000,
-0.250000,-0.120000,
-0.260080,-0.118980,
-0.269460,-0.116070,
-0.277950,-0.111460,
-0.285350,-0.105350,
-0.291460,-0.097950,
-0.296070,-0.089460,
-0.298980,-0.080080,
-0.300000,-0.070000,
-0.300000,0.070000,
-0.298980,0.080080,
-0.296070,0.089460,
-0.291460,0.097950,
-0.285350,0.105350,
-0.277950,0.111460,
-0.269460,0.116070,
-0.260080,0.118980,
-0.250000,0.120000,
0*%
%TA.AperFunction,Material*%
%ADD99PPAD089*%
%AMPPAD090*
4,1,36,
-0.070000,0.300000,
0.070000,0.300000,
0.080080,0.298980,
0.089460,0.296070,
0.097950,0.291460,
0.105350,0.285350,
0.111460,0.277950,
0.116070,0.269460,
0.118980,0.260080,
0.120000,0.250000,
0.120000,-0.250000,
0.118980,-0.260080,
0.116070,-0.269460,
0.111460,-0.277950,
0.105350,-0.285350,
0.097950,-0.291460,
0.089460,-0.296070,
0.080080,-0.298980,
0.070000,-0.300000,
-0.070000,-0.300000,
-0.080080,-0.298980,
-0.089460,-0.296070,
-0.097950,-0.291460,
-0.105350,-0.285350,
-0.111460,-0.277950,
-0.116070,-0.269460,
-0.118980,-0.260080,
-0.120000,-0.250000,
-0.120000,0.250000,
-0.118980,0.260080,
-0.116070,0.269460,
-0.111460,0.277950,
-0.105350,0.285350,
-0.097950,0.291460,
-0.089460,0.296070,
-0.080080,0.298980,
-0.070000,0.300000,
0*%
%ADD100PPAD090*%
%AMPPAD091*
4,1,36,
-0.250000,0.154940,
0.250000,0.154940,
0.260080,0.153920,
0.269460,0.151010,
0.277950,0.146400,
0.285350,0.140290,
0.291460,0.132890,
0.296070,0.124400,
0.298980,0.115020,
0.300000,0.104940,
0.300000,-0.104940,
0.298980,-0.115020,
0.296070,-0.124400,
0.291460,-0.132890,
0.285350,-0.140290,
0.277950,-0.146400,
0.269460,-0.151010,
0.260080,-0.153920,
0.250000,-0.154940,
-0.250000,-0.154940,
-0.260080,-0.153920,
-0.269460,-0.151010,
-0.277950,-0.146400,
-0.285350,-0.140290,
-0.291460,-0.132890,
-0.296070,-0.124400,
-0.298980,-0.115020,
-0.300000,-0.104940,
-0.300000,0.104940,
-0.298980,0.115020,
-0.296070,0.124400,
-0.291460,0.132890,
-0.285350,0.140290,
-0.277950,0.146400,
-0.269460,0.151010,
-0.260080,0.153920,
-0.250000,0.154940,
0*%
%TA.AperFunction,Material*%
%ADD101PPAD091*%
%AMPPAD092*
4,1,36,
-0.775000,1.200000,
0.775000,1.200000,
0.785080,1.198980,
0.794460,1.196070,
0.802950,1.191460,
0.810350,1.185350,
0.816460,1.177950,
0.821070,1.169460,
0.823980,1.160080,
0.825000,1.150000,
0.825000,-1.150000,
0.823980,-1.160080,
0.821070,-1.169460,
0.816460,-1.177950,
0.810350,-1.185350,
0.802950,-1.191460,
0.794460,-1.196070,
0.785080,-1.198980,
0.775000,-1.200000,
-0.775000,-1.200000,
-0.785080,-1.198980,
-0.794460,-1.196070,
-0.802950,-1.191460,
-0.810350,-1.185350,
-0.816460,-1.177950,
-0.821070,-1.169460,
-0.823980,-1.160080,
-0.825000,-1.150000,
-0.825000,1.150000,
-0.823980,1.160080,
-0.821070,1.169460,
-0.816460,1.177950,
-0.810350,1.185350,
-0.802950,1.191460,
-0.794460,1.196070,
-0.785080,1.198980,
-0.775000,1.200000,
0*%
%ADD102PPAD092*%
%AMPPAD093*
4,1,4,
-0.304800,0.355600,
0.304800,0.355600,
0.304800,-0.355600,
-0.304800,-0.355600,
-0.304800,0.355600,
0*%
%TA.AperFunction,Material*%
%ADD103PPAD093*%
%AMPPAD094*
4,1,4,
0.300000,-0.850000,
-0.300000,-0.850000,
-0.300000,0.850000,
0.300000,0.850000,
0.300000,-0.850000,
0*%
%TA.AperFunction,Material*%
%ADD104PPAD094*%
%AMPPAD095*
4,1,4,
0.500000,-1.350010,
-0.500000,-1.350010,
-0.500000,1.350010,
0.500000,1.350010,
0.500000,-1.350010,
0*%
%ADD105PPAD095*%
%AMPPAD096*
4,1,4,
-0.400050,-0.400050,
-0.400050,0.400050,
0.400050,0.400050,
0.400050,-0.400050,
-0.400050,-0.400050,
0*%
%TA.AperFunction,Material*%
%ADD106PPAD096*%
%AMPPAD097*
4,1,4,
-1.054100,-1.054100,
-1.054100,1.054100,
1.054100,1.054100,
1.054100,-1.054100,
-1.054100,-1.054100,
0*%
%ADD107PPAD097*%
%AMPPAD098*
4,1,4,
-0.150000,0.500000,
0.150000,0.500000,
0.150000,-0.500000,
-0.150000,-0.500000,
-0.150000,0.500000,
0*%
%TA.AperFunction,Material*%
%ADD108PPAD098*%
%ADD109C,0.800100*%
%ADD110C,1.100000*%
%AMPPAD101*
4,1,36,
0.295000,0.531340,
0.295000,-0.531340,
0.293500,-0.546180,
0.289210,-0.560010,
0.282420,-0.572520,
0.273420,-0.583420,
0.262520,-0.592420,
0.250010,-0.599210,
0.236180,-0.603500,
0.221340,-0.605000,
-0.221340,-0.605000,
-0.236180,-0.603500,
-0.250010,-0.599210,
-0.262520,-0.592420,
-0.273420,-0.583420,
-0.282420,-0.572520,
-0.289210,-0.560010,
-0.293500,-0.546180,
-0.295000,-0.531340,
-0.295000,0.531340,
-0.293500,0.546180,
-0.289210,0.560010,
-0.282420,0.572520,
-0.273420,0.583420,
-0.262520,0.592420,
-0.250010,0.599210,
-0.236180,0.603500,
-0.221340,0.605000,
0.221340,0.605000,
0.236180,0.603500,
0.250010,0.599210,
0.262520,0.592420,
0.273420,0.583420,
0.282420,0.572520,
0.289210,0.560010,
0.293500,0.546180,
0.295000,0.531340,
0*%
%TA.AperFunction,Material*%
%ADD111PPAD101*%
%AMPPAD102*
4,1,36,
0.395000,0.005000,
0.395000,-0.005000,
0.387070,-0.083590,
0.364350,-0.156790,
0.328380,-0.223040,
0.280760,-0.280760,
0.223030,-0.328390,
0.156790,-0.364350,
0.083590,-0.387080,
0.005000,-0.395000,
-0.005000,-0.395000,
-0.083590,-0.387080,
-0.156790,-0.364350,
-0.223030,-0.328390,
-0.280760,-0.280760,
-0.328380,-0.223040,
-0.364350,-0.156790,
-0.387070,-0.083590,
-0.395000,-0.005000,
-0.395000,0.005000,
-0.387070,0.083590,
-0.364350,0.156790,
-0.328380,0.223040,
-0.280760,0.280760,
-0.223030,0.328390,
-0.156790,0.364350,
-0.083590,0.387080,
-0.005000,0.395000,
0.005000,0.395000,
0.083590,0.387080,
0.156790,0.364350,
0.223030,0.328390,
0.280760,0.280760,
0.328380,0.223040,
0.364350,0.156790,
0.387070,0.083590,
0.395000,0.005000,
0*%
%TA.AperFunction,Material*%
%ADD112PPAD102*%
%ADD113C,0.990600*%
%AMPPAD104*
4,1,36,
-0.444500,0.635000,
0.444500,0.635000,
0.470090,0.632420,
0.493930,0.625020,
0.515500,0.613310,
0.534300,0.597800,
0.549810,0.579000,
0.561520,0.557430,
0.568920,0.533590,
0.571500,0.508000,
0.571500,-0.508000,
0.568920,-0.533590,
0.561520,-0.557430,
0.549810,-0.579000,
0.534300,-0.597800,
0.515500,-0.613310,
0.493930,-0.625020,
0.470090,-0.632420,
0.444500,-0.635000,
-0.444500,-0.635000,
-0.470090,-0.632420,
-0.493930,-0.625020,
-0.515500,-0.613310,
-0.534300,-0.597800,
-0.549810,-0.579000,
-0.561520,-0.557430,
-0.568920,-0.533590,
-0.571500,-0.508000,
-0.571500,0.508000,
-0.568920,0.533590,
-0.561520,0.557430,
-0.549810,0.579000,
-0.534300,0.597800,
-0.515500,0.613310,
-0.493930,0.625020,
-0.470090,0.632420,
-0.444500,0.635000,
0*%
%TA.AperFunction,Material*%
%ADD114PPAD104*%
%AMPPAD105*
4,1,4,
-0.850000,-0.300000,
-0.850000,0.300000,
0.850000,0.300000,
0.850000,-0.300000,
-0.850000,-0.300000,
0*%
%TA.AperFunction,Material*%
%ADD115PPAD105*%
%AMPPAD106*
4,1,4,
-1.350010,-0.500000,
-1.350010,0.500000,
1.350010,0.500000,
1.350010,-0.500000,
-1.350010,-0.500000,
0*%
%ADD116PPAD106*%
%AMPPAD107*
4,1,4,
0.500000,0.550000,
0.500000,-0.550000,
-0.500000,-0.550000,
-0.500000,0.550000,
0.500000,0.550000,
0*%
%TA.AperFunction,Material*%
%ADD117PPAD107*%
%AMPPAD108*
4,1,4,
-1.130300,1.130300,
1.130300,1.130300,
1.130300,-1.130300,
-1.130300,-1.130300,
-1.130300,1.130300,
0*%
%TA.AperFunction,Material*%
%ADD118PPAD108*%
%ADD119C,0.025400*%
%TA.AperFunction,Profile*%
%ADD63C,0.101600*%
%TD.AperFunction*%
%TA.AperFunction,Material*%
G36*
X-12765500Y+8565000D02*
X-12805500Y+8565000D01*
X-12805500Y+8595000D01*
X-12778500Y+8595000D01*
X-12765500Y+8582000D01*
X-12765500Y+8565000D01*
G37*
%TD.AperFunction*%
%TA.AperFunction,Material*%
G36*
X-12805500Y+8525000D02*
X-12805500Y+8555000D01*
X-12765500Y+8555000D01*
X-12765500Y+8525000D01*
X-12805500Y+8525000D01*
G37*
%TD.AperFunction*%
%TA.AperFunction,Material*%
G36*
X-12805500Y+8485000D02*
X-12805500Y+8515000D01*
X-12765500Y+8515000D01*
X-12765500Y+8485000D01*
X-12805500Y+8485000D01*
G37*
%TD.AperFunction*%
%TA.AperFunction,Material*%
G36*
X-12805500Y+8445000D02*
X-12805500Y+8475000D01*
X-12765500Y+8475000D01*
X-12765500Y+8445000D01*
X-12805500Y+8445000D01*
G37*
%TD.AperFunction*%
%TA.AperFunction,Material*%
G36*
X-12805500Y+8405000D02*
X-12805500Y+8435000D01*
X-12765500Y+8435000D01*
X-12765500Y+8405000D01*
X-12805500Y+8405000D01*
G37*
%TD.AperFunction*%
%TA.AperFunction,Material*%
G36*
X-12765500Y+8395000D02*
X-12805500Y+8395000D01*
X-12805500Y+8365000D01*
X-12778500Y+8365000D01*
X-12765500Y+8378000D01*
X-12765500Y+8395000D01*
G37*
%TD.AperFunction*%
%TA.AperFunction,Material*%
G36*
X-12742500Y+8372000D02*
X-12742500Y+8332000D01*
X-12772500Y+8332000D01*
X-12772500Y+8359000D01*
X-12759500Y+8372000D01*
X-12742500Y+8372000D01*
G37*
%TD.AperFunction*%
%TA.AperFunction,Material*%
G36*
X-12732500Y+8332000D02*
X-12732500Y+8372000D01*
X-12702500Y+8372000D01*
X-12702500Y+8332000D01*
X-12732500Y+8332000D01*
G37*
%TD.AperFunction*%
%TA.AperFunction,Material*%
G36*
X-12692500Y+8332000D02*
X-12692500Y+8372000D01*
X-12662500Y+8372000D01*
X-12662500Y+8332000D01*
X-12692500Y+8332000D01*
G37*
%TD.AperFunction*%
%TA.AperFunction,Material*%
G36*
X-12652500Y+8332000D02*
X-12652500Y+8372000D01*
X-12622500Y+8372000D01*
X-12622500Y+8332000D01*
X-12652500Y+8332000D01*
G37*
%TD.AperFunction*%
%TA.AperFunction,Material*%
G36*
X-12612500Y+8332000D02*
X-12612500Y+8372000D01*
X-12582500Y+8372000D01*
X-12582500Y+8332000D01*
X-12612500Y+8332000D01*
G37*
%TD.AperFunction*%
%TA.AperFunction,Material*%
G36*
X-12572500Y+8372000D02*
X-12572500Y+8332000D01*
X-12542500Y+8332000D01*
X-12542500Y+8359000D01*
X-12555500Y+8372000D01*
X-12572500Y+8372000D01*
G37*
%TD.AperFunction*%
%TA.AperFunction,Material*%
G36*
X-12549500Y+8395000D02*
X-12509500Y+8395000D01*
X-12509500Y+8365000D01*
X-12536500Y+8365000D01*
X-12549500Y+8378000D01*
X-12549500Y+8395000D01*
G37*
%TD.AperFunction*%
%TA.AperFunction,Material*%
G36*
X-12549500Y+8405000D02*
X-12549500Y+8435000D01*
X-12509500Y+8435000D01*
X-12509500Y+8405000D01*
X-12549500Y+8405000D01*
G37*
%TD.AperFunction*%
%TA.AperFunction,Material*%
G36*
X-12549500Y+8445000D02*
X-12549500Y+8475000D01*
X-12509500Y+8475000D01*
X-12509500Y+8445000D01*
X-12549500Y+8445000D01*
G37*
%TD.AperFunction*%
%TA.AperFunction,Material*%
G36*
X-12549500Y+8485000D02*
X-12549500Y+8515000D01*
X-12509500Y+8515000D01*
X-12509500Y+8485000D01*
X-12549500Y+8485000D01*
G37*
%TD.AperFunction*%
%TA.AperFunction,Material*%
G36*
X-12549500Y+8525000D02*
X-12549500Y+8555000D01*
X-12509500Y+8555000D01*
X-12509500Y+8525000D01*
X-12549500Y+8525000D01*
G37*
%TD.AperFunction*%
%TA.AperFunction,Material*%
G36*
X-12549500Y+8565000D02*
X-12509500Y+8565000D01*
X-12509500Y+8595000D01*
X-12536500Y+8595000D01*
X-12549500Y+8582000D01*
X-12549500Y+8565000D01*
G37*
%TD.AperFunction*%
%TA.AperFunction,Material*%
G36*
X-12572500Y+8588000D02*
X-12572500Y+8628000D01*
X-12542500Y+8628000D01*
X-12542500Y+8601000D01*
X-12555500Y+8588000D01*
X-12572500Y+8588000D01*
G37*
%TD.AperFunction*%
%TA.AperFunction,Material*%
G36*
X-12612500Y+8588000D02*
X-12612500Y+8628000D01*
X-12582500Y+8628000D01*
X-12582500Y+8588000D01*
X-12612500Y+8588000D01*
G37*
%TD.AperFunction*%
%TA.AperFunction,Material*%
G36*
X-12652500Y+8588000D02*
X-12652500Y+8628000D01*
X-12622500Y+8628000D01*
X-12622500Y+8588000D01*
X-12652500Y+8588000D01*
G37*
%TD.AperFunction*%
%TA.AperFunction,Material*%
G36*
X-12692500Y+8588000D02*
X-12692500Y+8628000D01*
X-12662500Y+8628000D01*
X-12662500Y+8588000D01*
X-12692500Y+8588000D01*
G37*
%TD.AperFunction*%
%TA.AperFunction,Material*%
G36*
X-12732500Y+8588000D02*
X-12732500Y+8628000D01*
X-12702500Y+8628000D01*
X-12702500Y+8588000D01*
X-12732500Y+8588000D01*
G37*
%TD.AperFunction*%
%TA.AperFunction,Material*%
G36*
X-12742500Y+8588000D02*
X-12742500Y+8628000D01*
X-12772500Y+8628000D01*
X-12772500Y+8601000D01*
X-12759500Y+8588000D01*
X-12742500Y+8588000D01*
G37*
%TD.AperFunction*%
%TA.AperFunction,Material*%
G36*
X-12172000Y+10620000D02*
X-12107000Y+10620000D01*
X-12107188Y+10619000D01*
X-12105000Y+10619000D01*
X-12105000Y+10618000D01*
X-12105000Y+10618000D01*
X-12104000Y+10618000D01*
X-12104000Y+10617000D01*
X-12103000Y+10617000D01*
X-12103000Y+10579000D01*
X-12104000Y+10578000D01*
X-12104000Y+10577000D01*
X-12105000Y+10577000D01*
X-12105000Y+10576000D01*
X-12106000Y+10576200D01*
X-12106000Y+10576000D01*
X-12107000Y+10575692D01*
X-12107000Y+10576000D01*
X-12107188Y+10576000D01*
X-12107000Y+10575000D01*
X-12172000Y+10575000D01*
X-12173000Y+10576000D01*
X-12173000Y+10575692D01*
X-12174000Y+10575692D01*
X-12174000Y+10576000D01*
X-12174000Y+10576000D01*
X-12174498Y+10576200D01*
X-12175000Y+10576000D01*
X-12175000Y+10577000D01*
X-12176000Y+10577000D01*
X-12176000Y+10578000D01*
X-12177000Y+10578000D01*
X-12177000Y+10617000D01*
X-12176000Y+10617000D01*
X-12176000Y+10618000D01*
X-12175000Y+10618000D01*
X-12175000Y+10619000D01*
X-12173000Y+10619000D01*
X-12172000Y+10620000D01*
G37*
%TD.AperFunction*%
%TA.AperFunction,Material*%
G36*
X-12172000Y+10425000D02*
X-12107000Y+10425000D01*
X-12107188Y+10424000D01*
X-12107000Y+10424000D01*
X-12107000Y+10424308D01*
X-12106000Y+10424000D01*
X-12106000Y+10423800D01*
X-12105000Y+10424000D01*
X-12105000Y+10423000D01*
X-12105000Y+10423000D01*
X-12104000Y+10423000D01*
X-12104000Y+10422000D01*
X-12103000Y+10421000D01*
X-12103000Y+10421000D01*
X-12103000Y+10383000D01*
X-12104000Y+10383000D01*
X-12104000Y+10382000D01*
X-12105000Y+10382000D01*
X-12105000Y+10381000D01*
X-12107188Y+10381000D01*
X-12107000Y+10380000D01*
X-12172000Y+10380000D01*
X-12173000Y+10381000D01*
X-12175000Y+10381000D01*
X-12175000Y+10382000D01*
X-12176000Y+10382000D01*
X-12176000Y+10383000D01*
X-12177000Y+10383000D01*
X-12177000Y+10422000D01*
X-12176000Y+10422000D01*
X-12176000Y+10423000D01*
X-12175000Y+10423000D01*
X-12175000Y+10424000D01*
X-12174498Y+10423800D01*
X-12174000Y+10424000D01*
X-12174000Y+10424000D01*
X-12174000Y+10424308D01*
X-12173000Y+10424308D01*
X-12173000Y+10424000D01*
X-12172000Y+10425000D01*
G37*
%TD.AperFunction*%
%TA.AperFunction,Material*%
G36*
X-11897000Y+10617000D02*
X-11896000Y+10617000D01*
X-11896000Y+10618000D01*
X-11895000Y+10618000D01*
X-11895000Y+10619000D01*
X-11892812Y+10619000D01*
X-11893000Y+10620000D01*
X-11828000Y+10620000D01*
X-11827000Y+10619000D01*
X-11825000Y+10619000D01*
X-11825000Y+10618000D01*
X-11824000Y+10618000D01*
X-11824000Y+10617000D01*
X-11823000Y+10617000D01*
X-11823000Y+10578000D01*
X-11824000Y+10578000D01*
X-11824000Y+10577000D01*
X-11825000Y+10577000D01*
X-11825000Y+10576000D01*
X-11825502Y+10576200D01*
X-11826000Y+10576000D01*
X-11826000Y+10576000D01*
X-11826000Y+10575692D01*
X-11827000Y+10575692D01*
X-11827000Y+10576000D01*
X-11828000Y+10575000D01*
X-11893000Y+10575000D01*
X-11892812Y+10576000D01*
X-11893000Y+10576000D01*
X-11893000Y+10575692D01*
X-11894000Y+10576000D01*
X-11894000Y+10576200D01*
X-11895000Y+10576000D01*
X-11895000Y+10577000D01*
X-11895000Y+10577000D01*
X-11896000Y+10577000D01*
X-11896000Y+10578000D01*
X-11897000Y+10579000D01*
X-11897000Y+10579000D01*
X-11897000Y+10617000D01*
G37*
%TD.AperFunction*%
%TA.AperFunction,Material*%
G36*
X-11828000Y+10425000D02*
X-11827000Y+10424000D01*
X-11827000Y+10424308D01*
X-11826000Y+10424308D01*
X-11826000Y+10424000D01*
X-11826000Y+10424000D01*
X-11825502Y+10423800D01*
X-11825000Y+10424000D01*
X-11825000Y+10423000D01*
X-11824000Y+10423000D01*
X-11824000Y+10422000D01*
X-11823000Y+10422000D01*
X-11823000Y+10383000D01*
X-11824000Y+10383000D01*
X-11824000Y+10382000D01*
X-11825000Y+10382000D01*
X-11825000Y+10381000D01*
X-11827000Y+10381000D01*
X-11828000Y+10380000D01*
X-11893000Y+10380000D01*
X-11892812Y+10381000D01*
X-11895000Y+10381000D01*
X-11895000Y+10382000D01*
X-11895000Y+10382000D01*
X-11896000Y+10382000D01*
X-11896000Y+10383000D01*
X-11897000Y+10383000D01*
X-11897000Y+10421000D01*
X-11896000Y+10422000D01*
X-11896000Y+10423000D01*
X-11895000Y+10423000D01*
X-11895000Y+10424000D01*
X-11894000Y+10423800D01*
X-11894000Y+10424000D01*
X-11893000Y+10424308D01*
X-11893000Y+10424000D01*
X-11892812Y+10424000D01*
X-11893000Y+10425000D01*
X-11828000Y+10425000D01*
G37*
%TD.AperFunction*%
%TA.AperFunction,Material*%
G36*
X-11828000Y+10555000D02*
X-11827000Y+10554000D01*
X-11826000Y+10554000D01*
X-11826000Y+10554000D01*
X-11825000Y+10554000D01*
X-11825000Y+10553000D01*
X-11824000Y+10553000D01*
X-11824000Y+10552000D01*
X-11823000Y+10552000D01*
X-11823000Y+10513208D01*
X-11824000Y+10513000D01*
X-11824000Y+10512192D01*
X-11825000Y+10512000D01*
X-11825000Y+10511000D01*
X-11827000Y+10511000D01*
X-11828000Y+10510000D01*
X-11893000Y+10510000D01*
X-11892812Y+10511000D01*
X-11895000Y+10511000D01*
X-11895000Y+10512000D01*
X-11895000Y+10512000D01*
X-11896000Y+10512000D01*
X-11896000Y+10512000D01*
X-11896000Y+10513208D01*
X-11897000Y+10513000D01*
X-11897000Y+10552000D01*
X-11896000Y+10552000D01*
X-11896000Y+10553000D01*
X-11895000Y+10553000D01*
X-11895000Y+10554000D01*
X-11894000Y+10554000D01*
X-11894000Y+10554000D01*
X-11892812Y+10554000D01*
X-11893000Y+10555000D01*
X-11828000Y+10555000D01*
G37*
%TD.AperFunction*%
%TA.AperFunction,Material*%
G36*
X-11828000Y+10490000D02*
X-11827000Y+10489000D01*
X-11825000Y+10489000D01*
X-11825000Y+10488000D01*
X-11824000Y+10487808D01*
X-11824000Y+10487000D01*
X-11823000Y+10486792D01*
X-11823000Y+10448000D01*
X-11824000Y+10448000D01*
X-11824000Y+10447000D01*
X-11825000Y+10447000D01*
X-11825000Y+10446000D01*
X-11826000Y+10446000D01*
X-11826000Y+10446000D01*
X-11827000Y+10446000D01*
X-11828000Y+10445000D01*
X-11893000Y+10445000D01*
X-11892812Y+10446000D01*
X-11894000Y+10446000D01*
X-11894000Y+10446000D01*
X-11895000Y+10446000D01*
X-11895000Y+10447000D01*
X-11895000Y+10447000D01*
X-11896000Y+10447000D01*
X-11896000Y+10448000D01*
X-11897000Y+10448000D01*
X-11897000Y+10487000D01*
X-11896000Y+10486792D01*
X-11896000Y+10488000D01*
X-11895000Y+10488000D01*
X-11895000Y+10489000D01*
X-11892812Y+10489000D01*
X-11893000Y+10490000D01*
X-11828000Y+10490000D01*
G37*
%TD.AperFunction*%
%TA.AperFunction,Material*%
G36*
X-12172000Y+10555000D02*
X-12107000Y+10555000D01*
X-12107188Y+10554000D01*
X-12106000Y+10554000D01*
X-12106000Y+10554000D01*
X-12105000Y+10554000D01*
X-12105000Y+10553000D01*
X-12105000Y+10553000D01*
X-12104000Y+10553000D01*
X-12104000Y+10552000D01*
X-12103000Y+10552000D01*
X-12103000Y+10513000D01*
X-12104000Y+10513208D01*
X-12104000Y+10512000D01*
X-12105000Y+10512000D01*
X-12105000Y+10511000D01*
X-12107188Y+10511000D01*
X-12107000Y+10510000D01*
X-12172000Y+10510000D01*
X-12173000Y+10511000D01*
X-12175000Y+10511000D01*
X-12175000Y+10512000D01*
X-12176000Y+10512192D01*
X-12176000Y+10513000D01*
X-12177000Y+10513208D01*
X-12177000Y+10552000D01*
X-12176000Y+10552000D01*
X-12176000Y+10553000D01*
X-12175000Y+10553000D01*
X-12175000Y+10554000D01*
X-12174000Y+10554000D01*
X-12174000Y+10554000D01*
X-12173000Y+10554000D01*
X-12172000Y+10555000D01*
G37*
%TD.AperFunction*%
%TA.AperFunction,Material*%
G36*
X-12172000Y+10490000D02*
X-12107000Y+10490000D01*
X-12107188Y+10489000D01*
X-12105000Y+10489000D01*
X-12105000Y+10488000D01*
X-12105000Y+10488000D01*
X-12104000Y+10488000D01*
X-12104000Y+10488000D01*
X-12104000Y+10486792D01*
X-12103000Y+10487000D01*
X-12103000Y+10448000D01*
X-12104000Y+10448000D01*
X-12104000Y+10447000D01*
X-12105000Y+10447000D01*
X-12105000Y+10446000D01*
X-12106000Y+10446000D01*
X-12106000Y+10446000D01*
X-12107188Y+10446000D01*
X-12107000Y+10445000D01*
X-12172000Y+10445000D01*
X-12173000Y+10446000D01*
X-12174000Y+10446000D01*
X-12174000Y+10446000D01*
X-12175000Y+10446000D01*
X-12175000Y+10447000D01*
X-12176000Y+10447000D01*
X-12176000Y+10448000D01*
X-12177000Y+10448000D01*
X-12177000Y+10486792D01*
X-12176000Y+10487000D01*
X-12176000Y+10487808D01*
X-12175000Y+10488000D01*
X-12175000Y+10489000D01*
X-12173000Y+10489000D01*
X-12172000Y+10490000D01*
G37*
%TD.AperFunction*%
%TA.AperFunction,Material*%
G36*
X-11910000Y+10384000D02*
X-11910592Y+10384000D01*
X-11910592Y+10383000D01*
X-11911000Y+10382000D01*
X-11911000Y+10381890D01*
X-11911100Y+10381000D01*
X-11911000Y+10381000D01*
X-11912000Y+10380112D01*
X-11912000Y+10379000D01*
X-11913000Y+10378000D01*
X-11913000Y+10377000D01*
X-11914000Y+10377000D01*
X-11915000Y+10376000D01*
X-11914910Y+10376000D01*
X-11915000Y+10375000D01*
X-11917000Y+10375000D01*
X-11917000Y+10374000D01*
X-11919000Y+10374000D01*
X-11919000Y+10373000D01*
X-12081000Y+10373000D01*
X-12081000Y+10374000D01*
X-12083000Y+10374000D01*
X-12083000Y+10375000D01*
X-12085000Y+10375000D01*
X-12085090Y+10376000D01*
X-12085000Y+10376000D01*
X-12086000Y+10377000D01*
X-12087000Y+10377000D01*
X-12087000Y+10378000D01*
X-12088000Y+10379000D01*
X-12088000Y+10380112D01*
X-12089000Y+10381000D01*
X-12088900Y+10381000D01*
X-12089000Y+10381890D01*
X-12089000Y+10382000D01*
X-12089408Y+10383000D01*
X-12089408Y+10384000D01*
X-12090000Y+10384000D01*
X-12090000Y+10616000D01*
X-12089408Y+10616000D01*
X-12089408Y+10617000D01*
X-12089000Y+10618000D01*
X-12089000Y+10618110D01*
X-12088900Y+10619000D01*
X-12089000Y+10619000D01*
X-12088000Y+10619888D01*
X-12088000Y+10621000D01*
X-12087000Y+10622000D01*
X-12087000Y+10623000D01*
X-12086000Y+10623000D01*
X-12085000Y+10624000D01*
X-12085090Y+10624000D01*
X-12085000Y+10625000D01*
X-12083000Y+10625000D01*
X-12083000Y+10626000D01*
X-12081000Y+10626000D01*
X-12081000Y+10627000D01*
X-11919000Y+10627000D01*
X-11919000Y+10626000D01*
X-11917000Y+10626000D01*
X-11917000Y+10625000D01*
X-11915000Y+10625000D01*
X-11914910Y+10624000D01*
X-11915000Y+10624000D01*
X-11914000Y+10623000D01*
X-11913000Y+10623000D01*
X-11913000Y+10622000D01*
X-11912000Y+10621000D01*
X-11912000Y+10619888D01*
X-11911000Y+10619000D01*
X-11911100Y+10619000D01*
X-11911000Y+10618110D01*
X-11911000Y+10618000D01*
X-11910592Y+10617000D01*
X-11910592Y+10616000D01*
X-11910000Y+10616000D01*
X-11910000Y+10384000D01*
G37*
%TD.AperFunction*%
%TA.AperFunction,Material*%
G36*
X-11356000Y+10594000D02*
X-11356000Y+10593000D01*
X-11354902Y+10593000D01*
X-11355000Y+10592710D01*
X-11354000Y+10593000D01*
X-11354000Y+10591000D01*
X-11353000Y+10591000D01*
X-11353000Y+10559000D01*
X-11354000Y+10559000D01*
X-11354000Y+10558000D01*
X-11355000Y+10557000D01*
X-11355000Y+10557000D01*
X-11356000Y+10557000D01*
X-11356000Y+10556000D01*
X-11424000Y+10556000D01*
X-11424000Y+10556000D01*
X-11424498Y+10557000D01*
X-11425000Y+10557000D01*
X-11425000Y+10558000D01*
X-11426000Y+10558000D01*
X-11426000Y+10558000D01*
X-11427000Y+10559000D01*
X-11427000Y+10591000D01*
X-11426000Y+10591000D01*
X-11426000Y+10592000D01*
X-11425000Y+10593000D01*
X-11425000Y+10593000D01*
X-11424000Y+10593000D01*
X-11423990Y+10594000D01*
X-11356000Y+10594000D01*
G37*
%TD.AperFunction*%
%TA.AperFunction,Material*%
G36*
X-11356000Y+10444000D02*
X-11356000Y+10444000D01*
X-11356000Y+10443000D01*
X-11355000Y+10443000D01*
X-11354000Y+10442000D01*
X-11354000Y+10442000D01*
X-11354000Y+10441000D01*
X-11353000Y+10441000D01*
X-11353000Y+10409000D01*
X-11354000Y+10409000D01*
X-11354000Y+10407000D01*
X-11355000Y+10407290D01*
X-11354902Y+10407000D01*
X-11356000Y+10407000D01*
X-11356000Y+10406000D01*
X-11423990Y+10406000D01*
X-11424000Y+10407000D01*
X-11425000Y+10407000D01*
X-11425000Y+10407000D01*
X-11426000Y+10408000D01*
X-11426000Y+10409000D01*
X-11427000Y+10409000D01*
X-11427000Y+10441000D01*
X-11426000Y+10442000D01*
X-11426000Y+10442000D01*
X-11425000Y+10442000D01*
X-11425000Y+10443000D01*
X-11424498Y+10443000D01*
X-11424000Y+10444000D01*
X-11424000Y+10444000D01*
X-11356000Y+10444000D01*
G37*
%TD.AperFunction*%
%TA.AperFunction,Material*%
G36*
X-11422000Y+10494000D02*
X-11357000Y+10494000D01*
X-11357188Y+10493904D01*
X-11357000Y+10493904D01*
X-11357000Y+10494000D01*
X-11356000Y+10494000D01*
X-11356000Y+10493000D01*
X-11355000Y+10493000D01*
X-11355000Y+10493000D01*
X-11354000Y+10493000D01*
X-11354000Y+10491000D01*
X-11353000Y+10491000D01*
X-11353000Y+10459000D01*
X-11354000Y+10459000D01*
X-11354000Y+10458000D01*
X-11355000Y+10457000D01*
X-11355000Y+10457000D01*
X-11356000Y+10457000D01*
X-11356000Y+10456312D01*
X-11357000Y+10456000D01*
X-11357000Y+10456000D01*
X-11424000Y+10456000D01*
X-11424000Y+10456312D01*
X-11423990Y+10456000D01*
X-11424000Y+10456000D01*
X-11424498Y+10457000D01*
X-11425000Y+10457000D01*
X-11425000Y+10458000D01*
X-11426000Y+10458000D01*
X-11426000Y+10458000D01*
X-11427000Y+10459000D01*
X-11427000Y+10491000D01*
X-11426000Y+10491000D01*
X-11426000Y+10492000D01*
X-11425000Y+10493000D01*
X-11425000Y+10493000D01*
X-11424000Y+10493000D01*
X-11423990Y+10494000D01*
X-11423000Y+10494000D01*
X-11423000Y+10493904D01*
X-11422000Y+10494000D01*
G37*
%TD.AperFunction*%
%TA.AperFunction,Material*%
G36*
X-11357000Y+10544000D02*
X-11356000Y+10543688D01*
X-11356000Y+10543000D01*
X-11355000Y+10543000D01*
X-11354000Y+10542000D01*
X-11354000Y+10542000D01*
X-11354000Y+10541000D01*
X-11353000Y+10541000D01*
X-11353000Y+10509000D01*
X-11354000Y+10509000D01*
X-11354000Y+10507000D01*
X-11355000Y+10507000D01*
X-11355000Y+10507000D01*
X-11356000Y+10507000D01*
X-11356000Y+10506000D01*
X-11357000Y+10506000D01*
X-11357000Y+10506096D01*
X-11357188Y+10506096D01*
X-11357000Y+10506000D01*
X-11422000Y+10506000D01*
X-11423000Y+10506096D01*
X-11423000Y+10506000D01*
X-11423990Y+10506000D01*
X-11424000Y+10507000D01*
X-11425000Y+10507000D01*
X-11425000Y+10507000D01*
X-11426000Y+10508000D01*
X-11426000Y+10509000D01*
X-11427000Y+10509000D01*
X-11427000Y+10541000D01*
X-11426000Y+10542000D01*
X-11426000Y+10542000D01*
X-11425000Y+10542000D01*
X-11425000Y+10543000D01*
X-11424498Y+10543000D01*
X-11424000Y+10544000D01*
X-11423990Y+10544000D01*
X-11424000Y+10543688D01*
X-11424000Y+10544000D01*
X-11357000Y+10544000D01*
G37*
%TD.AperFunction*%
%TA.AperFunction,Material*%
G36*
X-11076010Y+10594000D02*
X-11076000Y+10593000D01*
X-11075000Y+10593000D01*
X-11075000Y+10593000D01*
X-11074000Y+10592000D01*
X-11074000Y+10591000D01*
X-11073000Y+10591000D01*
X-11073000Y+10559000D01*
X-11074000Y+10558000D01*
X-11074000Y+10558000D01*
X-11075000Y+10558000D01*
X-11075000Y+10557000D01*
X-11075502Y+10557000D01*
X-11076000Y+10556000D01*
X-11076000Y+10556000D01*
X-11144000Y+10556000D01*
X-11144000Y+10556000D01*
X-11144000Y+10557000D01*
X-11145000Y+10557000D01*
X-11146000Y+10558000D01*
X-11146000Y+10558000D01*
X-11146000Y+10559000D01*
X-11147000Y+10559000D01*
X-11147000Y+10591000D01*
X-11146000Y+10591000D01*
X-11146000Y+10593000D01*
X-11145000Y+10592710D01*
X-11145098Y+10593000D01*
X-11144000Y+10593000D01*
X-11144000Y+10594000D01*
X-11076010Y+10594000D01*
G37*
%TD.AperFunction*%
%TA.AperFunction,Material*%
G36*
X-11076000Y+10544000D02*
X-11076000Y+10543688D01*
X-11076010Y+10544000D01*
X-11076000Y+10544000D01*
X-11075502Y+10543000D01*
X-11075000Y+10543000D01*
X-11075000Y+10542000D01*
X-11074000Y+10542000D01*
X-11074000Y+10542000D01*
X-11073000Y+10541000D01*
X-11073000Y+10509000D01*
X-11074000Y+10509000D01*
X-11074000Y+10508000D01*
X-11075000Y+10507000D01*
X-11075000Y+10507000D01*
X-11076000Y+10507000D01*
X-11076010Y+10506000D01*
X-11077000Y+10506000D01*
X-11077000Y+10506096D01*
X-11078000Y+10506000D01*
X-11143000Y+10506000D01*
X-11142812Y+10506096D01*
X-11143000Y+10506096D01*
X-11143000Y+10506000D01*
X-11144000Y+10506000D01*
X-11144000Y+10507000D01*
X-11145000Y+10507000D01*
X-11145000Y+10507000D01*
X-11146000Y+10507000D01*
X-11146000Y+10509000D01*
X-11147000Y+10509000D01*
X-11147000Y+10541000D01*
X-11146000Y+10541000D01*
X-11146000Y+10542000D01*
X-11145000Y+10543000D01*
X-11145000Y+10543000D01*
X-11144000Y+10543000D01*
X-11144000Y+10543688D01*
X-11143000Y+10544000D01*
X-11143000Y+10544000D01*
X-11076000Y+10544000D01*
G37*
%TD.AperFunction*%
%TA.AperFunction,Material*%
G36*
X-11078000Y+10494000D02*
X-11077000Y+10493904D01*
X-11077000Y+10494000D01*
X-11076010Y+10494000D01*
X-11076000Y+10493000D01*
X-11075000Y+10493000D01*
X-11075000Y+10493000D01*
X-11074000Y+10492000D01*
X-11074000Y+10491000D01*
X-11073000Y+10491000D01*
X-11073000Y+10459000D01*
X-11074000Y+10458000D01*
X-11074000Y+10458000D01*
X-11075000Y+10458000D01*
X-11075000Y+10457000D01*
X-11075502Y+10457000D01*
X-11076000Y+10456000D01*
X-11076010Y+10456000D01*
X-11076000Y+10456312D01*
X-11076000Y+10456000D01*
X-11143000Y+10456000D01*
X-11144000Y+10456312D01*
X-11144000Y+10457000D01*
X-11145000Y+10457000D01*
X-11146000Y+10458000D01*
X-11146000Y+10458000D01*
X-11146000Y+10459000D01*
X-11147000Y+10459000D01*
X-11147000Y+10491000D01*
X-11146000Y+10491000D01*
X-11146000Y+10493000D01*
X-11145000Y+10493000D01*
X-11145000Y+10493000D01*
X-11144000Y+10493000D01*
X-11144000Y+10494000D01*
X-11143000Y+10494000D01*
X-11143000Y+10493904D01*
X-11142812Y+10493904D01*
X-11143000Y+10494000D01*
X-11078000Y+10494000D01*
G37*
%TD.AperFunction*%
%TA.AperFunction,Material*%
G36*
X-11076000Y+10444000D02*
X-11076000Y+10444000D01*
X-11075502Y+10443000D01*
X-11075000Y+10443000D01*
X-11075000Y+10442000D01*
X-11074000Y+10442000D01*
X-11074000Y+10442000D01*
X-11073000Y+10441000D01*
X-11073000Y+10409000D01*
X-11074000Y+10409000D01*
X-11074000Y+10408000D01*
X-11075000Y+10407000D01*
X-11075000Y+10407000D01*
X-11076000Y+10407000D01*
X-11076010Y+10406000D01*
X-11144000Y+10406000D01*
X-11144000Y+10407000D01*
X-11145098Y+10407000D01*
X-11145000Y+10407290D01*
X-11146000Y+10407000D01*
X-11146000Y+10409000D01*
X-11147000Y+10409000D01*
X-11147000Y+10441000D01*
X-11146000Y+10441000D01*
X-11146000Y+10442000D01*
X-11145000Y+10443000D01*
X-11145000Y+10443000D01*
X-11144000Y+10443000D01*
X-11144000Y+10444000D01*
X-11076000Y+10444000D01*
G37*
%TD.AperFunction*%
%TA.AperFunction,Material*%
G36*
X-11344000Y+10394000D02*
X-11343000Y+10394000D01*
X-11343000Y+10395098D01*
X-11342710Y+10395000D01*
X-11343000Y+10396000D01*
X-11341000Y+10396000D01*
X-11341000Y+10397000D01*
X-11309000Y+10397000D01*
X-11309000Y+10396000D01*
X-11308000Y+10396000D01*
X-11307000Y+10395000D01*
X-11307000Y+10395000D01*
X-11307000Y+10394000D01*
X-11306000Y+10394000D01*
X-11306000Y+10326000D01*
X-11306000Y+10326000D01*
X-11307000Y+10325502D01*
X-11307000Y+10325000D01*
X-11308000Y+10325000D01*
X-11308000Y+10324000D01*
X-11308000Y+10324000D01*
X-11309000Y+10323000D01*
X-11341000Y+10323000D01*
X-11341000Y+10324000D01*
X-11342000Y+10324000D01*
X-11343000Y+10325000D01*
X-11343000Y+10325000D01*
X-11343000Y+10326000D01*
X-11344000Y+10326010D01*
X-11344000Y+10394000D01*
G37*
%TD.AperFunction*%
%TA.AperFunction,Material*%
G36*
X-11294000Y+10393000D02*
X-11293688Y+10394000D01*
X-11293000Y+10394000D01*
X-11293000Y+10395000D01*
X-11292000Y+10396000D01*
X-11292000Y+10396000D01*
X-11291000Y+10396000D01*
X-11291000Y+10397000D01*
X-11259000Y+10397000D01*
X-11259000Y+10396000D01*
X-11257000Y+10396000D01*
X-11257000Y+10395000D01*
X-11257000Y+10395000D01*
X-11257000Y+10394000D01*
X-11256000Y+10394000D01*
X-11256000Y+10393000D01*
X-11256096Y+10393000D01*
X-11256096Y+10392812D01*
X-11256000Y+10393000D01*
X-11256000Y+10328000D01*
X-11256096Y+10327000D01*
X-11256000Y+10327000D01*
X-11256000Y+10326010D01*
X-11257000Y+10326000D01*
X-11257000Y+10325000D01*
X-11257000Y+10325000D01*
X-11258000Y+10324000D01*
X-11259000Y+10324000D01*
X-11259000Y+10323000D01*
X-11291000Y+10323000D01*
X-11292000Y+10324000D01*
X-11292000Y+10324000D01*
X-11292000Y+10325000D01*
X-11293000Y+10325000D01*
X-11293000Y+10325502D01*
X-11294000Y+10326000D01*
X-11294000Y+10326010D01*
X-11293688Y+10326000D01*
X-11294000Y+10326000D01*
X-11294000Y+10393000D01*
G37*
%TD.AperFunction*%
%TA.AperFunction,Material*%
G36*
X-11244000Y+10328000D02*
X-11244000Y+10393000D01*
X-11243904Y+10392812D01*
X-11243904Y+10393000D01*
X-11244000Y+10393000D01*
X-11244000Y+10394000D01*
X-11243000Y+10394000D01*
X-11243000Y+10395000D01*
X-11243000Y+10395000D01*
X-11243000Y+10396000D01*
X-11241000Y+10396000D01*
X-11241000Y+10397000D01*
X-11209000Y+10397000D01*
X-11209000Y+10396000D01*
X-11208000Y+10396000D01*
X-11207000Y+10395000D01*
X-11207000Y+10395000D01*
X-11207000Y+10394000D01*
X-11206312Y+10394000D01*
X-11206000Y+10393000D01*
X-11206000Y+10393000D01*
X-11206000Y+10326000D01*
X-11206312Y+10326000D01*
X-11206000Y+10326010D01*
X-11206000Y+10326000D01*
X-11207000Y+10325502D01*
X-11207000Y+10325000D01*
X-11208000Y+10325000D01*
X-11208000Y+10324000D01*
X-11208000Y+10324000D01*
X-11209000Y+10323000D01*
X-11241000Y+10323000D01*
X-11241000Y+10324000D01*
X-11242000Y+10324000D01*
X-11243000Y+10325000D01*
X-11243000Y+10325000D01*
X-11243000Y+10326000D01*
X-11244000Y+10326010D01*
X-11244000Y+10327000D01*
X-11243904Y+10327000D01*
X-11244000Y+10328000D01*
G37*
%TD.AperFunction*%
%TA.AperFunction,Material*%
G36*
X-11194000Y+10394000D02*
X-11194000Y+10394000D01*
X-11193000Y+10394000D01*
X-11193000Y+10395000D01*
X-11192000Y+10396000D01*
X-11192000Y+10396000D01*
X-11191000Y+10396000D01*
X-11191000Y+10397000D01*
X-11159000Y+10397000D01*
X-11159000Y+10396000D01*
X-11157000Y+10396000D01*
X-11157290Y+10395000D01*
X-11157000Y+10395098D01*
X-11157000Y+10394000D01*
X-11156000Y+10394000D01*
X-11156000Y+10326010D01*
X-11157000Y+10326000D01*
X-11157000Y+10325000D01*
X-11157000Y+10325000D01*
X-11158000Y+10324000D01*
X-11159000Y+10324000D01*
X-11159000Y+10323000D01*
X-11191000Y+10323000D01*
X-11192000Y+10324000D01*
X-11192000Y+10324000D01*
X-11192000Y+10325000D01*
X-11193000Y+10325000D01*
X-11193000Y+10325502D01*
X-11194000Y+10326000D01*
X-11194000Y+10326000D01*
X-11194000Y+10394000D01*
G37*
%TD.AperFunction*%
%TA.AperFunction,Material*%
G36*
X-11344000Y+10673990D02*
X-11343000Y+10674000D01*
X-11343000Y+10675000D01*
X-11343000Y+10675000D01*
X-11342000Y+10676000D01*
X-11341000Y+10676000D01*
X-11341000Y+10677000D01*
X-11309000Y+10677000D01*
X-11308000Y+10676000D01*
X-11308000Y+10676000D01*
X-11308000Y+10675000D01*
X-11307000Y+10675000D01*
X-11307000Y+10674498D01*
X-11306000Y+10674000D01*
X-11306000Y+10674000D01*
X-11306000Y+10606000D01*
X-11306000Y+10606000D01*
X-11307000Y+10606000D01*
X-11307000Y+10605000D01*
X-11308000Y+10604000D01*
X-11308000Y+10604000D01*
X-11309000Y+10604000D01*
X-11309000Y+10603000D01*
X-11341000Y+10603000D01*
X-11341000Y+10604000D01*
X-11343000Y+10604000D01*
X-11342710Y+10605000D01*
X-11343000Y+10604902D01*
X-11343000Y+10606000D01*
X-11344000Y+10606000D01*
X-11344000Y+10673990D01*
G37*
%TD.AperFunction*%
%TA.AperFunction,Material*%
G36*
X-11194000Y+10674000D02*
X-11194000Y+10674000D01*
X-11193000Y+10674498D01*
X-11193000Y+10675000D01*
X-11192000Y+10675000D01*
X-11192000Y+10676000D01*
X-11192000Y+10676000D01*
X-11191000Y+10677000D01*
X-11159000Y+10677000D01*
X-11159000Y+10676000D01*
X-11158000Y+10676000D01*
X-11157000Y+10675000D01*
X-11157000Y+10675000D01*
X-11157000Y+10674000D01*
X-11156000Y+10673990D01*
X-11156000Y+10606000D01*
X-11157000Y+10606000D01*
X-11157000Y+10604902D01*
X-11157290Y+10605000D01*
X-11157000Y+10604000D01*
X-11159000Y+10604000D01*
X-11159000Y+10603000D01*
X-11191000Y+10603000D01*
X-11191000Y+10604000D01*
X-11192000Y+10604000D01*
X-11193000Y+10605000D01*
X-11193000Y+10605000D01*
X-11193000Y+10606000D01*
X-11194000Y+10606000D01*
X-11194000Y+10674000D01*
G37*
%TD.AperFunction*%
%TA.AperFunction,Material*%
G36*
X-11244000Y+10672000D02*
X-11243904Y+10673000D01*
X-11244000Y+10673000D01*
X-11244000Y+10673990D01*
X-11243000Y+10674000D01*
X-11243000Y+10675000D01*
X-11243000Y+10675000D01*
X-11242000Y+10676000D01*
X-11241000Y+10676000D01*
X-11241000Y+10677000D01*
X-11209000Y+10677000D01*
X-11208000Y+10676000D01*
X-11208000Y+10676000D01*
X-11208000Y+10675000D01*
X-11207000Y+10675000D01*
X-11207000Y+10674498D01*
X-11206000Y+10674000D01*
X-11206000Y+10673990D01*
X-11206312Y+10674000D01*
X-11206000Y+10674000D01*
X-11206000Y+10607000D01*
X-11206312Y+10606000D01*
X-11207000Y+10606000D01*
X-11207000Y+10605000D01*
X-11208000Y+10604000D01*
X-11208000Y+10604000D01*
X-11209000Y+10604000D01*
X-11209000Y+10603000D01*
X-11241000Y+10603000D01*
X-11241000Y+10604000D01*
X-11243000Y+10604000D01*
X-11243000Y+10605000D01*
X-11243000Y+10605000D01*
X-11243000Y+10606000D01*
X-11244000Y+10606000D01*
X-11244000Y+10607000D01*
X-11243904Y+10607000D01*
X-11243904Y+10607188D01*
X-11244000Y+10607000D01*
X-11244000Y+10672000D01*
G37*
%TD.AperFunction*%
%TA.AperFunction,Material*%
G36*
X-11294000Y+10674000D02*
X-11293688Y+10674000D01*
X-11294000Y+10673990D01*
X-11294000Y+10674000D01*
X-11293000Y+10674498D01*
X-11293000Y+10675000D01*
X-11292000Y+10675000D01*
X-11292000Y+10676000D01*
X-11292000Y+10676000D01*
X-11291000Y+10677000D01*
X-11259000Y+10677000D01*
X-11259000Y+10676000D01*
X-11258000Y+10676000D01*
X-11257000Y+10675000D01*
X-11257000Y+10675000D01*
X-11257000Y+10674000D01*
X-11256000Y+10673990D01*
X-11256000Y+10673000D01*
X-11256096Y+10673000D01*
X-11256000Y+10672000D01*
X-11256000Y+10607000D01*
X-11256096Y+10607188D01*
X-11256096Y+10607000D01*
X-11256000Y+10607000D01*
X-11256000Y+10606000D01*
X-11257000Y+10606000D01*
X-11257000Y+10605000D01*
X-11257000Y+10605000D01*
X-11257000Y+10604000D01*
X-11259000Y+10604000D01*
X-11259000Y+10603000D01*
X-11291000Y+10603000D01*
X-11291000Y+10604000D01*
X-11292000Y+10604000D01*
X-11293000Y+10605000D01*
X-11293000Y+10605000D01*
X-11293000Y+10606000D01*
X-11293688Y+10606000D01*
X-11294000Y+10607000D01*
X-11294000Y+10607000D01*
X-11294000Y+10674000D01*
G37*
%TD.AperFunction*%
%TA.AperFunction,Material*%
G36*
X-11341000Y+10582000D02*
X-11340000Y+10583000D01*
X-11340000Y+10584000D01*
X-11339408Y+10585000D01*
X-11339000Y+10585000D01*
X-11339000Y+10586106D01*
X-11338000Y+10587000D01*
X-11338000Y+10588000D01*
X-11337000Y+10588000D01*
X-11336106Y+10589000D01*
X-11335000Y+10589000D01*
X-11335000Y+10589408D01*
X-11334000Y+10590000D01*
X-11333000Y+10590000D01*
X-11332000Y+10591000D01*
X-11168000Y+10591000D01*
X-11167000Y+10590000D01*
X-11166000Y+10590000D01*
X-11165000Y+10589408D01*
X-11165000Y+10589000D01*
X-11163894Y+10589000D01*
X-11163000Y+10588000D01*
X-11162000Y+10588000D01*
X-11162000Y+10587000D01*
X-11161000Y+10586106D01*
X-11161000Y+10585000D01*
X-11160592Y+10585000D01*
X-11160000Y+10584000D01*
X-11160000Y+10583000D01*
X-11159000Y+10582000D01*
X-11159000Y+10418000D01*
X-11160000Y+10417000D01*
X-11160000Y+10416000D01*
X-11160592Y+10415000D01*
X-11161000Y+10415000D01*
X-11161000Y+10413894D01*
X-11162000Y+10413000D01*
X-11162000Y+10412000D01*
X-11163000Y+10412000D01*
X-11163894Y+10411000D01*
X-11165000Y+10411000D01*
X-11165000Y+10410592D01*
X-11166000Y+10410000D01*
X-11167000Y+10410000D01*
X-11168000Y+10409000D01*
X-11332000Y+10409000D01*
X-11333000Y+10410000D01*
X-11334000Y+10410000D01*
X-11335000Y+10410592D01*
X-11335000Y+10411000D01*
X-11336106Y+10411000D01*
X-11337000Y+10412000D01*
X-11338000Y+10412000D01*
X-11338000Y+10413000D01*
X-11339000Y+10413894D01*
X-11339000Y+10415000D01*
X-11339408Y+10415000D01*
X-11340000Y+10416000D01*
X-11340000Y+10417000D01*
X-11341000Y+10418000D01*
X-11341000Y+10582000D01*
G37*
%TD.AperFunction*%
%TA.AperFunction,Material*%
G36*
X-10612000Y+10490000D02*
X-10611000Y+10489000D01*
X-10610000Y+10489000D01*
X-10609000Y+10488000D01*
X-10608000Y+10488000D01*
X-10607000Y+10487300D01*
X-10607000Y+10487000D01*
X-10605000Y+10485000D01*
X-10604902Y+10484506D01*
X-10605000Y+10483998D01*
X-10604000Y+10483000D01*
X-10604000Y+10481712D01*
X-10603000Y+10481000D01*
X-10603000Y+10454000D01*
X-10604000Y+10453000D01*
X-10604000Y+10452000D01*
X-10605000Y+10451000D01*
X-10604902Y+10450000D01*
X-10605000Y+10450000D01*
X-10608000Y+10447000D01*
X-10609000Y+10447000D01*
X-10610000Y+10446000D01*
X-10611000Y+10446000D01*
X-10612000Y+10445390D01*
X-10612000Y+10445000D01*
X-10667000Y+10445000D01*
X-10668000Y+10445390D01*
X-10669000Y+10446000D01*
X-10670000Y+10446000D01*
X-10671000Y+10447000D01*
X-10672000Y+10447000D01*
X-10673000Y+10448000D01*
X-10674000Y+10448000D01*
X-10674000Y+10449000D01*
X-10675000Y+10450000D01*
X-10675000Y+10451000D01*
X-10676000Y+10452000D01*
X-10676000Y+10453000D01*
X-10677000Y+10454000D01*
X-10677000Y+10481000D01*
X-10676000Y+10481712D01*
X-10676000Y+10483000D01*
X-10675000Y+10483998D01*
X-10675000Y+10485000D01*
X-10674000Y+10486000D01*
X-10674000Y+10487000D01*
X-10673000Y+10487000D01*
X-10673000Y+10487300D01*
X-10672000Y+10488000D01*
X-10671000Y+10488000D01*
X-10670000Y+10489000D01*
X-10669000Y+10489000D01*
X-10668000Y+10490000D01*
X-10612000Y+10490000D01*
G37*
%TD.AperFunction*%
%TA.AperFunction,Material*%
G36*
X-10333000Y+10555000D02*
X-10332000Y+10554610D01*
X-10331000Y+10554000D01*
X-10330000Y+10554000D01*
X-10329000Y+10553000D01*
X-10328000Y+10553000D01*
X-10327000Y+10552000D01*
X-10326000Y+10552000D01*
X-10326000Y+10551000D01*
X-10325000Y+10550000D01*
X-10325000Y+10549000D01*
X-10324000Y+10548000D01*
X-10324000Y+10547000D01*
X-10323000Y+10546000D01*
X-10323000Y+10519000D01*
X-10324000Y+10518288D01*
X-10324000Y+10517000D01*
X-10325000Y+10516002D01*
X-10325000Y+10515000D01*
X-10326000Y+10514000D01*
X-10326000Y+10513000D01*
X-10327000Y+10513000D01*
X-10327000Y+10512700D01*
X-10328000Y+10512000D01*
X-10329000Y+10512000D01*
X-10330000Y+10511000D01*
X-10331000Y+10511000D01*
X-10332000Y+10510000D01*
X-10388000Y+10510000D01*
X-10389000Y+10511000D01*
X-10390000Y+10511000D01*
X-10391000Y+10512000D01*
X-10392000Y+10512000D01*
X-10393000Y+10512700D01*
X-10393000Y+10513000D01*
X-10395000Y+10515000D01*
X-10395098Y+10515494D01*
X-10395000Y+10516002D01*
X-10396000Y+10517000D01*
X-10396000Y+10518288D01*
X-10397000Y+10519000D01*
X-10397000Y+10546000D01*
X-10396000Y+10547000D01*
X-10396000Y+10548000D01*
X-10395000Y+10549000D01*
X-10395098Y+10550000D01*
X-10395000Y+10550000D01*
X-10392000Y+10553000D01*
X-10391000Y+10553000D01*
X-10390000Y+10554000D01*
X-10389000Y+10554000D01*
X-10388000Y+10554610D01*
X-10388000Y+10555000D01*
X-10333000Y+10555000D01*
G37*
%TD.AperFunction*%
%TA.AperFunction,Material*%
G36*
X-10612000Y+10555000D02*
X-10612000Y+10554610D01*
X-10611000Y+10554000D01*
X-10610000Y+10554000D01*
X-10609000Y+10553000D01*
X-10608000Y+10553000D01*
X-10605000Y+10550000D01*
X-10604902Y+10550000D01*
X-10605000Y+10549000D01*
X-10604000Y+10548000D01*
X-10604000Y+10547000D01*
X-10603000Y+10546000D01*
X-10603000Y+10519000D01*
X-10604000Y+10518288D01*
X-10604000Y+10517000D01*
X-10605000Y+10516002D01*
X-10604902Y+10515494D01*
X-10605000Y+10515000D01*
X-10607000Y+10513000D01*
X-10607000Y+10512700D01*
X-10608000Y+10512000D01*
X-10609000Y+10512000D01*
X-10610000Y+10511000D01*
X-10611000Y+10511000D01*
X-10612000Y+10510000D01*
X-10668000Y+10510000D01*
X-10669000Y+10511000D01*
X-10670000Y+10511000D01*
X-10671000Y+10512000D01*
X-10672000Y+10512000D01*
X-10673000Y+10512700D01*
X-10673000Y+10513000D01*
X-10674000Y+10513000D01*
X-10674000Y+10514000D01*
X-10675000Y+10515000D01*
X-10675000Y+10516002D01*
X-10676000Y+10517000D01*
X-10676000Y+10518288D01*
X-10677000Y+10519000D01*
X-10677000Y+10546000D01*
X-10676000Y+10547000D01*
X-10676000Y+10548000D01*
X-10675000Y+10549000D01*
X-10675000Y+10550000D01*
X-10674000Y+10551000D01*
X-10674000Y+10552000D01*
X-10673000Y+10552000D01*
X-10672000Y+10553000D01*
X-10671000Y+10553000D01*
X-10670000Y+10554000D01*
X-10669000Y+10554000D01*
X-10668000Y+10554610D01*
X-10667000Y+10555000D01*
X-10612000Y+10555000D01*
G37*
%TD.AperFunction*%
%TA.AperFunction,Material*%
G36*
X-10614000Y+10620000D02*
X-10614000Y+10619888D01*
X-10613000Y+10619888D01*
X-10612000Y+10620000D01*
X-10611000Y+10619000D01*
X-10610000Y+10619000D01*
X-10609000Y+10618000D01*
X-10609000Y+10618110D01*
X-10608000Y+10618000D01*
X-10605000Y+10615000D01*
X-10604902Y+10615000D01*
X-10605000Y+10614000D01*
X-10604000Y+10613000D01*
X-10604000Y+10612000D01*
X-10603000Y+10611000D01*
X-10603000Y+10584000D01*
X-10604000Y+10583312D01*
X-10604000Y+10582000D01*
X-10605000Y+10581000D01*
X-10604902Y+10580000D01*
X-10605000Y+10580000D01*
X-10606000Y+10579000D01*
X-10606000Y+10578994D01*
X-10607000Y+10579000D01*
X-10607000Y+10578000D01*
X-10608000Y+10577000D01*
X-10609000Y+10577000D01*
X-10610000Y+10576000D01*
X-10611000Y+10576000D01*
X-10612000Y+10575000D01*
X-10668000Y+10575000D01*
X-10669000Y+10576000D01*
X-10670000Y+10576000D01*
X-10671000Y+10577000D01*
X-10672000Y+10577000D01*
X-10674000Y+10579000D01*
X-10674000Y+10579000D01*
X-10675000Y+10580000D01*
X-10675000Y+10581000D01*
X-10676000Y+10582000D01*
X-10676000Y+10583312D01*
X-10677000Y+10584000D01*
X-10677000Y+10611000D01*
X-10676000Y+10612000D01*
X-10676000Y+10613000D01*
X-10675000Y+10614000D01*
X-10675000Y+10615000D01*
X-10674000Y+10616000D01*
X-10674000Y+10617000D01*
X-10673000Y+10617000D01*
X-10672000Y+10618000D01*
X-10672000Y+10618110D01*
X-10671000Y+10618000D01*
X-10670000Y+10619000D01*
X-10669000Y+10619000D01*
X-10668000Y+10620000D01*
X-10667000Y+10620000D01*
X-10667000Y+10619888D01*
X-10666000Y+10619888D01*
X-10665608Y+10620000D01*
X-10614000Y+10620000D01*
G37*
%TD.AperFunction*%
%TA.AperFunction,Material*%
G36*
X-10612000Y+10425000D02*
X-10611000Y+10424000D01*
X-10610000Y+10424000D01*
X-10609000Y+10423000D01*
X-10608000Y+10423000D01*
X-10607000Y+10422000D01*
X-10607000Y+10421000D01*
X-10606000Y+10421006D01*
X-10606000Y+10421000D01*
X-10605000Y+10420000D01*
X-10604902Y+10420000D01*
X-10605000Y+10419000D01*
X-10604000Y+10418000D01*
X-10604000Y+10416688D01*
X-10603000Y+10416000D01*
X-10603000Y+10389000D01*
X-10604000Y+10388000D01*
X-10604000Y+10387000D01*
X-10605000Y+10386000D01*
X-10604902Y+10385000D01*
X-10605000Y+10385000D01*
X-10608000Y+10382000D01*
X-10609000Y+10381890D01*
X-10609000Y+10382000D01*
X-10610000Y+10381000D01*
X-10611000Y+10381000D01*
X-10612000Y+10380000D01*
X-10613000Y+10380112D01*
X-10614000Y+10380112D01*
X-10614000Y+10380000D01*
X-10665608Y+10380000D01*
X-10666000Y+10380112D01*
X-10667000Y+10380112D01*
X-10667000Y+10380000D01*
X-10668000Y+10380000D01*
X-10669000Y+10381000D01*
X-10670000Y+10381000D01*
X-10671000Y+10382000D01*
X-10672000Y+10381890D01*
X-10672000Y+10382000D01*
X-10673000Y+10383000D01*
X-10674000Y+10383000D01*
X-10674000Y+10384000D01*
X-10675000Y+10385000D01*
X-10675000Y+10386000D01*
X-10676000Y+10387000D01*
X-10676000Y+10388000D01*
X-10677000Y+10389000D01*
X-10677000Y+10416000D01*
X-10676000Y+10416688D01*
X-10676000Y+10418000D01*
X-10675000Y+10419000D01*
X-10675000Y+10420000D01*
X-10674000Y+10421000D01*
X-10674000Y+10421000D01*
X-10672000Y+10423000D01*
X-10671000Y+10423000D01*
X-10670000Y+10424000D01*
X-10669000Y+10424000D01*
X-10668000Y+10425000D01*
X-10612000Y+10425000D01*
G37*
%TD.AperFunction*%
%TA.AperFunction,Material*%
G36*
X-10332000Y+10490000D02*
X-10331000Y+10489000D01*
X-10330000Y+10489000D01*
X-10329000Y+10488000D01*
X-10328000Y+10488000D01*
X-10327000Y+10487300D01*
X-10327000Y+10487000D01*
X-10326000Y+10487000D01*
X-10326000Y+10486000D01*
X-10325000Y+10485000D01*
X-10325000Y+10483998D01*
X-10324000Y+10483000D01*
X-10324000Y+10481712D01*
X-10323000Y+10481000D01*
X-10323000Y+10454000D01*
X-10324000Y+10453000D01*
X-10324000Y+10452000D01*
X-10325000Y+10451000D01*
X-10325000Y+10450000D01*
X-10326000Y+10449000D01*
X-10326000Y+10448000D01*
X-10327000Y+10448000D01*
X-10328000Y+10447000D01*
X-10329000Y+10447000D01*
X-10330000Y+10446000D01*
X-10331000Y+10446000D01*
X-10332000Y+10445390D01*
X-10333000Y+10445000D01*
X-10388000Y+10445000D01*
X-10388000Y+10445390D01*
X-10389000Y+10446000D01*
X-10390000Y+10446000D01*
X-10391000Y+10447000D01*
X-10392000Y+10447000D01*
X-10395000Y+10450000D01*
X-10395098Y+10450000D01*
X-10395000Y+10451000D01*
X-10396000Y+10452000D01*
X-10396000Y+10453000D01*
X-10397000Y+10454000D01*
X-10397000Y+10481000D01*
X-10396000Y+10481712D01*
X-10396000Y+10483000D01*
X-10395000Y+10483998D01*
X-10395098Y+10484506D01*
X-10395000Y+10485000D01*
X-10393000Y+10487000D01*
X-10393000Y+10487300D01*
X-10392000Y+10488000D01*
X-10391000Y+10488000D01*
X-10390000Y+10489000D01*
X-10389000Y+10489000D01*
X-10388000Y+10490000D01*
X-10332000Y+10490000D01*
G37*
%TD.AperFunction*%
%TA.AperFunction,Material*%
G36*
X-10334392Y+10620000D02*
X-10334000Y+10619888D01*
X-10333000Y+10619888D01*
X-10333000Y+10620000D01*
X-10332000Y+10620000D01*
X-10331000Y+10619000D01*
X-10330000Y+10619000D01*
X-10329000Y+10618000D01*
X-10328000Y+10618110D01*
X-10328000Y+10618000D01*
X-10327000Y+10617000D01*
X-10326000Y+10617000D01*
X-10326000Y+10616000D01*
X-10325000Y+10615000D01*
X-10325000Y+10614000D01*
X-10324000Y+10613000D01*
X-10324000Y+10612000D01*
X-10323000Y+10611000D01*
X-10323000Y+10584000D01*
X-10324000Y+10583312D01*
X-10324000Y+10582000D01*
X-10325000Y+10581000D01*
X-10325000Y+10580000D01*
X-10326000Y+10579000D01*
X-10326000Y+10579000D01*
X-10328000Y+10577000D01*
X-10329000Y+10577000D01*
X-10330000Y+10576000D01*
X-10331000Y+10576000D01*
X-10332000Y+10575000D01*
X-10388000Y+10575000D01*
X-10389000Y+10576000D01*
X-10390000Y+10576000D01*
X-10391000Y+10577000D01*
X-10392000Y+10577000D01*
X-10393000Y+10578000D01*
X-10393000Y+10579000D01*
X-10394000Y+10578994D01*
X-10394000Y+10579000D01*
X-10395000Y+10580000D01*
X-10395098Y+10580000D01*
X-10395000Y+10581000D01*
X-10396000Y+10582000D01*
X-10396000Y+10583312D01*
X-10397000Y+10584000D01*
X-10397000Y+10611000D01*
X-10396000Y+10612000D01*
X-10396000Y+10613000D01*
X-10395000Y+10614000D01*
X-10395098Y+10615000D01*
X-10395000Y+10615000D01*
X-10392000Y+10618000D01*
X-10391000Y+10618110D01*
X-10391000Y+10618000D01*
X-10390000Y+10619000D01*
X-10389000Y+10619000D01*
X-10388000Y+10620000D01*
X-10387000Y+10619888D01*
X-10386000Y+10619888D01*
X-10386000Y+10620000D01*
X-10334392Y+10620000D01*
G37*
%TD.AperFunction*%
%TA.AperFunction,Material*%
G36*
X-10332000Y+10425000D02*
X-10331000Y+10424000D01*
X-10330000Y+10424000D01*
X-10329000Y+10423000D01*
X-10328000Y+10423000D01*
X-10326000Y+10421000D01*
X-10326000Y+10421000D01*
X-10325000Y+10420000D01*
X-10325000Y+10419000D01*
X-10324000Y+10418000D01*
X-10324000Y+10416688D01*
X-10323000Y+10416000D01*
X-10323000Y+10389000D01*
X-10324000Y+10388000D01*
X-10324000Y+10387000D01*
X-10325000Y+10386000D01*
X-10325000Y+10385000D01*
X-10326000Y+10384000D01*
X-10326000Y+10383000D01*
X-10327000Y+10383000D01*
X-10328000Y+10382000D01*
X-10328000Y+10381890D01*
X-10329000Y+10382000D01*
X-10330000Y+10381000D01*
X-10331000Y+10381000D01*
X-10332000Y+10380000D01*
X-10333000Y+10380000D01*
X-10333000Y+10380112D01*
X-10334000Y+10380112D01*
X-10334392Y+10380000D01*
X-10386000Y+10380000D01*
X-10386000Y+10380112D01*
X-10387000Y+10380112D01*
X-10388000Y+10380000D01*
X-10389000Y+10381000D01*
X-10390000Y+10381000D01*
X-10391000Y+10382000D01*
X-10391000Y+10381890D01*
X-10392000Y+10382000D01*
X-10395000Y+10385000D01*
X-10395098Y+10385000D01*
X-10395000Y+10386000D01*
X-10396000Y+10387000D01*
X-10396000Y+10388000D01*
X-10397000Y+10389000D01*
X-10397000Y+10416000D01*
X-10396000Y+10416688D01*
X-10396000Y+10418000D01*
X-10395000Y+10419000D01*
X-10395098Y+10420000D01*
X-10395000Y+10420000D01*
X-10394000Y+10421000D01*
X-10394000Y+10421006D01*
X-10393000Y+10421000D01*
X-10393000Y+10422000D01*
X-10392000Y+10423000D01*
X-10391000Y+10423000D01*
X-10390000Y+10424000D01*
X-10389000Y+10424000D01*
X-10388000Y+10425000D01*
X-10332000Y+10425000D01*
G37*
%TD.AperFunction*%
%TA.AperFunction,Material*%
G36*
X-10419000Y+10627000D02*
X-10419000Y+10626000D01*
X-10417000Y+10626000D01*
X-10417000Y+10625000D01*
X-10415000Y+10625000D01*
X-10414910Y+10624000D01*
X-10415000Y+10624000D01*
X-10414000Y+10623000D01*
X-10413000Y+10623000D01*
X-10413000Y+10622000D01*
X-10412000Y+10621000D01*
X-10412000Y+10619888D01*
X-10411000Y+10619000D01*
X-10411100Y+10619000D01*
X-10411000Y+10618110D01*
X-10411000Y+10618000D01*
X-10410592Y+10617000D01*
X-10410592Y+10616000D01*
X-10410000Y+10616000D01*
X-10410000Y+10384000D01*
X-10410592Y+10384000D01*
X-10410592Y+10383000D01*
X-10411000Y+10382000D01*
X-10411000Y+10381890D01*
X-10411100Y+10381000D01*
X-10411000Y+10381000D01*
X-10412000Y+10380112D01*
X-10412000Y+10379000D01*
X-10413000Y+10378000D01*
X-10413000Y+10377000D01*
X-10414000Y+10377000D01*
X-10415000Y+10376000D01*
X-10414910Y+10376000D01*
X-10415000Y+10375000D01*
X-10417000Y+10375000D01*
X-10417000Y+10374000D01*
X-10419000Y+10374000D01*
X-10419000Y+10373000D01*
X-10581000Y+10373000D01*
X-10581000Y+10374000D01*
X-10583000Y+10374000D01*
X-10583000Y+10375000D01*
X-10585000Y+10375000D01*
X-10585090Y+10376000D01*
X-10585000Y+10376000D01*
X-10586000Y+10377000D01*
X-10587000Y+10377000D01*
X-10587000Y+10378000D01*
X-10588000Y+10379000D01*
X-10588000Y+10380112D01*
X-10589000Y+10381000D01*
X-10588900Y+10381000D01*
X-10589000Y+10381890D01*
X-10589000Y+10382000D01*
X-10589408Y+10383000D01*
X-10589408Y+10384000D01*
X-10590000Y+10384000D01*
X-10590000Y+10616000D01*
X-10589408Y+10616000D01*
X-10589408Y+10617000D01*
X-10589000Y+10618000D01*
X-10589000Y+10618110D01*
X-10588900Y+10619000D01*
X-10589000Y+10619000D01*
X-10588000Y+10619888D01*
X-10588000Y+10621000D01*
X-10587000Y+10622000D01*
X-10587000Y+10623000D01*
X-10586000Y+10623000D01*
X-10585000Y+10624000D01*
X-10585090Y+10624000D01*
X-10585000Y+10625000D01*
X-10583000Y+10625000D01*
X-10583000Y+10626000D01*
X-10581000Y+10626000D01*
X-10581000Y+10627000D01*
X-10419000Y+10627000D01*
G37*
%TD.AperFunction*%
%TA.AperFunction,Material*%
G36*
X-10487000Y+6307000D02*
X-10488000Y+6310000D01*
X-10488698Y+6313000D01*
X-10490000Y+6316000D01*
X-10493000Y+6325000D01*
X-10495000Y+6328000D01*
X-10496000Y+6331000D01*
X-10498000Y+6334000D01*
X-10500000Y+6336106D01*
X-10502000Y+6339000D01*
X-10505000Y+6341000D01*
X-10509000Y+6345000D01*
X-10512000Y+6347000D01*
X-10514606Y+6349000D01*
X-10517000Y+6351000D01*
X-10520000Y+6352000D01*
X-10522988Y+6354000D01*
X-10526000Y+6355000D01*
X-10532000Y+6357000D01*
X-10535000Y+6357000D01*
X-10538000Y+6358000D01*
X-10542000Y+6359000D01*
X-10554000Y+6359000D01*
X-10558000Y+6358000D01*
X-10561000Y+6357000D01*
X-10564000Y+6357000D01*
X-10573000Y+6354000D01*
X-10576000Y+6352000D01*
X-10579000Y+6351000D01*
X-10581408Y+6349000D01*
X-10584000Y+6347000D01*
X-10587000Y+6345000D01*
X-10591000Y+6341000D01*
X-10593600Y+6339000D01*
X-10596000Y+6336106D01*
X-10598000Y+6334000D01*
X-10599000Y+6331000D01*
X-10603000Y+6325000D01*
X-10605000Y+6319000D01*
X-10606300Y+6316000D01*
X-10607000Y+6313000D01*
X-10609000Y+6307000D01*
X-10609000Y+6193000D01*
X-10607000Y+6187000D01*
X-10606300Y+6184000D01*
X-10605000Y+6181000D01*
X-10603000Y+6175000D01*
X-10599000Y+6169000D01*
X-10598000Y+6166000D01*
X-10596000Y+6163894D01*
X-10593600Y+6161000D01*
X-10591000Y+6159000D01*
X-10587000Y+6155000D01*
X-10584000Y+6153000D01*
X-10581408Y+6151000D01*
X-10579000Y+6149000D01*
X-10576000Y+6148000D01*
X-10573000Y+6146000D01*
X-10564000Y+6143000D01*
X-10561000Y+6143000D01*
X-10558000Y+6142000D01*
X-10554000Y+6141000D01*
X-10542000Y+6141000D01*
X-10538000Y+6142000D01*
X-10535000Y+6143000D01*
X-10532000Y+6143000D01*
X-10526000Y+6145000D01*
X-10522988Y+6146000D01*
X-10520000Y+6148000D01*
X-10517000Y+6149000D01*
X-10514606Y+6151000D01*
X-10512000Y+6153000D01*
X-10509000Y+6155000D01*
X-10505000Y+6159000D01*
X-10502000Y+6161000D01*
X-10500000Y+6163894D01*
X-10498000Y+6166000D01*
X-10496000Y+6169000D01*
X-10495000Y+6172000D01*
X-10493000Y+6175000D01*
X-10490000Y+6184000D01*
X-10488698Y+6187000D01*
X-10488000Y+6190000D01*
X-10487000Y+6193000D01*
X-10487000Y+6307000D01*
G37*
%TD.AperFunction*%
%TA.AperFunction,Material*%
G36*
X-11390652Y+6202502D02*
X-11391000Y+6297498D01*
X-11391000Y+6307000D01*
X-11393000Y+6313000D01*
X-11393700Y+6316000D01*
X-11395000Y+6319000D01*
X-11397000Y+6325000D01*
X-11401000Y+6331000D01*
X-11402000Y+6334000D01*
X-11404000Y+6336106D01*
X-11406400Y+6339000D01*
X-11409000Y+6341000D01*
X-11413000Y+6345000D01*
X-11416000Y+6347000D01*
X-11418592Y+6349000D01*
X-11421000Y+6351000D01*
X-11424000Y+6352000D01*
X-11427000Y+6354000D01*
X-11436000Y+6357000D01*
X-11439000Y+6357000D01*
X-11442000Y+6358000D01*
X-11446000Y+6359000D01*
X-11458000Y+6359000D01*
X-11462000Y+6358000D01*
X-11465000Y+6357000D01*
X-11468000Y+6357000D01*
X-11474000Y+6355000D01*
X-11477012Y+6354000D01*
X-11480000Y+6352000D01*
X-11483000Y+6351000D01*
X-11485394Y+6349000D01*
X-11488000Y+6347000D01*
X-11491000Y+6345000D01*
X-11495000Y+6341000D01*
X-11498000Y+6339000D01*
X-11500000Y+6336106D01*
X-11502000Y+6334000D01*
X-11504000Y+6331000D01*
X-11505000Y+6328000D01*
X-11507000Y+6325000D01*
X-11510000Y+6316000D01*
X-11511302Y+6313000D01*
X-11512000Y+6310000D01*
X-11513000Y+6307000D01*
X-11513000Y+6193000D01*
X-11512000Y+6190000D01*
X-11511302Y+6187000D01*
X-11510000Y+6184000D01*
X-11507000Y+6175000D01*
X-11505000Y+6172000D01*
X-11504000Y+6169000D01*
X-11502000Y+6166000D01*
X-11500000Y+6163894D01*
X-11498000Y+6161000D01*
X-11495000Y+6159000D01*
X-11491000Y+6155000D01*
X-11488000Y+6153000D01*
X-11485394Y+6151000D01*
X-11483000Y+6149000D01*
X-11480000Y+6148000D01*
X-11477012Y+6146000D01*
X-11474000Y+6145000D01*
X-11468000Y+6143000D01*
X-11465000Y+6143000D01*
X-11462000Y+6142000D01*
X-11458000Y+6141000D01*
X-11446000Y+6141000D01*
X-11442000Y+6142000D01*
X-11439000Y+6143000D01*
X-11436000Y+6143000D01*
X-11427000Y+6146000D01*
X-11424000Y+6148000D01*
X-11421000Y+6149000D01*
X-11418592Y+6151000D01*
X-11416000Y+6153000D01*
X-11413000Y+6155000D01*
X-11409000Y+6159000D01*
X-11406400Y+6161000D01*
X-11404000Y+6163894D01*
X-11402000Y+6166000D01*
X-11401000Y+6169000D01*
X-11397000Y+6175000D01*
X-11395000Y+6181000D01*
X-11393700Y+6184000D01*
X-11393000Y+6187000D01*
X-11391000Y+6193000D01*
X-11391000Y+6202502D01*
X-11390652Y+6202502D01*
G37*
%TD.AperFunction*%
%TA.AperFunction,Material*%
G36*
X-10996000Y+6534000D02*
X-10996000Y+6646000D01*
X-10954000Y+6646000D01*
X-10954000Y+6534000D01*
X-10996000Y+6534000D01*
G37*
%TD.AperFunction*%
%TA.AperFunction,Material*%
G36*
X-10946000Y+6534000D02*
X-10946000Y+6646000D01*
X-10904000Y+6646000D01*
X-10904000Y+6534000D01*
X-10946000Y+6534000D01*
G37*
%TD.AperFunction*%
%TA.AperFunction,Material*%
G36*
X-10896000Y+6534000D02*
X-10896000Y+6646000D01*
X-10854000Y+6646000D01*
X-10854000Y+6534000D01*
X-10896000Y+6534000D01*
G37*
%TD.AperFunction*%
%TA.AperFunction,Material*%
G36*
X-10846000Y+6534000D02*
X-10846000Y+6646000D01*
X-10804000Y+6646000D01*
X-10804000Y+6534000D01*
X-10846000Y+6534000D01*
G37*
%TD.AperFunction*%
%TA.AperFunction,Material*%
G36*
X-10796000Y+6534000D02*
X-10796000Y+6646000D01*
X-10754000Y+6646000D01*
X-10754000Y+6534000D01*
X-10796000Y+6534000D01*
G37*
%TD.AperFunction*%
%TA.AperFunction,Material*%
G36*
X-10746254Y+6534000D02*
X-10746254Y+6646000D01*
X-10704000Y+6646000D01*
X-10704000Y+6534000D01*
X-10746254Y+6534000D01*
G37*
%TD.AperFunction*%
%TA.AperFunction,Material*%
G36*
X-10696000Y+6534000D02*
X-10696000Y+6646000D01*
X-10654000Y+6646000D01*
X-10654000Y+6534000D01*
X-10696000Y+6534000D01*
G37*
%TD.AperFunction*%
%TA.AperFunction,Material*%
G36*
X-11046000Y+6534000D02*
X-11046000Y+6646000D01*
X-11004000Y+6646000D01*
X-11004000Y+6534000D01*
X-11046000Y+6534000D01*
G37*
%TD.AperFunction*%
%TA.AperFunction,Material*%
G36*
X-11096000Y+6534000D02*
X-11096000Y+6646000D01*
X-11054000Y+6646000D01*
X-11054000Y+6534000D01*
X-11096000Y+6534000D01*
G37*
%TD.AperFunction*%
%TA.AperFunction,Material*%
G36*
X-11146000Y+6534000D02*
X-11146000Y+6646000D01*
X-11104000Y+6646000D01*
X-11104000Y+6534000D01*
X-11146000Y+6534000D01*
G37*
%TD.AperFunction*%
%TA.AperFunction,Material*%
G36*
X-11196000Y+6534000D02*
X-11196000Y+6646000D01*
X-11154000Y+6646000D01*
X-11154000Y+6534000D01*
X-11196000Y+6534000D01*
G37*
%TD.AperFunction*%
%TA.AperFunction,Material*%
G36*
X-11246000Y+6534000D02*
X-11246000Y+6646000D01*
X-11204000Y+6646000D01*
X-11204000Y+6534000D01*
X-11246000Y+6534000D01*
G37*
%TD.AperFunction*%
%TA.AperFunction,Material*%
G36*
X-11296000Y+6534000D02*
X-11296000Y+6646000D01*
X-11253746Y+6646000D01*
X-11253746Y+6534000D01*
X-11296000Y+6534000D01*
G37*
%TD.AperFunction*%
%TA.AperFunction,Material*%
G36*
X-11346000Y+6534000D02*
X-11346000Y+6646000D01*
X-11304000Y+6646000D01*
X-11304000Y+6534000D01*
X-11346000Y+6534000D01*
G37*
%TD.AperFunction*%
%TA.AperFunction,Material*%
G36*
X-11513000Y+6512890D02*
X-11512000Y+6510000D01*
X-11511302Y+6507000D01*
X-11510000Y+6503492D01*
X-11509000Y+6500000D01*
X-11508000Y+6497000D01*
X-11507000Y+6494602D01*
X-11505000Y+6491808D01*
X-11504000Y+6489000D01*
X-11502000Y+6486000D01*
X-11500000Y+6484000D01*
X-11498000Y+6481394D01*
X-11495000Y+6479108D01*
X-11493000Y+6477000D01*
X-11491000Y+6474790D01*
X-11488000Y+6473000D01*
X-11485394Y+6471000D01*
X-11483000Y+6469000D01*
X-11480000Y+6468000D01*
X-11477012Y+6467000D01*
X-11474000Y+6465000D01*
X-11465000Y+6462000D01*
X-11458000Y+6462000D01*
X-11455000Y+6461000D01*
X-11447000Y+6461000D01*
X-11445000Y+6462000D01*
X-11443000Y+6462000D01*
X-11441000Y+6462090D01*
X-11439000Y+6462000D01*
X-11438000Y+6463000D01*
X-11436000Y+6463000D01*
X-11434000Y+6464000D01*
X-11432308Y+6464000D01*
X-11431000Y+6465000D01*
X-11429000Y+6466000D01*
X-11427000Y+6466408D01*
X-11426000Y+6467000D01*
X-11424000Y+6468000D01*
X-11422402Y+6469000D01*
X-11421000Y+6469710D01*
X-11419000Y+6471000D01*
X-11418000Y+6472000D01*
X-11416000Y+6473000D01*
X-11415000Y+6474000D01*
X-11413000Y+6475000D01*
X-11411000Y+6477000D01*
X-11409194Y+6478000D01*
X-11408000Y+6480000D01*
X-11407000Y+6481000D01*
X-11406000Y+6483000D01*
X-11404000Y+6484188D01*
X-11404000Y+6616000D01*
X-11408000Y+6620000D01*
X-11409194Y+6622000D01*
X-11411000Y+6623000D01*
X-11412000Y+6623888D01*
X-11413000Y+6625000D01*
X-11415000Y+6626000D01*
X-11416000Y+6627000D01*
X-11418000Y+6628000D01*
X-11419000Y+6629000D01*
X-11421000Y+6630000D01*
X-11422402Y+6631000D01*
X-11424000Y+6632000D01*
X-11426000Y+6633000D01*
X-11427000Y+6634000D01*
X-11429000Y+6634302D01*
X-11431000Y+6635000D01*
X-11432308Y+6636000D01*
X-11434000Y+6636000D01*
X-11436000Y+6637000D01*
X-11438000Y+6637096D01*
X-11439000Y+6638000D01*
X-11445000Y+6638000D01*
X-11447000Y+6639000D01*
X-11455000Y+6639000D01*
X-11458000Y+6638000D01*
X-11462000Y+6638112D01*
X-11465000Y+6638000D01*
X-11471000Y+6636000D01*
X-11474000Y+6634810D01*
X-11477012Y+6633000D01*
X-11480000Y+6632000D01*
X-11483000Y+6631000D01*
X-11485394Y+6629000D01*
X-11488000Y+6627000D01*
X-11491000Y+6625000D01*
X-11495000Y+6621000D01*
X-11498000Y+6619000D01*
X-11500000Y+6616000D01*
X-11502000Y+6614000D01*
X-11504000Y+6611000D01*
X-11505000Y+6608000D01*
X-11507000Y+6605000D01*
X-11508000Y+6603000D01*
X-11509000Y+6599504D01*
X-11510000Y+6597000D01*
X-11511302Y+6593408D01*
X-11512000Y+6590000D01*
X-11513000Y+6587000D01*
X-11513000Y+6512890D01*
G37*
%TD.AperFunction*%
%TA.AperFunction,Material*%
G36*
X-10487000Y+6512890D02*
X-10488000Y+6510000D01*
X-10488698Y+6507000D01*
X-10490000Y+6503492D01*
X-10491000Y+6500000D01*
X-10492000Y+6497000D01*
X-10493000Y+6494602D01*
X-10495000Y+6491808D01*
X-10496000Y+6489000D01*
X-10498000Y+6486000D01*
X-10500000Y+6484000D01*
X-10502000Y+6481394D01*
X-10505000Y+6479108D01*
X-10507000Y+6477000D01*
X-10509000Y+6474790D01*
X-10512000Y+6473000D01*
X-10514606Y+6471000D01*
X-10517000Y+6469000D01*
X-10520000Y+6468000D01*
X-10522988Y+6467000D01*
X-10526000Y+6465000D01*
X-10535000Y+6462000D01*
X-10542000Y+6462000D01*
X-10545000Y+6461000D01*
X-10553000Y+6461000D01*
X-10555000Y+6462000D01*
X-10557000Y+6462000D01*
X-10559000Y+6462090D01*
X-10561000Y+6462000D01*
X-10562000Y+6463000D01*
X-10564000Y+6463000D01*
X-10566000Y+6464000D01*
X-10567692Y+6464000D01*
X-10569000Y+6465000D01*
X-10571000Y+6466000D01*
X-10573000Y+6466408D01*
X-10574000Y+6467000D01*
X-10576000Y+6468000D01*
X-10577598Y+6469000D01*
X-10579000Y+6469710D01*
X-10581000Y+6471000D01*
X-10582000Y+6472000D01*
X-10584000Y+6473000D01*
X-10585000Y+6474000D01*
X-10587000Y+6475000D01*
X-10589000Y+6477000D01*
X-10590806Y+6478000D01*
X-10592000Y+6480000D01*
X-10593000Y+6481000D01*
X-10594000Y+6483000D01*
X-10596000Y+6484188D01*
X-10596000Y+6616000D01*
X-10592000Y+6620000D01*
X-10590806Y+6622000D01*
X-10589000Y+6623000D01*
X-10588000Y+6623888D01*
X-10587000Y+6625000D01*
X-10585000Y+6626000D01*
X-10584000Y+6627000D01*
X-10582000Y+6628000D01*
X-10581000Y+6629000D01*
X-10579000Y+6630000D01*
X-10577598Y+6631000D01*
X-10576000Y+6632000D01*
X-10574000Y+6633000D01*
X-10573000Y+6634000D01*
X-10571000Y+6634302D01*
X-10569000Y+6635000D01*
X-10567692Y+6636000D01*
X-10566000Y+6636000D01*
X-10564000Y+6637000D01*
X-10562000Y+6637096D01*
X-10561000Y+6638000D01*
X-10555000Y+6638000D01*
X-10553000Y+6639000D01*
X-10545000Y+6639000D01*
X-10542000Y+6638000D01*
X-10538000Y+6638112D01*
X-10535000Y+6638000D01*
X-10529000Y+6636000D01*
X-10526000Y+6634810D01*
X-10522988Y+6633000D01*
X-10520000Y+6632000D01*
X-10517000Y+6631000D01*
X-10514606Y+6629000D01*
X-10512000Y+6627000D01*
X-10509000Y+6625000D01*
X-10505000Y+6621000D01*
X-10502000Y+6619000D01*
X-10500000Y+6616000D01*
X-10498000Y+6614000D01*
X-10496000Y+6611000D01*
X-10495000Y+6608000D01*
X-10493000Y+6605000D01*
X-10492000Y+6603000D01*
X-10491000Y+6599504D01*
X-10490000Y+6597000D01*
X-10488698Y+6593408D01*
X-10488000Y+6590000D01*
X-10487000Y+6587000D01*
X-10487000Y+6512890D01*
G37*
%TD.AperFunction*%
%TA.AperFunction,Material*%
G36*
X-10646000Y+6534000D02*
X-10646000Y+6646000D01*
X-10603760Y+6646000D01*
X-10603760Y+6534000D01*
X-10646000Y+6534000D01*
G37*
%TD.AperFunction*%
%TA.AperFunction,Material*%
G36*
X-11396240Y+6534000D02*
X-11396240Y+6646000D01*
X-11354000Y+6646000D01*
X-11354000Y+6534000D01*
X-11396240Y+6534000D01*
G37*
%TD.AperFunction*%
D77*
X-13411200Y+7655560D03*
X-10505440Y+8829040D03*
X-11511280Y+9890760D03*
X-13243560Y+9611360D03*
X-11343640Y+9890760D03*
X-11790680Y+9387840D03*
X-12125960Y+9723120D03*
X-12014200Y+9443720D03*
X-10617200Y+9890760D03*
X-13299440Y+6370320D03*
X-12237720Y+6985000D03*
X-12405360Y+9276080D03*
X-13131800Y+9108440D03*
X-12181840Y+10281920D03*
X-11008360Y+10114280D03*
X-10393680Y+10952480D03*
X-12237720Y+10673080D03*
X-12237720Y+10393680D03*
X-11623040Y+10114280D03*
X-11846560Y+10114280D03*
X-9890760Y+10617200D03*
X-11120120Y+11008360D03*
X-10784840Y+11008360D03*
X-9555480Y+10896600D03*
X-11511280Y+10449560D03*
X-9890760Y+10393680D03*
X-11623040Y+9946640D03*
X-9946640Y+9890760D03*
X-11902440Y+9890760D03*
X-11008360Y+10393680D03*
X-9443720Y+10337800D03*
X-10337800Y+10281920D03*
X-10896600Y+11120120D03*
X-9667240Y+10617200D03*
X-14025880Y+8829040D03*
X-11231880Y+8661400D03*
X-10617200Y+11343640D03*
X-10337800Y+6705600D03*
X-11008360Y+6705600D03*
X-10896600Y+6705600D03*
X-10840720Y+6482080D03*
X-11120120Y+6258560D03*
X-10896600Y+11231880D03*
X-13914120Y+10281920D03*
X-13914120Y+8326120D03*
X-11790680Y+6873240D03*
X-13131800Y+9611360D03*
X-13020040Y+7487920D03*
X-9220200Y+8996680D03*
X-11120120Y+7711440D03*
X-10114280Y+10617200D03*
X-13020040Y+7264400D03*
X-13746480Y+9890760D03*
X-13858240Y+8996680D03*
X-13858240Y+9499600D03*
X-12740640Y+6985000D03*
X-11958320Y+9555480D03*
X-9946640Y+9443720D03*
X-9779000Y+8717280D03*
X-11231880Y+9387840D03*
X-10728960Y+9387840D03*
X-13020040Y+7655560D03*
X-13355320Y+9387840D03*
X-12237720Y+7152640D03*
X-12628880Y+7879080D03*
X-12405360Y+8326120D03*
X-12908280Y+9220200D03*
X-13020040Y+8270240D03*
X-13020040Y+8493760D03*
X-12237720Y+7767320D03*
X-13187680Y+10673080D03*
X-12573000Y+9890760D03*
X-11678920Y+10449560D03*
X-10114280Y+6370320D03*
X-8996680Y+8102600D03*
X-12014200Y+11008360D03*
X-11231880Y+6482080D03*
X-8382000Y+10393680D03*
X-11734800Y+10617200D03*
X-11287760Y+6873240D03*
X-12014200Y+10114280D03*
X-12573000Y+10002520D03*
X-9667240Y+11399520D03*
X-10281920Y+10952480D03*
X-11511280Y+10002520D03*
X-11623040Y+10673080D03*
X-11008360Y+10505440D03*
X-11064240Y+10673080D03*
X-10281920Y+10673080D03*
X-11902440Y+8940800D03*
X-12852400Y+7879080D03*
X-13299440Y+7376160D03*
X-12908280Y+7543800D03*
X-12237720Y+8940800D03*
X-13020040Y+7152640D03*
X-13020040Y+11064240D03*
X-10617200Y+11455400D03*
X-10840720Y+8940800D03*
X-13802360Y+7376160D03*
X-12237720Y+7990840D03*
X-12293600Y+6482080D03*
X-10281920Y+9164320D03*
X-12461240Y+7208520D03*
X-12405360Y+6761480D03*
X-9164320Y+7152640D03*
X-8884920Y+7990840D03*
X-8829040Y+8326120D03*
X-11399520Y+6761480D03*
X-13243560Y+10952480D03*
X-12349480Y+10449560D03*
X-8549640Y+10728960D03*
X-11343640Y+6258560D03*
X-13634720Y+8382000D03*
X-13020040Y+9276080D03*
X-9220200Y+9779000D03*
X-13411200Y+10393680D03*
X-11176000Y+10114280D03*
X-13411200Y+9611360D03*
X-9834880Y+6370320D03*
X-12405360Y+9164320D03*
X-10728960Y+6314440D03*
X-10840720Y+9890760D03*
X-11343640Y+10728960D03*
X-9220200Y+10226040D03*
X-12181840Y+6370320D03*
X-13634720Y+7599680D03*
X-10840720Y+10449560D03*
X-12573000Y+7767320D03*
X-11399520Y+10114280D03*
X-12573000Y+7655560D03*
X-12349480Y+10561320D03*
X-11287760Y+10114280D03*
X-9276080Y+7990840D03*
X-9276080Y+8270240D03*
X-13020040Y+9723120D03*
X-13858240Y+5979160D03*
X-13522960Y+6873240D03*
X-13411200Y+9723120D03*
X-13411200Y+10002520D03*
X-13858240Y+6761480D03*
X-12349480Y+7767320D03*
X-8605520Y+8661400D03*
X-8605520Y+10505440D03*
X-8605520Y+9052560D03*
X-8605520Y+10058400D03*
X-8549640Y+9667240D03*
X-10840720Y+10561320D03*
X-12237720Y+8605520D03*
X-12237720Y+7879080D03*
X-9331960Y+10896600D03*
X-11678920Y+9723120D03*
X-12908280Y+6146800D03*
X-12237720Y+8270240D03*
X-12461240Y+7655560D03*
X-11902440Y+6873240D03*
X-11902440Y+8158480D03*
X-9779000Y+11399520D03*
X-9555480Y+9611360D03*
X-9890760Y+11399520D03*
X-9667240Y+9276080D03*
X-11790680Y+8493760D03*
X-13020040Y+8717280D03*
X-12684760Y+8493760D03*
X-12517120Y+8214360D03*
X-12517120Y+8717280D03*
X-11902440Y+8661400D03*
X-12517120Y+7934960D03*
X-11902440Y+8437880D03*
X-12237720Y+8382000D03*
X-12796520Y+8717280D03*
X-12237720Y+8493760D03*
X-12740640Y+8829040D03*
X-11902440Y+9387840D03*
X-12908280Y+9890760D03*
X-12908280Y+9108440D03*
X-11902440Y+9052560D03*
X-12684760Y+9276080D03*
X-12796520Y+9499600D03*
X-13020040Y+8940800D03*
X-9667240Y+8996680D03*
X-9555480Y+8884920D03*
X-10505440Y+8102600D03*
X-11678920Y+6258560D03*
X-11790680Y+6482080D03*
X-11790680Y+6761480D03*
X-11511280Y+11399520D03*
X-12181840Y+9443720D03*
X-14137640Y+8493760D03*
X-9052560Y+7152640D03*
X-10226040Y+10505440D03*
X-10393680Y+10840720D03*
X-9890760Y+6705600D03*
X-10114280Y+8884920D03*
X-9779000Y+9108440D03*
X-9667240Y+9723120D03*
X-11902440Y+7823200D03*
X-13411200Y+6537960D03*
X-13411200Y+6761480D03*
X-11157237Y+6000000D03*
X-12500000Y+6500000D03*
X-12136939Y+6135821D03*
X-11902440Y+7712736D03*
X-11772591Y+7046827D03*
X-12170119Y+6904684D03*
X-12084394Y+7607697D03*
X-10337191Y+5869237D03*
X-11394669Y+7264400D03*
X-12074455Y+7376160D03*
X-12206437Y+7369928D03*
X-11878237Y+7580654D03*
X-11942473Y+7423024D03*
X-9715368Y+6642769D03*
X-11161827Y+6839561D03*
X-10849403Y+6871735D03*
X-10692307Y+6895926D03*
X-10984409Y+6839561D03*
X-11454186Y+6946481D03*
X-11333750Y+7145306D03*
X-11502495Y+7797938D03*
X-11675671Y+7995946D03*
X-11435351Y+7127034D03*
X-11502829Y+7573775D03*
X-8363333Y+6504167D03*
X-10046033Y+7493918D03*
X-11221719Y+7777481D03*
X-9087707Y+6670453D03*
X-9506807Y+7089553D03*
X-8851423Y+6620959D03*
X-9665942Y+7489218D03*
X-11338020Y+7563252D03*
X-8344292Y+7009949D03*
X-8940800Y+7113991D03*
X-9148788Y+7006705D03*
X-10960424Y+7114599D03*
X-10560325Y+6848859D03*
X-9983640Y+6895926D03*
X-11004839Y+7711440D03*
X-10881699Y+7566414D03*
X-11086474Y+7606426D03*
X-9194547Y+8102369D03*
X-9278720Y+7764680D03*
X-8967257Y+7626137D03*
X-11092406Y+7111335D03*
X-10957980Y+6944616D03*
X-9086249Y+7382264D03*
X-9645246Y+7382264D03*
X-10206680Y+7254773D03*
X-10749298Y+7590104D03*
X-10640411Y+7585477D03*
X-13650810Y+7376160D03*
X-8499521Y+8180375D03*
X-10674264Y+7755460D03*
X-10372148Y+7571512D03*
X-10505440Y+7588538D03*
X-10240166Y+7568365D03*
X-8485000Y+8935000D03*
X-9663262Y+7763342D03*
X-9280357Y+8498037D03*
X-9740000Y+7615000D03*
X-8318035Y+9537797D03*
X-9248783Y+8801743D03*
X-8707121Y+9092700D03*
X-9754345Y+8396310D03*
X-10123369Y+7951095D03*
X-10207761Y+8010388D03*
X-9677026Y+7976972D03*
X-9688304Y+8280000D03*
X-10063259Y+7881889D03*
X-10143221Y+7763185D03*
X-10240066Y+7673382D03*
X-8605520Y+7264400D03*
X-9276080Y+7487920D03*
X-11210030Y+9721315D03*
X-11455400Y+9346839D03*
X-11587225Y+9367775D03*
X-11339100Y+9387840D03*
X-11471082Y+9438280D03*
D78*
X-13705000Y+10750000D03*
X-13545000Y+10750000D03*
X-13705000Y+10500000D03*
X-13545000Y+10500000D03*
X-13705000Y+10250000D03*
X-13545000Y+10250000D03*
X-13705000Y+10000000D03*
X-13545000Y+10000000D03*
X-13705000Y+9750000D03*
X-13545000Y+9750000D03*
X-13705000Y+9500000D03*
X-13545000Y+9500000D03*
X-13705000Y+9250000D03*
X-13545000Y+9250000D03*
X-13705000Y+9000000D03*
X-13545000Y+9000000D03*
X-13705000Y+8750000D03*
X-13545000Y+8750000D03*
X-13705000Y+8500000D03*
X-13545000Y+8500000D03*
X-13705000Y+8250000D03*
X-13545000Y+8250000D03*
X-13705000Y+8000000D03*
X-13545000Y+8000000D03*
X-13705000Y+7750000D03*
X-13545000Y+7750000D03*
X-13705000Y+7500000D03*
X-13545000Y+7500000D03*
X-13705000Y+7250000D03*
X-13545000Y+7250000D03*
X-13705000Y+7000000D03*
X-13545000Y+7000000D03*
X-13705000Y+6750000D03*
X-13545000Y+6750000D03*
X-13705000Y+6500000D03*
X-13545000Y+6500000D03*
X-13705000Y+6250000D03*
X-13545000Y+6250000D03*
X-13705000Y+6000000D03*
X-13545000Y+6000000D03*
D79*
X-14000000Y+7750000D03*
X-14000000Y+7590000D03*
D80*
X-12068000Y+9375000D03*
X-12068000Y+9324992D03*
X-12068000Y+9275000D03*
X-12068000Y+9225000D03*
X-12068000Y+9175000D03*
X-12068000Y+9125000D03*
X-12068000Y+9075000D03*
X-12068000Y+9025000D03*
X-12068000Y+8975000D03*
X-12068000Y+8925000D03*
X-12068000Y+8875000D03*
X-12068000Y+8825000D03*
X-12068000Y+8775000D03*
X-12068000Y+8725000D03*
X-12068000Y+8675006D03*
X-12068000Y+8625000D03*
X-12068000Y+8575000D03*
X-12068000Y+8525000D03*
X-12068000Y+8475000D03*
X-12068000Y+8425000D03*
X-12068000Y+8375000D03*
X-12068000Y+8324994D03*
X-12068000Y+8275000D03*
X-12068000Y+8225000D03*
X-12068000Y+8175000D03*
X-12068000Y+8125000D03*
X-12068000Y+8075000D03*
X-12068000Y+8025000D03*
X-12068000Y+7975000D03*
X-12068000Y+7925000D03*
X-12068000Y+7875000D03*
X-12068000Y+7825000D03*
X-12068000Y+7775000D03*
X-12068000Y+7725000D03*
X-12068000Y+7675008D03*
X-12068000Y+7625000D03*
D81*
X-11875000Y+7432000D03*
X-11824992Y+7432000D03*
X-11775000Y+7432000D03*
X-11725000Y+7432000D03*
X-11675000Y+7432000D03*
X-11625000Y+7432000D03*
X-11575000Y+7432000D03*
X-11525000Y+7432000D03*
X-11475000Y+7432000D03*
X-11425000Y+7432000D03*
X-11375000Y+7432000D03*
X-11325000Y+7432000D03*
X-11275000Y+7432000D03*
X-11225000Y+7432000D03*
X-11175006Y+7432000D03*
X-11125000Y+7432000D03*
X-11075000Y+7432000D03*
X-11025000Y+7432000D03*
X-10975000Y+7432000D03*
X-10925000Y+7432000D03*
X-10875000Y+7432000D03*
X-10824994Y+7432000D03*
X-10775000Y+7432000D03*
X-10725000Y+7432000D03*
X-10675000Y+7432000D03*
X-10625000Y+7432000D03*
X-10575000Y+7432000D03*
X-10525000Y+7432000D03*
X-10475000Y+7432000D03*
X-10425000Y+7432000D03*
X-10375000Y+7432000D03*
X-10325000Y+7432000D03*
X-10275000Y+7432000D03*
X-10225000Y+7432000D03*
X-10175008Y+7432000D03*
X-10125000Y+7432000D03*
D80*
X-9932000Y+7625000D03*
X-9932000Y+7675008D03*
X-9932000Y+7725000D03*
X-9932000Y+7775000D03*
X-9932000Y+7825000D03*
X-9932000Y+7875000D03*
X-9932000Y+7925000D03*
X-9932000Y+7975000D03*
X-9932000Y+8025000D03*
X-9932000Y+8075000D03*
X-9932000Y+8125000D03*
X-9932000Y+8175000D03*
X-9932000Y+8225000D03*
X-9932000Y+8275000D03*
X-9932000Y+8324994D03*
X-9932000Y+8375000D03*
X-9932000Y+8425000D03*
X-9932000Y+8475000D03*
X-9932000Y+8525000D03*
X-9932000Y+8575000D03*
X-9932000Y+8625000D03*
X-9932000Y+8675006D03*
X-9932000Y+8725000D03*
X-9932000Y+8775000D03*
X-9932000Y+8825000D03*
X-9932000Y+8875000D03*
X-9932000Y+8925000D03*
X-9932000Y+8975000D03*
X-9932000Y+9025000D03*
X-9932000Y+9075000D03*
X-9932000Y+9125000D03*
X-9932000Y+9175000D03*
X-9932000Y+9225000D03*
X-9932000Y+9275000D03*
X-9932000Y+9324992D03*
X-9932000Y+9375000D03*
D81*
X-10125000Y+9568000D03*
X-10175008Y+9568000D03*
X-10225000Y+9568000D03*
X-10275000Y+9568000D03*
X-10325000Y+9568000D03*
X-10375000Y+9568000D03*
X-10425000Y+9568000D03*
X-10475000Y+9568000D03*
X-10525000Y+9568000D03*
X-10575000Y+9568000D03*
X-10625000Y+9568000D03*
X-10675000Y+9568000D03*
X-10725000Y+9568000D03*
X-10775000Y+9568000D03*
X-10824994Y+9568000D03*
X-10875000Y+9568000D03*
X-10925000Y+9568000D03*
X-10975000Y+9568000D03*
X-11025000Y+9568000D03*
X-11075000Y+9568000D03*
X-11125000Y+9568000D03*
X-11175006Y+9568000D03*
X-11225000Y+9568000D03*
X-11275000Y+9568000D03*
X-11325000Y+9568000D03*
X-11375000Y+9568000D03*
X-11425000Y+9568000D03*
X-11475000Y+9568000D03*
X-11525000Y+9568000D03*
X-11575000Y+9568000D03*
X-11625000Y+9568000D03*
X-11675000Y+9568000D03*
X-11725000Y+9568000D03*
X-11775000Y+9568000D03*
X-11824992Y+9568000D03*
X-11875000Y+9568000D03*
D82*
X-14377000Y+6000000D03*
D83*
X-14123000Y+6000000D03*
D84*
X-11542250Y+7072000D03*
X-11676250Y+7072000D03*
D85*
X-11534250Y+7000000D03*
X-11684250Y+7000000D03*
D84*
X-11542250Y+6928000D03*
X-11676250Y+6928000D03*
D86*
X-11517000Y+9750000D03*
X-11347000Y+9750000D03*
X-11051000Y+9750000D03*
X-10881000Y+9750000D03*
X-11983000Y+9750000D03*
X-11813000Y+9750000D03*
X-10585000Y+9750000D03*
X-10415000Y+9750000D03*
X-10885000Y+7250000D03*
X-10715000Y+7250000D03*
X-10485000Y+7250000D03*
X-10315000Y+7250000D03*
X-10085000Y+7250000D03*
X-9915000Y+7250000D03*
X-11285000Y+7250000D03*
X-11115000Y+7250000D03*
X-12085000Y+7250000D03*
X-11915000Y+7250000D03*
X-12085000Y+7000000D03*
X-11915000Y+7000000D03*
X-12085000Y+6750000D03*
X-11915000Y+6750000D03*
X-12085000Y+6500000D03*
X-11915000Y+6500000D03*
X-12085000Y+6250000D03*
X-11915000Y+6250000D03*
D87*
X-12850000Y+6000000D03*
X-13150000Y+6000000D03*
D88*
X-12348000Y+7628016D03*
X-12348000Y+7500000D03*
X-12250000Y+7500000D03*
X-12250000Y+7628016D03*
D89*
X-12785500Y+8580000D03*
D90*
X-12785500Y+8540000D03*
X-12785500Y+8500000D03*
X-12785500Y+8460000D03*
X-12785500Y+8420000D03*
D89*
X-12785500Y+8380000D03*
X-12757500Y+8352000D03*
D91*
X-12717500Y+8352000D03*
X-12677500Y+8352000D03*
X-12637500Y+8352000D03*
X-12597500Y+8352000D03*
D89*
X-12557500Y+8352000D03*
X-12529500Y+8380000D03*
D90*
X-12529500Y+8420000D03*
X-12529500Y+8460000D03*
X-12529500Y+8500000D03*
X-12529500Y+8540000D03*
D89*
X-12529500Y+8580000D03*
X-12557500Y+8608000D03*
D91*
X-12597500Y+8608000D03*
X-12637500Y+8608000D03*
X-12677500Y+8608000D03*
X-12717500Y+8608000D03*
D89*
X-12757500Y+8608000D03*
D92*
X-12782008Y+9300000D03*
X-12782008Y+9250000D03*
X-12782008Y+9200000D03*
X-12782008Y+9150000D03*
D93*
X-12729500Y+9097492D03*
X-12679500Y+9097492D03*
X-12629500Y+9097492D03*
X-12579500Y+9097492D03*
D92*
X-12526992Y+9150000D03*
X-12526992Y+9200000D03*
X-12526992Y+9250000D03*
X-12526992Y+9300000D03*
D93*
X-12579500Y+9352508D03*
X-12629500Y+9352508D03*
X-12679500Y+9352508D03*
X-12729500Y+9352508D03*
D94*
X-12725000Y+7826000D03*
X-12775000Y+7826000D03*
D95*
X-12826000Y+7800000D03*
X-12826000Y+7750000D03*
X-12826000Y+7700000D03*
D94*
X-12775000Y+7674000D03*
X-12725000Y+7674000D03*
D95*
X-12674000Y+7700000D03*
X-12674000Y+7750000D03*
X-12674000Y+7800000D03*
D78*
X-13308750Y+8500000D03*
X-13148750Y+8500000D03*
X-13308750Y+8250000D03*
X-13148750Y+8250000D03*
X-13308750Y+9500000D03*
X-13148750Y+9500000D03*
X-13308750Y+9250000D03*
X-13148750Y+9250000D03*
X-13308750Y+9000000D03*
X-13148750Y+9000000D03*
X-13308750Y+8000000D03*
X-13148750Y+8000000D03*
X-13308750Y+7750000D03*
X-13148750Y+7750000D03*
D86*
X-13313750Y+8750000D03*
X-13143750Y+8750000D03*
X-13070395Y+10000000D03*
X-13240395Y+10000000D03*
X-13313750Y+7500000D03*
X-13143750Y+7500000D03*
X-13313750Y+7250000D03*
X-13143750Y+7250000D03*
X-13313750Y+7000000D03*
X-13143750Y+7000000D03*
D96*
X-12140000Y+10598000D03*
X-12140000Y+10532512D03*
X-12140000Y+10467488D03*
X-12140000Y+10402000D03*
X-11860000Y+10402000D03*
X-11860000Y+10467488D03*
X-11860000Y+10532512D03*
X-11860000Y+10598000D03*
D97*
X-12000000Y+10594996D03*
X-11942000Y+10500000D03*
X-12058000Y+10500000D03*
X-12000000Y+10405004D03*
D98*
X-12000000Y+10500000D03*
D99*
X-11390000Y+10575000D03*
X-11390000Y+10525000D03*
X-11390000Y+10475000D03*
X-11390000Y+10425000D03*
D100*
X-11325000Y+10360000D03*
X-11275000Y+10360000D03*
X-11225000Y+10360000D03*
X-11175000Y+10360000D03*
D99*
X-11110000Y+10425000D03*
X-11110000Y+10475000D03*
X-11110000Y+10525000D03*
X-11110000Y+10575000D03*
D100*
X-11175000Y+10640000D03*
X-11225000Y+10640000D03*
X-11275000Y+10640000D03*
X-11325000Y+10640000D03*
D98*
X-11250000Y+10500000D03*
D97*
X-11250000Y+10500000D03*
X-11308000Y+10558000D03*
X-11192000Y+10558000D03*
X-11192000Y+10442000D03*
X-11308000Y+10442000D03*
D101*
X-10640000Y+10598000D03*
X-10640000Y+10532512D03*
X-10640000Y+10467488D03*
X-10640000Y+10402000D03*
X-10360000Y+10402000D03*
X-10360000Y+10467488D03*
X-10360000Y+10532512D03*
X-10360000Y+10598000D03*
D97*
X-10500000Y+10594996D03*
X-10558000Y+10500000D03*
X-10442000Y+10500000D03*
X-10500000Y+10405004D03*
D102*
X-10500000Y+10500000D03*
D103*
X-11346250Y+11000000D03*
X-11246250Y+11000000D03*
D104*
X-12686000Y+11245500D03*
X-12810000Y+11245500D03*
X-12935000Y+11245500D03*
X-13061000Y+11245500D03*
X-13186000Y+11245500D03*
X-13310000Y+11245500D03*
D105*
X-12500000Y+11566500D03*
X-13496000Y+11566500D03*
D78*
X-13075395Y+10500000D03*
X-13235395Y+10500000D03*
X-13075395Y+10250000D03*
X-13235395Y+10250000D03*
X-10750000Y+10000000D03*
X-10910000Y+10000000D03*
D79*
X-10500000Y+10000000D03*
X-10500000Y+10160000D03*
D78*
X-10500000Y+11000000D03*
X-10660000Y+11000000D03*
X-12000000Y+10000000D03*
X-11840000Y+10000000D03*
X-11250000Y+10000000D03*
X-11410000Y+10000000D03*
X-12284000Y+10250000D03*
X-12444000Y+10250000D03*
X-12284000Y+10000000D03*
X-12444000Y+10000000D03*
X-12284000Y+9750000D03*
X-12444000Y+9750000D03*
X-12750000Y+9750000D03*
X-12910000Y+9750000D03*
D106*
X-11000000Y+11164000D03*
X-11000000Y+11000000D03*
D107*
X-11750000Y+11000000D03*
X-12200000Y+11000000D03*
D106*
X-12664000Y+10500000D03*
X-12500000Y+10500000D03*
D86*
X-11824334Y+10250000D03*
X-11994334Y+10250000D03*
X-11369668Y+10250000D03*
X-11539668Y+10250000D03*
X-10915000Y+10250000D03*
X-11085000Y+10250000D03*
X-9915000Y+11000000D03*
X-10085000Y+11000000D03*
X-9915000Y+10750000D03*
X-10085000Y+10750000D03*
X-9915000Y+10500000D03*
X-10085000Y+10500000D03*
X-9915000Y+10250000D03*
X-10085000Y+10250000D03*
X-9915000Y+10000000D03*
X-10085000Y+10000000D03*
X-9415000Y+11000000D03*
X-9585000Y+11000000D03*
X-9415000Y+10750000D03*
X-9585000Y+10750000D03*
X-9415000Y+10500000D03*
X-9585000Y+10500000D03*
D108*
X-11375000Y+6590000D03*
X-11275000Y+6590000D03*
X-11175006Y+6590000D03*
X-11075000Y+6590000D03*
X-10925000Y+6590000D03*
X-10824994Y+6590000D03*
X-10725000Y+6590000D03*
X-10625000Y+6590000D03*
X-10675000Y+6590000D03*
X-10775000Y+6590000D03*
X-10875000Y+6590000D03*
X-10975000Y+6590000D03*
X-11025000Y+6590000D03*
X-11125000Y+6590000D03*
X-11225000Y+6590000D03*
X-11325000Y+6590000D03*
D109*
X-11452000Y+6550000D03*
X-10548000Y+6550000D03*
D110*
X-11452000Y+6250000D03*
X-10548000Y+6250000D03*
D111*
X-10000000Y+6500000D03*
X-10094996Y+6500000D03*
X-10189992Y+6500000D03*
X-10189992Y+6248000D03*
X-10094996Y+6248000D03*
X-10000000Y+6248000D03*
D106*
X-11918000Y+6000000D03*
X-12082000Y+6000000D03*
D86*
X-10834000Y+7000000D03*
X-10664000Y+7000000D03*
X-10417000Y+7000000D03*
X-10247000Y+7000000D03*
X-10000000Y+7000000D03*
X-9830000Y+7000000D03*
X-11251000Y+7000000D03*
X-11081000Y+7000000D03*
X-11685000Y+7250000D03*
X-11515000Y+7250000D03*
X-9546020Y+9500000D03*
X-9376020Y+9500000D03*
X-9546020Y+9250000D03*
X-9376020Y+9250000D03*
X-9546020Y+9000000D03*
X-9376020Y+9000000D03*
X-9546020Y+8750000D03*
X-9376020Y+8750000D03*
X-9546020Y+9750000D03*
X-9376020Y+9750000D03*
D78*
X-9543060Y+8500000D03*
X-9383060Y+8500000D03*
X-9543060Y+8250000D03*
X-9383060Y+8250000D03*
D112*
X-12627000Y+7004000D03*
X-12500000Y+7004000D03*
X-12627000Y+6877000D03*
X-12500000Y+6877000D03*
X-12627000Y+6750000D03*
X-12500000Y+6750000D03*
D113*
X-12563500Y+7131000D03*
X-12461900Y+6623000D03*
X-12665100Y+6623000D03*
D114*
X-14250000Y+9000000D03*
X-14156020Y+9190500D03*
X-14343980Y+9190500D03*
D115*
X-8688000Y+6438000D03*
X-8688000Y+6562000D03*
X-8688000Y+6687000D03*
X-8688000Y+6813000D03*
X-8688000Y+6938000D03*
X-8688000Y+7062000D03*
D116*
X-8367000Y+6252000D03*
X-8367000Y+7248000D03*
D115*
X-8688000Y+7854666D03*
X-8688000Y+7978666D03*
X-8688000Y+8103666D03*
X-8688000Y+8229666D03*
X-8688000Y+8354666D03*
X-8688000Y+8478666D03*
D116*
X-8367000Y+7668666D03*
X-8367000Y+8664666D03*
D115*
X-8688000Y+9271332D03*
X-8688000Y+9395332D03*
X-8688000Y+9520332D03*
X-8688000Y+9646332D03*
X-8688000Y+9771332D03*
X-8688000Y+9895332D03*
D116*
X-8367000Y+9085332D03*
X-8367000Y+10081332D03*
D115*
X-8688000Y+10688000D03*
X-8688000Y+10812000D03*
X-8688000Y+10937000D03*
X-8688000Y+11063000D03*
X-8688000Y+11188000D03*
X-8688000Y+11312000D03*
D116*
X-8367000Y+10502000D03*
X-8367000Y+11498000D03*
D104*
X-9688000Y+11245500D03*
X-9812000Y+11245500D03*
X-9937000Y+11245500D03*
X-10063000Y+11245500D03*
X-10188000Y+11245500D03*
X-10312000Y+11245500D03*
D105*
X-9502000Y+11566500D03*
X-10498000Y+11566500D03*
D78*
X-9383060Y+8000000D03*
X-9543060Y+8000000D03*
X-9383060Y+7750000D03*
X-9543060Y+7750000D03*
X-9383060Y+7500000D03*
X-9543060Y+7500000D03*
X-9383060Y+6750000D03*
X-9543060Y+6750000D03*
X-9383060Y+6500000D03*
X-9543060Y+6500000D03*
D117*
X-10750000Y+11516000D03*
X-10750000Y+11346000D03*
X-11000000Y+11516000D03*
X-11000000Y+11346000D03*
D118*
X-14250000Y+11250000D03*
X-14250000Y+10400000D03*
X-14250000Y+9550000D03*
X-14250000Y+8700000D03*
X-14250000Y+7850000D03*
X-14250000Y+7000000D03*
D119*
X-12765500Y+8565000D02*
X-12805500Y+8565000D01*
X-12805500Y+8595000D01*
X-12778500Y+8595000D01*
X-12765500Y+8582000D01*
X-12765500Y+8565000D01*
X-12805500Y+8525000D02*
X-12765500Y+8525000D01*
X-12765500Y+8555000D01*
X-12805500Y+8555000D01*
X-12805500Y+8525000D01*
X-12805500Y+8485000D02*
X-12765500Y+8485000D01*
X-12765500Y+8515000D01*
X-12805500Y+8515000D01*
X-12805500Y+8485000D01*
X-12805500Y+8445000D02*
X-12765500Y+8445000D01*
X-12765500Y+8475000D01*
X-12805500Y+8475000D01*
X-12805500Y+8445000D01*
X-12805500Y+8405000D02*
X-12765500Y+8405000D01*
X-12765500Y+8435000D01*
X-12805500Y+8435000D01*
X-12805500Y+8405000D01*
X-12765500Y+8395000D02*
X-12805500Y+8395000D01*
X-12805500Y+8365000D01*
X-12778500Y+8365000D01*
X-12765500Y+8378000D01*
X-12765500Y+8395000D01*
X-12742500Y+8372000D02*
X-12742500Y+8332000D01*
X-12772500Y+8332000D01*
X-12772500Y+8359000D01*
X-12759500Y+8372000D01*
X-12742500Y+8372000D01*
X-12732500Y+8332000D02*
X-12702500Y+8332000D01*
X-12702500Y+8372000D01*
X-12732500Y+8372000D01*
X-12732500Y+8332000D01*
X-12692500Y+8332000D02*
X-12662500Y+8332000D01*
X-12662500Y+8372000D01*
X-12692500Y+8372000D01*
X-12692500Y+8332000D01*
X-12652500Y+8332000D02*
X-12622500Y+8332000D01*
X-12622500Y+8372000D01*
X-12652500Y+8372000D01*
X-12652500Y+8332000D01*
X-12612500Y+8332000D02*
X-12582500Y+8332000D01*
X-12582500Y+8372000D01*
X-12612500Y+8372000D01*
X-12612500Y+8332000D01*
X-12572500Y+8372000D02*
X-12572500Y+8332000D01*
X-12542500Y+8332000D01*
X-12542500Y+8359000D01*
X-12555500Y+8372000D01*
X-12572500Y+8372000D01*
X-12549500Y+8395000D02*
X-12509500Y+8395000D01*
X-12509500Y+8365000D01*
X-12536500Y+8365000D01*
X-12549500Y+8378000D01*
X-12549500Y+8395000D01*
X-12549500Y+8405000D02*
X-12509500Y+8405000D01*
X-12509500Y+8435000D01*
X-12549500Y+8435000D01*
X-12549500Y+8405000D01*
X-12549500Y+8445000D02*
X-12509500Y+8445000D01*
X-12509500Y+8475000D01*
X-12549500Y+8475000D01*
X-12549500Y+8445000D01*
X-12549500Y+8485000D02*
X-12509500Y+8485000D01*
X-12509500Y+8515000D01*
X-12549500Y+8515000D01*
X-12549500Y+8485000D01*
X-12549500Y+8525000D02*
X-12509500Y+8525000D01*
X-12509500Y+8555000D01*
X-12549500Y+8555000D01*
X-12549500Y+8525000D01*
X-12549500Y+8565000D02*
X-12509500Y+8565000D01*
X-12509500Y+8595000D01*
X-12536500Y+8595000D01*
X-12549500Y+8582000D01*
X-12549500Y+8565000D01*
X-12572500Y+8588000D02*
X-12572500Y+8628000D01*
X-12542500Y+8628000D01*
X-12542500Y+8601000D01*
X-12555500Y+8588000D01*
X-12572500Y+8588000D01*
X-12612500Y+8588000D02*
X-12582500Y+8588000D01*
X-12582500Y+8628000D01*
X-12612500Y+8628000D01*
X-12612500Y+8588000D01*
X-12652500Y+8588000D02*
X-12622500Y+8588000D01*
X-12622500Y+8628000D01*
X-12652500Y+8628000D01*
X-12652500Y+8588000D01*
X-12692500Y+8588000D02*
X-12662500Y+8588000D01*
X-12662500Y+8628000D01*
X-12692500Y+8628000D01*
X-12692500Y+8588000D01*
X-12732500Y+8588000D02*
X-12702500Y+8588000D01*
X-12702500Y+8628000D01*
X-12732500Y+8628000D01*
X-12732500Y+8588000D01*
X-12742500Y+8588000D02*
X-12742500Y+8628000D01*
X-12772500Y+8628000D01*
X-12772500Y+8601000D01*
X-12759500Y+8588000D01*
X-12742500Y+8588000D01*
X-12172000Y+10620000D02*
X-12107000Y+10620000D01*
X-12107188Y+10619000D01*
X-12105000Y+10619000D01*
X-12105000Y+10618000D01*
X-12105000Y+10618000D01*
X-12104000Y+10618000D01*
X-12104000Y+10617000D01*
X-12103000Y+10617000D01*
X-12103000Y+10579000D01*
X-12104000Y+10578000D01*
X-12104000Y+10577000D01*
X-12105000Y+10577000D01*
X-12105000Y+10576000D01*
X-12106000Y+10576200D01*
X-12106000Y+10576000D01*
X-12107000Y+10575692D01*
X-12107000Y+10576000D01*
X-12107188Y+10576000D01*
X-12107000Y+10575000D01*
X-12172000Y+10575000D01*
X-12173000Y+10576000D01*
X-12173000Y+10575692D01*
X-12174000Y+10575692D01*
X-12174000Y+10576000D01*
X-12174000Y+10576000D01*
X-12174498Y+10576200D01*
X-12175000Y+10576000D01*
X-12175000Y+10577000D01*
X-12176000Y+10577000D01*
X-12176000Y+10578000D01*
X-12177000Y+10578000D01*
X-12177000Y+10617000D01*
X-12176000Y+10617000D01*
X-12176000Y+10618000D01*
X-12175000Y+10618000D01*
X-12175000Y+10619000D01*
X-12173000Y+10619000D01*
X-12172000Y+10620000D01*
X-12172000Y+10425000D02*
X-12107000Y+10425000D01*
X-12107188Y+10424000D01*
X-12107000Y+10424000D01*
X-12107000Y+10424308D01*
X-12106000Y+10424000D01*
X-12106000Y+10423800D01*
X-12105000Y+10424000D01*
X-12105000Y+10423000D01*
X-12105000Y+10423000D01*
X-12104000Y+10423000D01*
X-12104000Y+10422000D01*
X-12103000Y+10421000D01*
X-12103000Y+10421000D01*
X-12103000Y+10383000D01*
X-12104000Y+10383000D01*
X-12104000Y+10382000D01*
X-12105000Y+10382000D01*
X-12105000Y+10381000D01*
X-12107188Y+10381000D01*
X-12107000Y+10380000D01*
X-12172000Y+10380000D01*
X-12173000Y+10381000D01*
X-12175000Y+10381000D01*
X-12175000Y+10382000D01*
X-12176000Y+10382000D01*
X-12176000Y+10383000D01*
X-12177000Y+10383000D01*
X-12177000Y+10422000D01*
X-12176000Y+10422000D01*
X-12176000Y+10423000D01*
X-12175000Y+10423000D01*
X-12175000Y+10424000D01*
X-12174498Y+10423800D01*
X-12174000Y+10424000D01*
X-12174000Y+10424000D01*
X-12174000Y+10424308D01*
X-12173000Y+10424308D01*
X-12173000Y+10424000D01*
X-12172000Y+10425000D01*
X-11897000Y+10617000D02*
X-11896000Y+10617000D01*
X-11896000Y+10618000D01*
X-11895000Y+10618000D01*
X-11895000Y+10619000D01*
X-11892812Y+10619000D01*
X-11893000Y+10620000D01*
X-11828000Y+10620000D01*
X-11827000Y+10619000D01*
X-11825000Y+10619000D01*
X-11825000Y+10618000D01*
X-11824000Y+10618000D01*
X-11824000Y+10617000D01*
X-11823000Y+10617000D01*
X-11823000Y+10578000D01*
X-11824000Y+10578000D01*
X-11824000Y+10577000D01*
X-11825000Y+10577000D01*
X-11825000Y+10576000D01*
X-11825502Y+10576200D01*
X-11826000Y+10576000D01*
X-11826000Y+10576000D01*
X-11826000Y+10575692D01*
X-11827000Y+10575692D01*
X-11827000Y+10576000D01*
X-11828000Y+10575000D01*
X-11893000Y+10575000D01*
X-11892812Y+10576000D01*
X-11893000Y+10576000D01*
X-11893000Y+10575692D01*
X-11894000Y+10576000D01*
X-11894000Y+10576200D01*
X-11895000Y+10576000D01*
X-11895000Y+10577000D01*
X-11895000Y+10577000D01*
X-11896000Y+10577000D01*
X-11896000Y+10578000D01*
X-11897000Y+10579000D01*
X-11897000Y+10579000D01*
X-11897000Y+10617000D01*
X-11828000Y+10425000D02*
X-11827000Y+10424000D01*
X-11827000Y+10424308D01*
X-11826000Y+10424308D01*
X-11826000Y+10424000D01*
X-11826000Y+10424000D01*
X-11825502Y+10423800D01*
X-11825000Y+10424000D01*
X-11825000Y+10423000D01*
X-11824000Y+10423000D01*
X-11824000Y+10422000D01*
X-11823000Y+10422000D01*
X-11823000Y+10383000D01*
X-11824000Y+10383000D01*
X-11824000Y+10382000D01*
X-11825000Y+10382000D01*
X-11825000Y+10381000D01*
X-11827000Y+10381000D01*
X-11828000Y+10380000D01*
X-11893000Y+10380000D01*
X-11892812Y+10381000D01*
X-11895000Y+10381000D01*
X-11895000Y+10382000D01*
X-11895000Y+10382000D01*
X-11896000Y+10382000D01*
X-11896000Y+10383000D01*
X-11897000Y+10383000D01*
X-11897000Y+10421000D01*
X-11896000Y+10422000D01*
X-11896000Y+10423000D01*
X-11895000Y+10423000D01*
X-11895000Y+10424000D01*
X-11894000Y+10423800D01*
X-11894000Y+10424000D01*
X-11893000Y+10424308D01*
X-11893000Y+10424000D01*
X-11892812Y+10424000D01*
X-11893000Y+10425000D01*
X-11828000Y+10425000D01*
X-11828000Y+10555000D02*
X-11827000Y+10554000D01*
X-11826000Y+10554000D01*
X-11826000Y+10554000D01*
X-11825000Y+10554000D01*
X-11825000Y+10553000D01*
X-11824000Y+10553000D01*
X-11824000Y+10552000D01*
X-11823000Y+10552000D01*
X-11823000Y+10513208D01*
X-11824000Y+10513000D01*
X-11824000Y+10512192D01*
X-11825000Y+10512000D01*
X-11825000Y+10511000D01*
X-11827000Y+10511000D01*
X-11828000Y+10510000D01*
X-11893000Y+10510000D01*
X-11892812Y+10511000D01*
X-11895000Y+10511000D01*
X-11895000Y+10512000D01*
X-11895000Y+10512000D01*
X-11896000Y+10512000D01*
X-11896000Y+10512000D01*
X-11896000Y+10513208D01*
X-11897000Y+10513000D01*
X-11897000Y+10552000D01*
X-11896000Y+10552000D01*
X-11896000Y+10553000D01*
X-11895000Y+10553000D01*
X-11895000Y+10554000D01*
X-11894000Y+10554000D01*
X-11894000Y+10554000D01*
X-11892812Y+10554000D01*
X-11893000Y+10555000D01*
X-11828000Y+10555000D01*
X-11828000Y+10490000D02*
X-11827000Y+10489000D01*
X-11825000Y+10489000D01*
X-11825000Y+10488000D01*
X-11824000Y+10487808D01*
X-11824000Y+10487000D01*
X-11823000Y+10486792D01*
X-11823000Y+10448000D01*
X-11824000Y+10448000D01*
X-11824000Y+10447000D01*
X-11825000Y+10447000D01*
X-11825000Y+10446000D01*
X-11826000Y+10446000D01*
X-11826000Y+10446000D01*
X-11827000Y+10446000D01*
X-11828000Y+10445000D01*
X-11893000Y+10445000D01*
X-11892812Y+10446000D01*
X-11894000Y+10446000D01*
X-11894000Y+10446000D01*
X-11895000Y+10446000D01*
X-11895000Y+10447000D01*
X-11895000Y+10447000D01*
X-11896000Y+10447000D01*
X-11896000Y+10448000D01*
X-11897000Y+10448000D01*
X-11897000Y+10487000D01*
X-11896000Y+10486792D01*
X-11896000Y+10488000D01*
X-11895000Y+10488000D01*
X-11895000Y+10489000D01*
X-11892812Y+10489000D01*
X-11893000Y+10490000D01*
X-11828000Y+10490000D01*
X-12172000Y+10555000D02*
X-12107000Y+10555000D01*
X-12107188Y+10554000D01*
X-12106000Y+10554000D01*
X-12106000Y+10554000D01*
X-12105000Y+10554000D01*
X-12105000Y+10553000D01*
X-12105000Y+10553000D01*
X-12104000Y+10553000D01*
X-12104000Y+10552000D01*
X-12103000Y+10552000D01*
X-12103000Y+10513000D01*
X-12104000Y+10513208D01*
X-12104000Y+10512000D01*
X-12105000Y+10512000D01*
X-12105000Y+10511000D01*
X-12107188Y+10511000D01*
X-12107000Y+10510000D01*
X-12172000Y+10510000D01*
X-12173000Y+10511000D01*
X-12175000Y+10511000D01*
X-12175000Y+10512000D01*
X-12176000Y+10512192D01*
X-12176000Y+10513000D01*
X-12177000Y+10513208D01*
X-12177000Y+10552000D01*
X-12176000Y+10552000D01*
X-12176000Y+10553000D01*
X-12175000Y+10553000D01*
X-12175000Y+10554000D01*
X-12174000Y+10554000D01*
X-12174000Y+10554000D01*
X-12173000Y+10554000D01*
X-12172000Y+10555000D01*
X-12172000Y+10490000D02*
X-12107000Y+10490000D01*
X-12107188Y+10489000D01*
X-12105000Y+10489000D01*
X-12105000Y+10488000D01*
X-12105000Y+10488000D01*
X-12104000Y+10488000D01*
X-12104000Y+10488000D01*
X-12104000Y+10486792D01*
X-12103000Y+10487000D01*
X-12103000Y+10448000D01*
X-12104000Y+10448000D01*
X-12104000Y+10447000D01*
X-12105000Y+10447000D01*
X-12105000Y+10446000D01*
X-12106000Y+10446000D01*
X-12106000Y+10446000D01*
X-12107188Y+10446000D01*
X-12107000Y+10445000D01*
X-12172000Y+10445000D01*
X-12173000Y+10446000D01*
X-12174000Y+10446000D01*
X-12174000Y+10446000D01*
X-12175000Y+10446000D01*
X-12175000Y+10447000D01*
X-12176000Y+10447000D01*
X-12176000Y+10448000D01*
X-12177000Y+10448000D01*
X-12177000Y+10486792D01*
X-12176000Y+10487000D01*
X-12176000Y+10487808D01*
X-12175000Y+10488000D01*
X-12175000Y+10489000D01*
X-12173000Y+10489000D01*
X-12172000Y+10490000D01*
X-11910000Y+10384000D02*
X-11910592Y+10384000D01*
X-11910592Y+10383000D01*
X-11911000Y+10382000D01*
X-11911000Y+10381890D01*
X-11911100Y+10381000D01*
X-11911000Y+10381000D01*
X-11912000Y+10380112D01*
X-11912000Y+10379000D01*
X-11913000Y+10378000D01*
X-11913000Y+10377000D01*
X-11914000Y+10377000D01*
X-11915000Y+10376000D01*
X-11914910Y+10376000D01*
X-11915000Y+10375000D01*
X-11917000Y+10375000D01*
X-11917000Y+10374000D01*
X-11919000Y+10374000D01*
X-11919000Y+10373000D01*
X-12081000Y+10373000D01*
X-12081000Y+10374000D01*
X-12083000Y+10374000D01*
X-12083000Y+10375000D01*
X-12085000Y+10375000D01*
X-12085090Y+10376000D01*
X-12085000Y+10376000D01*
X-12086000Y+10377000D01*
X-12087000Y+10377000D01*
X-12087000Y+10378000D01*
X-12088000Y+10379000D01*
X-12088000Y+10380112D01*
X-12089000Y+10381000D01*
X-12088900Y+10381000D01*
X-12089000Y+10381890D01*
X-12089000Y+10382000D01*
X-12089408Y+10383000D01*
X-12089408Y+10384000D01*
X-12090000Y+10384000D01*
X-12090000Y+10616000D01*
X-12089408Y+10616000D01*
X-12089408Y+10617000D01*
X-12089000Y+10618000D01*
X-12089000Y+10618110D01*
X-12088900Y+10619000D01*
X-12089000Y+10619000D01*
X-12088000Y+10619888D01*
X-12088000Y+10621000D01*
X-12087000Y+10622000D01*
X-12087000Y+10623000D01*
X-12086000Y+10623000D01*
X-12085000Y+10624000D01*
X-12085090Y+10624000D01*
X-12085000Y+10625000D01*
X-12083000Y+10625000D01*
X-12083000Y+10626000D01*
X-12081000Y+10626000D01*
X-12081000Y+10627000D01*
X-11919000Y+10627000D01*
X-11919000Y+10626000D01*
X-11917000Y+10626000D01*
X-11917000Y+10625000D01*
X-11915000Y+10625000D01*
X-11914910Y+10624000D01*
X-11915000Y+10624000D01*
X-11914000Y+10623000D01*
X-11913000Y+10623000D01*
X-11913000Y+10622000D01*
X-11912000Y+10621000D01*
X-11912000Y+10619888D01*
X-11911000Y+10619000D01*
X-11911100Y+10619000D01*
X-11911000Y+10618110D01*
X-11911000Y+10618000D01*
X-11910592Y+10617000D01*
X-11910592Y+10616000D01*
X-11910000Y+10616000D01*
X-11910000Y+10384000D01*
X-11356000Y+10594000D02*
X-11356000Y+10593000D01*
X-11354902Y+10593000D01*
X-11355000Y+10592710D01*
X-11354000Y+10593000D01*
X-11354000Y+10591000D01*
X-11353000Y+10591000D01*
X-11353000Y+10559000D01*
X-11354000Y+10559000D01*
X-11354000Y+10558000D01*
X-11355000Y+10557000D01*
X-11355000Y+10557000D01*
X-11356000Y+10557000D01*
X-11356000Y+10556000D01*
X-11424000Y+10556000D01*
X-11424000Y+10556000D01*
X-11424498Y+10557000D01*
X-11425000Y+10557000D01*
X-11425000Y+10558000D01*
X-11426000Y+10558000D01*
X-11426000Y+10558000D01*
X-11427000Y+10559000D01*
X-11427000Y+10591000D01*
X-11426000Y+10591000D01*
X-11426000Y+10592000D01*
X-11425000Y+10593000D01*
X-11425000Y+10593000D01*
X-11424000Y+10593000D01*
X-11423990Y+10594000D01*
X-11356000Y+10594000D01*
X-11356000Y+10444000D02*
X-11356000Y+10444000D01*
X-11356000Y+10443000D01*
X-11355000Y+10443000D01*
X-11354000Y+10442000D01*
X-11354000Y+10442000D01*
X-11354000Y+10441000D01*
X-11353000Y+10441000D01*
X-11353000Y+10409000D01*
X-11354000Y+10409000D01*
X-11354000Y+10407000D01*
X-11355000Y+10407290D01*
X-11354902Y+10407000D01*
X-11356000Y+10407000D01*
X-11356000Y+10406000D01*
X-11423990Y+10406000D01*
X-11424000Y+10407000D01*
X-11425000Y+10407000D01*
X-11425000Y+10407000D01*
X-11426000Y+10408000D01*
X-11426000Y+10409000D01*
X-11427000Y+10409000D01*
X-11427000Y+10441000D01*
X-11426000Y+10442000D01*
X-11426000Y+10442000D01*
X-11425000Y+10442000D01*
X-11425000Y+10443000D01*
X-11424498Y+10443000D01*
X-11424000Y+10444000D01*
X-11424000Y+10444000D01*
X-11356000Y+10444000D01*
X-11422000Y+10494000D02*
X-11357000Y+10494000D01*
X-11357188Y+10493904D01*
X-11357000Y+10493904D01*
X-11357000Y+10494000D01*
X-11356000Y+10494000D01*
X-11356000Y+10493000D01*
X-11355000Y+10493000D01*
X-11355000Y+10493000D01*
X-11354000Y+10493000D01*
X-11354000Y+10491000D01*
X-11353000Y+10491000D01*
X-11353000Y+10459000D01*
X-11354000Y+10459000D01*
X-11354000Y+10458000D01*
X-11355000Y+10457000D01*
X-11355000Y+10457000D01*
X-11356000Y+10457000D01*
X-11356000Y+10456312D01*
X-11357000Y+10456000D01*
X-11357000Y+10456000D01*
X-11424000Y+10456000D01*
X-11424000Y+10456312D01*
X-11423990Y+10456000D01*
X-11424000Y+10456000D01*
X-11424498Y+10457000D01*
X-11425000Y+10457000D01*
X-11425000Y+10458000D01*
X-11426000Y+10458000D01*
X-11426000Y+10458000D01*
X-11427000Y+10459000D01*
X-11427000Y+10491000D01*
X-11426000Y+10491000D01*
X-11426000Y+10492000D01*
X-11425000Y+10493000D01*
X-11425000Y+10493000D01*
X-11424000Y+10493000D01*
X-11423990Y+10494000D01*
X-11423000Y+10494000D01*
X-11423000Y+10493904D01*
X-11422000Y+10494000D01*
X-11357000Y+10544000D02*
X-11356000Y+10543688D01*
X-11356000Y+10543000D01*
X-11355000Y+10543000D01*
X-11354000Y+10542000D01*
X-11354000Y+10542000D01*
X-11354000Y+10541000D01*
X-11353000Y+10541000D01*
X-11353000Y+10509000D01*
X-11354000Y+10509000D01*
X-11354000Y+10507000D01*
X-11355000Y+10507000D01*
X-11355000Y+10507000D01*
X-11356000Y+10507000D01*
X-11356000Y+10506000D01*
X-11357000Y+10506000D01*
X-11357000Y+10506096D01*
X-11357188Y+10506096D01*
X-11357000Y+10506000D01*
X-11422000Y+10506000D01*
X-11423000Y+10506096D01*
X-11423000Y+10506000D01*
X-11423990Y+10506000D01*
X-11424000Y+10507000D01*
X-11425000Y+10507000D01*
X-11425000Y+10507000D01*
X-11426000Y+10508000D01*
X-11426000Y+10509000D01*
X-11427000Y+10509000D01*
X-11427000Y+10541000D01*
X-11426000Y+10542000D01*
X-11426000Y+10542000D01*
X-11425000Y+10542000D01*
X-11425000Y+10543000D01*
X-11424498Y+10543000D01*
X-11424000Y+10544000D01*
X-11423990Y+10544000D01*
X-11424000Y+10543688D01*
X-11424000Y+10544000D01*
X-11357000Y+10544000D01*
X-11076010Y+10594000D02*
X-11076000Y+10593000D01*
X-11075000Y+10593000D01*
X-11075000Y+10593000D01*
X-11074000Y+10592000D01*
X-11074000Y+10591000D01*
X-11073000Y+10591000D01*
X-11073000Y+10559000D01*
X-11074000Y+10558000D01*
X-11074000Y+10558000D01*
X-11075000Y+10558000D01*
X-11075000Y+10557000D01*
X-11075502Y+10557000D01*
X-11076000Y+10556000D01*
X-11076000Y+10556000D01*
X-11144000Y+10556000D01*
X-11144000Y+10556000D01*
X-11144000Y+10557000D01*
X-11145000Y+10557000D01*
X-11146000Y+10558000D01*
X-11146000Y+10558000D01*
X-11146000Y+10559000D01*
X-11147000Y+10559000D01*
X-11147000Y+10591000D01*
X-11146000Y+10591000D01*
X-11146000Y+10593000D01*
X-11145000Y+10592710D01*
X-11145098Y+10593000D01*
X-11144000Y+10593000D01*
X-11144000Y+10594000D01*
X-11076010Y+10594000D01*
X-11076000Y+10544000D02*
X-11076000Y+10543688D01*
X-11076010Y+10544000D01*
X-11076000Y+10544000D01*
X-11075502Y+10543000D01*
X-11075000Y+10543000D01*
X-11075000Y+10542000D01*
X-11074000Y+10542000D01*
X-11074000Y+10542000D01*
X-11073000Y+10541000D01*
X-11073000Y+10509000D01*
X-11074000Y+10509000D01*
X-11074000Y+10508000D01*
X-11075000Y+10507000D01*
X-11075000Y+10507000D01*
X-11076000Y+10507000D01*
X-11076010Y+10506000D01*
X-11077000Y+10506000D01*
X-11077000Y+10506096D01*
X-11078000Y+10506000D01*
X-11143000Y+10506000D01*
X-11142812Y+10506096D01*
X-11143000Y+10506096D01*
X-11143000Y+10506000D01*
X-11144000Y+10506000D01*
X-11144000Y+10507000D01*
X-11145000Y+10507000D01*
X-11145000Y+10507000D01*
X-11146000Y+10507000D01*
X-11146000Y+10509000D01*
X-11147000Y+10509000D01*
X-11147000Y+10541000D01*
X-11146000Y+10541000D01*
X-11146000Y+10542000D01*
X-11145000Y+10543000D01*
X-11145000Y+10543000D01*
X-11144000Y+10543000D01*
X-11144000Y+10543688D01*
X-11143000Y+10544000D01*
X-11143000Y+10544000D01*
X-11076000Y+10544000D01*
X-11078000Y+10494000D02*
X-11077000Y+10493904D01*
X-11077000Y+10494000D01*
X-11076010Y+10494000D01*
X-11076000Y+10493000D01*
X-11075000Y+10493000D01*
X-11075000Y+10493000D01*
X-11074000Y+10492000D01*
X-11074000Y+10491000D01*
X-11073000Y+10491000D01*
X-11073000Y+10459000D01*
X-11074000Y+10458000D01*
X-11074000Y+10458000D01*
X-11075000Y+10458000D01*
X-11075000Y+10457000D01*
X-11075502Y+10457000D01*
X-11076000Y+10456000D01*
X-11076010Y+10456000D01*
X-11076000Y+10456312D01*
X-11076000Y+10456000D01*
X-11143000Y+10456000D01*
X-11144000Y+10456312D01*
X-11144000Y+10457000D01*
X-11145000Y+10457000D01*
X-11146000Y+10458000D01*
X-11146000Y+10458000D01*
X-11146000Y+10459000D01*
X-11147000Y+10459000D01*
X-11147000Y+10491000D01*
X-11146000Y+10491000D01*
X-11146000Y+10493000D01*
X-11145000Y+10493000D01*
X-11145000Y+10493000D01*
X-11144000Y+10493000D01*
X-11144000Y+10494000D01*
X-11143000Y+10494000D01*
X-11143000Y+10493904D01*
X-11142812Y+10493904D01*
X-11143000Y+10494000D01*
X-11078000Y+10494000D01*
X-11076000Y+10444000D02*
X-11076000Y+10444000D01*
X-11075502Y+10443000D01*
X-11075000Y+10443000D01*
X-11075000Y+10442000D01*
X-11074000Y+10442000D01*
X-11074000Y+10442000D01*
X-11073000Y+10441000D01*
X-11073000Y+10409000D01*
X-11074000Y+10409000D01*
X-11074000Y+10408000D01*
X-11075000Y+10407000D01*
X-11075000Y+10407000D01*
X-11076000Y+10407000D01*
X-11076010Y+10406000D01*
X-11144000Y+10406000D01*
X-11144000Y+10407000D01*
X-11145098Y+10407000D01*
X-11145000Y+10407290D01*
X-11146000Y+10407000D01*
X-11146000Y+10409000D01*
X-11147000Y+10409000D01*
X-11147000Y+10441000D01*
X-11146000Y+10441000D01*
X-11146000Y+10442000D01*
X-11145000Y+10443000D01*
X-11145000Y+10443000D01*
X-11144000Y+10443000D01*
X-11144000Y+10444000D01*
X-11076000Y+10444000D01*
X-11344000Y+10394000D02*
X-11343000Y+10394000D01*
X-11343000Y+10395098D01*
X-11342710Y+10395000D01*
X-11343000Y+10396000D01*
X-11341000Y+10396000D01*
X-11341000Y+10397000D01*
X-11309000Y+10397000D01*
X-11309000Y+10396000D01*
X-11308000Y+10396000D01*
X-11307000Y+10395000D01*
X-11307000Y+10395000D01*
X-11307000Y+10394000D01*
X-11306000Y+10394000D01*
X-11306000Y+10326000D01*
X-11306000Y+10326000D01*
X-11307000Y+10325502D01*
X-11307000Y+10325000D01*
X-11308000Y+10325000D01*
X-11308000Y+10324000D01*
X-11308000Y+10324000D01*
X-11309000Y+10323000D01*
X-11341000Y+10323000D01*
X-11341000Y+10324000D01*
X-11342000Y+10324000D01*
X-11343000Y+10325000D01*
X-11343000Y+10325000D01*
X-11343000Y+10326000D01*
X-11344000Y+10326010D01*
X-11344000Y+10394000D01*
X-11294000Y+10393000D02*
X-11293688Y+10394000D01*
X-11293000Y+10394000D01*
X-11293000Y+10395000D01*
X-11292000Y+10396000D01*
X-11292000Y+10396000D01*
X-11291000Y+10396000D01*
X-11291000Y+10397000D01*
X-11259000Y+10397000D01*
X-11259000Y+10396000D01*
X-11257000Y+10396000D01*
X-11257000Y+10395000D01*
X-11257000Y+10395000D01*
X-11257000Y+10394000D01*
X-11256000Y+10394000D01*
X-11256000Y+10393000D01*
X-11256096Y+10393000D01*
X-11256096Y+10392812D01*
X-11256000Y+10393000D01*
X-11256000Y+10328000D01*
X-11256096Y+10327000D01*
X-11256000Y+10327000D01*
X-11256000Y+10326010D01*
X-11257000Y+10326000D01*
X-11257000Y+10325000D01*
X-11257000Y+10325000D01*
X-11258000Y+10324000D01*
X-11259000Y+10324000D01*
X-11259000Y+10323000D01*
X-11291000Y+10323000D01*
X-11292000Y+10324000D01*
X-11292000Y+10324000D01*
X-11292000Y+10325000D01*
X-11293000Y+10325000D01*
X-11293000Y+10325502D01*
X-11294000Y+10326000D01*
X-11294000Y+10326010D01*
X-11293688Y+10326000D01*
X-11294000Y+10326000D01*
X-11294000Y+10393000D01*
X-11244000Y+10328000D02*
X-11244000Y+10393000D01*
X-11243904Y+10392812D01*
X-11243904Y+10393000D01*
X-11244000Y+10393000D01*
X-11244000Y+10394000D01*
X-11243000Y+10394000D01*
X-11243000Y+10395000D01*
X-11243000Y+10395000D01*
X-11243000Y+10396000D01*
X-11241000Y+10396000D01*
X-11241000Y+10397000D01*
X-11209000Y+10397000D01*
X-11209000Y+10396000D01*
X-11208000Y+10396000D01*
X-11207000Y+10395000D01*
X-11207000Y+10395000D01*
X-11207000Y+10394000D01*
X-11206312Y+10394000D01*
X-11206000Y+10393000D01*
X-11206000Y+10393000D01*
X-11206000Y+10326000D01*
X-11206312Y+10326000D01*
X-11206000Y+10326010D01*
X-11206000Y+10326000D01*
X-11207000Y+10325502D01*
X-11207000Y+10325000D01*
X-11208000Y+10325000D01*
X-11208000Y+10324000D01*
X-11208000Y+10324000D01*
X-11209000Y+10323000D01*
X-11241000Y+10323000D01*
X-11241000Y+10324000D01*
X-11242000Y+10324000D01*
X-11243000Y+10325000D01*
X-11243000Y+10325000D01*
X-11243000Y+10326000D01*
X-11244000Y+10326010D01*
X-11244000Y+10327000D01*
X-11243904Y+10327000D01*
X-11244000Y+10328000D01*
X-11194000Y+10394000D02*
X-11194000Y+10394000D01*
X-11193000Y+10394000D01*
X-11193000Y+10395000D01*
X-11192000Y+10396000D01*
X-11192000Y+10396000D01*
X-11191000Y+10396000D01*
X-11191000Y+10397000D01*
X-11159000Y+10397000D01*
X-11159000Y+10396000D01*
X-11157000Y+10396000D01*
X-11157290Y+10395000D01*
X-11157000Y+10395098D01*
X-11157000Y+10394000D01*
X-11156000Y+10394000D01*
X-11156000Y+10326010D01*
X-11157000Y+10326000D01*
X-11157000Y+10325000D01*
X-11157000Y+10325000D01*
X-11158000Y+10324000D01*
X-11159000Y+10324000D01*
X-11159000Y+10323000D01*
X-11191000Y+10323000D01*
X-11192000Y+10324000D01*
X-11192000Y+10324000D01*
X-11192000Y+10325000D01*
X-11193000Y+10325000D01*
X-11193000Y+10325502D01*
X-11194000Y+10326000D01*
X-11194000Y+10326000D01*
X-11194000Y+10394000D01*
X-11344000Y+10673990D02*
X-11343000Y+10674000D01*
X-11343000Y+10675000D01*
X-11343000Y+10675000D01*
X-11342000Y+10676000D01*
X-11341000Y+10676000D01*
X-11341000Y+10677000D01*
X-11309000Y+10677000D01*
X-11308000Y+10676000D01*
X-11308000Y+10676000D01*
X-11308000Y+10675000D01*
X-11307000Y+10675000D01*
X-11307000Y+10674498D01*
X-11306000Y+10674000D01*
X-11306000Y+10674000D01*
X-11306000Y+10606000D01*
X-11306000Y+10606000D01*
X-11307000Y+10606000D01*
X-11307000Y+10605000D01*
X-11308000Y+10604000D01*
X-11308000Y+10604000D01*
X-11309000Y+10604000D01*
X-11309000Y+10603000D01*
X-11341000Y+10603000D01*
X-11341000Y+10604000D01*
X-11343000Y+10604000D01*
X-11342710Y+10605000D01*
X-11343000Y+10604902D01*
X-11343000Y+10606000D01*
X-11344000Y+10606000D01*
X-11344000Y+10673990D01*
X-11194000Y+10674000D02*
X-11194000Y+10674000D01*
X-11193000Y+10674498D01*
X-11193000Y+10675000D01*
X-11192000Y+10675000D01*
X-11192000Y+10676000D01*
X-11192000Y+10676000D01*
X-11191000Y+10677000D01*
X-11159000Y+10677000D01*
X-11159000Y+10676000D01*
X-11158000Y+10676000D01*
X-11157000Y+10675000D01*
X-11157000Y+10675000D01*
X-11157000Y+10674000D01*
X-11156000Y+10673990D01*
X-11156000Y+10606000D01*
X-11157000Y+10606000D01*
X-11157000Y+10604902D01*
X-11157290Y+10605000D01*
X-11157000Y+10604000D01*
X-11159000Y+10604000D01*
X-11159000Y+10603000D01*
X-11191000Y+10603000D01*
X-11191000Y+10604000D01*
X-11192000Y+10604000D01*
X-11193000Y+10605000D01*
X-11193000Y+10605000D01*
X-11193000Y+10606000D01*
X-11194000Y+10606000D01*
X-11194000Y+10674000D01*
X-11244000Y+10672000D02*
X-11243904Y+10673000D01*
X-11244000Y+10673000D01*
X-11244000Y+10673990D01*
X-11243000Y+10674000D01*
X-11243000Y+10675000D01*
X-11243000Y+10675000D01*
X-11242000Y+10676000D01*
X-11241000Y+10676000D01*
X-11241000Y+10677000D01*
X-11209000Y+10677000D01*
X-11208000Y+10676000D01*
X-11208000Y+10676000D01*
X-11208000Y+10675000D01*
X-11207000Y+10675000D01*
X-11207000Y+10674498D01*
X-11206000Y+10674000D01*
X-11206000Y+10673990D01*
X-11206312Y+10674000D01*
X-11206000Y+10674000D01*
X-11206000Y+10607000D01*
X-11206312Y+10606000D01*
X-11207000Y+10606000D01*
X-11207000Y+10605000D01*
X-11208000Y+10604000D01*
X-11208000Y+10604000D01*
X-11209000Y+10604000D01*
X-11209000Y+10603000D01*
X-11241000Y+10603000D01*
X-11241000Y+10604000D01*
X-11243000Y+10604000D01*
X-11243000Y+10605000D01*
X-11243000Y+10605000D01*
X-11243000Y+10606000D01*
X-11244000Y+10606000D01*
X-11244000Y+10607000D01*
X-11243904Y+10607000D01*
X-11243904Y+10607188D01*
X-11244000Y+10607000D01*
X-11244000Y+10672000D01*
X-11294000Y+10674000D02*
X-11293688Y+10674000D01*
X-11294000Y+10673990D01*
X-11294000Y+10674000D01*
X-11293000Y+10674498D01*
X-11293000Y+10675000D01*
X-11292000Y+10675000D01*
X-11292000Y+10676000D01*
X-11292000Y+10676000D01*
X-11291000Y+10677000D01*
X-11259000Y+10677000D01*
X-11259000Y+10676000D01*
X-11258000Y+10676000D01*
X-11257000Y+10675000D01*
X-11257000Y+10675000D01*
X-11257000Y+10674000D01*
X-11256000Y+10673990D01*
X-11256000Y+10673000D01*
X-11256096Y+10673000D01*
X-11256000Y+10672000D01*
X-11256000Y+10607000D01*
X-11256096Y+10607188D01*
X-11256096Y+10607000D01*
X-11256000Y+10607000D01*
X-11256000Y+10606000D01*
X-11257000Y+10606000D01*
X-11257000Y+10605000D01*
X-11257000Y+10605000D01*
X-11257000Y+10604000D01*
X-11259000Y+10604000D01*
X-11259000Y+10603000D01*
X-11291000Y+10603000D01*
X-11291000Y+10604000D01*
X-11292000Y+10604000D01*
X-11293000Y+10605000D01*
X-11293000Y+10605000D01*
X-11293000Y+10606000D01*
X-11293688Y+10606000D01*
X-11294000Y+10607000D01*
X-11294000Y+10607000D01*
X-11294000Y+10674000D01*
X-11341000Y+10582000D02*
X-11340000Y+10583000D01*
X-11340000Y+10584000D01*
X-11339408Y+10585000D01*
X-11339000Y+10585000D01*
X-11339000Y+10586106D01*
X-11338000Y+10587000D01*
X-11338000Y+10588000D01*
X-11337000Y+10588000D01*
X-11336106Y+10589000D01*
X-11335000Y+10589000D01*
X-11335000Y+10589408D01*
X-11334000Y+10590000D01*
X-11333000Y+10590000D01*
X-11332000Y+10591000D01*
X-11168000Y+10591000D01*
X-11167000Y+10590000D01*
X-11166000Y+10590000D01*
X-11165000Y+10589408D01*
X-11165000Y+10589000D01*
X-11163894Y+10589000D01*
X-11163000Y+10588000D01*
X-11162000Y+10588000D01*
X-11162000Y+10587000D01*
X-11161000Y+10586106D01*
X-11161000Y+10585000D01*
X-11160592Y+10585000D01*
X-11160000Y+10584000D01*
X-11160000Y+10583000D01*
X-11159000Y+10582000D01*
X-11159000Y+10418000D01*
X-11160000Y+10417000D01*
X-11160000Y+10416000D01*
X-11160592Y+10415000D01*
X-11161000Y+10415000D01*
X-11161000Y+10413894D01*
X-11162000Y+10413000D01*
X-11162000Y+10412000D01*
X-11163000Y+10412000D01*
X-11163894Y+10411000D01*
X-11165000Y+10411000D01*
X-11165000Y+10410592D01*
X-11166000Y+10410000D01*
X-11167000Y+10410000D01*
X-11168000Y+10409000D01*
X-11332000Y+10409000D01*
X-11333000Y+10410000D01*
X-11334000Y+10410000D01*
X-11335000Y+10410592D01*
X-11335000Y+10411000D01*
X-11336106Y+10411000D01*
X-11337000Y+10412000D01*
X-11338000Y+10412000D01*
X-11338000Y+10413000D01*
X-11339000Y+10413894D01*
X-11339000Y+10415000D01*
X-11339408Y+10415000D01*
X-11340000Y+10416000D01*
X-11340000Y+10417000D01*
X-11341000Y+10418000D01*
X-11341000Y+10582000D01*
X-10612000Y+10490000D02*
X-10611000Y+10489000D01*
X-10610000Y+10489000D01*
X-10609000Y+10488000D01*
X-10608000Y+10488000D01*
X-10607000Y+10487300D01*
X-10607000Y+10487000D01*
X-10605000Y+10485000D01*
X-10604902Y+10484506D01*
X-10605000Y+10483998D01*
X-10604000Y+10483000D01*
X-10604000Y+10481712D01*
X-10603000Y+10481000D01*
X-10603000Y+10454000D01*
X-10604000Y+10453000D01*
X-10604000Y+10452000D01*
X-10605000Y+10451000D01*
X-10604902Y+10450000D01*
X-10605000Y+10450000D01*
X-10608000Y+10447000D01*
X-10609000Y+10447000D01*
X-10610000Y+10446000D01*
X-10611000Y+10446000D01*
X-10612000Y+10445390D01*
X-10612000Y+10445000D01*
X-10667000Y+10445000D01*
X-10668000Y+10445390D01*
X-10669000Y+10446000D01*
X-10670000Y+10446000D01*
X-10671000Y+10447000D01*
X-10672000Y+10447000D01*
X-10673000Y+10448000D01*
X-10674000Y+10448000D01*
X-10674000Y+10449000D01*
X-10675000Y+10450000D01*
X-10675000Y+10451000D01*
X-10676000Y+10452000D01*
X-10676000Y+10453000D01*
X-10677000Y+10454000D01*
X-10677000Y+10481000D01*
X-10676000Y+10481712D01*
X-10676000Y+10483000D01*
X-10675000Y+10483998D01*
X-10675000Y+10485000D01*
X-10674000Y+10486000D01*
X-10674000Y+10487000D01*
X-10673000Y+10487000D01*
X-10673000Y+10487300D01*
X-10672000Y+10488000D01*
X-10671000Y+10488000D01*
X-10670000Y+10489000D01*
X-10669000Y+10489000D01*
X-10668000Y+10490000D01*
X-10612000Y+10490000D01*
X-10333000Y+10555000D02*
X-10332000Y+10554610D01*
X-10331000Y+10554000D01*
X-10330000Y+10554000D01*
X-10329000Y+10553000D01*
X-10328000Y+10553000D01*
X-10327000Y+10552000D01*
X-10326000Y+10552000D01*
X-10326000Y+10551000D01*
X-10325000Y+10550000D01*
X-10325000Y+10549000D01*
X-10324000Y+10548000D01*
X-10324000Y+10547000D01*
X-10323000Y+10546000D01*
X-10323000Y+10519000D01*
X-10324000Y+10518288D01*
X-10324000Y+10517000D01*
X-10325000Y+10516002D01*
X-10325000Y+10515000D01*
X-10326000Y+10514000D01*
X-10326000Y+10513000D01*
X-10327000Y+10513000D01*
X-10327000Y+10512700D01*
X-10328000Y+10512000D01*
X-10329000Y+10512000D01*
X-10330000Y+10511000D01*
X-10331000Y+10511000D01*
X-10332000Y+10510000D01*
X-10388000Y+10510000D01*
X-10389000Y+10511000D01*
X-10390000Y+10511000D01*
X-10391000Y+10512000D01*
X-10392000Y+10512000D01*
X-10393000Y+10512700D01*
X-10393000Y+10513000D01*
X-10395000Y+10515000D01*
X-10395098Y+10515494D01*
X-10395000Y+10516002D01*
X-10396000Y+10517000D01*
X-10396000Y+10518288D01*
X-10397000Y+10519000D01*
X-10397000Y+10546000D01*
X-10396000Y+10547000D01*
X-10396000Y+10548000D01*
X-10395000Y+10549000D01*
X-10395098Y+10550000D01*
X-10395000Y+10550000D01*
X-10392000Y+10553000D01*
X-10391000Y+10553000D01*
X-10390000Y+10554000D01*
X-10389000Y+10554000D01*
X-10388000Y+10554610D01*
X-10388000Y+10555000D01*
X-10333000Y+10555000D01*
X-10612000Y+10555000D02*
X-10612000Y+10554610D01*
X-10611000Y+10554000D01*
X-10610000Y+10554000D01*
X-10609000Y+10553000D01*
X-10608000Y+10553000D01*
X-10605000Y+10550000D01*
X-10604902Y+10550000D01*
X-10605000Y+10549000D01*
X-10604000Y+10548000D01*
X-10604000Y+10547000D01*
X-10603000Y+10546000D01*
X-10603000Y+10519000D01*
X-10604000Y+10518288D01*
X-10604000Y+10517000D01*
X-10605000Y+10516002D01*
X-10604902Y+10515494D01*
X-10605000Y+10515000D01*
X-10607000Y+10513000D01*
X-10607000Y+10512700D01*
X-10608000Y+10512000D01*
X-10609000Y+10512000D01*
X-10610000Y+10511000D01*
X-10611000Y+10511000D01*
X-10612000Y+10510000D01*
X-10668000Y+10510000D01*
X-10669000Y+10511000D01*
X-10670000Y+10511000D01*
X-10671000Y+10512000D01*
X-10672000Y+10512000D01*
X-10673000Y+10512700D01*
X-10673000Y+10513000D01*
X-10674000Y+10513000D01*
X-10674000Y+10514000D01*
X-10675000Y+10515000D01*
X-10675000Y+10516002D01*
X-10676000Y+10517000D01*
X-10676000Y+10518288D01*
X-10677000Y+10519000D01*
X-10677000Y+10546000D01*
X-10676000Y+10547000D01*
X-10676000Y+10548000D01*
X-10675000Y+10549000D01*
X-10675000Y+10550000D01*
X-10674000Y+10551000D01*
X-10674000Y+10552000D01*
X-10673000Y+10552000D01*
X-10672000Y+10553000D01*
X-10671000Y+10553000D01*
X-10670000Y+10554000D01*
X-10669000Y+10554000D01*
X-10668000Y+10554610D01*
X-10667000Y+10555000D01*
X-10612000Y+10555000D01*
X-10614000Y+10620000D02*
X-10614000Y+10619888D01*
X-10613000Y+10619888D01*
X-10612000Y+10620000D01*
X-10611000Y+10619000D01*
X-10610000Y+10619000D01*
X-10609000Y+10618000D01*
X-10609000Y+10618110D01*
X-10608000Y+10618000D01*
X-10605000Y+10615000D01*
X-10604902Y+10615000D01*
X-10605000Y+10614000D01*
X-10604000Y+10613000D01*
X-10604000Y+10612000D01*
X-10603000Y+10611000D01*
X-10603000Y+10584000D01*
X-10604000Y+10583312D01*
X-10604000Y+10582000D01*
X-10605000Y+10581000D01*
X-10604902Y+10580000D01*
X-10605000Y+10580000D01*
X-10606000Y+10579000D01*
X-10606000Y+10578994D01*
X-10607000Y+10579000D01*
X-10607000Y+10578000D01*
X-10608000Y+10577000D01*
X-10609000Y+10577000D01*
X-10610000Y+10576000D01*
X-10611000Y+10576000D01*
X-10612000Y+10575000D01*
X-10668000Y+10575000D01*
X-10669000Y+10576000D01*
X-10670000Y+10576000D01*
X-10671000Y+10577000D01*
X-10672000Y+10577000D01*
X-10674000Y+10579000D01*
X-10674000Y+10579000D01*
X-10675000Y+10580000D01*
X-10675000Y+10581000D01*
X-10676000Y+10582000D01*
X-10676000Y+10583312D01*
X-10677000Y+10584000D01*
X-10677000Y+10611000D01*
X-10676000Y+10612000D01*
X-10676000Y+10613000D01*
X-10675000Y+10614000D01*
X-10675000Y+10615000D01*
X-10674000Y+10616000D01*
X-10674000Y+10617000D01*
X-10673000Y+10617000D01*
X-10672000Y+10618000D01*
X-10672000Y+10618110D01*
X-10671000Y+10618000D01*
X-10670000Y+10619000D01*
X-10669000Y+10619000D01*
X-10668000Y+10620000D01*
X-10667000Y+10620000D01*
X-10667000Y+10619888D01*
X-10666000Y+10619888D01*
X-10665608Y+10620000D01*
X-10614000Y+10620000D01*
X-10612000Y+10425000D02*
X-10611000Y+10424000D01*
X-10610000Y+10424000D01*
X-10609000Y+10423000D01*
X-10608000Y+10423000D01*
X-10607000Y+10422000D01*
X-10607000Y+10421000D01*
X-10606000Y+10421006D01*
X-10606000Y+10421000D01*
X-10605000Y+10420000D01*
X-10604902Y+10420000D01*
X-10605000Y+10419000D01*
X-10604000Y+10418000D01*
X-10604000Y+10416688D01*
X-10603000Y+10416000D01*
X-10603000Y+10389000D01*
X-10604000Y+10388000D01*
X-10604000Y+10387000D01*
X-10605000Y+10386000D01*
X-10604902Y+10385000D01*
X-10605000Y+10385000D01*
X-10608000Y+10382000D01*
X-10609000Y+10381890D01*
X-10609000Y+10382000D01*
X-10610000Y+10381000D01*
X-10611000Y+10381000D01*
X-10612000Y+10380000D01*
X-10613000Y+10380112D01*
X-10614000Y+10380112D01*
X-10614000Y+10380000D01*
X-10665608Y+10380000D01*
X-10666000Y+10380112D01*
X-10667000Y+10380112D01*
X-10667000Y+10380000D01*
X-10668000Y+10380000D01*
X-10669000Y+10381000D01*
X-10670000Y+10381000D01*
X-10671000Y+10382000D01*
X-10672000Y+10381890D01*
X-10672000Y+10382000D01*
X-10673000Y+10383000D01*
X-10674000Y+10383000D01*
X-10674000Y+10384000D01*
X-10675000Y+10385000D01*
X-10675000Y+10386000D01*
X-10676000Y+10387000D01*
X-10676000Y+10388000D01*
X-10677000Y+10389000D01*
X-10677000Y+10416000D01*
X-10676000Y+10416688D01*
X-10676000Y+10418000D01*
X-10675000Y+10419000D01*
X-10675000Y+10420000D01*
X-10674000Y+10421000D01*
X-10674000Y+10421000D01*
X-10672000Y+10423000D01*
X-10671000Y+10423000D01*
X-10670000Y+10424000D01*
X-10669000Y+10424000D01*
X-10668000Y+10425000D01*
X-10612000Y+10425000D01*
X-10332000Y+10490000D02*
X-10331000Y+10489000D01*
X-10330000Y+10489000D01*
X-10329000Y+10488000D01*
X-10328000Y+10488000D01*
X-10327000Y+10487300D01*
X-10327000Y+10487000D01*
X-10326000Y+10487000D01*
X-10326000Y+10486000D01*
X-10325000Y+10485000D01*
X-10325000Y+10483998D01*
X-10324000Y+10483000D01*
X-10324000Y+10481712D01*
X-10323000Y+10481000D01*
X-10323000Y+10454000D01*
X-10324000Y+10453000D01*
X-10324000Y+10452000D01*
X-10325000Y+10451000D01*
X-10325000Y+10450000D01*
X-10326000Y+10449000D01*
X-10326000Y+10448000D01*
X-10327000Y+10448000D01*
X-10328000Y+10447000D01*
X-10329000Y+10447000D01*
X-10330000Y+10446000D01*
X-10331000Y+10446000D01*
X-10332000Y+10445390D01*
X-10333000Y+10445000D01*
X-10388000Y+10445000D01*
X-10388000Y+10445390D01*
X-10389000Y+10446000D01*
X-10390000Y+10446000D01*
X-10391000Y+10447000D01*
X-10392000Y+10447000D01*
X-10395000Y+10450000D01*
X-10395098Y+10450000D01*
X-10395000Y+10451000D01*
X-10396000Y+10452000D01*
X-10396000Y+10453000D01*
X-10397000Y+10454000D01*
X-10397000Y+10481000D01*
X-10396000Y+10481712D01*
X-10396000Y+10483000D01*
X-10395000Y+10483998D01*
X-10395098Y+10484506D01*
X-10395000Y+10485000D01*
X-10393000Y+10487000D01*
X-10393000Y+10487300D01*
X-10392000Y+10488000D01*
X-10391000Y+10488000D01*
X-10390000Y+10489000D01*
X-10389000Y+10489000D01*
X-10388000Y+10490000D01*
X-10332000Y+10490000D01*
X-10334392Y+10620000D02*
X-10334000Y+10619888D01*
X-10333000Y+10619888D01*
X-10333000Y+10620000D01*
X-10332000Y+10620000D01*
X-10331000Y+10619000D01*
X-10330000Y+10619000D01*
X-10329000Y+10618000D01*
X-10328000Y+10618110D01*
X-10328000Y+10618000D01*
X-10327000Y+10617000D01*
X-10326000Y+10617000D01*
X-10326000Y+10616000D01*
X-10325000Y+10615000D01*
X-10325000Y+10614000D01*
X-10324000Y+10613000D01*
X-10324000Y+10612000D01*
X-10323000Y+10611000D01*
X-10323000Y+10584000D01*
X-10324000Y+10583312D01*
X-10324000Y+10582000D01*
X-10325000Y+10581000D01*
X-10325000Y+10580000D01*
X-10326000Y+10579000D01*
X-10326000Y+10579000D01*
X-10328000Y+10577000D01*
X-10329000Y+10577000D01*
X-10330000Y+10576000D01*
X-10331000Y+10576000D01*
X-10332000Y+10575000D01*
X-10388000Y+10575000D01*
X-10389000Y+10576000D01*
X-10390000Y+10576000D01*
X-10391000Y+10577000D01*
X-10392000Y+10577000D01*
X-10393000Y+10578000D01*
X-10393000Y+10579000D01*
X-10394000Y+10578994D01*
X-10394000Y+10579000D01*
X-10395000Y+10580000D01*
X-10395098Y+10580000D01*
X-10395000Y+10581000D01*
X-10396000Y+10582000D01*
X-10396000Y+10583312D01*
X-10397000Y+10584000D01*
X-10397000Y+10611000D01*
X-10396000Y+10612000D01*
X-10396000Y+10613000D01*
X-10395000Y+10614000D01*
X-10395098Y+10615000D01*
X-10395000Y+10615000D01*
X-10392000Y+10618000D01*
X-10391000Y+10618110D01*
X-10391000Y+10618000D01*
X-10390000Y+10619000D01*
X-10389000Y+10619000D01*
X-10388000Y+10620000D01*
X-10387000Y+10619888D01*
X-10386000Y+10619888D01*
X-10386000Y+10620000D01*
X-10334392Y+10620000D01*
X-10332000Y+10425000D02*
X-10331000Y+10424000D01*
X-10330000Y+10424000D01*
X-10329000Y+10423000D01*
X-10328000Y+10423000D01*
X-10326000Y+10421000D01*
X-10326000Y+10421000D01*
X-10325000Y+10420000D01*
X-10325000Y+10419000D01*
X-10324000Y+10418000D01*
X-10324000Y+10416688D01*
X-10323000Y+10416000D01*
X-10323000Y+10389000D01*
X-10324000Y+10388000D01*
X-10324000Y+10387000D01*
X-10325000Y+10386000D01*
X-10325000Y+10385000D01*
X-10326000Y+10384000D01*
X-10326000Y+10383000D01*
X-10327000Y+10383000D01*
X-10328000Y+10382000D01*
X-10328000Y+10381890D01*
X-10329000Y+10382000D01*
X-10330000Y+10381000D01*
X-10331000Y+10381000D01*
X-10332000Y+10380000D01*
X-10333000Y+10380000D01*
X-10333000Y+10380112D01*
X-10334000Y+10380112D01*
X-10334392Y+10380000D01*
X-10386000Y+10380000D01*
X-10386000Y+10380112D01*
X-10387000Y+10380112D01*
X-10388000Y+10380000D01*
X-10389000Y+10381000D01*
X-10390000Y+10381000D01*
X-10391000Y+10382000D01*
X-10391000Y+10381890D01*
X-10392000Y+10382000D01*
X-10395000Y+10385000D01*
X-10395098Y+10385000D01*
X-10395000Y+10386000D01*
X-10396000Y+10387000D01*
X-10396000Y+10388000D01*
X-10397000Y+10389000D01*
X-10397000Y+10416000D01*
X-10396000Y+10416688D01*
X-10396000Y+10418000D01*
X-10395000Y+10419000D01*
X-10395098Y+10420000D01*
X-10395000Y+10420000D01*
X-10394000Y+10421000D01*
X-10394000Y+10421006D01*
X-10393000Y+10421000D01*
X-10393000Y+10422000D01*
X-10392000Y+10423000D01*
X-10391000Y+10423000D01*
X-10390000Y+10424000D01*
X-10389000Y+10424000D01*
X-10388000Y+10425000D01*
X-10332000Y+10425000D01*
X-10419000Y+10627000D02*
X-10419000Y+10626000D01*
X-10417000Y+10626000D01*
X-10417000Y+10625000D01*
X-10415000Y+10625000D01*
X-10414910Y+10624000D01*
X-10415000Y+10624000D01*
X-10414000Y+10623000D01*
X-10413000Y+10623000D01*
X-10413000Y+10622000D01*
X-10412000Y+10621000D01*
X-10412000Y+10619888D01*
X-10411000Y+10619000D01*
X-10411100Y+10619000D01*
X-10411000Y+10618110D01*
X-10411000Y+10618000D01*
X-10410592Y+10617000D01*
X-10410592Y+10616000D01*
X-10410000Y+10616000D01*
X-10410000Y+10384000D01*
X-10410592Y+10384000D01*
X-10410592Y+10383000D01*
X-10411000Y+10382000D01*
X-10411000Y+10381890D01*
X-10411100Y+10381000D01*
X-10411000Y+10381000D01*
X-10412000Y+10380112D01*
X-10412000Y+10379000D01*
X-10413000Y+10378000D01*
X-10413000Y+10377000D01*
X-10414000Y+10377000D01*
X-10415000Y+10376000D01*
X-10414910Y+10376000D01*
X-10415000Y+10375000D01*
X-10417000Y+10375000D01*
X-10417000Y+10374000D01*
X-10419000Y+10374000D01*
X-10419000Y+10373000D01*
X-10581000Y+10373000D01*
X-10581000Y+10374000D01*
X-10583000Y+10374000D01*
X-10583000Y+10375000D01*
X-10585000Y+10375000D01*
X-10585090Y+10376000D01*
X-10585000Y+10376000D01*
X-10586000Y+10377000D01*
X-10587000Y+10377000D01*
X-10587000Y+10378000D01*
X-10588000Y+10379000D01*
X-10588000Y+10380112D01*
X-10589000Y+10381000D01*
X-10588900Y+10381000D01*
X-10589000Y+10381890D01*
X-10589000Y+10382000D01*
X-10589408Y+10383000D01*
X-10589408Y+10384000D01*
X-10590000Y+10384000D01*
X-10590000Y+10616000D01*
X-10589408Y+10616000D01*
X-10589408Y+10617000D01*
X-10589000Y+10618000D01*
X-10589000Y+10618110D01*
X-10588900Y+10619000D01*
X-10589000Y+10619000D01*
X-10588000Y+10619888D01*
X-10588000Y+10621000D01*
X-10587000Y+10622000D01*
X-10587000Y+10623000D01*
X-10586000Y+10623000D01*
X-10585000Y+10624000D01*
X-10585090Y+10624000D01*
X-10585000Y+10625000D01*
X-10583000Y+10625000D01*
X-10583000Y+10626000D01*
X-10581000Y+10626000D01*
X-10581000Y+10627000D01*
X-10419000Y+10627000D01*
X-10487000Y+6307000D02*
X-10488000Y+6310000D01*
X-10488698Y+6313000D01*
X-10490000Y+6316000D01*
X-10493000Y+6325000D01*
X-10495000Y+6328000D01*
X-10496000Y+6331000D01*
X-10498000Y+6334000D01*
X-10500000Y+6336106D01*
X-10502000Y+6339000D01*
X-10505000Y+6341000D01*
X-10509000Y+6345000D01*
X-10512000Y+6347000D01*
X-10514606Y+6349000D01*
X-10517000Y+6351000D01*
X-10520000Y+6352000D01*
X-10522988Y+6354000D01*
X-10526000Y+6355000D01*
X-10532000Y+6357000D01*
X-10535000Y+6357000D01*
X-10538000Y+6358000D01*
X-10542000Y+6359000D01*
X-10554000Y+6359000D01*
X-10558000Y+6358000D01*
X-10561000Y+6357000D01*
X-10564000Y+6357000D01*
X-10573000Y+6354000D01*
X-10576000Y+6352000D01*
X-10579000Y+6351000D01*
X-10581408Y+6349000D01*
X-10584000Y+6347000D01*
X-10587000Y+6345000D01*
X-10591000Y+6341000D01*
X-10593600Y+6339000D01*
X-10596000Y+6336106D01*
X-10598000Y+6334000D01*
X-10599000Y+6331000D01*
X-10603000Y+6325000D01*
X-10605000Y+6319000D01*
X-10606300Y+6316000D01*
X-10607000Y+6313000D01*
X-10609000Y+6307000D01*
X-10609000Y+6193000D01*
X-10607000Y+6187000D01*
X-10606300Y+6184000D01*
X-10605000Y+6181000D01*
X-10603000Y+6175000D01*
X-10599000Y+6169000D01*
X-10598000Y+6166000D01*
X-10596000Y+6163894D01*
X-10593600Y+6161000D01*
X-10591000Y+6159000D01*
X-10587000Y+6155000D01*
X-10584000Y+6153000D01*
X-10581408Y+6151000D01*
X-10579000Y+6149000D01*
X-10576000Y+6148000D01*
X-10573000Y+6146000D01*
X-10564000Y+6143000D01*
X-10561000Y+6143000D01*
X-10558000Y+6142000D01*
X-10554000Y+6141000D01*
X-10542000Y+6141000D01*
X-10538000Y+6142000D01*
X-10535000Y+6143000D01*
X-10532000Y+6143000D01*
X-10526000Y+6145000D01*
X-10522988Y+6146000D01*
X-10520000Y+6148000D01*
X-10517000Y+6149000D01*
X-10514606Y+6151000D01*
X-10512000Y+6153000D01*
X-10509000Y+6155000D01*
X-10505000Y+6159000D01*
X-10502000Y+6161000D01*
X-10500000Y+6163894D01*
X-10498000Y+6166000D01*
X-10496000Y+6169000D01*
X-10495000Y+6172000D01*
X-10493000Y+6175000D01*
X-10490000Y+6184000D01*
X-10488698Y+6187000D01*
X-10488000Y+6190000D01*
X-10487000Y+6193000D01*
X-10487000Y+6307000D01*
X-11390652Y+6202502D02*
X-11391000Y+6297498D01*
X-11391000Y+6307000D01*
X-11393000Y+6313000D01*
X-11393700Y+6316000D01*
X-11395000Y+6319000D01*
X-11397000Y+6325000D01*
X-11401000Y+6331000D01*
X-11402000Y+6334000D01*
X-11404000Y+6336106D01*
X-11406400Y+6339000D01*
X-11409000Y+6341000D01*
X-11413000Y+6345000D01*
X-11416000Y+6347000D01*
X-11418592Y+6349000D01*
X-11421000Y+6351000D01*
X-11424000Y+6352000D01*
X-11427000Y+6354000D01*
X-11436000Y+6357000D01*
X-11439000Y+6357000D01*
X-11442000Y+6358000D01*
X-11446000Y+6359000D01*
X-11458000Y+6359000D01*
X-11462000Y+6358000D01*
X-11465000Y+6357000D01*
X-11468000Y+6357000D01*
X-11474000Y+6355000D01*
X-11477012Y+6354000D01*
X-11480000Y+6352000D01*
X-11483000Y+6351000D01*
X-11485394Y+6349000D01*
X-11488000Y+6347000D01*
X-11491000Y+6345000D01*
X-11495000Y+6341000D01*
X-11498000Y+6339000D01*
X-11500000Y+6336106D01*
X-11502000Y+6334000D01*
X-11504000Y+6331000D01*
X-11505000Y+6328000D01*
X-11507000Y+6325000D01*
X-11510000Y+6316000D01*
X-11511302Y+6313000D01*
X-11512000Y+6310000D01*
X-11513000Y+6307000D01*
X-11513000Y+6193000D01*
X-11512000Y+6190000D01*
X-11511302Y+6187000D01*
X-11510000Y+6184000D01*
X-11507000Y+6175000D01*
X-11505000Y+6172000D01*
X-11504000Y+6169000D01*
X-11502000Y+6166000D01*
X-11500000Y+6163894D01*
X-11498000Y+6161000D01*
X-11495000Y+6159000D01*
X-11491000Y+6155000D01*
X-11488000Y+6153000D01*
X-11485394Y+6151000D01*
X-11483000Y+6149000D01*
X-11480000Y+6148000D01*
X-11477012Y+6146000D01*
X-11474000Y+6145000D01*
X-11468000Y+6143000D01*
X-11465000Y+6143000D01*
X-11462000Y+6142000D01*
X-11458000Y+6141000D01*
X-11446000Y+6141000D01*
X-11442000Y+6142000D01*
X-11439000Y+6143000D01*
X-11436000Y+6143000D01*
X-11427000Y+6146000D01*
X-11424000Y+6148000D01*
X-11421000Y+6149000D01*
X-11418592Y+6151000D01*
X-11416000Y+6153000D01*
X-11413000Y+6155000D01*
X-11409000Y+6159000D01*
X-11406400Y+6161000D01*
X-11404000Y+6163894D01*
X-11402000Y+6166000D01*
X-11401000Y+6169000D01*
X-11397000Y+6175000D01*
X-11395000Y+6181000D01*
X-11393700Y+6184000D01*
X-11393000Y+6187000D01*
X-11391000Y+6193000D01*
X-11391000Y+6202502D01*
X-11390652Y+6202502D01*
X-10996000Y+6534000D02*
X-10954000Y+6534000D01*
X-10954000Y+6646000D01*
X-10996000Y+6646000D01*
X-10996000Y+6534000D01*
X-10946000Y+6534000D02*
X-10904000Y+6534000D01*
X-10904000Y+6646000D01*
X-10946000Y+6646000D01*
X-10946000Y+6534000D01*
X-10896000Y+6534000D02*
X-10854000Y+6534000D01*
X-10854000Y+6646000D01*
X-10896000Y+6646000D01*
X-10896000Y+6534000D01*
X-10846000Y+6534000D02*
X-10804000Y+6534000D01*
X-10804000Y+6646000D01*
X-10846000Y+6646000D01*
X-10846000Y+6534000D01*
X-10796000Y+6534000D02*
X-10754000Y+6534000D01*
X-10754000Y+6646000D01*
X-10796000Y+6646000D01*
X-10796000Y+6534000D01*
X-10746254Y+6534000D02*
X-10704000Y+6534000D01*
X-10704000Y+6646000D01*
X-10746254Y+6646000D01*
X-10746254Y+6534000D01*
X-10696000Y+6534000D02*
X-10654000Y+6534000D01*
X-10654000Y+6646000D01*
X-10696000Y+6646000D01*
X-10696000Y+6534000D01*
X-11046000Y+6534000D02*
X-11004000Y+6534000D01*
X-11004000Y+6646000D01*
X-11046000Y+6646000D01*
X-11046000Y+6534000D01*
X-11096000Y+6534000D02*
X-11054000Y+6534000D01*
X-11054000Y+6646000D01*
X-11096000Y+6646000D01*
X-11096000Y+6534000D01*
X-11146000Y+6534000D02*
X-11104000Y+6534000D01*
X-11104000Y+6646000D01*
X-11146000Y+6646000D01*
X-11146000Y+6534000D01*
X-11196000Y+6534000D02*
X-11154000Y+6534000D01*
X-11154000Y+6646000D01*
X-11196000Y+6646000D01*
X-11196000Y+6534000D01*
X-11246000Y+6534000D02*
X-11204000Y+6534000D01*
X-11204000Y+6646000D01*
X-11246000Y+6646000D01*
X-11246000Y+6534000D01*
X-11296000Y+6534000D02*
X-11253746Y+6534000D01*
X-11253746Y+6646000D01*
X-11296000Y+6646000D01*
X-11296000Y+6534000D01*
X-11346000Y+6534000D02*
X-11304000Y+6534000D01*
X-11304000Y+6646000D01*
X-11346000Y+6646000D01*
X-11346000Y+6534000D01*
X-11513000Y+6512890D02*
X-11512000Y+6510000D01*
X-11511302Y+6507000D01*
X-11510000Y+6503492D01*
X-11509000Y+6500000D01*
X-11508000Y+6497000D01*
X-11507000Y+6494602D01*
X-11505000Y+6491808D01*
X-11504000Y+6489000D01*
X-11502000Y+6486000D01*
X-11500000Y+6484000D01*
X-11498000Y+6481394D01*
X-11495000Y+6479108D01*
X-11493000Y+6477000D01*
X-11491000Y+6474790D01*
X-11488000Y+6473000D01*
X-11485394Y+6471000D01*
X-11483000Y+6469000D01*
X-11480000Y+6468000D01*
X-11477012Y+6467000D01*
X-11474000Y+6465000D01*
X-11465000Y+6462000D01*
X-11458000Y+6462000D01*
X-11455000Y+6461000D01*
X-11447000Y+6461000D01*
X-11445000Y+6462000D01*
X-11443000Y+6462000D01*
X-11441000Y+6462090D01*
X-11439000Y+6462000D01*
X-11438000Y+6463000D01*
X-11436000Y+6463000D01*
X-11434000Y+6464000D01*
X-11432308Y+6464000D01*
X-11431000Y+6465000D01*
X-11429000Y+6466000D01*
X-11427000Y+6466408D01*
X-11426000Y+6467000D01*
X-11424000Y+6468000D01*
X-11422402Y+6469000D01*
X-11421000Y+6469710D01*
X-11419000Y+6471000D01*
X-11418000Y+6472000D01*
X-11416000Y+6473000D01*
X-11415000Y+6474000D01*
X-11413000Y+6475000D01*
X-11411000Y+6477000D01*
X-11409194Y+6478000D01*
X-11408000Y+6480000D01*
X-11407000Y+6481000D01*
X-11406000Y+6483000D01*
X-11404000Y+6484188D01*
X-11404000Y+6616000D01*
X-11408000Y+6620000D01*
X-11409194Y+6622000D01*
X-11411000Y+6623000D01*
X-11412000Y+6623888D01*
X-11413000Y+6625000D01*
X-11415000Y+6626000D01*
X-11416000Y+6627000D01*
X-11418000Y+6628000D01*
X-11419000Y+6629000D01*
X-11421000Y+6630000D01*
X-11422402Y+6631000D01*
X-11424000Y+6632000D01*
X-11426000Y+6633000D01*
X-11427000Y+6634000D01*
X-11429000Y+6634302D01*
X-11431000Y+6635000D01*
X-11432308Y+6636000D01*
X-11434000Y+6636000D01*
X-11436000Y+6637000D01*
X-11438000Y+6637096D01*
X-11439000Y+6638000D01*
X-11445000Y+6638000D01*
X-11447000Y+6639000D01*
X-11455000Y+6639000D01*
X-11458000Y+6638000D01*
X-11462000Y+6638112D01*
X-11465000Y+6638000D01*
X-11471000Y+6636000D01*
X-11474000Y+6634810D01*
X-11477012Y+6633000D01*
X-11480000Y+6632000D01*
X-11483000Y+6631000D01*
X-11485394Y+6629000D01*
X-11488000Y+6627000D01*
X-11491000Y+6625000D01*
X-11495000Y+6621000D01*
X-11498000Y+6619000D01*
X-11500000Y+6616000D01*
X-11502000Y+6614000D01*
X-11504000Y+6611000D01*
X-11505000Y+6608000D01*
X-11507000Y+6605000D01*
X-11508000Y+6603000D01*
X-11509000Y+6599504D01*
X-11510000Y+6597000D01*
X-11511302Y+6593408D01*
X-11512000Y+6590000D01*
X-11513000Y+6587000D01*
X-11513000Y+6512890D01*
X-10487000Y+6512890D02*
X-10488000Y+6510000D01*
X-10488698Y+6507000D01*
X-10490000Y+6503492D01*
X-10491000Y+6500000D01*
X-10492000Y+6497000D01*
X-10493000Y+6494602D01*
X-10495000Y+6491808D01*
X-10496000Y+6489000D01*
X-10498000Y+6486000D01*
X-10500000Y+6484000D01*
X-10502000Y+6481394D01*
X-10505000Y+6479108D01*
X-10507000Y+6477000D01*
X-10509000Y+6474790D01*
X-10512000Y+6473000D01*
X-10514606Y+6471000D01*
X-10517000Y+6469000D01*
X-10520000Y+6468000D01*
X-10522988Y+6467000D01*
X-10526000Y+6465000D01*
X-10535000Y+6462000D01*
X-10542000Y+6462000D01*
X-10545000Y+6461000D01*
X-10553000Y+6461000D01*
X-10555000Y+6462000D01*
X-10557000Y+6462000D01*
X-10559000Y+6462090D01*
X-10561000Y+6462000D01*
X-10562000Y+6463000D01*
X-10564000Y+6463000D01*
X-10566000Y+6464000D01*
X-10567692Y+6464000D01*
X-10569000Y+6465000D01*
X-10571000Y+6466000D01*
X-10573000Y+6466408D01*
X-10574000Y+6467000D01*
X-10576000Y+6468000D01*
X-10577598Y+6469000D01*
X-10579000Y+6469710D01*
X-10581000Y+6471000D01*
X-10582000Y+6472000D01*
X-10584000Y+6473000D01*
X-10585000Y+6474000D01*
X-10587000Y+6475000D01*
X-10589000Y+6477000D01*
X-10590806Y+6478000D01*
X-10592000Y+6480000D01*
X-10593000Y+6481000D01*
X-10594000Y+6483000D01*
X-10596000Y+6484188D01*
X-10596000Y+6616000D01*
X-10592000Y+6620000D01*
X-10590806Y+6622000D01*
X-10589000Y+6623000D01*
X-10588000Y+6623888D01*
X-10587000Y+6625000D01*
X-10585000Y+6626000D01*
X-10584000Y+6627000D01*
X-10582000Y+6628000D01*
X-10581000Y+6629000D01*
X-10579000Y+6630000D01*
X-10577598Y+6631000D01*
X-10576000Y+6632000D01*
X-10574000Y+6633000D01*
X-10573000Y+6634000D01*
X-10571000Y+6634302D01*
X-10569000Y+6635000D01*
X-10567692Y+6636000D01*
X-10566000Y+6636000D01*
X-10564000Y+6637000D01*
X-10562000Y+6637096D01*
X-10561000Y+6638000D01*
X-10555000Y+6638000D01*
X-10553000Y+6639000D01*
X-10545000Y+6639000D01*
X-10542000Y+6638000D01*
X-10538000Y+6638112D01*
X-10535000Y+6638000D01*
X-10529000Y+6636000D01*
X-10526000Y+6634810D01*
X-10522988Y+6633000D01*
X-10520000Y+6632000D01*
X-10517000Y+6631000D01*
X-10514606Y+6629000D01*
X-10512000Y+6627000D01*
X-10509000Y+6625000D01*
X-10505000Y+6621000D01*
X-10502000Y+6619000D01*
X-10500000Y+6616000D01*
X-10498000Y+6614000D01*
X-10496000Y+6611000D01*
X-10495000Y+6608000D01*
X-10493000Y+6605000D01*
X-10492000Y+6603000D01*
X-10491000Y+6599504D01*
X-10490000Y+6597000D01*
X-10488698Y+6593408D01*
X-10488000Y+6590000D01*
X-10487000Y+6587000D01*
X-10487000Y+6512890D01*
X-10646000Y+6534000D02*
X-10603760Y+6534000D01*
X-10603760Y+6646000D01*
X-10646000Y+6646000D01*
X-10646000Y+6534000D01*
X-11396240Y+6534000D02*
X-11354000Y+6534000D01*
X-11354000Y+6646000D01*
X-11396240Y+6646000D01*
X-11396240Y+6534000D01*
D63*
X-14750000Y+11250000D02*
X-14747418Y+11301115D01*
X-14739840Y+11350755D01*
X-14727518Y+11398669D01*
X-14710702Y+11444605D01*
X-14689644Y+11488311D01*
X-14664597Y+11529536D01*
X-14635811Y+11568029D01*
X-14603538Y+11603538D01*
X-14568029Y+11635811D01*
X-14529536Y+11664597D01*
X-14488311Y+11689644D01*
X-14444605Y+11710702D01*
X-14398669Y+11727517D01*
X-14350755Y+11739840D01*
X-14301115Y+11747418D01*
X-14250000Y+11750000D01*
X-8500000Y+11750000D02*
X-8448885Y+11747418D01*
X-8399245Y+11739840D01*
X-8351331Y+11727517D01*
X-8305395Y+11710702D01*
X-8261689Y+11689644D01*
X-8220464Y+11664597D01*
X-8181971Y+11635811D01*
X-8146463Y+11603538D01*
X-8114190Y+11568029D01*
X-8085404Y+11529536D01*
X-8060356Y+11488311D01*
X-8039299Y+11444605D01*
X-8022483Y+11398669D01*
X-8010160Y+11350755D01*
X-8002582Y+11301115D01*
X-8000000Y+11250000D01*
X-8000000Y+6000000D02*
X-8002582Y+5948885D01*
X-8010160Y+5899245D01*
X-8022483Y+5851331D01*
X-8039299Y+5805395D01*
X-8060356Y+5761689D01*
X-8085404Y+5720464D01*
X-8114190Y+5681971D01*
X-8146463Y+5646463D01*
X-8181971Y+5614189D01*
X-8220464Y+5585403D01*
X-8261689Y+5560356D01*
X-8305395Y+5539298D01*
X-8351331Y+5522483D01*
X-8399245Y+5510160D01*
X-8448885Y+5502582D01*
X-8500000Y+5500000D01*
X-14250000Y+5500000D02*
X-14301115Y+5502582D01*
X-14350755Y+5510160D01*
X-14398669Y+5522483D01*
X-14444605Y+5539298D01*
X-14488311Y+5560356D01*
X-14529536Y+5585403D01*
X-14568029Y+5614189D01*
X-14603538Y+5646463D01*
X-14635811Y+5681971D01*
X-14664597Y+5720464D01*
X-14689644Y+5761689D01*
X-14710702Y+5805395D01*
X-14727518Y+5851331D01*
X-14739840Y+5899245D01*
X-14747418Y+5948885D01*
X-14750000Y+6000000D01*
X-14250000Y+11750000D02*
X-8500000Y+11750000D01*
X-8000000Y+11250000D02*
X-8000000Y+6000000D01*
X-8500000Y+5500000D02*
X-14250000Y+5500000D01*
X-14750000Y+6000000D02*
X-14750000Y+11250000D01*
M02*
